<svg enable-background="new 0 0 50 50" height="50" viewBox="0 0 50 50" width="50" xmlns="http://www.w3.org/2000/svg"><g fill="#2c3e4f"><path d="m14.927 33.562c-4.642 0-8.562-3.921-8.562-8.562 0-.552.448-1 1-1s1 .448 1 1c0 3.558 3.005 6.562 6.562 6.562 3.558 0 6.563-3.005 6.563-6.562 0-.552.448-1 1-1s1 .448 1 1c0 4.642-3.922 8.562-8.563 8.562z"/><path d="m22.491 26c-.355 0-.699-.189-.88-.523l-6.684-12.33-6.684 12.33c-.262.485-.871.667-1.355.402-.485-.263-.666-.87-.402-1.355l7.562-13.951c.35-.646 1.408-.646 1.758 0l7.563 13.951c.264.485.083 1.092-.402 1.355-.152.082-.316.121-.476.121z"/><path d="m15.296 30.183c-1.765 0-3.372-.899-4.297-2.405-.145-.235-.071-.543.165-.688.234-.147.542-.071.688.164.742 1.208 2.029 1.929 3.444 1.929.276 0 .5.224.5.5s-.223.5-.5.5z"/><path d="m32.573 38.562c-4.642 0-8.563-3.921-8.563-8.562 0-.553.448-1 1-1s1 .447 1 1c0 3.558 3.006 6.562 6.563 6.562s6.562-3.005 6.562-6.562c0-.553.447-1 1-1s1 .447 1 1c.001 4.642-3.92 8.562-8.562 8.562z"/><path d="m40.137 31c-.347 0-.684-.18-.868-.502l-7.562-13.167c-.275-.479-.109-1.09.369-1.365.48-.276 1.091-.109 1.365.369l7.562 13.167c.275.479.109 1.09-.369 1.365-.157.09-.328.133-.497.133z"/><path d="m25.009 31c-.169 0-.34-.043-.497-.133-.479-.275-.644-.887-.369-1.365l7.563-13.167c.273-.479.885-.646 1.365-.369.479.275.645.886.369 1.365l-7.563 13.167c-.185.322-.522.502-.868.502z"/><path d="m32.943 35.712c-1.767 0-3.373-.899-4.297-2.405-.145-.235-.071-.543.164-.688.236-.146.544-.07.688.164.741 1.208 2.029 1.929 3.445 1.929.276 0 .5.224.5.5s-.223.5-.5.5z"/><path d="m36.918 18.746c-.096 0-.192-.014-.289-.043l-24.617-7.437c-.529-.16-.828-.718-.668-1.246.16-.529.72-.829 1.246-.668l24.617 7.437c.529.16.828.718.668 1.246-.13.432-.527.711-.957.711z"/><path d="m22 26h-14c-.276 0-.5-.224-.5-.5s.224-.5.5-.5h14c.276 0 .5.224.5.5s-.224.5-.5.5z"/><path d="m40 31h-14c-.276 0-.5-.224-.5-.5s.224-.5.5-.5h14c.276 0 .5.224.5.5s-.224.5-.5.5z"/></g></svg>