<svg enable-background="new 0 0 50 50" height="50" viewBox="0 0 50 50" width="50" xmlns="http://www.w3.org/2000/svg"><g fill="#fff"><path d="m24.447 29c-.002 0-.047 0-.048 0-2.483 0-4.813-1.124-6.561-2.888-1.747-1.765-2.702-4.171-2.69-6.654.025-5.101 4.195-9.283 9.295-9.283 2.532.012 4.862.975 6.609 2.739s2.702 4.229 2.689 6.711c-.025 5.102-4.194 9.375-9.294 9.375zm.034-16.857c-4.041 0-7.313 3.257-7.333 7.26-.01 1.949.74 3.785 2.111 5.17s2.976 2.153 4.926 2.163l-.185 1v-1c4 0 7.498-3.256 7.518-7.259.01-1.949-.628-3.786-2-5.17-1.371-1.387-3.087-2.155-5.037-2.164z"/><path d="m36.615 38c-.001 0-.002 0-.004 0-.551 0-.611-.677-.611-1.229v-.265c0-1.723-.789-3.292-1.895-4.419-1.107-1.128-2.757-1.753-4.47-1.762l-9.925-.05c-1.695-.001-3.377.607-4.566 1.735-1.192 1.13-1.865 2.687-1.873 4.382l-.007.265c-.002.552-.577.983-1.137.994-.554-.003-1.127-.453-1.127-1.005v-.264c0-2.245 1.023-4.313 2.614-5.822 1.565-1.484 3.725-2.3 5.993-2.284l10.102.05c4.622.023 8.291 3.543 8.291 8.189v.264c0 .55-.834 1.221-1.385 1.221z"/></g></svg>