<svg enable-background="new 0 0 50 50" height="50" viewBox="0 0 50 50" width="50" xmlns="http://www.w3.org/2000/svg"><g fill="#fff"><path d="m24.999 40.528c-.475 0-.982-.031-1.457-.063-1.188-.159-2.074-1.033-2.224-2.132-.208-1.646-.277-2.193-.299-2.401-.049-.273-.297-.479-.582-.479-.173 0-.319.072-.41.134l-1.847 1.438c-.691.612-2.044.719-3.009-.028-.794-.629-1.51-1.345-2.135-2.134-.725-.881-.738-2.165-.018-3.039l1.426-1.874c.087-.111.128-.23.128-.36 0-.3-.212-.543-.504-.576l-2.368-.306c-1.107-.151-1.98-1.037-2.133-2.156-.102-1.007-.102-2.008-.004-3.01.101-1.114.997-2.039 2.129-2.194l2.364-.304c.289-.044.517-.302.517-.608 0-.105-.044-.223-.122-.321l-1.456-1.912c-.722-.875-.7-2.171.076-3.051.589-.747 1.305-1.462 2.092-2.086.835-.688 2.194-.715 3.041-.018l1.881 1.462c.032.018.178.091.352.091.288 0 .539-.21.583-.488l.297-2.382c.15-1.109 1.037-1.983 2.156-2.136 1.039-.105 2.015-.101 3.011-.005 1.159.158 2.045 1.032 2.193 2.13l.305 2.427c.05.237.292.453.578.453.093 0 .212-.038.361-.115l1.896-1.459c.794-.657 2.164-.663 3.029.049.773.613 1.489 1.328 2.112 2.116.725.878.738 2.163.02 3.038s-1.231 1.599-1.432 1.882c-.016.026-.033.051-.051.075-.046.062-.072.151-.072.247 0 .327.227.541.465.617.325.041 1.68.212 2.39.291 1.125.154 1.998 1.041 2.149 2.16.103 1.006.103 2.008.005 3.011-.156 1.155-1.029 2.042-2.129 2.192-.835.094-2.484.304-2.485.304-.188.042-.395.302-.395.578 0 .082.012.197.071.276.021.028.041.058.059.088.126.177.743.987 1.443 1.895.7.852.687 2.136-.052 3.03-.611.773-1.326 1.489-2.113 2.111-.777.693-2.235.722-3.062-.002l-1.914-1.47c-.023-.018-.13-.064-.296-.064-.286 0-.528.215-.59.523l-.291 2.346c-.15 1.108-1.036 1.983-2.156 2.136-.543.042-1.049.073-1.523.073zm-4.562-7.077c1.26 0 2.36.934 2.559 2.171.009.053.013.105.013.159.014.075.294 2.291.294 2.291.027.199.213.372.441.403.725.043 1.713.05 2.577-.007.159-.024.346-.197.374-.404l.301-2.407c.258-1.309 1.332-2.206 2.564-2.206.565 0 1.101.168 1.507.473l1.973 1.518c.166.138.397.112.509.015.708-.562 1.313-1.168 1.841-1.836.14-.169.152-.393.043-.526-.885-1.146-1.319-1.707-1.532-2.033l-.006.004c-.309-.411-.472-.922-.472-1.476 0-1.229.869-2.302 2.066-2.55.076-.013 1.748-.227 2.569-.317.183-.025.356-.212.388-.438.081-.835.081-1.703-.004-2.544-.027-.195-.201-.38-.409-.409-.796-.088-2.467-.301-2.467-.301-.039-.005-.078-.012-.116-.021-1.193-.297-2.027-1.355-2.027-2.572 0-.526.168-1.039.471-1.445l.009.006c.213-.324.643-.882 1.511-2.011.129-.158.116-.382-.01-.535-.541-.683-1.146-1.288-1.812-1.816-.151-.123-.323-.208-.524-.042l-1.99 1.532c-.039.03-.081.058-.125.082-1.795.993-3.606-.046-3.943-1.737l-.314-2.488c-.026-.198-.213-.371-.441-.402-.788-.075-1.706-.079-2.543.004-.192.027-.379.2-.407.408l-.3 2.406c-.205 1.272-1.305 2.206-2.564 2.206-.533 0-1.059-.162-1.521-.469l-1.964-1.523c-.263-.215-.405-.092-.532.013-.681.54-1.286 1.146-1.814 1.812-.156.179-.16.383-.042.525l1.473 1.933c.344.441.537.993.537 1.543 0 1.301-.941 2.391-2.239 2.59l-2.38.306c-.199.027-.382.206-.399.396-.085.878-.085 1.747-.001 2.589.027.192.2.379.409.407l2.348.302c1.285.148 2.263 1.251 2.263 2.562 0 .577-.188 1.124-.543 1.581l-1.444 1.896c-.133.162-.119.387.007.54.541.683 1.146 1.288 1.812 1.815.133.103.227.115.285.115.105 0 .191-.032.215-.054l1.951-1.518c.513-.353 1.04-.516 1.575-.516z"/><path d="m24.999 30.447c-2.991 0-5.424-2.434-5.424-5.424 0-2.991 2.433-5.424 5.424-5.424 2.99 0 5.423 2.433 5.423 5.424s-2.433 5.424-5.423 5.424zm0-9.847c-2.439 0-4.424 1.984-4.424 4.424s1.985 4.424 4.424 4.424c2.438 0 4.423-1.984 4.423-4.424s-1.984-4.424-4.423-4.424z"/></g></svg>