<svg enable-background="new 0 0 50 50" height="50" viewBox="0 0 50 50" width="50" xmlns="http://www.w3.org/2000/svg"><g fill="#0081d3"><path d="m33.322 36h-4.322c-.553 0-1-.447-1-1s.447-1 1-1h4.322c2.796 0 5.07-2.322 5.07-5.176 0-2.182-1.368-4.124-3.404-4.833-.264-.092-.478-.29-.589-.547-.11-.256-.109-.547.004-.803.341-.768.521-1.625.521-2.48 0-3.354-2.723-6.083-6.068-6.083-2.342 0-4.433 1.311-5.456 3.421-.116.239-.323.423-.575.509s-.527.069-.767-.048c-.522-.257-1.072-.387-1.633-.387-2.045 0-3.708 1.663-3.708 3.708 0 .373.055.741.165 1.094.09.292.042.61-.132.862s-.454.411-.759.431c-2.657.172-4.738 2.437-4.738 5.157 0 2.805 2.322 5.175 5.071 5.175h4.676c.552 0 1 .447 1 1s-.448 1-1 1h-4.677c-3.899 0-7.071-3.219-7.071-7.175 0-3.382 2.335-6.258 5.491-6.988-.018-.185-.027-.37-.027-.556 0-3.147 2.561-5.708 5.708-5.708.554 0 1.098.081 1.627.241 1.471-2.325 4.002-3.735 6.804-3.735 4.449 0 8.068 3.626 8.068 8.083 0 .792-.117 1.588-.344 2.344 2.315 1.207 3.812 3.633 3.812 6.318.002 3.957-3.17 7.176-7.069 7.176z"/><path d="m29.753 26.632c-.128 0-.256-.049-.354-.146l-4.024-4.025-4.024 4.025c-.195.195-.512.195-.707 0s-.195-.512 0-.707l4.378-4.378c.188-.188.52-.188.707 0l4.378 4.378c.195.195.195.512 0 .707-.098.097-.226.146-.354.146z"/><path d="m25.5 37.5c-.276 0-.5-.224-.5-.5v-15c0-.276.224-.5.5-.5s.5.224.5.5v15c0 .276-.224.5-.5.5z"/></g></svg>