<svg enable-background="new 0 0 50 50" height="50" viewBox="0 0 50 50" width="50" xmlns="http://www.w3.org/2000/svg"><g fill="#2c3e4f"><path d="m15.031 38.843c-4.521 0-8.198-3.678-8.198-8.198s3.677-8.198 8.198-8.198 8.198 3.677 8.198 8.198-3.678 8.198-8.198 8.198zm0-14.395c-3.417 0-6.197 2.78-6.197 6.197s2.78 6.196 6.197 6.196 6.197-2.779 6.197-6.196-2.78-6.197-6.197-6.197z"/><path d="m15.188 35.33c-2.67 0-4.843-2.173-4.843-4.843s2.173-4.843 4.843-4.843 4.843 2.173 4.843 4.843-2.172 4.843-4.843 4.843zm0-8.685c-2.119 0-3.843 1.724-3.843 3.843s1.724 3.843 3.843 3.843 3.843-1.724 3.843-3.843-1.723-3.843-3.843-3.843z"/><path d="m22.263 19.623c-.276 0-.5-.224-.5-.5 0-2.148-1.748-3.896-3.896-3.896-1.505 0-2.849.841-3.507 2.195-.121.249-.42.352-.668.231-.249-.121-.352-.42-.231-.668.814-1.676 2.544-2.759 4.406-2.759 2.7 0 4.896 2.196 4.896 4.896 0 .277-.223.501-.5.501z"/><path d="m22 31c-.552 0-1-.447-1-1v-15.028c0-1.265-.72-2.627-2.301-2.627-1.171 0-1.816.726-2.151 1.334l-7.585 14.843c-.251.491-.854.687-1.346.436-.492-.252-.687-.854-.436-1.346l7.6-14.871c.843-1.533 2.266-2.397 3.918-2.397 2.452 0 4.301 1.989 4.301 4.627v15.029c0 .553-.448 1-1 1z"/><path d="m35.239 38.843c-4.521 0-8.198-3.678-8.198-8.198s3.678-8.198 8.198-8.198 8.198 3.677 8.198 8.198-3.677 8.198-8.198 8.198zm0-14.395c-3.417 0-6.196 2.78-6.196 6.197s2.779 6.196 6.196 6.196 6.196-2.779 6.196-6.196-2.779-6.197-6.196-6.197z"/><path d="m35.082 35.33c-2.671 0-4.844-2.173-4.844-4.843s2.173-4.843 4.844-4.843c2.67 0 4.843 2.173 4.843 4.843s-2.173 4.843-4.843 4.843zm0-8.685c-2.119 0-3.844 1.724-3.844 3.843s1.725 3.843 3.844 3.843 3.843-1.724 3.843-3.843-1.724-3.843-3.843-3.843z"/><path d="m28.007 19.623c-.276 0-.5-.224-.5-.5 0-2.7 2.196-4.896 4.896-4.896 1.861 0 3.591 1.083 4.405 2.758.121.249.018.548-.23.668-.246.122-.547.018-.668-.231-.659-1.354-2.003-2.196-3.507-2.196-2.148 0-3.896 1.748-3.896 3.896 0 .277-.224.501-.5.501z"/><path d="m28 31c-.553 0-1-.447-1-1v-15.028c0-2.595 1.948-4.627 4.436-4.627 1.67 0 3.155.886 3.971 2.37l7.515 14.902c.249.493.051 1.095-.442 1.343-.494.25-1.095.05-1.343-.442l-7.498-14.871c-.45-.816-1.259-1.302-2.202-1.302-1.389 0-2.436 1.129-2.436 2.627v15.028c-.001.553-.448 1-1.001 1z"/><path d="m27 29h-5c-.552 0-1-.447-1-1s.448-1 1-1h5c.553 0 1 .447 1 1s-.447 1-1 1z"/><path d="m27 21h-5c-.552 0-1-.448-1-1s.448-1 1-1h5c.553 0 1 .448 1 1s-.447 1-1 1z"/></g></svg>