<svg enable-background="new 0 0 50 50" height="50" viewBox="0 0 50 50" width="50" xmlns="http://www.w3.org/2000/svg"><g fill="#fff"><path d="m24.295 31.726c-2.048 0-3.974-.798-5.422-2.246-1.449-1.448-2.246-3.373-2.246-5.422 0-2.048.797-3.975 2.246-5.423 1.448-1.448 3.374-2.246 5.422-2.246s3.974.798 5.422 2.246 2.246 3.375 2.246 5.423c0 2.049-.798 3.974-2.246 5.422s-3.373 2.246-5.422 2.246zm0-13.337c-1.514 0-2.938.59-4.008 1.66-1.071 1.071-1.66 2.495-1.66 4.009s.589 2.938 1.66 4.008 2.494 1.66 4.008 1.66 2.937-.59 4.008-1.66c1.07-1.07 1.66-2.494 1.66-4.008s-.59-2.938-1.66-4.009c-1.07-1.07-2.493-1.66-4.008-1.66z"/><path d="m21.697 27.156c-.128 0-.256-.049-.354-.146-1.627-1.628-1.627-4.277 0-5.904.195-.195.512-.195.707 0s.195.512 0 .707c-1.238 1.238-1.238 3.252 0 4.49.195.195.195.512 0 .707-.097.097-.225.146-.353.146z"/><path d="m33.427 33.716c-.256 0-.512-.098-.707-.293l-4.156-4.156c-.391-.391-.391-1.023 0-1.414s1.023-.391 1.414 0l4.156 4.156c.391.391.391 1.023 0 1.414-.196.195-.451.293-.707.293z"/></g></svg>