<svg enable-background="new 0 0 50 50" height="50" viewBox="0 0 50 50" width="50" xmlns="http://www.w3.org/2000/svg"><g fill="#0081d3"><path d="m30.667 30.833c-.128 0-.256-.049-.354-.146l-10.667-10.667c-.195-.195-.195-.512 0-.707s.512-.195.707 0l10.667 10.667c.195.195.195.512 0 .707-.097.097-.225.146-.353.146z"/><path d="m20 30.833c-.128 0-.256-.049-.354-.146-.195-.195-.195-.512 0-.707l10.667-10.667c.195-.195.512-.195.707 0s.195.512 0 .707l-10.666 10.667c-.098.097-.226.146-.354.146z"/></g></svg>