<svg enable-background="new 0 0 50 50" height="50" viewBox="0 0 50 50" width="50" xmlns="http://www.w3.org/2000/svg"><g fill="#fff"><path d="m28.055 32h-6.819c-1.784 0-3.236-1.451-3.236-3.235v-6.819c0-1.707 1.361-2.946 3.236-2.946h3.764c.276 0 .5.224.5.5s-.224.5-.5.5h-3.764c-1.077 0-2.236.609-2.236 1.945v6.819c0 1.233 1.003 2.236 2.236 2.236h6.819c1.337 0 1.945-1.159 1.945-2.235v-2.765c0-.276.224-.5.5-.5s.5.224.5.5v2.765c0 1.875-1.238 3.235-2.945 3.235z"/><path d="m23.611 27.524c-.136 0-.269-.056-.365-.158-.129-.139-.169-.338-.104-.516l.979-2.635c.025-.067.064-.128.115-.179l5.872-5.871c.094-.094.221-.146.354-.146.133 0 .26.053.354.146l1.806 1.807c.195.195.195.512 0 .707l-5.871 5.871c-.059.059-.131.102-.211.126l-2.785.828c-.048.014-.097.02-.144.02zm1.409-2.857-.592 1.593 1.704-.507 5.428-5.427-1.099-1.1z"/></g></svg>