<svg enable-background="new 0 0 50 50" height="50" viewBox="0 0 50 50" width="50" xmlns="http://www.w3.org/2000/svg"><g fill="#595e7a"><path d="m32.708 48h-15.416c-2.918 0-5.292-2.374-5.292-5.292v-35.416c0-2.918 2.374-5.292 5.292-5.292h15.416c2.918 0 5.292 2.374 5.292 5.292v35.416c0 2.918-2.374 5.292-5.292 5.292zm-15.416-44c-1.815 0-3.292 1.477-3.292 3.292v35.416c0 1.815 1.477 3.292 3.292 3.292h15.416c1.815 0 3.292-1.477 3.292-3.292v-35.416c0-1.815-1.477-3.292-3.292-3.292z"/><path d="m25.103 44.042c-1.522 0-2.761-1.238-2.761-2.761s1.238-2.761 2.761-2.761 2.761 1.238 2.761 2.761-1.239 2.761-2.761 2.761zm0-4.521c-.971 0-1.761.79-1.761 1.761s.79 1.761 1.761 1.761 1.761-.79 1.761-1.761-.791-1.761-1.761-1.761z"/><path d="m27 9h-4c-.276 0-.5-.224-.5-.5s.224-.5.5-.5h4c.276 0 .5.224.5.5s-.224.5-.5.5z"/></g></svg>