<svg enable-background="new 0 0 50 50" height="50" viewBox="0 0 50 50" width="50" xmlns="http://www.w3.org/2000/svg"><g fill="#fff"><path d="m30.268 33h-9.842c-2.176 0-4.426-1.31-4.426-3.502v-6.202c0-2.128 2.233-4.296 4.425-4.296h.973l.698-1.437c.168-.344.517-.563.9-.563h4.886c.4 0 .763.239.92.608l.594 1.392h.872c2.066 0 4.732 2.083 4.732 4.296v6.202c0 2.163-2.456 3.502-4.732 3.502zm-9.843-12c-1.088 0-2.425 1.266-2.425 2.296v6.202c0 .981 1.409 1.502 2.425 1.502h9.842c1.238 0 2.733-.67 2.733-1.502v-6.202c0-.965-1.583-2.296-2.732-2.296h-1.533c-.4 0-.763-.239-.92-.608l-.594-1.392h-3.599l-.698 1.437c-.168.344-.517.563-.9.563z"/><path d="m25.495 29.481c-1.939 0-3.518-1.578-3.518-3.518s1.578-3.518 3.518-3.518 3.518 1.578 3.518 3.518-1.578 3.518-3.518 3.518zm0-6.035c-1.388 0-2.518 1.129-2.518 2.518s1.129 2.518 2.518 2.518 2.518-1.129 2.518-2.518c0-1.388-1.129-2.518-2.518-2.518z"/></g></svg>