<svg enable-background="new 0 0 50 50" height="50" viewBox="0 0 50 50" width="50" xmlns="http://www.w3.org/2000/svg"><g fill="#2c3e4f"><path d="m36.712 35h-22.424c-2.364 0-4.288-1.924-4.288-4.288v-12.424c0-2.364 1.924-4.288 4.288-4.288h22.424c2.364 0 4.288 1.924 4.288 4.288v12.424c0 2.364-1.924 4.288-4.288 4.288zm-22.424-19c-1.262 0-2.288 1.026-2.288 2.288v12.424c0 1.262 1.026 2.288 2.288 2.288h22.424c1.262 0 2.288-1.026 2.288-2.288v-12.424c0-1.262-1.026-2.288-2.288-2.288z"/><path d="m40 21h-29c-.276 0-.5-.224-.5-.5s.224-.5.5-.5h29c.276 0 .5.224.5.5s-.224.5-.5.5z"/><path d="m33 29h-5c-.276 0-.5-.224-.5-.5s.224-.5.5-.5h5c.276 0 .5.224.5.5s-.224.5-.5.5z"/></g></svg>