<svg enable-background="new 0 0 50 50" height="50" viewBox="0 0 50 50" width="50" xmlns="http://www.w3.org/2000/svg"><g fill="#fff"><path d="m25.758 31.726c-2.048 0-3.974-.798-5.422-2.246-1.449-1.448-2.246-3.373-2.246-5.422 0-2.048.797-3.975 2.246-5.423 1.448-1.448 3.374-2.246 5.422-2.246s3.974.798 5.422 2.246 2.246 3.375 2.246 5.423c0 2.049-.798 3.974-2.246 5.422s-3.373 2.246-5.422 2.246zm0-13.337c-1.514 0-2.938.59-4.008 1.66-1.071 1.071-1.66 2.495-1.66 4.009s.589 2.938 1.66 4.008 2.494 1.66 4.008 1.66 2.937-.59 4.008-1.66c1.07-1.07 1.66-2.494 1.66-4.008s-.59-2.938-1.66-4.009c-1.07-1.07-2.494-1.66-4.008-1.66z"/><path d="m18.108 32.233c-.256 0-.512-.098-.707-.293-.391-.391-.391-1.023 0-1.414l2.675-2.674c.391-.391 1.024-.391 1.414 0 .391.391.391 1.023 0 1.414l-2.675 2.674c-.195.196-.451.293-.707.293z"/><path d="m28 25h-5c-.276 0-.5-.224-.5-.5s.224-.5.5-.5h5c.276 0 .5.224.5.5s-.224.5-.5.5z"/><path d="m25.5 27.5c-.276 0-.5-.224-.5-.5v-5c0-.276.224-.5.5-.5s.5.224.5.5v5c0 .276-.224.5-.5.5z"/></g></svg>