<svg enable-background="new 0 0 50 50" height="50" viewBox="0 0 50 50" width="50" xmlns="http://www.w3.org/2000/svg"><g fill="#fff"><path d="m24.389 27.261c-2.967 0-5.38-2.414-5.38-5.38s2.414-5.38 5.38-5.38 5.38 2.414 5.38 5.38-2.414 5.38-5.38 5.38zm0-8.761c-1.864 0-3.38 1.517-3.38 3.38s1.517 3.38 3.38 3.38 3.38-1.517 3.38-3.38-1.516-3.38-3.38-3.38z"/><path d="m31 32c-.553 0-1-.447-1-1v-.14c0-1.604-1.271-2.86-2.893-2.86h-5.215c-1.621 0-2.892 1.257-2.892 2.86v.14c0 .553-.448 1-1 1s-1-.447-1-1v-.14c0-2.726 2.149-4.86 4.893-4.86h5.215c2.743 0 4.892 2.135 4.892 4.86v.14c0 .553-.447 1-1 1z"/></g></svg>