<svg enable-background="new -1.042 -1.067 87 57" height="57" viewBox="-1.042 -1.067 87 57" width="87" xmlns="http://www.w3.org/2000/svg"><g fill="#009cff"><path d="m33.324 44.631c-5.961 0-11.565-2.321-15.78-6.536-8.701-8.701-8.701-22.858 0-31.559 4.214-4.215 9.818-6.536 15.78-6.536 5.96 0 11.564 2.321 15.779 6.536 8.701 8.701 8.701 22.857 0 31.559-4.215 4.215-9.818 6.536-15.779 6.536zm0-42.631c-5.427 0-10.528 2.113-14.366 5.95-7.921 7.921-7.921 20.81 0 28.73 3.837 3.837 8.939 5.95 14.366 5.95 5.426 0 10.527-2.113 14.365-5.95 7.92-7.921 7.92-20.81 0-28.73-3.836-3.836-8.939-5.95-14.365-5.95z"/><path d="m41.629 31.123c-.128 0-.256-.049-.354-.146-.194-.195-.194-.512 0-.707 2.125-2.124 3.295-4.949 3.295-7.953s-1.17-5.828-3.295-7.953c-.194-.195-.194-.512 0-.707.195-.195.513-.195.707 0 2.313 2.313 3.588 5.389 3.588 8.66s-1.273 6.348-3.588 8.66c-.097.097-.225.146-.353.146z"/><path d="m1 54.125c-.256 0-.512-.098-.707-.293-.391-.391-.391-1.022 0-1.414l16.42-16.42c.391-.391 1.023-.391 1.414 0 .391.392.391 1.023 0 1.414l-16.42 16.42c-.194.196-.451.293-.707.293z"/><path d="m76.458 12.433h-16c-.553 0-1-.448-1-1s.447-1 1-1h16c.553 0 1 .448 1 1s-.447 1-1 1z"/><path d="m83.458 22.433h-21c-.553 0-1-.448-1-1s.447-1 1-1h21c.553 0 1 .448 1 1s-.447 1-1 1z"/><path d="m76.458 33.433h-16c-.553 0-1-.447-1-1s.447-1 1-1h16c.553 0 1 .447 1 1s-.447 1-1 1z"/></g></svg>