<svg enable-background="new -1.249 -1.027 61 66" height="66" viewBox="-1.249 -1.027 61 66" width="61" xmlns="http://www.w3.org/2000/svg"><g fill="#009cff"><path d="m53.19 64.219h-47.295c-3.25 0-5.895-2.644-5.895-5.896v-37.49c0-3.25 2.644-5.895 5.895-5.895h47.295c3.25 0 5.895 2.644 5.895 5.895v37.492c0 3.25-2.645 5.894-5.895 5.894zm-47.295-47.28c-2.147 0-3.894 1.747-3.894 3.894v37.492c0 2.146 1.747 3.894 3.894 3.894h47.295c2.146 0 3.893-1.746 3.893-3.894v-37.492c0-2.147-1.746-3.894-3.893-3.894z"/><path d="m29.001 16.939c-9.61 0-15.88-1.73-18.635-5.143-1.522-1.884-1.422-3.686-1.352-4.208-.008-.58.076-3.096 1.967-5.096 1.563-1.653 3.894-2.491 6.927-2.491 4.111 0 7.27 1.277 9.387 3.795 3.963 4.713 2.746 12.007 2.692 12.315-.084.479-.5.828-.986.828zm-11.093-14.938c-2.461 0-4.303.627-5.473 1.865-1.495 1.582-1.42 3.707-1.419 3.728.005.09-.002.179-.021.267-.006.038-.22 1.303.983 2.746 1.604 1.922 5.71 4.204 16.138 4.326.175-1.917.295-6.708-2.358-9.856-1.72-2.041-4.361-3.076-7.85-3.076z"/><path d="m30.084 16.939c-.486 0-.902-.35-.986-.829-.054-.308-1.271-7.602 2.692-12.315 2.117-2.518 5.275-3.795 9.387-3.795 3.034 0 5.364.838 6.928 2.491 1.893 2 1.976 4.517 1.969 5.096.068.521.17 2.325-1.354 4.209-2.755 3.413-9.026 5.143-18.636 5.143zm11.093-14.938c-3.492 0-6.136 1.037-7.854 3.082-2.657 3.16-2.531 7.938-2.354 9.85 10.524-.123 14.618-2.44 16.195-4.393 1.155-1.432.931-2.667.928-2.679-.019-.088-.024-.177-.021-.267 0-.017.08-2.158-1.438-3.746-1.171-1.225-3.006-1.847-5.456-1.847z"/><path d="m29.543 64.219c-.553 0-1-.448-1-1.001v-47.279c0-.553.448-1 1-1s1 .448 1 1v47.279c0 .553-.448 1.001-1 1.001z"/><path d="m58.084 40.579h-57.083c-.553 0-1-.447-1-1 0-.554.448-1.002 1-1.002h57.083c.553 0 1.001.448 1.001 1.002 0 .552-.448 1-1.001 1z"/></g></svg>