<svg enable-background="new -0.809 -0.564 62 52" height="52" viewBox="-.809 -.564 62 52" width="62" xmlns="http://www.w3.org/2000/svg"><g fill="#009cff"><path d="m28.326 50.874c-1.591 0-3.074-.655-4.179-1.85l-19.459-21.025c-3-3.06-4.671-7.133-4.688-11.453-.017-4.396 1.683-8.54 4.788-11.668 3.104-3.128 7.234-4.86 11.63-4.876h.064c4.783 0 9.319 2.07 12.455 5.686.361.417.316 1.05-.1 1.412-.417.362-1.05.317-1.412-.1-2.755-3.177-6.741-4.996-10.944-4.996-.019 0-.038 0-.056 0-3.86.014-7.489 1.536-10.216 4.284s-4.222 6.389-4.207 10.25c.014 3.795 1.483 7.375 4.135 10.08l19.479 21.047c.721.778 1.684 1.207 2.71 1.207h.021c.551 0 .998.444 1 .996.002.553-.443 1.002-.996 1.006-.008 0-.016 0-.025 0z"/><path d="m8.941 17.936c-.275 0-.499-.061-.5-.336-.009-2.452.937-4.485 2.665-6.226 1.727-1.741 4.028-2.438 6.481-2.438h.002c.275 0 .499.028.5.303.001.276-.222.404-.498.405-2.185.008-4.236.818-5.776 2.369-1.539 1.551-2.382 3.422-2.374 5.607 0 .277-.223.316-.5.316z"/><path d="m28.369 50.874c-.009 0-.018 0-.026 0-.553-.002-.999-.453-.996-1.006.002-.551.45-.996 1-.996h.021c1.026 0 1.988-.428 2.709-1.207l19.46-21.024c2.409-2.458 3.864-5.671 4.115-9.068.023-.34.038-.685.039-1.031.002-.552.449-.998 1.001-.998h.003c.553.001.999.451.998 1.003-.001.393-.018.784-.045 1.172-.286 3.87-1.941 7.527-4.663 10.302l-19.439 21.003c-1.105 1.193-2.588 1.85-4.177 1.85zm.143-43.531c-.232 0-.466-.081-.655-.245-.417-.362-.462-.994-.1-1.412 3.136-3.615 7.673-5.686 12.455-5.686h.063c3.298.012 6.479.999 9.199 2.854.457.311.573.934.264 1.39-.313.457-.937.574-1.391.263-2.39-1.629-5.185-2.496-8.08-2.506-.019 0-.037 0-.056 0-4.203 0-8.188 1.818-10.944 4.996-.197.23-.475.346-.755.346z"/><path d="m47.446 16.261c-.266 0-.521-.105-.708-.293l-5.426-5.426c-.391-.391-.391-1.024 0-1.415.393-.391 1.023-.391 1.416 0l4.718 4.719 11.702-11.703c.393-.391 1.023-.391 1.416 0 .391.391.391 1.024 0 1.415l-12.41 12.41c-.19.187-.442.293-.708.293z"/></g></svg>