<svg enable-background="new -0.4663 -1.5 41 72" height="72" viewBox="-.4663 -1.5 41 72" width="41" xmlns="http://www.w3.org/2000/svg"><g fill="#ebeaed"><path d="m39.1167 70c-.0049 0-.0127 0-.0205 0h-9.3135c-.4697 0-.876-.3281-.9775-.7861-.0196-.0928-2.0948-9.2139-8.4307-9.2139h-.6514c-6.3364 0-8.4116 9.1211-8.4316 9.2129-.0996.459-.5068.7871-.9756.7871h-9.3154c-.3589 0-.6899-.1914-.8687-.5049-.1782-.3115-.1753-.6943.0078-1.0039l8.394-14.2031v-6.2881c0-.5527.4482-1 1-1h5v-12c0-.5518.4468-1 .999-1 .7295-2.6089 3.1904-12.894 3.1904-33 0-.5518.4473-1 1-1h.6514c.5518 0 1 .4482 1 1 0 20.106 2.459 30.3911 3.1885 33h.9707c.5527 0 1 .4482 1 1v12h3c.5527 0 1 .4473 1 1v6.2607l9.3027 14.0459c.1738.1797.2803.4238.2803.6934.0001.5527-.4462 1-.9999 1zm-8.5596-2h6.6777l-8.5352-12.8867c-.1074-.1631-.166-.3555-.166-.5508v-5.5625h-3c-.5527 0-1-.4473-1-1v-12h-.7129c-.4277 0-.8066-.2715-.9453-.6738-.1016-.2964-1.8389-5.4741-2.8262-17.084-.9883 11.6099-2.7256 16.7891-2.8281 17.084-.1094.3203-.3711.5566-.6875.6406v12.0332c0 .5527-.4482 1-1 1h-5v5.5625c0 .1787-.0479.3535-.1392.5078l-7.6405 12.9297h6.7876c.7134-2.502 3.416-10 10.1816-10h.6523c6.7657 0 9.4688 7.498 10.1817 10z"/><path d="m25.5337 49h-10c-.2759 0-.5-.2246-.5-.5s.2241-.5.5-.5h10c.2754 0 .5.2246.5.5s-.2246.5-.5.5z"/><path d="m29.5337 54h-20c-.2759 0-.5-.2246-.5-.5s.2241-.5.5-.5h20c.2754 0 .5.2246.5.5s-.2246.5-.5.5z"/><path d="m25.5337 42h-10c-.2759 0-.5-.2246-.5-.5s.2241-.5.5-.5h10c.2754 0 .5.2246.5.5s-.2246.5-.5.5z"/><path d="m25.5337 36h-10c-.2759 0-.5-.2246-.5-.5 0-.2759.2241-.5.5-.5h10c.2754 0 .5.2241.5.5 0 .2754-.2246.5-.5.5z"/></g></svg>