<svg enable-background="new -0.7529 -0.4009 56 42" height="42" viewBox="-.7529 -.4009 56 42" width="56" xmlns="http://www.w3.org/2000/svg"><g fill="#ebeaed"><path d="m42.541 41.0991h-30.6089c-6.58 0-11.9321-5.3476-11.9321-11.9209 0-5.8604 4.2979-10.811 9.981-11.749-.0947-.54-.1421-1.0879-.1421-1.6392 0-5.2271 4.252-9.479 9.479-9.479 1.1284 0 2.229.1992 3.2832.5923 2.4468-4.2822 6.9233-6.9033 11.8989-6.9033 7.5693 0 13.7275 6.1582 13.7275 13.728 0 1.5742-.2666 3.1123-.793 4.5879 4.252 1.9111 7.041 6.1533 7.041 10.8623-.0019 6.5733-5.3544 11.9209-11.9345 11.9209zm-23.2241-32.7881c-4.124 0-7.479 3.355-7.479 7.479 0 .751.1123 1.4941.332 2.208.0903.292.042.6099-.1318.8618-.1738.2524-.4531.4111-.7588.4312-5.2041.3379-9.2803 4.6821-9.2803 9.8872 0 5.4707 4.4561 9.9209 9.9331 9.9209h30.6089c5.4775 0 9.9326-4.4502 9.9326-9.9209 0-4.209-2.6797-7.9697-6.668-9.3604-.2637-.0918-.4775-.2896-.5879-.5459-.1113-.2559-.1094-.5469.0039-.8027.666-1.5073 1.0059-3.103 1.0059-4.7412 0-6.4668-5.2617-11.728-11.7285-11.728-4.5234 0-8.564 2.5381-10.5459 6.624-.1162.2393-.3232.4233-.5752.5093-.2529.0859-.5269.0679-.7671-.0483-1.042-.5137-2.1508-.774-3.2939-.774z"/><path d="m16.8511 24.77c-.2759 0-.5-.2236-.5-.5 0-4.4951 3.6567-8.1519 8.1519-8.1519.2764 0 .5.2241.5.5s-.2236.5-.5.5c-3.9438 0-7.1519 3.208-7.1519 7.1519 0 .2764-.2241.5-.5.5z"/></g></svg>