<svg enable-background="new 0 0 50 50" height="50" viewBox="0 0 50 50" width="50" xmlns="http://www.w3.org/2000/svg"><g fill="#fff"><path d="m41.473 40.502h-27.795c-2.081 0-3.773-1.692-3.773-3.773v-12.136c0-2.081 1.693-3.773 3.773-3.773h27.795c2.081 0 3.773 1.693 3.773 3.773v1.465c0 .553-.447 1-1 1h-1.838c-.087 0-.157.07-.157.156v6.892c0 .086.07.156.157.156h1.838c.553 0 1 .447 1 1v1.466c0 2.082-1.692 3.774-3.773 3.774zm-27.795-17.682c-.978 0-1.773.795-1.773 1.773v12.135c0 .978.795 1.773 1.773 1.773h27.795c.978 0 1.773-.796 1.773-1.773v-.466h-.838c-1.189 0-2.157-.968-2.157-2.156v-6.892c0-1.188.968-2.156 2.157-2.156h.838v-.465c0-.978-.796-1.773-1.773-1.773z"/><path d="m16.295 39.746c-.276 0-.5-.224-.5-.5v-17.17c0-.276.224-.5.5-.5s.5.224.5.5v17.17c0 .276-.224.5-.5.5z"/><path d="m31.28 34.669c-.08 0-.159-.019-.232-.058l-2.375-1.248-2.374 1.248c-.168.089-.372.075-.526-.038-.154-.111-.231-.301-.199-.489l.454-2.644-1.921-1.872c-.136-.133-.185-.332-.126-.513.059-.182.215-.313.404-.341l2.655-.386 1.187-2.405c.168-.342.729-.342.896 0l1.188 2.405 2.655.386c.188.027.345.159.403.341.059.181.01.38-.127.513l-1.921 1.872.454 2.644c.032.188-.045.378-.199.489-.089.064-.192.096-.296.096zm-2.607-2.37c.08 0 .16.02.232.058l1.711.898-.327-1.904c-.027-.163.026-.328.145-.443l1.384-1.349-1.913-.277c-.162-.024-.304-.126-.376-.273l-.855-1.732-.854 1.732c-.072.147-.214.249-.376.273l-1.913.277 1.383 1.349c.118.115.172.28.145.443l-.327 1.904 1.71-.898c.071-.039.151-.058.231-.058z"/><path d="m10.828 38.001c-.133 0-.268-.026-.397-.083-.916-.397-1.626-1.127-1.999-2.055l-4.515-11.264c-.375-.936-.363-1.961.033-2.888s1.13-1.644 2.066-2.019l25.799-10.341c1.932-.772 4.133.167 4.906 2.098l.546 1.361c.099.246.095.521-.01.765s-.301.436-.547.535l-1.706.683c-.08.032-.119.124-.087.205l2.563 6.396c.206.513-.043 1.095-.556 1.3-.512.204-1.095-.043-1.3-.556l-2.564-6.396c-.442-1.104.096-2.362 1.199-2.805l.778-.312-.174-.433c-.364-.907-1.398-1.348-2.306-.985l-25.797 10.341c-.44.176-.785.513-.971.949s-.191.917-.015 1.357l4.515 11.264c.175.436.508.779.938.966.507.22.739.809.52 1.315-.164.377-.533.602-.919.602z"/><path d="m10.771 24.706c-.193 0-.378-.113-.459-.302l-1.859-4.321c-.109-.254.008-.548.262-.657.254-.108.548.008.657.262l1.859 4.321c.109.254-.008.548-.262.657-.065.026-.132.04-.198.04z"/></g></svg>