<svg enable-background="new -1.027 -1.968 61 58" height="58" viewBox="-1.027 -1.968 61 58" width="61" xmlns="http://www.w3.org/2000/svg"><path d="m27.507 27.018c0 4.328-3.53 7.859-7.859 7.859s-7.859-3.531-7.859-7.859 3.531-7.859 7.859-7.859 7.859 3.53 7.859 7.859zm23.578 15.718c0 2.149-1.75 3.931-3.931 3.931-2.148 0-3.93-1.75-3.93-3.931 0-2.149 1.781-3.931 3.93-3.931 2.151.002 3.931 1.781 3.931 3.931zm0-31.437c0 2.149-1.75 3.93-3.931 3.93-2.148 0-3.93-1.75-3.93-3.93 0-2.149 1.781-3.93 3.93-3.93 2.151.001 3.931 1.781 3.931 3.93zm-11.789 12.925c0-.43-.307-.829-.737-.921l-4.666-.706c-.276-.86-.646-1.688-1.045-2.517.86-1.197 1.781-2.302 2.672-3.5.123-.184.215-.368.215-.583 0-.86-3.623-4.175-4.422-4.912-.184-.154-.398-.246-.645-.246-.215 0-.43.061-.613.215l-3.624 2.732c-.737-.368-1.504-.706-2.302-.952l-.706-4.697c-.061-.43-.491-.768-.921-.768h-5.71c-.43 0-.798.307-.921.737-.399 1.504-.553 3.193-.706 4.728-.829.276-1.596.583-2.364.982l-3.53-2.762c-.184-.123-.399-.215-.644-.215-.89 0-4.329 3.715-4.943 4.544-.153.184-.215.399-.215.614s.092.43.215.614c.982 1.167 1.903 2.302 2.763 3.531-.399.767-.737 1.535-.982 2.333l-4.759.737c-.399.06-.706.521-.706.92v5.68c0 .43.307.829.737.89l4.666.737c.276.86.645 1.688 1.075 2.517-.89 1.197-1.811 2.334-2.702 3.5-.123.185-.215.368-.215.584 0 .889 3.623 4.174 4.421 4.911.184.154.399.246.645.246.215 0 .461-.062.614-.215l3.623-2.731c.737.367 1.504.705 2.302.951l.706 4.697c.061.43.491.768.921.768h5.71c.43 0 .798-.307.921-.736.399-1.504.553-3.193.706-4.758.829-.246 1.596-.554 2.364-.953l3.531 2.764c.184.123.398.215.645.215.891 0 4.329-3.745 4.943-4.574.152-.152.215-.367.215-.582 0-.246-.092-.431-.215-.615-.983-1.166-1.903-2.303-2.764-3.53.399-.767.737-1.535.982-2.333l4.759-.737c.399-.061.706-.522.706-.921zm19.647 16.362c0-.459-3.959-.89-4.573-.951-.246-.553-.554-1.105-.921-1.596.275-.615 1.566-3.685 1.566-4.238 0-.061-.031-.153-.123-.215-.369-.215-3.653-2.148-3.808-2.148l-.184.061c-1.043 1.045-1.965 2.241-2.823 3.438-.308-.031-.614-.062-.921-.062s-.614.031-.922.062c-.307-.46-2.609-3.5-3.008-3.5-.154 0-3.438 1.965-3.808 2.149-.092.061-.123.152-.123.215 0 .521 1.289 3.623 1.565 4.236-.367.491-.674 1.045-.92 1.596-.614.062-4.574.492-4.574.953v4.297c0 .461 3.96.891 4.574.953.246.582.553 1.104.92 1.596-.275.613-1.565 3.715-1.565 4.236 0 .062.031.153.123.215.368.216 3.653 2.181 3.808 2.181.398 0 2.701-3.07 3.008-3.531.308.031.615.062.922.062s.613-.031.921-.062c.307.46 2.61 3.531 3.009 3.531.153 0 3.438-1.965 3.807-2.181.092-.061.123-.123.123-.215 0-.553-1.289-3.623-1.565-4.236.368-.491.675-1.014.921-1.596.613-.062 4.574-.492 4.574-.953v-4.297zm0-31.436c0-.461-3.959-.89-4.573-.952-.246-.553-.554-1.105-.921-1.596.275-.614 1.566-3.684 1.566-4.237 0-.061-.031-.154-.123-.215-.369-.215-3.653-2.149-3.808-2.149l-.184.061c-1.043 1.044-1.965 2.241-2.823 3.438-.308-.031-.614-.061-.921-.061s-.614.031-.922.061c-.306-.46-2.609-3.5-3.007-3.5-.154 0-3.438 1.965-3.808 2.149-.092.061-.123.154-.123.215 0 .522 1.289 3.623 1.565 4.237-.367.491-.674 1.044-.92 1.596-.614.061-4.574.491-4.574.952v4.298c0 .46 3.96.89 4.574.952.246.583.553 1.105.92 1.596-.275.614-1.565 3.715-1.565 4.237 0 .061.031.153.123.215.368.215 3.653 2.18 3.808 2.18.398 0 2.701-3.07 3.008-3.531.308.031.615.061.922.061s.613-.031.921-.061c.307.461 2.61 3.531 3.009 3.531.153 0 3.438-1.965 3.807-2.18.092-.061.123-.123.123-.215 0-.553-1.289-3.623-1.565-4.237.368-.491.675-1.013.921-1.596.613-.061 4.574-.491 4.574-.952v-4.297z" fill="#089fff"/></svg>