<svg enable-background="new 0 0 50 50" height="50" viewBox="0 0 50 50" width="50" xmlns="http://www.w3.org/2000/svg"><g fill="#fff"><path d="m10.158 33.938c-.224 0-.441-.075-.618-.214-3.958-3.107-6.972-7.565-7.098-7.754-.179-.266-.219-.602-.108-.903s.359-.53.668-.617l3.743-1.047c.296-.083.615-.024.864.159l3.988 2.949 4.273-1.957-7.281-5.241c-.262-.188-.417-.491-.416-.814.001-.322.157-.625.419-.812l3.943-2.811c.262-.186.595-.236.9-.133l16.507 5.572c1.398-.67 6.28-2.867 10.206-2.867.524 0 1.022.04 1.478.118 1.478.253 3.479.765 3.807 2.268.304 1.399-1.144 2.432-1.31 2.544-14.986 10.693-33.159 11.529-33.925 11.56-.013 0-.027 0-.04 0zm-5.234-7.948c1.085 1.437 3.144 3.962 5.559 5.928 2.647-.177 19.13-1.644 32.499-11.18.193-.135.399-.351.472-.483-.132-.12-.619-.453-2.162-.718-.345-.059-.728-.089-1.14-.089-4.06 0-9.627 2.809-9.683 2.837-.238.123-.519.142-.772.056l-16.413-5.54-2.391 1.704 7.543 5.431c.289.208.445.554.411.909s-.255.664-.579.812l-6.373 2.918c-.332.149-.718.111-1.011-.105l-4.069-3.009z"/><path d="m21.25 28.889c-.961 0-1.744-.782-1.744-1.744s.782-1.744 1.744-1.744 1.744.782 1.744 1.744-.782 1.744-1.744 1.744zm0-2.488c-.41 0-.744.333-.744.743s.333.744.744.744.744-.334.744-.744-.334-.743-.744-.743z"/><path d="m27.508 26.759c-.961 0-1.743-.782-1.743-1.744s.782-1.744 1.743-1.744c.962 0 1.744.782 1.744 1.744s-.782 1.744-1.744 1.744zm0-2.488c-.41 0-.743.334-.743.744s.333.744.743.744.744-.334.744-.744-.334-.744-.744-.744z"/></g></svg>