<svg enable-background="new 0 0 50 50" height="50" viewBox="0 0 50 50" width="50" xmlns="http://www.w3.org/2000/svg"><g fill="#2c3e4f"><path d="m24.248 36.438c-.859 0-1.658-.354-2.25-.999l-8.476-9.228c-1.398-1.436-2.18-3.36-2.18-5.397 0-4.285 3.486-7.771 7.771-7.771 1.903 0 3.724.695 5.133 1.936 1.409-1.241 3.23-1.936 5.135-1.936 4.285 0 7.772 3.486 7.772 7.772 0 2.037-.783 3.963-2.205 5.423l-8.451 9.201c-.591.645-1.39.999-2.249.999zm-5.134-21.394c-3.182 0-5.77 2.589-5.77 5.771 0 1.512.58 2.941 1.632 4.022l8.496 9.249c.422.459 1.129.46 1.553-.001l8.471-9.222c1.076-1.105 1.657-2.535 1.657-4.047 0-3.182-2.589-5.771-5.771-5.771-1.685 0-3.279.731-4.376 2.007-.19.221-.467.348-.758.348-.292 0-.568-.127-.758-.348-1.098-1.276-2.693-2.008-4.376-2.008z"/><path d="m15.814 21.86c-.276 0-.5-.224-.5-.5 0-2.369 1.928-4.296 4.297-4.296.276 0 .5.224.5.5s-.224.5-.5.5c-1.818 0-3.297 1.479-3.297 3.296 0 .277-.224.5-.5.5z"/></g></svg>