<svg enable-background="new 0 0 50 50" height="50" viewBox="0 0 50 50" width="50" xmlns="http://www.w3.org/2000/svg"><g fill="#595e7a"><path d="m36.852 35h-24.704c-2.287 0-4.148-1.861-4.148-4.148v-13.704c0-2.287 1.861-4.148 4.148-4.148h24.704c2.287 0 4.148 1.861 4.148 4.148v13.704c0 2.287-1.861 4.148-4.148 4.148zm-24.704-20c-1.185 0-2.148.963-2.148 2.148v13.704c0 1.184.963 2.148 2.148 2.148h24.704c1.184 0 2.148-.964 2.148-2.148v-13.704c0-1.185-.964-2.148-2.148-2.148z"/><path d="m24.987 28.696c-1.464 0-2.926-.551-4.038-1.653l-11.387-11.337c-.195-.195-.196-.512-.001-.708.195-.194.511-.196.708-.001l11.385 11.336c1.841 1.828 4.851 1.82 6.703-.021l11.386-11.316c.195-.195.512-.194.707.002.194.196.193.513-.002.707l-11.386 11.317c-1.125 1.117-2.602 1.674-4.075 1.674z"/><path d="m9.916 32.795c-.128 0-.257-.049-.354-.147-.195-.196-.194-.513.002-.707l8.391-8.342c.196-.196.513-.194.707.002.195.196.194.512-.002.707l-8.391 8.342c-.099.096-.226.145-.353.145z"/><path d="m40.095 32.795c-.128 0-.255-.049-.353-.146l-8.142-8.107c-.196-.195-.196-.512-.002-.708.195-.195.512-.196.707-.001l8.142 8.107c.196.195.196.512.002.707-.097.099-.226.148-.354.148z"/><path d="m20.49 22.314c-.128 0-.256-.049-.354-.146l-4.625-4.625c-.195-.195-.195-.512 0-.707s.512-.195.707 0l4.625 4.625c.195.195.195.512 0 .707-.097.098-.225.146-.353.146z"/></g></svg>