<svg viewBox="0 0 50 49.99864" xmlns="http://www.w3.org/2000/svg"><path d="m24.08575 25.82359a.98275.98275 0 0 0 -.05872-.191c-.007-.01447-.006-.03046-.01373-.04474l-6.38715-11.78221 10.23773 3.04047a.99988.99988 0 1 0 .56934-1.917l-12.54456-3.72558c-.02655-.00781-.05176-.01758-.07886-.02338l-2.5797-.76615a.99988.99988 0 1 0 -.56934 1.917l1.42584.42346-6.9566 12.83335c-.00775.01428-.00671.03027-.01373.04474a2.01753 2.01753 0 0 0 -.098.3855c-.00079.01624-.00934.02991-.00934.04633a8.67686 8.67686 0 0 0 8.5625 8.5625 8.67728 8.67728 0 0 0 8.563-8.5625c0-.01642-.00854-.03009-.00934-.04633a.97962.97962 0 0 0 -.03934-.19446zm-2.08862.24078h-12.85096l6.42523-11.853zm-6.42572 6.5625a6.66212 6.66212 0 0 1 -6.47424-5.5625h12.949a6.66228 6.66228 0 0 1 -6.47477 5.5625z"/><path d="m15.941 30.24748a4.0151 4.0151 0 0 1 -3.44434-1.92969.5002.5002 0 0 0 -.85254.52344 5.00985 5.00985 0 0 0 4.29688 2.40625.5.5 0 0 0 0-1z"/><path d="m41.76885 31.00724a1.658 1.658 0 0 0 -.10211-.38409c-.00879-.01776-.00824-.03741-.01819-.05487l-4.41162-7.72559a.99991.99991 0 1 0 -1.73633.99219l4.1284 7.22949h-12.82377l4.9693-8.74707a1.00021 1.00021 0 0 0 -1.73926-.98828l-5.25 9.24121c-.00989.01746-.00928.037-.018.05481a1.69376 1.69376 0 0 0 -.10107.38354c-.00116.01953-.01129.036-.01129.05579a8.56274 8.56274 0 0 0 17.12549 0c-.00001-.02026-.0104-.03717-.01155-.05713zm-8.551 6.61963a6.66228 6.66228 0 0 1 -6.47473-5.5625h12.949a6.66212 6.66212 0 0 1 -6.47423 5.5625z"/><path d="m33.58752 35.77628a4.01573 4.01573 0 0 1 -3.44434-1.9292.5002.5002 0 0 0 -.85254.52344 5.00987 5.00987 0 0 0 4.29688 2.40576.5.5 0 0 0 0-1z"/></svg>