<svg fill="#595e7a" height="50" viewBox="10 4 30 40" width="60" xmlns="http://www.w3.org/2000/svg"><path d="m14.18262 29.69938a4.66712 4.66712 0 0 1 -4.00293-2.24219.5002.5002 0 0 0 -.85254.52344 5.66187 5.66187 0 0 0 4.85547 2.71875.5.5 0 0 0 0-1z"/><path d="m44.7395 30.64341a1.79049 1.79049 0 0 0 -.1-.38452c-.00812-.0166-.00726-.03485-.01642-.05121l-7.64585-13.68768.83917.24921a.99988.99988 0 0 0 .56934-1.917l-23.08209-6.8551a1.06084 1.06084 0 0 0 -.19537-.058l-2.92468-.86859a.99988.99988 0 0 0 -.56934 1.917l1.79694.53369-8.03864 14.69428c-.0083.01514-.00732.032-.01477.04742a1.9543 1.9543 0 0 0 -.09814.38483c-.00085.01672-.00964.03082-.00964.04773a9.55084 9.55084 0 0 0 9.65381 9.65381 9.55084 9.55084 0 0 0 9.65381-9.65381c0-.01691-.00879-.031-.00964-.04773a1.9543 1.9543 0 0 0 -.09814-.38483c-.00745-.01538-.00647-.03229-.01477-.04742l-7.45953-13.6358 16.775 4.982-8.18115 14.646c-.00916.01636-.0083.03461-.01642.05121a1.79049 1.79049 0 0 0 -.1.38452c-.001.01819-.0105.03363-.0105.05206a9.65381 9.65381 0 0 0 19.30762 0c-.0001-.01848-.00962-.03388-.0106-.05207zm-29.83569-19.68329 7.51379 13.73535h-15.0276zm0 21.38916a7.45478 7.45478 0 0 1 -7.58771-6.65381h15.17542a7.45478 7.45478 0 0 1 -7.58771 6.65381zm27.70068-1.65381h-15.0166l7.5083-13.44141zm-7.5083 7.65381a7.45478 7.45478 0 0 1 -7.58771-6.65381h15.17542a7.45478 7.45478 0 0 1 -7.58771 6.65381z"/><path d="m34.375 36.026a4.66652 4.66652 0 0 1 -4.00293-2.24219.5002.5002 0 1 0 -.85254.52344 5.66127 5.66127 0 0 0 4.85547 2.71875.5.5 0 0 0 0-1z"/></svg>