<svg fill="#595e7a" height="50" viewBox="10 10 30 30" width="60" xmlns="http://www.w3.org/2000/svg"><path d="m41.08929 16.37933a.49362.49362 0 0 0 -.14008-.38147.482.482 0 0 0 -.10571-.07074 4.13968 4.13968 0 0 0 -3.49146-1.9278h-24.70409a4.15275 4.15275 0 0 0 -4.14795 4.14795v13.7041a4.15275 4.15275 0 0 0 4.14795 4.14795h24.7041a4.15275 4.15275 0 0 0 4.14795-4.14795v-13.7041a4.10106 4.10106 0 0 0 -.41071-1.76794zm-8.28363 8.45349c-.00641-.00641-.01508-.00836-.02173-.01434l6.7157-6.6748.00037.0036v13.351zm4.54639-8.8335a2.14127 2.14127 0 0 1 1.83411 1.04614l-10.32923 10.26636a4.77063 4.77063 0 0 1 -6.70312.02051l-10.87381-10.82721a2.12733 2.12733 0 0 1 1.368-.5058zm-26.85205 15.85205v-13.7041a2.13645 2.13645 0 0 1 .17017-.83734l7.55139 7.51868-7.63556 7.59118a2.11914 2.11914 0 0 1 -.086-.56842zm26.85205 2.14795h-24.7041a2.13686 2.13686 0 0 1 -1.55463-.674l7.83685-7.79126 2.51855 2.50769a5.7749 5.7749 0 0 0 8.11279-.02051l2.52081-2.50543c.00708.008.00958.01831.01727.02594l7.21191 7.18079a2.148 2.148 0 0 1 -1.95945 1.27678z"/><path d="m20.63672 23.16729a.49995.49995 0 0 0 .707-.707l-4.625-4.625a.49995.49995 0 0 0 -.707.707z"/></svg>