<svg fill="#595e7a" viewBox="0 0 50 49.99864" xmlns="http://www.w3.org/2000/svg"><path d="m40.5 22.99932a1 1 0 0 0 -1 1v8.4989l-6.69434-6.66541c-.00641-.00641-.01514-.00836-.02179-.01434l2.81525-2.79816a.49995.49995 0 1 0 -.70508-.709l-6.03711 6.00049a4.77018 4.77018 0 0 1 -6.70312.02051l-10.87381-10.82719a2.12733 2.12733 0 0 1 1.368-.5058h19.852a1 1 0 0 0 0-2h-19.85205a4.15275 4.15275 0 0 0 -4.14795 4.14795v13.7041a4.15275 4.15275 0 0 0 4.14795 4.14795h24.7041a4.15275 4.15275 0 0 0 4.14795-4.14795v-8.85205a1 1 0 0 0 -1-1zm-30 9.85205v-13.7041a2.13645 2.13645 0 0 1 .17017-.83734l7.55139 7.51868-7.63556 7.59118a2.11914 2.11914 0 0 1 -.086-.56842zm26.85205 2.14795h-24.7041a2.13686 2.13686 0 0 1 -1.55463-.674l7.83685-7.79126 2.51855 2.50769a5.7749 5.7749 0 0 0 8.11279-.02051l2.52075-2.50549c.00708.008.00964.01831.01733.026l7.21191 7.18079a2.148 2.148 0 0 1 -1.95945 1.27678z"/><path d="m16.01172 18.83526a.49982.49982 0 0 0 0 .707l4.625 4.625a.49995.49995 0 0 0 .707-.707l-4.625-4.625a.49982.49982 0 0 0 -.707 0z"/></svg>