<svg fill="#595e7a" height="50" viewBox="10 11 30 30" width="50" xmlns="http://www.w3.org/2000/svg"><path d="m35.6272 16.89117a7.77023 7.77023 0 0 0 -10.62842-.34277 7.77173 7.77173 0 0 0 -10.72461 11.2329l8.4751 9.22754a3.03578 3.03578 0 0 0 4.50049 0l8.45117-9.20166a7.76654 7.76654 0 0 0 -.07373-10.916zm-1.37988 9.541-8.47119 9.22266a1.0476 1.0476 0 0 1 -1.55273.00049l-8.49561-9.24854a5.7709 5.7709 0 1 1 8.51321-7.78563 1.00032 1.00032 0 0 0 .7583.34766h.00049a.99913.99913 0 0 0 .7583-.34814 5.77139 5.77139 0 1 1 8.48926 7.81152z"/><path d="m20.36206 18.63335a4.30154 4.30154 0 0 0 -4.29687 4.29639.5.5 0 0 0 1 0 3.30023 3.30023 0 0 1 3.29688-3.29639.5.5 0 0 0 0-1z"/></svg>