<svg viewBox="0 0 50 49.99864" xmlns="http://www.w3.org/2000/svg"><path d="m37.03316 23.6983a1.00216 1.00216 0 0 0 -1.30371.55078 5.77925 5.77925 0 0 1 -1.23437 1.87256l-8.47119 9.22266a1.0476 1.0476 0 0 1 -1.55273.00049l-8.49561-9.24854a5.7709 5.7709 0 1 1 8.51318-7.78564 1.00032 1.00032 0 0 0 .7583.34766h.00049a.99913.99913 0 0 0 .7583-.34814 5.76365 5.76365 0 0 1 4.376-2.00684 1.00049 1.00049 0 0 0 0-2.001 7.76394 7.76394 0 0 0 -5.13525 1.93555 7.77173 7.77173 0 0 0 -10.72464 11.23292l8.47507 9.22754a3.03578 3.03578 0 0 0 4.50049 0l8.45068-9.20117a7.72912 7.72912 0 0 0 1.63577-2.49513 1.00093 1.00093 0 0 0 -.55078-1.3037z"/><path d="m16.31294 22.61919a.5.5 0 0 0 1 0 3.30023 3.30023 0 0 1 3.29688-3.29639.5.5 0 0 0 0-1 4.30154 4.30154 0 0 0 -4.29688 4.29639z"/></svg>