<?xml version="1.0" standalone="no"?>
<!DOCTYPE svg PUBLIC "-//W3C//DTD SVG 1.1//EN" "http://www.w3.org/Graphics/SVG/1.1/DTD/svg11.dtd" >
<svg xmlns="http://www.w3.org/2000/svg" xmlns:xlink="http://www.w3.org/1999/xlink" version="1.1">
<metadata>
Created by FontForge 20161013 at Wed Jul 10 00:27:00 2013
 By ,,,
Copyright (c) 2012 by TipografiaRamis. All rights reserved.
</metadata>
<defs>
<font id="UltimaPro-BoldItalic" horiz-adv-x="600" >
  <font-face 
    font-family="Ultima Pro"
    font-weight="700"
    font-style="italic"
    font-stretch="normal"
    units-per-em="1000"
    panose-1="2 0 0 0 0 0 0 0 0 0"
    ascent="750"
    descent="-250"
    x-height="500"
    cap-height="700"
    bbox="-147 -343 1372 975"
    underline-thickness="50"
    underline-position="-200"
    unicode-range="U+0020-FB14"
  />
<missing-glyph horiz-adv-x="250" 
 />
    <glyph glyph-name="fi" unicode="fi" horiz-adv-x="655" 
d="M271 382l-105 -545q-6 -29 -26 -48t-53 -19q-23 0 -37 15t-14 35q0 4 2 18l105 544h-31q-22 0 -35.5 14t-13.5 37q0 27 22 47t50 20h31l21 110q12 64 53.5 102t108.5 38h42q25 0 39.5 -13.5t14.5 -35.5q0 -29 -22 -49t-50 -20h-32q-10 0 -17 -7t-9 -16l-21 -109h266
q23 0 37.5 -14t14.5 -36q0 -4 -2 -18l-54 -284q-3 -18 -3 -23q0 -18 19 -19q22 -2 35.5 -15t13.5 -35q0 -27 -23 -46.5t-60 -19.5q-48 0 -81.5 31.5t-33.5 84.5q0 18 4 40l45 236h-201zM506 617q0 35 28 64t66 29q28 0 46.5 -18t18.5 -45q0 -36 -29.5 -64.5t-65.5 -28.5
q-28 0 -46 18t-18 45z" />
    <glyph glyph-name="fl" unicode="fl" horiz-adv-x="663" 
d="M166 500l21 110q12 64 53.5 102t108.5 38h270q23 0 37.5 -14.5t14.5 -36.5q0 -4 -2 -18l-104 -533q-3 -18 -3 -23q0 -18 19 -19q22 -2 35.5 -15t13.5 -35q0 -27 -23 -46.5t-60 -19.5q-48 0 -81.5 31.5t-33.5 84.5q0 18 4 40l96 491h-185q-11 0 -20.5 -8.5t-11.5 -19.5
l-21 -109h69q22 0 35 -13.5t13 -36.5q0 -29 -21.5 -48.5t-49.5 -19.5h-69l-105 -545q-6 -29 -26 -48t-53 -19q-23 0 -37 15t-14 35q0 4 2 18l105 544h-30q-22 0 -35.5 14t-13.5 37q0 27 22 47t50 20h30z" />
    <glyph glyph-name="f_f" unicode="ff" horiz-adv-x="732" 
d="M271 382l-105 -545q-6 -29 -26 -48t-53 -19q-23 0 -37 15t-14 35q0 4 2 18l105 544h-31q-22 0 -35.5 14t-13.5 37q0 27 22 47t50 20h31l21 110q12 64 53.5 102t108.5 38h42q25 0 39.5 -13.5t14.5 -35.5q0 -29 -22 -49t-50 -20h-32q-10 0 -17 -7t-9 -16l-21 -109h69
q22 0 35 -13.5t13 -36.5q0 -29 -21.5 -48.5t-49.5 -19.5h-69zM637 382l-105 -545q-6 -29 -26 -48t-53 -19q-23 0 -37 15t-14 35q0 4 2 18l105 544h-31q-22 0 -35.5 14t-13.5 37q0 27 22 47t50 20h31l21 110q12 64 53.5 102t108.5 38h42q25 0 39.5 -13.5t14.5 -35.5
q0 -29 -22 -49t-50 -20h-32q-10 0 -17 -7t-9 -16l-21 -109h69q22 0 35 -13.5t13 -36.5q0 -29 -21.5 -48.5t-49.5 -19.5h-69z" />
    <glyph glyph-name="f_f_i" unicode="ffi" horiz-adv-x="1043" 
d="M271 382l-105 -545q-6 -29 -26 -48t-53 -19q-23 0 -37 15t-14 35q0 4 2 18l105 544h-31q-22 0 -35.5 14t-13.5 37q0 27 22 47t50 20h31l21 110q12 64 53.5 102t108.5 38h42q25 0 39.5 -13.5t14.5 -35.5q0 -29 -22 -49t-50 -20h-32q-10 0 -17 -7t-9 -16l-21 -109h69
q22 0 35 -13.5t13 -36.5q0 -29 -21.5 -48.5t-49.5 -19.5h-69zM637 382l-105 -545q-6 -29 -26 -48t-53 -19q-23 0 -37 15t-14 35q0 4 2 18l105 544h-31q-22 0 -35.5 14t-13.5 37q0 27 22 47t50 20h31l21 110q12 64 53.5 102t108.5 38h42q25 0 39.5 -13.5t14.5 -35.5
q0 -29 -22 -49t-50 -20h-32q-10 0 -17 -7t-9 -16l-21 -109h69q22 0 35 -13.5t13 -36.5q0 -29 -21.5 -48.5t-49.5 -19.5h-69zM884 617q0 35 28 64t66 29q28 0 46.5 -18t18.5 -45q0 -36 -29.5 -64.5t-65.5 -28.5q-28 0 -46 18t-18 45zM805 146l56 292q5 27 26 45.5t51 18.5
q23 0 37.5 -15t14.5 -37q0 -4 -2 -18l-54 -284q-3 -18 -3 -23q0 -18 19 -19q22 -2 35.5 -15t13.5 -35q0 -27 -23 -46.5t-60 -19.5q-48 0 -81.5 31.5t-33.5 84.5q0 18 4 40z" />
    <glyph glyph-name="f_f_l" unicode="ffl" horiz-adv-x="1043" 
d="M271 382l-105 -545q-6 -29 -26 -48t-53 -19q-23 0 -37 15t-14 35q0 4 2 18l105 544h-31q-22 0 -35.5 14t-13.5 37q0 27 22 47t50 20h31l21 110q12 64 53.5 102t108.5 38h42q25 0 39.5 -13.5t14.5 -35.5q0 -29 -22 -49t-50 -20h-32q-10 0 -17 -7t-9 -16l-21 -109h69
q22 0 35 -13.5t13 -36.5q0 -29 -21.5 -48.5t-49.5 -19.5h-69zM637 382l-105 -545q-6 -29 -26 -48t-53 -19q-23 0 -37 15t-14 35q0 4 2 18l105 544h-31q-22 0 -35.5 14t-13.5 37q0 27 22 47t50 20h31l21 110q12 64 53.5 102t108.5 38h42q25 0 39.5 -13.5t14.5 -35.5
q0 -29 -22 -49t-50 -20h-32q-10 0 -17 -7t-9 -16l-21 -109h69q22 0 35 -13.5t13 -36.5q0 -29 -21.5 -48.5t-49.5 -19.5h-69zM805 146l106 541q6 27 26.5 45.5t50.5 18.5q23 0 37.5 -15t14.5 -37q0 -4 -2 -18l-104 -533q-3 -18 -3 -23q0 -18 19 -19q22 -2 35.5 -15t13.5 -35
q0 -27 -23 -46.5t-60 -19.5q-48 0 -81.5 31.5t-33.5 84.5q0 18 4 40z" />
    <glyph glyph-name=".notdef" horiz-adv-x="250" 
 />
    <glyph glyph-name=".null" horiz-adv-x="0" 
 />
    <glyph glyph-name="nonmarkingreturn" horiz-adv-x="333" 
 />
    <glyph glyph-name="space" unicode=" " horiz-adv-x="250" 
 />
    <glyph glyph-name="exclam" unicode="!" horiz-adv-x="316" 
d="M184 645q5 27 26.5 46t50.5 19q24 0 39 -15.5t15 -37.5q0 -7 -2 -17l-73 -375q-5 -27 -26.5 -46t-51.5 -19q-24 0 -38.5 15t-14.5 37q0 8 2 18zM58 53q0 36 28 64.5t66 28.5q28 0 46 -18.5t18 -45.5q0 -36 -29 -64t-65 -28q-28 0 -46 18t-18 45z" />
    <glyph glyph-name="quotedbl" unicode="&#x22;" horiz-adv-x="552" 
d="M286 711q23 0 38.5 -15.5t15.5 -37.5q0 -23 -17 -45l-119 -154q-24 -32 -62 -32q-24 0 -38.5 14.5t-14.5 36.5q0 24 16 46l118 154q25 33 63 33zM519 711q23 0 38.5 -15.5t15.5 -37.5q0 -23 -17 -45l-119 -154q-24 -32 -61 -32q-24 0 -38.5 14.5t-14.5 36.5q0 24 16 46
l118 154q25 33 62 33z" />
    <glyph glyph-name="numbersign" unicode="#" 
d="M127 500h53l25 132q4 24 23.5 39.5t44.5 15.5q26 0 43.5 -16.5t17.5 -41.5q0 -12 -2 -21l-22 -108h103l25 132q4 24 23.5 39.5t44.5 15.5q26 0 43 -17t17 -43q0 -10 -2 -19l-22 -108h36q25 0 42 -17t17 -40q0 -27 -19.5 -46t-45.5 -19h-52l-17 -90h36q24 0 41.5 -17.5
t17.5 -40.5q0 -26 -20 -44.5t-45 -18.5h-54l-25 -123q-4 -23 -24.5 -39t-42.5 -16q-26 0 -43.5 18t-17.5 42q0 10 2 21l21 97h-102l-24 -123q-4 -23 -24.5 -39t-43.5 -16q-26 0 -43.5 17.5t-17.5 42.5q0 10 2 21l21 97h-36q-25 0 -41 16.5t-16 40.5q0 26 18 45t45 19h53
l17 90h-36q-25 0 -42 16.5t-17 41.5q0 26 19 45t46 19zM288 378l-17 -90h101l17 90h-101z" />
    <glyph glyph-name="dollar" unicode="$" 
d="M468 753l-10 -53h99q25 0 40 -13t15 -35q0 -31 -24 -51.5t-55 -20.5h-212q-34 0 -59 -26t-25 -53q0 -29 33.5 -49t81 -33.5t95.5 -31.5t81.5 -55t33.5 -91q0 -100 -73.5 -170t-166.5 -70l-11 -55q-5 -23 -25.5 -40.5t-43.5 -17.5q-21 0 -34.5 13.5t-13.5 33.5q0 7 1 11
l11 54h-124q-25 0 -40.5 13t-15.5 35q0 31 24 51.5t55 20.5h202q50 0 85 27t35 67q0 31 -32.5 51t-79.5 33t-93.5 30t-79 52.5t-32.5 89.5q0 93 66 161.5t166 68.5l10 53q5 23 25 40t44 17q20 0 34 -13.5t14 -33.5q0 -7 -1 -10z" />
    <glyph glyph-name="percent" unicode="%" horiz-adv-x="871" 
d="M175 71l500 611q23 28 55 28q20 0 32.5 -13.5t12.5 -32.5q0 -18 -14 -35l-499 -611q-24 -28 -55 -28q-20 0 -32.5 12.5t-12.5 31.5q0 21 13 37zM129 523q0 74 55.5 130.5t134.5 56.5q58 0 98 -39.5t40 -96.5q0 -76 -57 -131t-133 -55q-59 0 -98.5 39.5t-39.5 95.5z
M305 608q-27 0 -49.5 -21t-22.5 -50q0 -20 13.5 -33.5t34.5 -13.5q27 0 49.5 21.5t22.5 49.5q0 20 -13.5 33.5t-34.5 13.5zM485 125q0 74 55.5 130.5t134.5 56.5q58 0 98 -39.5t40 -96.5q0 -76 -57 -131t-133 -55q-59 0 -98.5 39.5t-39.5 95.5zM661 210q-27 0 -49.5 -21
t-22.5 -50q0 -20 13.5 -33.5t34.5 -13.5q27 0 49.5 21.5t22.5 49.5q0 20 -13.5 33.5t-34.5 13.5z" />
    <glyph glyph-name="ampersand" unicode="&#x26;" horiz-adv-x="671" 
d="M379 593q-41 0 -69 -24.5t-28 -55.5q0 -22 12.5 -37t33.5 -19q54 -10 54 -55q0 -25 -21 -44t-56 -20q-46 -1 -82.5 -39t-36.5 -90q0 -40 29.5 -69.5t80.5 -29.5q43 0 82 29t49 67q-35 13 -35 47q0 28 22 48.5t50 20.5h153q23 0 37.5 -13.5t14.5 -34.5q0 -27 -23 -48.5
t-52 -21.5h-36q-22 -90 -99.5 -152t-173.5 -62q-99 0 -164 59.5t-65 151.5q0 42 13 78.5t31 59.5t36.5 40t31.5 24l13 7q-32 39 -32 94q0 85 69.5 145.5t173.5 60.5q72 0 126.5 -28t54.5 -74q0 -32 -20.5 -50.5t-47.5 -18.5q-22 0 -35 10q-5 4 -18 15.5t-19.5 15.5t-21 8.5
t-32.5 4.5z" />
    <glyph glyph-name="quotesingle" unicode="'" horiz-adv-x="319" 
d="M286 711q23 0 38.5 -15.5t15.5 -37.5q0 -23 -17 -45l-119 -154q-24 -32 -62 -32q-24 0 -38.5 14.5t-14.5 36.5q0 24 16 46l118 154q25 33 63 33z" />
    <glyph glyph-name="parenleft" unicode="(" horiz-adv-x="367" 
d="M272 -81q0 -28 -21 -50t-50 -22q-40 0 -57 37q-52 109 -52 262q0 298 197 543q39 47 77 47q24 0 41.5 -15t17.5 -38q0 -19 -23 -49q-177 -229 -177 -460q0 -125 42 -226q5 -15 5 -29z" />
    <glyph glyph-name="parenright" unicode=")" horiz-adv-x="367" 
d="M150 664q0 28 21 50t50 22q40 0 57 -37q52 -109 52 -262q0 -298 -197 -543q-39 -47 -77 -47q-24 0 -41.5 15t-17.5 38q0 19 23 49q177 229 177 460q0 125 -42 226q-5 15 -5 29z" />
    <glyph glyph-name="asterisk" unicode="*" horiz-adv-x="486" 
d="M438 619q20 0 33 -13.5t13 -32.5q0 -26 -14.5 -43.5t-37.5 -23.5l-53 -16l22 -43q5 -12 5 -21q0 -28 -20.5 -49t-49.5 -21q-26 0 -40 24l-25 44l-38 -43q-22 -24 -51 -24q-21 0 -34.5 13.5t-13.5 32.5q0 21 20 44l38 44l-47 16q-30 10 -30 41q0 28 19 48t45 20
q15 0 22 -3l46 -16l12 56q5 25 25 41t44 16q22 0 35.5 -12.5t13.5 -33.5q0 -7 -1 -11l-11 -53l55 17q8 2 18 2z" />
    <glyph glyph-name="plus" unicode="+" horiz-adv-x="615" 
d="M153 310h130l27 134q5 23 23.5 39t42.5 16q23 0 38 -13t15 -34q0 -8 -1 -12l-26 -130h128q22 0 36 -13.5t14 -34.5q0 -29 -20.5 -48.5t-48.5 -19.5h-132l-26 -133q-5 -25 -24 -41t-43 -16q-23 0 -37.5 13t-14.5 35q0 7 1 11l26 131h-129q-22 0 -35.5 13.5t-13.5 33.5
q0 29 20.5 49t49.5 20z" />
    <glyph glyph-name="comma" unicode="," horiz-adv-x="293" 
d="M80 53q0 36 29 64.5t66 28.5q27 0 47.5 -17.5t20.5 -61.5q0 -103 -62.5 -171.5t-113.5 -68.5q-18 0 -29.5 10.5t-11.5 27.5q0 19 14 34.5t31.5 24.5t34.5 27t22 41q-22 5 -35 22t-13 39z" />
    <glyph glyph-name="hyphen" unicode="-" horiz-adv-x="445" 
d="M339 194h-205q-23 0 -37 14.5t-14 35.5q0 27 20.5 46.5t51.5 19.5h204q23 0 37 -15t14 -36q0 -27 -20.5 -46t-50.5 -19z" />
    <glyph glyph-name="period" unicode="." horiz-adv-x="276" 
d="M65 53q0 36 28 64.5t66 28.5q28 0 46 -18.5t18 -45.5q0 -36 -29 -64t-65 -28q-28 0 -46 18t-18 45z" />
    <glyph glyph-name="slash" unicode="/" horiz-adv-x="349" 
d="M432 623l-336 -592q-23 -41 -69 -41q-24 0 -37.5 15t-13.5 37q0 17 11 37l333 589q24 42 69 42q24 0 38 -16t14 -37q0 -14 -9 -34z" />
    <glyph glyph-name="zero" unicode="0" 
d="M60 254l40 202q23 114 100 184t201 70q95 0 153.5 -59t58.5 -152q0 -23 -5 -53l-40 -202q-23 -114 -100 -184t-201 -70q-95 0 -153.5 59t-58.5 152q0 23 5 53zM227 451l-40 -202q-4 -24 -4 -41q0 -43 27.5 -72t75.5 -29q60 0 101.5 39t53.5 103l40 202q4 24 4 41
q0 43 -27.5 72t-75.5 29q-60 0 -101.5 -39t-53.5 -103z" />
    <glyph glyph-name="one" unicode="1" 
d="M493 0h-417q-23 0 -36.5 13.5t-13.5 35.5q0 27 20.5 47t49.5 20h148l91 468h-85q-22 0 -35.5 13.5t-13.5 35.5q0 27 22 47t54 20h141q26 0 41 -14.5t15 -36.5q0 -8 -2 -18l-100 -515h141q23 0 36.5 -14t13.5 -36q0 -28 -21 -47t-49 -19z" />
    <glyph glyph-name="two" unicode="2" 
d="M80 138l291 258q74 66 74 118q0 33 -22 56t-62 23q-67 0 -108 -69q-27 -45 -41.5 -58t-42.5 -13q-25 0 -36.5 15.5t-11.5 33.5q0 34 35 82q91 126 229 126q91 0 141 -51.5t50 -123.5q0 -115 -120 -217l-234 -201h243q25 0 39.5 -13t14.5 -34q0 -30 -21 -50t-54 -20h-345
q-27 0 -44.5 16.5t-17.5 41.5q0 43 43 80z" />
    <glyph glyph-name="three" unicode="3" 
d="M398 710q86 0 137 -47.5t51 -107.5q0 -108 -113 -175q85 -48 85 -141q0 -107 -85 -178t-206 -71q-98 0 -158 54t-60 107q0 29 17.5 51.5t49.5 22.5q19 0 35 -12.5t22 -30.5q27 -75 110 -75q51 0 95 35t44 86q0 37 -28.5 59t-70.5 22q-23 0 -38 12t-15 34q0 27 20.5 46
t51.5 24q46 7 79 35t33 70q0 30 -21.5 47t-56.5 17q-78 0 -118 -62q-25 -38 -61 -38q-24 0 -37.5 15.5t-13.5 34.5q0 51 69 108.5t183 57.5z" />
    <glyph glyph-name="four" unicode="4" 
d="M513 159h-32l-21 -105q-6 -27 -26 -45.5t-50 -18.5q-23 0 -38 15t-15 37q0 8 2 16l20 101h-252q-30 0 -48.5 18t-18.5 44q0 34 30 69l319 376q29 34 60 34h79q23 0 38 -15t15 -37q0 -7 -1 -11l-70 -360h32q21 0 34.5 -14t13.5 -34q0 -28 -22 -49t-49 -21zM196 277h180
l54 277z" />
    <glyph glyph-name="five" unicode="5" 
d="M265 108q68 0 111.5 46.5t43.5 104.5q0 45 -32.5 69.5t-70.5 24.5q-39 0 -79 -9.5t-55 -9.5q-22 0 -34.5 14.5t-12.5 32.5q0 6 5 25l69 231q8 26 28.5 44.5t46.5 18.5h259q24 0 39.5 -14t15.5 -35q0 -31 -23.5 -50t-54.5 -19h-203l-38 -124q34 10 75 10q79 0 137.5 -51
t58.5 -142q0 -117 -83 -201t-219 -84q-58 0 -103.5 18.5t-69.5 37.5q-23 20 -23 47q0 29 21 50t56 21q20 0 37.5 -14t40.5 -28t57 -14z" />
    <glyph glyph-name="six" unicode="6" 
d="M272 -10q-93 0 -153 54t-60 154q0 99 44 196.5t109 165t138.5 109t133.5 41.5q23 0 37.5 -14t14.5 -37q0 -28 -19 -48t-43 -26q-53 -13 -111 -50.5t-96 -95.5q46 25 105 25q88 0 140 -57t52 -140q0 -118 -85.5 -197.5t-206.5 -79.5zM334 355q-60 0 -106.5 -43.5
t-46.5 -102.5q0 -43 30 -72.5t75 -29.5q61 0 106.5 43.5t45.5 107.5q0 42 -27 69.5t-77 27.5z" />
    <glyph glyph-name="seven" unicode="7" 
d="M608 580l-353 -550q-26 -40 -68 -40q-24 0 -39 15t-15 37q0 19 13 39l324 501h-271q-24 0 -38 13.5t-14 36.5q0 27 21.5 47.5t52.5 20.5h348q31 0 47 -15.5t16 -40.5t-24 -64z" />
    <glyph glyph-name="eight" unicode="8" 
d="M288 107q54 0 96.5 34t42.5 85q0 37 -28.5 60t-70.5 23q-53 0 -96 -33t-43 -83q0 -38 28.5 -62t70.5 -24zM405 710q88 0 137 -48t49 -119q0 -31 -11.5 -59t-28.5 -46t-33.5 -32t-27.5 -20l-12 -6l9 -6t20.5 -17.5t26 -29.5t20.5 -42t9 -55q0 -102 -83.5 -171t-204.5 -69
q-101 0 -162.5 51t-61.5 136q0 39 16 74t38 57.5t44.5 39.5t38.5 24l16 8q-6 4 -15.5 13t-25 41t-15.5 70q0 33 17 68.5t47.5 66.5t81 51t111.5 20zM383 596q-45 0 -77.5 -28.5t-32.5 -70.5q0 -31 22 -50.5t55 -19.5q42 0 76 28.5t34 70.5q0 31 -21.5 50.5t-55.5 19.5z" />
    <glyph glyph-name="nine" unicode="9" 
d="M393 710q93 0 153 -55.5t60 -162.5q0 -100 -44 -196t-109 -161t-138.5 -105t-133.5 -40q-23 0 -37.5 14t-14.5 37q0 28 19 48t43 26q53 13 111 50.5t96 95.5q-46 -25 -105 -25q-88 0 -140 57t-52 140q0 118 85.5 197.5t206.5 79.5zM330 345q60 0 106.5 43.5t46.5 102.5
q0 43 -30 72.5t-75 29.5q-61 0 -106.5 -43.5t-45.5 -107.5q0 -42 27 -69.5t77 -27.5z" />
    <glyph glyph-name="colon" unicode=":" horiz-adv-x="276" 
d="M47 56q0 35 28.5 62.5t66.5 27.5q27 0 45.5 -19t18.5 -46q0 -37 -29 -64t-66 -27q-28 0 -46 19t-18 47zM118 421q0 35 28.5 62.5t66.5 27.5q27 0 45.5 -19t18.5 -46q0 -37 -29 -64t-66 -27q-28 0 -46 19t-18 47z" />
    <glyph glyph-name="semicolon" unicode=";" horiz-adv-x="293" 
d="M134 421q0 36 28 63t66 27q28 0 46.5 -19.5t18.5 -46.5q0 -36 -29 -63t-66 -27q-28 0 -46 19t-18 47zM62 53q0 36 29 64.5t66 28.5q27 0 47.5 -17.5t20.5 -61.5q0 -103 -62.5 -171.5t-113.5 -68.5q-18 0 -29.5 10.5t-11.5 27.5q0 19 14 34.5t31.5 24.5t34.5 27t22 41
q-22 5 -35 22t-13 39z" />
    <glyph glyph-name="less" unicode="&#x3c;" horiz-adv-x="599" 
d="M556 379l-302 -133l249 -132q25 -12 25 -41q0 -30 -22.5 -51.5t-52.5 -21.5q-12 0 -26 8l-314 178q-30 17 -30 53q0 48 53 73l385 181q16 7 29 7q21 0 36 -16.5t15 -37.5q0 -47 -45 -67z" />
    <glyph glyph-name="equal" unicode="=" horiz-adv-x="615" 
d="M132 205h377q22 0 36 -13.5t14 -34.5q0 -29 -20.5 -48.5t-48.5 -19.5h-379q-22 0 -35.5 13.5t-13.5 33.5q0 29 20.5 49t49.5 20zM172 413h377q22 0 36 -13.5t14 -34.5q0 -29 -20.5 -48.5t-48.5 -19.5h-379q-22 0 -35.5 13.5t-13.5 33.5q0 29 20.5 49t49.5 20z" />
    <glyph glyph-name="greater" unicode="&#x3e;" horiz-adv-x="619" 
d="M110 121l302 133l-249 132q-25 12 -25 41q0 30 22.5 51.5t52.5 21.5q12 0 26 -8l314 -178q30 -17 30 -53q0 -48 -53 -73l-385 -181q-16 -7 -29 -7q-21 0 -36 16.5t-15 37.5q0 47 45 67z" />
    <glyph glyph-name="question" unicode="?" horiz-adv-x="542" 
d="M362 710q83 0 136.5 -45.5t53.5 -112.5q0 -50 -20 -88.5t-49 -62t-58.5 -43t-53.5 -42t-29 -48.5q-6 -28 -29.5 -48t-51.5 -20q-23 0 -38 15.5t-15 40.5q0 4 2 16q7 36 31.5 68t54.5 55.5t59.5 45.5t49 46.5t19.5 49.5q0 28 -21 45.5t-53 17.5q-44 0 -74 -25t-36 -47
q-5 -17 -23 -31t-42 -14q-45 0 -45 48q0 50 66.5 114.5t165.5 64.5zM157 52q0 36 28.5 65t66.5 29q28 0 46 -18.5t18 -45.5q0 -36 -29 -64t-65 -28q-28 0 -46.5 18t-18.5 44z" />
    <glyph glyph-name="at" unicode="@" horiz-adv-x="978" 
d="M640 59h-39q-19 0 -34 12t-16 32q-69 -48 -127 -48q-64 0 -101.5 41.5t-37.5 106.5q0 104 81 190t199 86q32 0 56.5 -13t33.5 -32q11 21 30 33t38 12t33 -12t14 -30q0 -4 -7 -30l-73 -241q66 11 110.5 68.5t44.5 138.5q0 106 -71 164.5t-179 58.5q-97 0 -189 -52.5
t-151.5 -144.5t-59.5 -196q0 -114 76.5 -189.5t195.5 -75.5q120 0 216 67q23 16 45 16q19 0 33.5 -11.5t14.5 -31.5q0 -38 -33 -63q-126 -92 -293 -92q-163 0 -268 103.5t-105 262.5q0 141 73 260.5t197.5 189t269.5 69.5q152 0 249.5 -88t97.5 -237q0 -136 -97.5 -230
t-226.5 -94zM550 368q-55 0 -97.5 -42t-42.5 -97q0 -62 61 -62q51 0 96.5 44t45.5 96q0 28 -17 44.5t-46 16.5z" />
    <glyph glyph-name="A" unicode="A" horiz-adv-x="719" 
d="M661 91q2 -16 2 -24q0 -30 -24 -53.5t-55 -23.5q-44 0 -52 49l-22 141h-291l-73 -139q-12 -22 -33 -36.5t-43 -14.5q-25 0 -41.5 15.5t-16.5 37.5q0 20 16 51l296 556q26 50 73 50h129q21 0 36.5 -14t18.5 -35zM282 300h212l-40 279h-25z" />
    <glyph glyph-name="B" unicode="B" horiz-adv-x="689" 
d="M249 700h241q89 0 135.5 -43t46.5 -111q0 -34 -8.5 -64t-21 -48.5t-25 -32.5t-21.5 -20l-8 -6q6 -4 15 -12.5t24.5 -41t15.5 -72.5q0 -108 -76 -178.5t-220 -70.5h-236q-26 0 -40.5 14t-14.5 37q0 9 3 22l109 563q5 28 27.5 46t53.5 18zM464 580h-180l-31 -160h180
q45 0 76.5 26.5t31.5 70.5q0 29 -20.5 46t-56.5 17zM411 302h-180l-36 -182h181q59 0 96.5 31t37.5 81q0 70 -99 70z" />
    <glyph glyph-name="C" unicode="C" horiz-adv-x="702" 
d="M86 288q0 174 122 298t309 124q39 0 83 -10.5t80.5 -34t36.5 -54.5q0 -30 -21.5 -48t-48.5 -18q-16 0 -37 13q-49 32 -111 32q-114 0 -197.5 -87t-83.5 -201q0 -84 51 -137.5t137 -53.5q73 0 143 45q22 14 39 14q21 0 35.5 -14.5t14.5 -36.5q0 -38 -42.5 -69t-97.5 -45.5
t-104 -14.5q-137 0 -222.5 84t-85.5 214z" />
    <glyph glyph-name="D" unicode="D" horiz-adv-x="722" 
d="M404 581h-121l-89 -461h121q116 0 187 82t71 194q0 81 -45.5 133t-123.5 52zM249 700h179q122 0 198 -80.5t76 -209.5q0 -178 -111.5 -294t-299.5 -116h-180q-26 0 -40.5 14t-14.5 37q0 9 3 22l109 563q5 28 27.5 46t53.5 18z" />
    <glyph glyph-name="E" unicode="E" horiz-adv-x="654" 
d="M503 0h-392q-26 0 -40.5 14t-14.5 37q0 9 3 22l109 563q5 28 27.5 46t53.5 18h384q57 0 57 -50q0 -32 -23.5 -51t-58.5 -19h-321l-30 -159h272q57 0 57 -50q0 -32 -23.5 -51t-58.5 -19h-271l-35 -181h330q57 0 57 -50q0 -32 -23.5 -51t-58.5 -19z" />
    <glyph glyph-name="F" unicode="F" horiz-adv-x="597" 
d="M503 415q24 0 39 -13.5t15 -34.5q0 -31 -24.5 -51.5t-53.5 -20.5h-248l-46 -240q-5 -27 -27 -46t-50 -19q-24 0 -38 14.5t-14 37.5q0 6 2 18l112 577q5 26 27 44.5t49 18.5h369q24 0 39 -13.5t15 -35.5q0 -30 -24 -50.5t-53 -20.5h-305l-32 -165h248z" />
    <glyph glyph-name="G" unicode="G" horiz-adv-x="775" 
d="M86 290q0 110 53 205.5t152 155t220 59.5q52 0 106 -15.5t93.5 -45.5t39.5 -65q0 -23 -20 -42.5t-49 -19.5q-20 0 -55 25q-63 44 -131 44q-107 0 -192 -86t-85 -204q0 -83 52 -137.5t134 -54.5q97 0 168 57l22 114h-157q-24 0 -39 13.5t-15 35.5q0 31 23 51.5t54 20.5
h222q23 0 38.5 -15t15.5 -37q0 -7 -2 -17l-37 -190q-5 -26 -28 -47q-49 -46 -124.5 -75.5t-153.5 -29.5q-134 0 -219.5 84.5t-85.5 215.5z" />
    <glyph glyph-name="H" unicode="H" horiz-adv-x="784" 
d="M743 710q24 0 39 -15t15 -38q0 -5 -2 -17l-114 -586q-5 -27 -27 -45.5t-50 -18.5q-23 0 -38.5 15t-15.5 37q0 7 2 17l47 242h-364l-48 -247q-5 -27 -27 -45.5t-50 -18.5q-24 0 -39 14.5t-15 37.5q0 7 2 17l114 586q5 28 27 46.5t50 18.5q24 0 39 -15t15 -38q0 -5 -2 -17
l-43 -220h364l44 225q5 28 27 46.5t50 18.5z" />
    <glyph glyph-name="I" unicode="I" horiz-adv-x="310" 
d="M179 645q5 27 26.5 46t51.5 19q24 0 40 -15t16 -37q0 -6 -2 -18l-113 -585q-5 -27 -27 -46t-52 -19q-24 0 -40 15t-16 38q0 6 2 16z" />
    <glyph glyph-name="J" unicode="J" horiz-adv-x="688" 
d="M504 292l69 353q5 27 26 46t51 19q24 0 40 -15.5t16 -37.5q0 -5 -2 -17l-74 -373q-27 -136 -108.5 -206.5t-206.5 -70.5q-111 0 -185 67.5t-74 168.5q0 45 18.5 80t62.5 35q23 0 38 -15t15 -38q0 -5 -2 -20.5t-2 -28.5q0 -55 36 -89.5t95 -34.5q77 0 124 48.5t63 128.5z
" />
    <glyph glyph-name="K" unicode="K" horiz-adv-x="680" 
d="M506 14l-213 288l-69 -54l-37 -194q-5 -27 -27 -45.5t-50 -18.5q-24 0 -39 14.5t-15 37.5q0 7 2 17l114 587q5 27 27 45.5t50 18.5q24 0 39 -14.5t15 -37.5q0 -7 -2 -17l-44 -223l359 277q18 15 45 15q23 0 37.5 -15.5t14.5 -37.5q0 -35 -32 -59l-284 -220l216 -279
q15 -19 15 -42q0 -27 -21 -47t-50 -20q-32 0 -51 24z" />
    <glyph glyph-name="L" unicode="L" horiz-adv-x="572" 
d="M170 645q5 28 27 46.5t51 18.5q24 0 38.5 -14.5t14.5 -37.5q0 -8 -2 -18l-101 -520h277q24 0 39.5 -14t15.5 -36q0 -31 -24.5 -50.5t-53.5 -19.5h-342q-23 0 -38.5 14.5t-15.5 36.5q0 7 3 22z" />
    <glyph glyph-name="M" unicode="M" horiz-adv-x="882" 
d="M649 59l71 370l26 104l-71 -81l-143 -142q-34 -34 -70 -34q-38 0 -59 34l-87 140l-42 82l-14 -103l-73 -375q-5 -27 -27 -45.5t-50 -18.5q-24 0 -39 14.5t-15 37.5q0 7 2 17l111 574q6 30 26.5 48.5t52.5 18.5h40q37 0 55 -32l141 -249l237 249q32 32 64 32h53
q26 0 40.5 -13.5t14.5 -35.5q0 -6 -2 -18l-112 -579q-5 -27 -27 -45.5t-50 -18.5q-24 0 -39.5 14.5t-15.5 37.5q0 7 2 17z" />
    <glyph glyph-name="N" unicode="N" horiz-adv-x="786" 
d="M510 34l-204 410l-33 86l-13 -96l-73 -380q-5 -27 -27 -45.5t-50 -18.5q-24 0 -39 14.5t-15 37.5q0 7 2 17l111 574q6 30 26.5 48.5t52.5 18.5h39q41 0 58 -34l203 -411l32 -85l13 95l74 381q5 27 27 45.5t50 18.5q24 0 39 -14.5t15 -37.5q0 -7 -2 -17l-111 -574
q-6 -30 -26.5 -48.5t-52.5 -18.5h-39q-39 0 -57 34z" />
    <glyph glyph-name="O" unicode="O" horiz-adv-x="840" 
d="M406 111q114 0 198 87t84 200q0 85 -51.5 138.5t-137.5 53.5q-114 0 -197.5 -87t-83.5 -201q0 -84 51 -137.5t137 -53.5zM394 -10q-137 0 -222.5 84t-85.5 214q0 110 54 206.5t153 156t220 59.5q137 0 222 -84t85 -214q0 -111 -53.5 -207t-152.5 -155.5t-220 -59.5z" />
    <glyph glyph-name="P" unicode="P" horiz-adv-x="634" 
d="M290 580l-46 -235h142q65 0 107 41t42 97q0 43 -25.5 70t-64.5 27h-155zM58 59l111 576q5 27 27 46t52 19h220q86 0 141 -56t55 -144q0 -114 -81 -194.5t-207 -80.5h-155l-34 -171q-5 -27 -27 -45.5t-50 -18.5q-24 0 -39 14.5t-15 37.5q0 7 2 17z" />
    <glyph glyph-name="Q" unicode="Q" horiz-adv-x="846" 
d="M406 111q114 0 198 87t84 200q0 85 -51.5 138.5t-137.5 53.5q-114 0 -197.5 -87t-83.5 -201q0 -84 51 -137.5t137 -53.5zM394 -10q-137 0 -222.5 84t-85.5 214q0 110 54 206.5t153 156t220 59.5q137 0 222 -84t85 -214q0 -111 -53.5 -207t-152.5 -155.5t-220 -59.5z
M365 -38q15 0 51 -11t107.5 -22.5t171.5 -11.5q32 0 48.5 -14t16.5 -34q0 -34 -26 -53.5t-63 -19.5q-198 0 -334 48q-43 14 -43 54q0 30 21.5 47t49.5 17z" />
    <glyph glyph-name="R" unicode="R" horiz-adv-x="674" 
d="M221 239l-35 -183q-5 -28 -26.5 -47t-49.5 -19q-24 0 -39 14.5t-15 37.5q0 7 2 17l111 576q5 27 27 46t52 19h230q87 0 141.5 -56t54.5 -145q0 -53 -18.5 -97t-45 -70t-53 -44t-45.5 -25l-18 -7l86 -155q9 -17 9 -36q0 -30 -21 -52.5t-54 -22.5q-36 0 -51 29l-118 220
h-124zM288 580l-43 -221h167q51 0 91 37.5t40 91.5q0 39 -25 65.5t-63 26.5h-167z" />
    <glyph glyph-name="S" unicode="S" horiz-adv-x="637" 
d="M303 108q58 0 102 29t44 70q0 27 -23.5 46.5t-59 31t-76.5 27.5t-76.5 34.5t-59 54.5t-23.5 85q0 91 77.5 157.5t198.5 66.5q104 0 162 -45t58 -92q0 -24 -19.5 -46t-51.5 -22q-20 0 -36.5 14t-27.5 31t-36.5 31t-60.5 14q-57 0 -94 -27t-37 -63q0 -25 24 -43.5t60 -30
t78 -28t78 -35.5t60 -56t24 -86q0 -101 -84 -168.5t-209 -67.5q-111 0 -176.5 50t-65.5 97q0 30 20.5 50t48.5 20q21 0 35.5 -10t24.5 -24.5t23 -29.5t37.5 -25t60.5 -10z" />
    <glyph glyph-name="T" unicode="T" horiz-adv-x="590" 
d="M308 580h-152q-57 0 -57 50q0 32 23.5 51t58.5 19h435q57 0 57 -50q0 -32 -23.5 -51t-58.5 -19h-151l-102 -525q-5 -27 -26.5 -46t-51.5 -19q-24 0 -40 15t-16 38q0 6 2 16z" />
    <glyph glyph-name="U" unicode="U" horiz-adv-x="789" 
d="M804 640l-66 -338q-28 -142 -129 -227t-240 -85q-114 0 -194.5 71t-80.5 185q0 30 6 62l66 337q5 28 27 46.5t50 18.5q24 0 39 -15t15 -38q0 -5 -2 -17l-65 -332q-4 -20 -4 -45q0 -71 46.5 -108.5t109.5 -37.5q82 0 146 52.5t83 148.5l64 327q5 28 27 46.5t50 18.5
q24 0 39 -15t15 -38q0 -5 -2 -17z" />
    <glyph glyph-name="V" unicode="V" horiz-adv-x="729" 
d="M260 661l87 -545h13l285 541q28 53 77 53q24 0 41 -16t17 -38q0 -17 -16 -48l-298 -558q-27 -50 -77 -50h-110q-24 0 -38.5 13.5t-17.5 35.5l-92 560q-2 16 -2 24q0 31 21.5 54t54.5 23q22 0 36.5 -13.5t18.5 -35.5z" />
    <glyph glyph-name="W" unicode="W" horiz-adv-x="887" 
d="M906 640l-150 -575q-8 -29 -29 -47t-52 -18h-27q-40 0 -57 33l-124 238l-219 -238q-30 -33 -70 -33h-34q-28 0 -43 14.5t-15 38.5q0 4 2 22l72 568q4 29 26.5 48t52.5 19q55 0 55 -52q0 -2 -2 -20l-63 -463l185 210q36 40 77 40q42 0 62 -40l102 -209l119 469
q7 28 28.5 46.5t50.5 18.5q25 0 40 -15t15 -39q0 -8 -2 -16z" />
    <glyph glyph-name="X" unicode="X" horiz-adv-x="748" 
d="M289 683l137 -216l218 217q26 26 57 26q25 0 43.5 -15.5t18.5 -39.5q0 -29 -24 -53l-247 -239l170 -261q11 -16 11 -37q0 -30 -22 -52.5t-52 -22.5q-33 0 -50 28l-157 250l-255 -254q-26 -24 -58 -24q-24 0 -39.5 16t-15.5 39q0 30 25 55l275 268l-147 230q-12 19 -12 36
q0 28 21 52t52 24q34 0 51 -27z" />
    <glyph glyph-name="Y" unicode="Y" horiz-adv-x="669" 
d="M422 288l-45 -233q-5 -27 -26.5 -46t-51.5 -19q-24 0 -40 15t-16 38q0 6 2 16l46 230l-173 313q-8 16 -8 33q0 31 19.5 53t51.5 22q34 0 50 -29l145 -271l248 273q26 27 61 27q23 0 39.5 -14.5t16.5 -37.5q0 -28 -23 -53z" />
    <glyph glyph-name="Z" unicode="Z" horiz-adv-x="690" 
d="M521 580h-315q-27 0 -42 14t-15 37q0 29 23 49t59 20h421q30 0 46 -17.5t16 -42.5q0 -35 -32 -67l-459 -453h338q27 0 42 -14t15 -37q0 -29 -23 -49t-59 -20h-444q-29 0 -46.5 15.5t-17.5 42.5q0 36 34 70z" />
    <glyph glyph-name="bracketleft" unicode="[" horiz-adv-x="393" 
d="M46 -78l144 740q5 26 27.5 45.5t48.5 19.5h135q23 0 38 -13.5t15 -35.5q0 -30 -23 -52t-53 -22h-68l-122 -624h68q23 0 38 -14t15 -35q0 -32 -23.5 -53t-53.5 -21h-135q-23 0 -37.5 15t-14.5 37q0 9 1 13z" />
    <glyph glyph-name="backslash" unicode="\" horiz-adv-x="349" 
d="M198 37l-105 586q-1 4 -1 20q0 26 20 46.5t47 20.5q22 0 37.5 -11.5t18.5 -30.5l105 -589q2 -14 2 -21q0 -27 -17 -47.5t-47 -20.5q-24 0 -40.5 13.5t-19.5 33.5z" />
    <glyph glyph-name="bracketright" unicode="]" horiz-adv-x="393" 
d="M403 662l-144 -740q-5 -26 -28 -45.5t-49 -19.5h-135q-23 0 -37.5 13.5t-14.5 35.5q0 30 23 52t53 22h68l122 624h-68q-24 0 -39 14.5t-15 36.5q0 30 24 51t53 21h135q23 0 38 -15.5t15 -37.5q0 -8 -1 -12z" />
    <glyph glyph-name="asciicircum" unicode="^" horiz-adv-x="559" 
d="M408 334l-70 204l-151 -203q-23 -32 -58 -32q-21 0 -35.5 13.5t-14.5 32.5t13 37l214 293q22 31 62 31t50 -31l100 -292q2 -8 2 -17q0 -25 -20 -46t-46 -21q-36 0 -46 31z" />
    <glyph glyph-name="underscore" unicode="_" horiz-adv-x="494" 
d="M-3 -75h497q18 0 30.5 -13.5t12.5 -31.5q0 -25 -19 -42t-44 -17h-497q-21 0 -33 12.5t-12 31.5q0 25 19 42.5t46 17.5z" />
    <glyph glyph-name="grave" unicode="`" horiz-adv-x="210" 
d="M165 566l-80 88q-12 12 -12 32q0 29 20.5 49t47.5 20q22 0 37 -16l80 -88q11 -13 11 -31q0 -29 -19.5 -49t-48.5 -20q-23 0 -36 15z" />
    <glyph glyph-name="a" unicode="a" horiz-adv-x="638" 
d="M626 443l-75 -386q-6 -29 -26 -48t-54 -19q-21 0 -35 14t-14 32q0 5 1 7q-64 -53 -149 -53q-94 0 -152 60t-58 156q0 125 88.5 214.5t215.5 89.5q44 0 81 -16.5t54 -36.5q4 19 24.5 36t44.5 17q23 0 39.5 -14t16.5 -37q0 -8 -2 -16zM304 106q69 0 119 51t50 125
q0 50 -31 81t-82 31q-70 0 -121 -52t-51 -119q0 -52 31.5 -84.5t84.5 -32.5z" />
    <glyph glyph-name="b" unicode="b" horiz-adv-x="642" 
d="M64 57l121 626q6 29 26 48t53 19q24 0 37.5 -15t13.5 -35q0 -4 -2 -18l-44 -225q26 20 66.5 36.5t81.5 16.5q93 0 151 -61.5t58 -154.5q0 -124 -87.5 -214t-209.5 -90q-41 0 -76.5 15t-50.5 30l-14 15q-5 -24 -25 -42t-45 -18q-23 0 -39.5 14t-16.5 37q0 8 2 16zM220 249
q-3 -16 -3 -31q0 -50 31 -81t82 -31q70 0 121 52t51 119q0 50 -32 83.5t-84 33.5q-64 0 -109 -41t-57 -104z" />
    <glyph glyph-name="c" unicode="c" horiz-adv-x="506" 
d="M357 393q-66 0 -117 -52.5t-51 -120.5q0 -50 31.5 -82t87.5 -32q36 0 68.5 15.5t48.5 15.5q21 0 34.5 -14t13.5 -34q0 -43 -46.5 -71t-132.5 -28q-103 0 -166.5 61t-63.5 154q0 134 89.5 219.5t224.5 85.5q78 0 117 -24t39 -57q0 -25 -21.5 -43.5t-48.5 -18.5
q-14 0 -41 13t-66 13z" />
    <glyph glyph-name="d" unicode="d" horiz-adv-x="635" 
d="M469 251q3 16 3 32q0 50 -31 80.5t-83 30.5q-69 0 -120 -50.5t-51 -120.5q0 -51 32 -84t84 -33q61 0 107.5 41t58.5 104zM672 682l-122 -628q-6 -27 -26.5 -45.5t-49.5 -18.5q-23 0 -37 14t-14 32q0 1 0.5 4t0.5 4q-73 -54 -158 -54q-88 0 -145 61.5t-57 152.5
q0 132 89 219t207 87q50 0 87 -16.5t53 -36.5l45 229q6 27 25.5 45.5t50.5 18.5q24 0 38.5 -14.5t14.5 -35.5q0 -10 -2 -18z" />
    <glyph glyph-name="e" unicode="e" horiz-adv-x="587" 
d="M491 202h-299q1 -40 34 -69t78 -29q52 0 90 18t54 18q22 0 35.5 -12.5t13.5 -32.5q0 -42 -46 -68q-62 -37 -159 -37q-104 0 -166 59t-62 151q0 133 89.5 221t214.5 88q99 0 157.5 -58t58.5 -140q0 -47 -24.5 -78t-68.5 -31zM356 398q-49 0 -92 -31t-55 -70h256
q0 41 -29.5 71t-79.5 30z" />
    <glyph glyph-name="f" unicode="f" horiz-adv-x="366" 
d="M271 382l-105 -545q-6 -29 -26 -48t-53 -19q-23 0 -37 15t-14 35q0 4 2 18l105 544h-31q-22 0 -35.5 14t-13.5 37q0 27 22 47t50 20h31l21 110q12 64 53.5 102t108.5 38h42q25 0 39.5 -13.5t14.5 -35.5q0 -29 -22 -49t-50 -20h-32q-10 0 -17 -7t-9 -16l-21 -109h69
q22 0 35 -13.5t13 -36.5q0 -29 -21.5 -48.5t-49.5 -19.5h-69z" />
    <glyph glyph-name="g" unicode="g" horiz-adv-x="628" 
d="M462 252q3 16 3 32q0 48 -30.5 79.5t-82.5 31.5q-71 0 -121 -52.5t-50 -123.5q0 -48 31 -78t83 -30q63 0 109 37t58 104zM247 -117q58 0 101 37.5t57 97.5l7 32q-67 -50 -147 -50q-94 0 -151 55.5t-57 146.5q0 128 89 218t214 90q85 0 136 -53q7 23 27.5 38t40.5 15
q25 0 41 -15t16 -36q0 -6 -2 -16l-80 -416q-23 -121 -106 -189t-204 -68q-63 0 -104.5 12t-56 27t-14.5 32q0 29 22 50t53 21q10 0 42 -14.5t76 -14.5z" />
    <glyph glyph-name="h" unicode="h" horiz-adv-x="664" 
d="M623 256l-38 -199q-6 -29 -26 -48t-53 -19q-24 0 -37.5 15t-13.5 35q0 4 2 18l40 207q3 17 3 32q0 45 -27.5 70.5t-74.5 25.5q-54 0 -104 -35t-59 -81l-43 -220q-6 -29 -26 -48t-53 -19q-23 0 -37 15t-14 35q0 4 2 18l121 625q6 29 26 48t53 19q24 0 37.5 -15t13.5 -35
q0 -4 -2 -18l-45 -231q77 59 161 59q91 0 145 -55.5t54 -140.5q0 -28 -5 -58z" />
    <glyph glyph-name="i" unicode="i" horiz-adv-x="301" 
d="M152 617q0 35 28 64t66 29q28 0 46.5 -18t18.5 -45q0 -36 -29.5 -64.5t-65.5 -28.5q-28 0 -46 18t-18 45zM73 146l56 292q5 27 26 45.5t51 18.5q23 0 37.5 -15t14.5 -37q0 -4 -2 -18l-54 -284q-3 -18 -3 -23q0 -18 19 -19q22 -2 35.5 -15t13.5 -35q0 -27 -23 -46.5
t-60 -19.5q-48 0 -81.5 31.5t-33.5 84.5q0 18 4 40z" />
    <glyph glyph-name="j" unicode="j" horiz-adv-x="331" 
d="M203 616q0 36 28.5 65t66.5 29q28 0 46 -18.5t18 -45.5q0 -36 -29.5 -64t-65.5 -28q-28 0 -46 17.5t-18 44.5zM308 432l-94 -484q-14 -74 -69 -121t-141 -47h-34q-23 0 -36.5 13t-13.5 34q0 28 21.5 48.5t50.5 20.5h29q25 0 43 16.5t23 42.5l94 483q6 27 26.5 45.5
t50.5 18.5q23 0 37.5 -15t14.5 -37q0 -4 -2 -18z" />
    <glyph glyph-name="k" unicode="k" horiz-adv-x="558" 
d="M212 165l-20 -108q-6 -29 -26 -48t-53 -19q-23 0 -37 15t-14 35q0 4 2 18l121 625q6 29 26 48t53 19q24 0 37.5 -15t13.5 -35q0 -4 -2 -18l-69 -355l235 162q33 21 54 21q23 0 37 -15t14 -38q0 -34 -30 -55l-175 -122l134 -186q13 -18 13 -40q0 -27 -18.5 -45.5
t-44.5 -18.5q-31 0 -48 24l-135 197z" />
    <glyph glyph-name="l" unicode="l" horiz-adv-x="300" 
d="M73 146l106 541q6 27 26.5 45.5t50.5 18.5q23 0 37.5 -15t14.5 -37q0 -4 -2 -18l-104 -533q-3 -18 -3 -23q0 -18 19 -19q22 -2 35.5 -15t13.5 -35q0 -27 -23 -46.5t-60 -19.5q-48 0 -81.5 31.5t-33.5 84.5q0 18 4 40z" />
    <glyph glyph-name="m" unicode="m" horiz-adv-x="1003" 
d="M601 287l-45 -233q-6 -30 -27.5 -47t-48.5 -17q-24 0 -38 14.5t-14 34.5q0 8 2 20l41 213q3 16 3 32q0 42 -21 66t-54 24q-51 0 -103.5 -36.5t-60.5 -79.5l-44 -224q-6 -30 -27.5 -47t-48.5 -17q-24 0 -38.5 14.5t-14.5 34.5q0 10 2 20l75 387q5 28 26 46t50 18
q23 0 37.5 -14t14.5 -36q0 -11 -1 -15q29 26 73 45.5t89 19.5q43 0 82.5 -20t64.5 -61q91 81 197 81q87 0 141 -50.5t54 -137.5q0 -30 -5 -55l-41 -213q-5 -25 -28 -44.5t-48 -19.5q-22 0 -37 15.5t-15 36.5q0 6 2 18l41 212q3 17 3 31q0 42 -25 66.5t-64 24.5
q-45 0 -92.5 -32t-56.5 -75z" />
    <glyph glyph-name="n" unicode="n" horiz-adv-x="666" 
d="M458 59l40 206q3 17 3 31q0 46 -27.5 71.5t-74.5 25.5q-52 0 -103 -35.5t-59 -73.5l-46 -230q-6 -30 -27.5 -47t-48.5 -17q-24 0 -38.5 14.5t-14.5 34.5q0 10 2 20l75 387q5 28 26 46t50 18q23 0 37.5 -14t14.5 -36q0 -11 -1 -15q80 65 168 65q91 0 143.5 -52t52.5 -136
q0 -23 -5 -53l-41 -215q-6 -30 -27 -47t-48 -17q-24 0 -38.5 14.5t-14.5 34.5q0 10 2 20z" />
    <glyph glyph-name="o" unicode="o" horiz-adv-x="616" 
d="M600 289q0 -127 -85 -213t-219 -86q-104 0 -168 62.5t-64 156.5q0 130 87.5 215.5t220.5 85.5q100 0 164 -63t64 -158zM304 106q71 0 121 51t50 122q0 49 -32 81.5t-83 32.5q-74 0 -123 -50t-49 -120q0 -50 32 -83.5t84 -33.5z" />
    <glyph glyph-name="p" unicode="p" horiz-adv-x="632" 
d="M211 249q-3 -16 -3 -32q0 -50 31 -80.5t82 -30.5q68 0 120 52t52 119q0 51 -32 84t-84 33q-61 0 -107.5 -41t-58.5 -104zM12 -162l118 608q6 27 26.5 45.5t49.5 18.5q23 0 37 -14t14 -32q0 -1 -0.5 -4t-0.5 -4q73 54 158 54q88 0 145 -61.5t57 -152.5q0 -128 -89.5 -217
t-206.5 -89q-50 0 -87 16.5t-53 36.5l-41 -209q-6 -27 -25.5 -45.5t-50.5 -18.5q-24 0 -38.5 14.5t-14.5 35.5q0 10 2 18z" />
    <glyph glyph-name="q" unicode="q" horiz-adv-x="635" 
d="M626 443l-117 -606q-6 -29 -26 -48t-53 -19q-24 0 -37.5 15t-13.5 35q0 4 2 18l40 205q-26 -20 -66.5 -36.5t-81.5 -16.5q-93 0 -151 61.5t-58 154.5q0 124 87.5 214t209.5 90q41 0 76.5 -15t50.5 -30l14 -15q5 24 25 42t45 18q23 0 39.5 -14t16.5 -37q0 -8 -2 -16z
M470 251q3 16 3 31q0 50 -31 81t-82 31q-70 0 -121 -52t-51 -119q0 -50 32 -83.5t84 -33.5q64 0 109 41t57 104z" />
    <glyph glyph-name="r" unicode="r" horiz-adv-x="424" 
d="M410 500h13q26 0 40 -12t14 -33q0 -30 -22 -50.5t-51 -20.5h-26q-51 0 -93 -34t-51 -81l-43 -216q-6 -26 -27 -44.5t-50 -18.5q-23 0 -37.5 15t-14.5 36q0 5 2 17l75 388q5 26 26 45t50 19q20 0 35 -15.5t15 -41.5l-1 -9q68 56 146 56z" />
    <glyph glyph-name="s" unicode="s" horiz-adv-x="515" 
d="M248 97q41 0 67.5 14.5t26.5 37.5q0 15 -18.5 25.5t-46.5 16t-61 15.5t-61 22.5t-46.5 38.5t-18.5 62q0 74 62.5 127.5t166.5 53.5q82 0 132.5 -28.5t50.5 -62.5q0 -25 -15 -44t-43 -19q-21 0 -62.5 24.5t-82.5 24.5t-63.5 -16t-22.5 -37q0 -18 27 -29.5t65 -20t76 -21.5
t65 -41t27 -70q0 -84 -69.5 -132t-173.5 -48q-82 0 -136 29.5t-54 65.5q0 28 20 46.5t46 18.5q17 0 35 -13t44 -26.5t63 -13.5z" />
    <glyph glyph-name="t" unicode="t" horiz-adv-x="385" 
d="M328 71q0 -30 -20 -50.5t-55 -20.5h-44q-54 0 -84.5 30.5t-30.5 77.5q0 15 3 33l47 241h-34q-22 0 -35 14t-13 37q0 25 20.5 46t50.5 21h34l14 70q5 27 26 45t51 18q22 0 37.5 -15t15.5 -36q0 -7 -3 -22l-12 -60h70q22 0 35.5 -14.5t13.5 -39.5t-21.5 -44.5t-50.5 -19.5
h-70l-44 -223q-3 -17 -3 -23q0 -18 22 -18h32q22 0 35 -13t13 -34z" />
    <glyph glyph-name="u" unicode="u" horiz-adv-x="653" 
d="M247 441l-40 -206q-3 -18 -3 -35q0 -43 27.5 -68t74.5 -25q52 0 103 35.5t59 73.5l46 230q6 30 27.5 47t48.5 17q24 0 38.5 -14.5t14.5 -34.5q0 -10 -2 -20l-75 -387q-5 -28 -26 -46t-50 -18q-23 0 -37.5 14t-14.5 36q0 11 1 15q-80 -65 -168 -65q-91 0 -143.5 52
t-52.5 136q0 23 5 53l41 215q6 30 27 47t48 17q24 0 38.5 -14.5t14.5 -34.5q0 -10 -2 -20z" />
    <glyph glyph-name="v" unicode="v" horiz-adv-x="535" 
d="M150 510q19 0 34.5 -11.5t18.5 -31.5l55 -352h8l186 354q21 41 68 41q26 0 40.5 -14t14.5 -36q0 -20 -10 -37l-212 -373q-29 -50 -84 -50h-53q-27 0 -43 14t-20 36l-69 355q-4 26 -4 37q0 27 18.5 47.5t51.5 20.5z" />
    <glyph glyph-name="w" unicode="w" horiz-adv-x="755" 
d="M427 355q47 0 59 -42l53 -193h8l103 333q8 26 29.5 41.5t44.5 15.5q24 0 37.5 -13.5t13.5 -34.5q0 -18 -7 -39l-121 -370q-17 -53 -89 -53h-48q-54 0 -67 47l-42 155h-4l-103 -155q-30 -47 -86 -47h-49q-32 0 -49.5 14t-17.5 36q0 8 1 24l20 349q2 35 22 61t56 26
q21 0 36.5 -14t15.5 -38q0 -6 -1 -20l-28 -318h7l128 189q31 46 78 46z" />
    <glyph glyph-name="x" unicode="x" horiz-adv-x="555" 
d="M387 15l-99 146l-156 -149q-23 -22 -54 -22q-23 0 -37.5 14.5t-14.5 36.5q0 31 24 54l174 160l-103 153q-10 15 -10 34q0 29 16.5 48.5t46.5 19.5t45 -24l95 -145l153 147q24 22 53 22q24 0 39 -15t15 -37q0 -31 -24 -53l-171 -158l105 -154q13 -19 13 -41
q0 -26 -17.5 -44t-42.5 -18q-33 0 -50 25z" />
    <glyph glyph-name="y" unicode="y" horiz-adv-x="563" 
d="M591 411l-304 -531q-28 -48 -69 -74t-85 -26h-50q-25 0 -39 13.5t-14 36.5q0 28 20 47t49 19h38q23 0 36 21l60 101q-55 0 -67 50l-80 346q-3 15 -3 29q0 26 19 46.5t52 20.5q18 0 32.5 -11t18.5 -30l78 -363l202 362q24 42 72 42q22 0 36.5 -15t14.5 -37q0 -16 -17 -47z
" />
    <glyph glyph-name="z" unicode="z" horiz-adv-x="515" 
d="M348 384h-183q-23 0 -37.5 12t-14.5 33q0 31 22 51t54 20h279q31 0 46.5 -16t15.5 -41q0 -40 -37 -74l-280 -253h200q55 0 55 -47q0 -30 -22.5 -49.5t-56.5 -19.5h-292q-29 0 -45.5 16t-16.5 42q0 40 45 81z" />
    <glyph glyph-name="braceleft" unicode="{" horiz-adv-x="390" 
d="M85 357q45 10 52 49l30 159q14 73 66.5 117.5t136.5 44.5h25q25 0 40.5 -13.5t15.5 -37.5q0 -31 -23 -51t-54 -20h-25q-43 0 -52 -41l-31 -156q-8 -40 -33 -71.5t-56 -44.5q21 -10 33.5 -35t12.5 -58q0 -13 -2 -27l-29 -148q0 -1 -0.5 -4.5t-0.5 -6.5q0 -14 10 -23.5
t28 -9.5h23q23 0 39 -14t16 -36q0 -31 -23 -51.5t-55 -20.5h-27q-64 0 -101.5 39t-37.5 99q0 16 3 34l27 149q1 8 1 12q0 19 -12 28t-26.5 11t-26.5 13.5t-12 35.5q0 34 22 53.5t46 24.5z" />
    <glyph glyph-name="bar" unicode="|" horiz-adv-x="306" 
d="M323 684l-166 -852q-5 -25 -26.5 -43.5t-48.5 -18.5q-22 0 -37 15t-15 36q0 6 2 16l166 852q5 26 26.5 44.5t48.5 18.5q22 0 37 -15t15 -36q0 -7 -2 -17z" />
    <glyph glyph-name="braceright" unicode="}" horiz-adv-x="390" 
d="M361 228q-45 -10 -52 -49l-30 -159q-14 -73 -66.5 -117.5t-136.5 -44.5h-25q-25 0 -40.5 13.5t-15.5 37.5q0 31 23 51t54 20h25q43 0 52 41l31 156q8 40 33 71.5t56 44.5q-21 10 -33.5 35t-12.5 58q0 13 2 27l29 148q0 1 0.5 4.5t0.5 6.5q0 14 -10 23.5t-28 9.5h-23
q-23 0 -39 14t-16 36q0 31 23 51.5t55 20.5h27q64 0 101.5 -39t37.5 -99q0 -16 -3 -34l-27 -149q-1 -8 -1 -12q0 -19 12 -28t26.5 -11t26.5 -13.5t12 -35.5q0 -34 -22 -53.5t-46 -24.5z" />
    <glyph glyph-name="asciitilde" unicode="~" horiz-adv-x="618" 
d="M223 227q-14 0 -25 -11t-18 -23.5t-21.5 -23.5t-35.5 -11t-34 13t-13 33q0 43 45.5 91.5t109.5 48.5q44 0 116.5 -33.5t97.5 -33.5q16 0 28 17.5t28 34.5t42 17q21 0 34 -13.5t13 -32.5q0 -46 -47.5 -93.5t-107.5 -47.5q-45 0 -118.5 34t-93.5 34z" />
    <glyph glyph-name="exclamdown" unicode="&#xa1;" horiz-adv-x="316" 
d="M253 230l-73 -375q-5 -27 -26.5 -46t-50.5 -19q-24 0 -39 15.5t-15 37.5q0 7 2 17l73 375q5 27 26.5 46t51.5 19q24 0 38.5 -15t14.5 -37q0 -8 -2 -18zM306 447q0 -36 -28 -64.5t-66 -28.5q-28 0 -46 18.5t-18 45.5q0 36 29 64t65 28q28 0 46 -18t18 -45z" />
    <glyph glyph-name="cent" unicode="&#xa2;" 
d="M481 549l-8 -43q98 -15 98 -67q0 -28 -21.5 -50t-48.5 -22q-15 0 -42 13t-65 13q-64 0 -116 -53t-52 -120q0 -49 33 -81.5t86 -32.5q36 0 68.5 15.5t48.5 15.5q21 0 34 -13.5t13 -34.5q0 -75 -136 -96l-9 -45q-5 -23 -25.5 -40.5t-43.5 -17.5q-21 0 -34.5 13.5
t-13.5 33.5q0 7 3 19l8 42q-72 18 -114.5 73t-42.5 129q0 113 71.5 197.5t183.5 107.5l10 49q5 23 25 40t44 17q20 0 34 -13.5t14 -33.5q0 -3 -2 -15z" />
    <glyph glyph-name="sterling" unicode="&#xa3;" 
d="M138 400h28l25 130q16 83 81 131.5t162 48.5q64 0 118 -30t54 -75q0 -29 -21 -46.5t-48 -17.5q-19 0 -34.5 12.5t-36 25t-51.5 12.5q-39 0 -64.5 -22.5t-31.5 -55.5l-22 -113h142q20 0 33.5 -14.5t13.5 -34.5q0 -28 -22 -47.5t-48 -19.5h-142l-32 -164h246q26 0 40 -13.5
t14 -34.5q0 -30 -22 -51t-55 -21h-379q-27 0 -42 14t-15 36q0 26 21 48t61 22l32 164h-28q-22 0 -36 14t-14 38t21.5 44t51.5 20z" />
    <glyph glyph-name="currency" unicode="&#xa4;" 
d="M551 58q-18 -18 -42 -18q-25 0 -45 20l-19 18q-52 -29 -110 -29q-59 0 -111 30l-18 -18q-20 -20 -46 -20q-23 0 -41.5 18t-18.5 42q0 23 20 45l18 19q-28 51 -28 108q0 59 30 112l-19 19q-20 20 -20 46q0 23 18 41t42 18q26 0 45 -19l19 -19q49 28 108 28t112 -29l19 19
q20 20 46 20q23 0 41 -18t18 -42q0 -26 -19 -45l-19 -19q29 -52 29 -110q0 -59 -29 -111l18 -18q20 -20 20 -46q0 -24 -18 -42zM252 192q35 -35 83 -35q47 0 82 35.5t35 82.5t-35 82t-82 35t-82.5 -35t-35.5 -82q0 -48 35 -83z" />
    <glyph glyph-name="yen" unicode="&#xa5;" 
d="M472 108h-122l-10 -52q-5 -28 -27.5 -47t-50.5 -19q-24 0 -39 15t-15 38q0 5 2 19l9 46h-120q-21 0 -34 13.5t-13 33.5q0 27 22.5 48t52.5 21h115l12 64h-120q-21 0 -34 13.5t-13 33.5q0 27 22 48t52 21h49l-101 202q-7 14 -7 35q0 26 19.5 47.5t50.5 21.5q35 0 49 -28
l122 -261l225 257q27 32 62 32q24 0 39.5 -15t15.5 -38q0 -25 -23 -52l-179 -201h42q25 0 38.5 -13.5t13.5 -34.5q0 -29 -21 -48.5t-49 -19.5h-122l-12 -64h117q24 0 38 -13.5t14 -34.5q0 -29 -20.5 -48.5t-49.5 -19.5z" />
    <glyph glyph-name="brokenbar" unicode="&#xa6;" horiz-adv-x="306" 
d="M323 683l-54 -276q-5 -26 -26.5 -44.5t-48.5 -18.5q-22 0 -37 15t-15 37q0 4 2 16l54 276q5 27 26.5 45.5t48.5 18.5q22 0 37 -15t15 -37q0 -5 -2 -17zM212 109l-54 -276q-5 -26 -26.5 -44.5t-48.5 -18.5q-22 0 -37 15t-15 37q0 4 2 16l54 276q5 27 26.5 45.5t48.5 18.5
q22 0 37 -15t15 -37q0 -5 -2 -17z" />
    <glyph glyph-name="section" unicode="&#xa7;" horiz-adv-x="673" 
d="M82 215q0 57 35.5 106.5t91.5 82.5q-25 34 -25 78q0 94 78.5 156t186.5 62h133q25 0 40.5 -12.5t15.5 -32.5q0 -27 -23 -45t-54 -18h-124q-50 0 -84.5 -24t-34.5 -60q0 -29 32.5 -51.5t79 -39.5t92.5 -37.5t78.5 -57t32.5 -87.5q0 -55 -35 -107.5t-93 -82.5
q27 -35 27 -78q0 -93 -79 -155t-186 -62h-133q-25 0 -40.5 12t-15.5 31q0 28 23 46.5t54 18.5h124q50 0 84.5 24t34.5 60q0 25 -23.5 45t-58.5 32.5t-76 30.5t-76 36.5t-58.5 52t-23.5 76.5zM303 329q-31 -1 -62 -27.5t-31 -59.5q0 -15 8 -28t26 -25t33 -20t44.5 -18.5
t44.5 -15t47 -14.5q31 0 62 28t31 57q0 13 -7.5 25t-26.5 24.5t-33 20.5t-45 20t-43.5 16.5t-47.5 16.5z" />
    <glyph glyph-name="dieresis" unicode="&#xa8;" horiz-adv-x="386" 
d="M60 617q0 36 28 64.5t66 28.5q28 0 46 -18.5t18 -45.5q0 -36 -29 -64t-65 -28q-28 0 -46 18t-18 45zM289 617q0 36 28 64.5t66 28.5q28 0 46 -18.5t18 -45.5q0 -36 -29 -64t-65 -28q-28 0 -46 18t-18 45z" />
    <glyph glyph-name="copyright" unicode="&#xa9;" horiz-adv-x="838" 
d="M565 520q33 -21 33 -50q0 -21 -15 -36t-37 -15q-12 0 -36.5 7t-40.5 7q-35 0 -59.5 -24.5t-24.5 -59.5t24.5 -60.5t59.5 -25.5q13 0 37 6.5t38 6.5q22 0 36.5 -15t14.5 -35q0 -31 -32 -50q-37 -22 -92 -22q-81 0 -138 56.5t-57 138.5t57 138t138 56q55 0 94 -23zM820 350
q0 -149 -106 -254t-253 -105q-148 0 -253.5 105.5t-105.5 253.5t105.5 253.5t253.5 105.5q147 0 253 -105.5t106 -253.5zM727 350q0 110 -78.5 188t-187.5 78q-111 0 -189 -77.5t-78 -188.5q0 -110 78.5 -188.5t188.5 -78.5q109 0 187.5 78.5t78.5 188.5z" />
    <glyph glyph-name="ordfeminine" unicode="&#xaa;" horiz-adv-x="484" 
d="M479 652l-51 -264q-3 -17 -20.5 -29.5t-35.5 -12.5q-32 0 -32 38q-52 -38 -108 -38q-64 0 -104.5 41.5t-40.5 104.5q0 90 65.5 154t153.5 64q57 0 89 -37q2 13 17 25t31 12t27.5 -11.5t11.5 -27.5q0 -5 -3 -19zM255 427q46 0 83 37t37 84q0 34 -22.5 57t-58.5 23
q-46 0 -83 -36t-37 -83q0 -35 22 -58.5t59 -23.5z" />
    <glyph glyph-name="guillemotleft" unicode="&#xab;" horiz-adv-x="554" 
d="M211 247l45 -81q9 -16 9 -34q0 -27 -22 -43.5t-46 -16.5q-31 0 -45 29l-60 114q-9 18 -9 30q1 22 23 46l108 118q24 25 53 25q20 0 35 -13.5t15 -38.5q0 -23 -18 -41zM439 247l45 -81q9 -16 9 -34q0 -27 -22 -43.5t-46 -16.5q-31 0 -45 29l-60 114q-9 18 -9 30
q1 22 23 46l108 118q24 25 53 25q20 0 35 -13.5t15 -38.5q0 -23 -18 -41z" />
    <glyph glyph-name="logicalnot" unicode="&#xac;" horiz-adv-x="620" 
d="M176 407h378q22 0 35.5 -13.5t13.5 -31.5q0 -9 -2 -21l-35 -179q-5 -27 -26.5 -45t-48.5 -18q-22 0 -36.5 14t-14.5 34q0 4 3 22l22 113h-313q-23 0 -37 14t-14 36q0 30 22.5 52.5t52.5 22.5z" />
    <glyph glyph-name="registered" unicode="&#xae;" horiz-adv-x="838" 
d="M814 350q0 -149 -106 -254t-253 -105q-148 0 -253.5 105.5t-105.5 253.5t105.5 253.5t253.5 105.5q147 0 253 -105.5t106 -253.5zM721 350q0 110 -78.5 188t-187.5 78q-111 0 -189 -77.5t-78 -188.5q0 -110 78.5 -188.5t188.5 -78.5q109 0 187.5 78.5t78.5 188.5z
M376 540h102q61 0 98 -34.5t37 -88.5q0 -64 -58 -104l43 -73q8 -13 8 -28q0 -20 -16 -36t-36 -16q-30 0 -45 24l-66 119h-13v-91q0 -20 -16 -36t-38 -16q-21 0 -37 16t-16 36v272q0 21 16 38.5t37 17.5zM475 451h-45v-71h46q16 0 26 11t10 25t-10.5 24.5t-26.5 10.5z" />
    <glyph glyph-name="macron" unicode="&#xaf;" horiz-adv-x="307" 
d="M371 652q0 -27 -22.5 -49.5t-51.5 -22.5h-187q-22 0 -35.5 13t-13.5 35q0 29 22 50.5t50 21.5h187q21 0 36 -13.5t15 -34.5z" />
    <glyph glyph-name="degree" unicode="&#xb0;" horiz-adv-x="408" 
d="M417 557q0 -63 -45 -108.5t-110 -45.5q-63 0 -108 45t-45 109t45.5 109t107.5 45q64 0 109.5 -45t45.5 -109zM326 557q0 26 -19 44.5t-45 18.5t-44.5 -18.5t-18.5 -44.5q0 -27 18.5 -45t44.5 -18q27 0 45.5 18t18.5 45z" />
    <glyph glyph-name="plusminus" unicode="&#xb1;" horiz-adv-x="615" 
d="M173 436h130l22 107q5 23 23.5 39t42.5 16q23 0 38 -13t15 -34q0 -8 -1 -12l-21 -103h128q22 0 36 -13.5t14 -34.5q0 -29 -20.5 -48.5t-48.5 -19.5h-132l-20 -102q-5 -25 -24 -41t-43 -16q-23 0 -37.5 13t-14.5 35q0 7 1 11l20 100h-129q-22 0 -35.5 13.5t-13.5 33.5
q0 29 20.5 49t49.5 20zM111 117h377q22 0 36 -13.5t14 -34.5q0 -29 -20.5 -48.5t-48.5 -19.5h-379q-22 0 -35.5 13.5t-13.5 33.5q0 29 20.5 49t49.5 20z" />
    <glyph glyph-name="twosuperior" unicode="&#xb2;" horiz-adv-x="375" 
d="M104 554l158 131q36 31 36 60q0 13 -9 23t-26 10q-28 0 -53 -40q-19 -29 -48 -29q-20 0 -29.5 10t-9.5 22q0 3 0.5 6.5t0.5 4.5q6 32 48.5 73.5t112.5 41.5q54 0 84.5 -31t30.5 -74q0 -72 -74 -133l-101 -82h104q17 0 29 -11t12 -27q0 -22 -17 -38.5t-43 -16.5h-192
q-19 0 -31.5 12t-12.5 30q0 32 30 58z" />
    <glyph glyph-name="threesuperior" unicode="&#xb3;" horiz-adv-x="371" 
d="M281 867q54 0 86 -26.5t32 -66.5q0 -63 -55 -98q39 -29 39 -78q0 -65 -51 -109.5t-125 -44.5q-59 0 -96 31t-37 64q0 21 14 37t35 16q26 0 36 -24q6 -14 21.5 -25t36.5 -11q22 0 42.5 16.5t20.5 38.5q0 34 -50 34q-16 0 -26.5 10t-10.5 26q0 20 17 33t40 15q18 2 32.5 15
t14.5 32q0 11 -10 20t-23 9q-31 0 -52 -26q-18 -25 -44 -25q-20 0 -29.5 11t-9.5 27q0 2 0.5 4t0.5 3q6 30 47 61t104 31z" />
    <glyph glyph-name="acute" unicode="&#xb4;" horiz-adv-x="210" 
d="M255 649l-108 -84q-19 -15 -42 -15q-22 0 -36.5 14.5t-14.5 35.5q0 33 28 55l105 81q20 16 43 16q22 0 37 -14.5t15 -35.5q0 -31 -27 -53z" />
    <glyph glyph-name="mu" unicode="&#xb5;" horiz-adv-x="646" 
d="M444 53q-5 -7 -15.5 -17.5t-46 -28t-75.5 -17.5q-76 0 -115 52l-40 -208q-5 -26 -28 -45t-49 -19q-23 0 -37.5 15t-14.5 37q0 6 3 23l117 601q5 26 27 45t49 19q23 0 38 -15.5t15 -37.5q0 -5 -3 -20l-37 -188q-4 -24 -4 -35q0 -47 26.5 -77t75.5 -30q57 0 98.5 41
t53.5 101l39 197q5 26 27 45t49 19q23 0 38 -15.5t15 -37.5q0 -7 -3 -22l-75 -382q-5 -26 -27 -44.5t-49 -18.5q-23 0 -38 15t-15 37z" />
    <glyph glyph-name="paragraph" unicode="&#xb6;" horiz-adv-x="678" 
d="M391 -63l126 640h-73l-59 -301q-5 -26 -23 -41.5t-43 -15.5q-87 0 -142.5 55t-55.5 139q0 112 90.5 199.5t201.5 87.5h236q22 0 36 -14t14 -36q0 -23 -16 -43.5t-40 -28.5l-124 -639q-13 -70 -70.5 -119.5t-139.5 -49.5q-50 0 -91 28t-41 69q0 29 21.5 48.5t46.5 19.5
q31 0 47.5 -24t40.5 -24q20 0 37 14.5t21 35.5z" />
    <glyph glyph-name="periodcentered" unicode="&#xb7;" horiz-adv-x="296" 
d="M102 336q0 35 28 62.5t66 27.5q28 0 46.5 -19.5t18.5 -46.5q0 -36 -29 -63t-66 -27q-28 0 -46 19t-18 47z" />
    <glyph glyph-name="cedilla" unicode="&#xb8;" horiz-adv-x="235" 
d="M30 -64q0 14 11 30l27 41h104l-17 -30q32 -7 50.5 -28.5t18.5 -52.5q0 -55 -44 -90.5t-107 -35.5q-96 0 -96 48q0 22 15.5 38t34.5 16q9 0 24 -6.5t28 -6.5q11 0 20 8.5t9 20.5q0 9 -7.5 15.5t-18.5 6.5q-52 0 -52 26z" />
    <glyph glyph-name="onesuperior" unicode="&#xb9;" horiz-adv-x="257" 
d="M282 811l-62 -317q-4 -24 -20.5 -37t-37.5 -13q-18 0 -30.5 12t-12.5 29q0 3 2 17l52 264h-19q-17 0 -28.5 11t-11.5 28q0 21 17.5 38t40.5 17h70q17 0 29 -11.5t12 -28.5q0 -2 -0.5 -5t-0.5 -4z" />
    <glyph glyph-name="ordmasculine" unicode="&#xba;" horiz-adv-x="468" 
d="M472 562q0 -85 -63.5 -150.5t-159.5 -65.5q-68 0 -110 41t-42 105q0 90 63.5 154t159.5 64q66 0 109 -42.5t43 -105.5zM265 427q49 0 83.5 37t34.5 85q0 34 -22 56.5t-57 22.5q-48 0 -83 -36t-35 -83q0 -36 21 -59t58 -23z" />
    <glyph glyph-name="guillemotright" unicode="&#xbb;" horiz-adv-x="554" 
d="M391 259l-45 81q-9 16 -9 34q0 27 22 43.5t46 16.5q31 0 45 -29l60 -114q9 -18 9 -30q-1 -22 -23 -46l-108 -118q-24 -25 -53 -25q-20 0 -35 13.5t-15 38.5q0 23 18 41zM163 259l-45 81q-9 16 -9 34q0 27 22 43.5t46 16.5q31 0 45 -29l60 -114q9 -18 9 -30
q-1 -22 -23 -46l-108 -118q-24 -25 -53 -25q-20 0 -35 13.5t-15 38.5q0 23 18 41z" />
    <glyph glyph-name="onequarter" unicode="&#xbc;" horiz-adv-x="776" 
d="M102 62l510 624q19 24 46 24q17 0 28 -11t11 -27q0 -17 -13 -33l-510 -623q-22 -26 -47 -26q-18 0 -28.5 10.5t-10.5 25.5q0 18 14 36zM309 651l-62 -317q-5 -24 -21.5 -37t-36.5 -13q-18 0 -30.5 12t-12.5 29q0 3 2 17l52 264h-19q-17 0 -28.5 11t-11.5 28q0 21 17.5 38
t40.5 17h70q17 0 29 -11.5t12 -28.5q0 -2 -0.5 -5t-0.5 -4zM661 80h-12l-8 -40q-4 -20 -20 -35t-40 -15q-18 0 -29 12t-11 29q0 5 2 17l7 32h-127q-22 0 -34.5 13t-12.5 32q0 24 22 51l172 203q23 27 45 27h47q19 0 30.5 -10.5t11.5 -26.5q0 -2 -0.5 -6t-0.5 -5l-37 -187h12
q17 0 28 -11.5t11 -26.5q0 -23 -17.5 -38t-38.5 -15zM499 171h70l23 116z" />
    <glyph glyph-name="onehalf" unicode="&#xbd;" horiz-adv-x="815" 
d="M102 62l510 624q19 24 46 24q17 0 28 -11t11 -27q0 -17 -13 -33l-510 -623q-22 -26 -47 -26q-18 0 -28.5 10.5t-10.5 25.5q0 18 14 36zM309 651l-62 -317q-5 -24 -21.5 -37t-36.5 -13q-18 0 -30.5 12t-12.5 29q0 3 2 17l52 264h-19q-17 0 -28.5 11t-11.5 28q0 21 17.5 38
t40.5 17h70q17 0 29 -11.5t12 -28.5q0 -2 -0.5 -5t-0.5 -4zM475 100l158 131q36 31 36 60q0 13 -9 23t-26 10q-28 0 -53 -40q-19 -29 -48 -29q-20 0 -29.5 10t-9.5 22q0 3 0.5 6.5t0.5 4.5q6 32 48.5 73.5t112.5 41.5q54 0 84.5 -31t30.5 -74q0 -72 -74 -133l-101 -82h104
q17 0 29 -11t12 -27q0 -22 -17 -38.5t-43 -16.5h-192q-19 0 -31.5 12t-12.5 30q0 32 30 58z" />
    <glyph glyph-name="threequarters" unicode="&#xbe;" horiz-adv-x="871" 
d="M197 62l510 624q19 24 46 24q17 0 28 -11t11 -27q0 -17 -13 -33l-510 -623q-22 -26 -47 -26q-18 0 -28.5 10.5t-10.5 25.5q0 18 14 36zM756 80h-12l-8 -40q-4 -20 -20 -35t-40 -15q-18 0 -29 12t-11 29q0 5 2 17l7 32h-127q-22 0 -34.5 13t-12.5 32q0 24 22 51l172 203
q23 27 45 27h47q19 0 30.5 -10.5t11.5 -26.5q0 -2 -0.5 -6t-0.5 -5l-37 -187h12q17 0 28 -11.5t11 -26.5q0 -23 -17.5 -38t-38.5 -15zM594 171h70l23 116zM298 707q54 0 86 -26.5t32 -66.5q0 -63 -55 -98q39 -29 39 -78q0 -65 -51 -109.5t-125 -44.5q-59 0 -96 31t-37 64
q0 21 14 37t35 16q26 0 36 -24q6 -14 21.5 -25t36.5 -11q22 0 42.5 16.5t20.5 38.5q0 34 -50 34q-16 0 -26.5 10t-10.5 26q0 20 17 33t40 15q18 2 32.5 15t14.5 32q0 11 -10 20t-23 9q-31 0 -52 -26q-18 -25 -44 -25q-20 0 -29.5 11t-9.5 27q0 2 0.5 4t0.5 3q6 30 47 61
t104 31z" />
    <glyph glyph-name="questiondown" unicode="&#xbf;" horiz-adv-x="542" 
d="M227 -210q-83 0 -136.5 45.5t-53.5 112.5q0 50 20 88.5t49 62t58.5 43t53.5 42t29 48.5q6 28 29.5 48t51.5 20q23 0 38 -15.5t15 -40.5q0 -4 -2 -16q-7 -36 -31.5 -68t-54.5 -55.5t-59.5 -45.5t-49 -46.5t-19.5 -49.5q0 -28 21 -45.5t53 -17.5q44 0 74 25t36 47
q5 17 23 31t42 14q45 0 45 -48q0 -50 -66.5 -114.5t-165.5 -64.5zM432 448q0 -36 -28.5 -65t-66.5 -29q-28 0 -46 18.5t-18 45.5q0 36 29 64t65 28q28 0 46.5 -18t18.5 -44z" />
    <glyph glyph-name="Agrave" unicode="&#xc0;" horiz-adv-x="719" 
d="M661 91q2 -16 2 -24q0 -30 -24 -53.5t-55 -23.5q-44 0 -52 49l-22 141h-291l-73 -139q-12 -22 -33 -36.5t-43 -14.5q-25 0 -41.5 15.5t-16.5 37.5q0 20 16 51l296 556q26 50 73 50h129q21 0 36.5 -14t18.5 -35zM282 300h212l-40 279h-25zM465 766l-80 88q-12 12 -12 32
q0 29 20.5 49t47.5 20q22 0 37 -16l80 -88q11 -13 11 -31q0 -29 -19.5 -49t-48.5 -20q-22 0 -36 15z" />
    <glyph glyph-name="Aacute" unicode="&#xc1;" horiz-adv-x="719" 
d="M661 91q2 -16 2 -24q0 -30 -24 -53.5t-55 -23.5q-44 0 -52 49l-22 141h-291l-73 -139q-12 -22 -33 -36.5t-43 -14.5q-25 0 -41.5 15.5t-16.5 37.5q0 20 16 51l296 556q26 50 73 50h129q21 0 36.5 -14t18.5 -35zM282 300h212l-40 279h-25zM592 849l-108 -84
q-20 -15 -42 -15t-36.5 14.5t-14.5 35.5q0 33 28 55l105 81q20 16 43 16q22 0 37 -14.5t15 -35.5q0 -31 -27 -53z" />
    <glyph glyph-name="Acircumflex" unicode="&#xc2;" horiz-adv-x="719" 
d="M661 91q2 -16 2 -24q0 -30 -24 -53.5t-55 -23.5q-44 0 -52 49l-22 141h-291l-73 -139q-12 -22 -33 -36.5t-43 -14.5q-25 0 -41.5 15.5t-16.5 37.5q0 20 16 51l296 556q26 50 73 50h129q21 0 36.5 -14t18.5 -35zM282 300h212l-40 279h-25zM547 765l-53 60l-81 -62
q-19 -15 -42 -15q-19 0 -34.5 14.5t-15.5 35.5q0 32 30 55l109 82q20 15 50 15q29 0 48 -19l79 -84q13 -15 13 -34q0 -31 -19.5 -47.5t-44.5 -16.5t-39 16z" />
    <glyph glyph-name="Atilde" unicode="&#xc3;" horiz-adv-x="719" 
d="M661 91q2 -16 2 -24q0 -30 -24 -53.5t-55 -23.5q-44 0 -52 49l-22 141h-291l-73 -139q-12 -22 -33 -36.5t-43 -14.5q-25 0 -41.5 15.5t-16.5 37.5q0 20 16 51l296 556q26 50 73 50h129q21 0 36.5 -14t18.5 -35zM282 300h212l-40 279h-25zM442 929q33 0 68.5 -27.5
t46.5 -27.5q8 0 16.5 8.5t15 19t20 19t31.5 8.5q20 0 33.5 -13t13.5 -32q0 -37 -38.5 -78.5t-100.5 -41.5q-25 0 -47 14t-38.5 27.5t-27.5 13.5q-12 0 -23 -13.5t-26 -27.5t-36 -14q-20 0 -33 12.5t-13 31.5q0 38 37.5 79.5t100.5 41.5z" />
    <glyph glyph-name="Adieresis" unicode="&#xc4;" horiz-adv-x="719" 
d="M661 91q2 -16 2 -24q0 -30 -24 -53.5t-55 -23.5q-44 0 -52 49l-22 141h-291l-73 -139q-12 -22 -33 -36.5t-43 -14.5q-25 0 -41.5 15.5t-16.5 37.5q0 20 16 51l296 556q26 50 73 50h129q21 0 36.5 -14t18.5 -35zM282 300h212l-40 279h-25zM301 817q0 36 28 64.5t66 28.5
q28 0 46 -18.5t18 -45.5q0 -36 -29 -64t-65 -28q-28 0 -46 18t-18 45zM530 817q0 36 28 64.5t66 28.5q28 0 46 -18.5t18 -45.5q0 -36 -29 -64t-65 -28q-28 0 -46 18t-18 45z" />
    <glyph glyph-name="Aring" unicode="&#xc5;" horiz-adv-x="719" 
d="M661 91q2 -16 2 -24q0 -30 -24 -53.5t-55 -23.5q-44 0 -52 49l-22 141h-291l-73 -139q-12 -22 -33 -36.5t-43 -14.5q-25 0 -41.5 15.5t-16.5 37.5q0 20 16 51l296 556q26 50 73 50h129q21 0 36.5 -14t18.5 -35zM282 300h212l-40 279h-25zM372 835q0 58 43 99t105 41
q44 0 72 -26t28 -68q0 -59 -43 -99.5t-104 -40.5q-44 0 -72.5 26t-28.5 68zM505 906q-23 0 -41 -17t-18 -40q0 -17 11.5 -28t28.5 -11q25 0 41.5 17.5t16.5 40.5q0 16 -11.5 27t-27.5 11z" />
    <glyph glyph-name="AE" unicode="&#xc6;" horiz-adv-x="1055" 
d="M614 120h315q24 0 39.5 -13t15.5 -35q0 -30 -24 -51t-54 -21h-379q-24 0 -38.5 14.5t-14.5 37.5q0 10 3 25l21 108h-265l-115 -161q-24 -34 -63 -34q-27 0 -42 15.5t-15 37.5t13 41l422 581q25 35 64 35h545q24 0 39 -13.5t15 -35.5q0 -32 -23 -52t-54 -20h-315l-31 -157
h260q24 0 39 -13.5t15 -34.5q0 -32 -23.5 -52.5t-54.5 -20.5h-260zM517 579l-200 -278h203l55 278h-58z" />
    <glyph glyph-name="Ccedilla" unicode="&#xc7;" horiz-adv-x="702" 
d="M286 -64q0 14 11 30l21 32q-106 22 -169 101t-63 189q0 174 122 298t309 124q39 0 83 -10.5t80.5 -34t36.5 -54.5q0 -30 -21.5 -48t-48.5 -18q-16 0 -37 13q-49 32 -111 32q-114 0 -197.5 -87t-83.5 -201q0 -84 51 -137.5t137 -53.5q73 0 143 45q22 14 39 14
q21 0 35.5 -14.5t14.5 -36.5q0 -51 -69.5 -86t-149.5 -42l-8 -14q32 -7 50.5 -28.5t18.5 -52.5q0 -55 -44 -90.5t-107 -35.5q-96 0 -96 48q0 22 15.5 38t34.5 16q9 0 24 -6.5t28 -6.5q11 0 20 8.5t9 20.5q0 9 -7.5 15.5t-18.5 6.5q-52 0 -52 26z" />
    <glyph glyph-name="Egrave" unicode="&#xc8;" horiz-adv-x="654" 
d="M503 0h-392q-26 0 -40.5 14t-14.5 37q0 9 3 22l109 563q5 28 27.5 46t53.5 18h384q57 0 57 -50q0 -32 -23.5 -51t-58.5 -19h-321l-30 -159h272q57 0 57 -50q0 -32 -23.5 -51t-58.5 -19h-271l-35 -181h330q57 0 57 -50q0 -32 -23.5 -51t-58.5 -19zM443 766l-80 88
q-12 12 -12 32q0 29 20.5 49t47.5 20q22 0 37 -16l80 -88q11 -13 11 -31q0 -29 -19.5 -49t-48.5 -20q-23 0 -36 15z" />
    <glyph glyph-name="Eacute" unicode="&#xc9;" horiz-adv-x="654" 
d="M503 0h-392q-26 0 -40.5 14t-14.5 37q0 9 3 22l109 563q5 28 27.5 46t53.5 18h384q57 0 57 -50q0 -32 -23.5 -51t-58.5 -19h-321l-30 -159h272q57 0 57 -50q0 -32 -23.5 -51t-58.5 -19h-271l-35 -181h330q57 0 57 -50q0 -32 -23.5 -51t-58.5 -19zM568 849l-108 -84
q-20 -15 -42 -15t-36.5 14.5t-14.5 35.5q0 33 28 55l105 81q20 16 43 16q22 0 37 -14.5t15 -35.5q0 -31 -27 -53z" />
    <glyph glyph-name="Ecircumflex" unicode="&#xca;" horiz-adv-x="654" 
d="M503 0h-392q-26 0 -40.5 14t-14.5 37q0 9 3 22l109 563q5 28 27.5 46t53.5 18h384q57 0 57 -50q0 -32 -23.5 -51t-58.5 -19h-321l-30 -159h272q57 0 57 -50q0 -32 -23.5 -51t-58.5 -19h-271l-35 -181h330q57 0 57 -50q0 -32 -23.5 -51t-58.5 -19zM523 765l-53 60l-81 -62
q-19 -15 -42 -15q-19 0 -34.5 14.5t-15.5 35.5q0 32 30 55l109 82q20 15 50 15q29 0 48 -19l79 -84q13 -15 13 -34q0 -31 -19.5 -47.5t-44.5 -16.5t-39 16z" />
    <glyph glyph-name="Edieresis" unicode="&#xcb;" horiz-adv-x="654" 
d="M503 0h-392q-26 0 -40.5 14t-14.5 37q0 9 3 22l109 563q5 28 27.5 46t53.5 18h384q57 0 57 -50q0 -32 -23.5 -51t-58.5 -19h-321l-30 -159h272q57 0 57 -50q0 -32 -23.5 -51t-58.5 -19h-271l-35 -181h330q57 0 57 -50q0 -32 -23.5 -51t-58.5 -19zM278 817q0 36 28 64.5
t66 28.5q28 0 46 -18.5t18 -45.5q0 -36 -29 -64t-65 -28q-28 0 -46 18t-18 45zM507 817q0 36 28 64.5t66 28.5q28 0 46 -18.5t18 -45.5q0 -36 -29 -64t-65 -28q-28 0 -46 18t-18 45z" />
    <glyph glyph-name="Igrave" unicode="&#xcc;" horiz-adv-x="310" 
d="M179 645q5 27 26.5 46t51.5 19q24 0 40 -15t16 -37q0 -6 -2 -18l-113 -585q-5 -27 -27 -46t-52 -19q-24 0 -40 15t-16 38q0 6 2 16zM244 766l-80 88q-12 12 -12 32q0 29 20.5 49t47.5 20q22 0 37 -16l80 -88q11 -13 11 -31q0 -29 -19.5 -49t-48.5 -20q-22 0 -36 15z" />
    <glyph glyph-name="Iacute" unicode="&#xcd;" horiz-adv-x="310" 
d="M179 645q5 27 26.5 46t51.5 19q24 0 40 -15t16 -37q0 -6 -2 -18l-113 -585q-5 -27 -27 -46t-52 -19q-24 0 -40 15t-16 38q0 6 2 16zM396 849l-108 -84q-20 -15 -42 -15t-36.5 14.5t-14.5 35.5q0 33 28 55l105 81q20 16 43 16q22 0 37 -14.5t15 -35.5q0 -31 -27 -53z" />
    <glyph glyph-name="Icircumflex" unicode="&#xce;" horiz-adv-x="310" 
d="M179 645q5 27 26.5 46t51.5 19q24 0 40 -15t16 -37q0 -6 -2 -18l-113 -585q-5 -27 -27 -46t-52 -19q-24 0 -40 15t-16 38q0 6 2 16zM335 765l-53 60l-81 -62q-19 -15 -42 -15q-19 0 -34.5 14.5t-15.5 35.5q0 32 30 55l109 82q20 15 50 15q29 0 48 -19l79 -84
q13 -15 13 -34q0 -31 -19.5 -47.5t-44.5 -16.5t-39 16z" />
    <glyph glyph-name="Idieresis" unicode="&#xcf;" horiz-adv-x="310" 
d="M179 645q5 27 26.5 46t51.5 19q24 0 40 -15t16 -37q0 -6 -2 -18l-113 -585q-5 -27 -27 -46t-52 -19q-24 0 -40 15t-16 38q0 6 2 16zM90 817q0 36 28 64.5t66 28.5q28 0 46 -18.5t18 -45.5q0 -36 -29 -64t-65 -28q-28 0 -46 18t-18 45zM319 817q0 36 28 64.5t66 28.5
q28 0 46 -18.5t18 -45.5q0 -36 -29 -64t-65 -28q-28 0 -46 18t-18 45z" />
    <glyph glyph-name="Eth" unicode="&#xd0;" horiz-adv-x="733" 
d="M260 700h179q122 0 198 -80.5t76 -209.5q0 -178 -111.5 -294t-299.5 -116h-180q-26 0 -40.5 14t-14.5 37q0 9 3 22l44 230h-12q-21 0 -34 14t-13 36q0 27 19.5 46.5t50.5 19.5h12l42 217q5 28 27.5 46t53.5 18zM415 581h-121l-31 -162h72q21 0 34 -14t13 -36
q0 -27 -20 -46.5t-50 -19.5h-72l-35 -183h121q116 0 187 82t71 194q0 81 -45.5 133t-123.5 52z" />
    <glyph glyph-name="Ntilde" unicode="&#xd1;" horiz-adv-x="786" 
d="M510 34l-204 410l-33 86l-13 -96l-73 -380q-5 -27 -27 -45.5t-50 -18.5q-24 0 -39 14.5t-15 37.5q0 7 2 17l111 574q6 30 26.5 48.5t52.5 18.5h39q41 0 58 -34l203 -411l32 -85l13 95l74 381q5 27 27 45.5t50 18.5q24 0 39 -14.5t15 -37.5q0 -7 -2 -17l-111 -574
q-6 -30 -26.5 -48.5t-52.5 -18.5h-39q-39 0 -57 34zM471 929q33 0 68.5 -27.5t46.5 -27.5q8 0 16.5 8.5t15 19t20 19t31.5 8.5q20 0 33.5 -13t13.5 -32q0 -37 -38.5 -78.5t-100.5 -41.5q-25 0 -47 14t-38.5 27.5t-27.5 13.5q-12 0 -23 -13.5t-26 -27.5t-36 -14
q-20 0 -33 12.5t-13 31.5q0 38 37.5 79.5t100.5 41.5z" />
    <glyph glyph-name="Ograve" unicode="&#xd2;" horiz-adv-x="840" 
d="M406 111q114 0 198 87t84 200q0 85 -51.5 138.5t-137.5 53.5q-114 0 -197.5 -87t-83.5 -201q0 -84 51 -137.5t137 -53.5zM394 -10q-137 0 -222.5 84t-85.5 214q0 110 54 206.5t153 156t220 59.5q137 0 222 -84t85 -214q0 -111 -53.5 -207t-152.5 -155.5t-220 -59.5z
M495 766l-80 88q-12 12 -12 32q0 29 20.5 49t47.5 20q22 0 37 -16l80 -88q11 -13 11 -31q0 -29 -19.5 -49t-48.5 -20q-23 0 -36 15z" />
    <glyph glyph-name="Oacute" unicode="&#xd3;" horiz-adv-x="840" 
d="M406 111q114 0 198 87t84 200q0 85 -51.5 138.5t-137.5 53.5q-114 0 -197.5 -87t-83.5 -201q0 -84 51 -137.5t137 -53.5zM394 -10q-137 0 -222.5 84t-85.5 214q0 110 54 206.5t153 156t220 59.5q137 0 222 -84t85 -214q0 -111 -53.5 -207t-152.5 -155.5t-220 -59.5z
M658 849l-108 -84q-20 -15 -42 -15t-36.5 14.5t-14.5 35.5q0 33 28 55l105 81q20 16 43 16q22 0 37 -14.5t15 -35.5q0 -31 -27 -53z" />
    <glyph glyph-name="Ocircumflex" unicode="&#xd4;" horiz-adv-x="840" 
d="M406 111q114 0 198 87t84 200q0 85 -51.5 138.5t-137.5 53.5q-114 0 -197.5 -87t-83.5 -201q0 -84 51 -137.5t137 -53.5zM394 -10q-137 0 -222.5 84t-85.5 214q0 110 54 206.5t153 156t220 59.5q137 0 222 -84t85 -214q0 -111 -53.5 -207t-152.5 -155.5t-220 -59.5z
M600 765l-53 60l-81 -62q-19 -15 -42 -15q-19 0 -34.5 14.5t-15.5 35.5q0 32 30 55l109 82q20 15 50 15q29 0 48 -19l79 -84q13 -15 13 -34q0 -31 -19.5 -47.5t-44.5 -16.5t-39 16z" />
    <glyph glyph-name="Otilde" unicode="&#xd5;" horiz-adv-x="840" 
d="M406 111q114 0 198 87t84 200q0 85 -51.5 138.5t-137.5 53.5q-114 0 -197.5 -87t-83.5 -201q0 -84 51 -137.5t137 -53.5zM394 -10q-137 0 -222.5 84t-85.5 214q0 110 54 206.5t153 156t220 59.5q137 0 222 -84t85 -214q0 -111 -53.5 -207t-152.5 -155.5t-220 -59.5z
M495 929q33 0 68.5 -27.5t46.5 -27.5q8 0 16.5 8.5t15 19t20 19t31.5 8.5q20 0 33.5 -13t13.5 -32q0 -37 -38.5 -78.5t-100.5 -41.5q-25 0 -47 14t-38.5 27.5t-27.5 13.5q-12 0 -23 -13.5t-26 -27.5t-36 -14q-20 0 -33 12.5t-13 31.5q0 38 37.5 79.5t100.5 41.5z" />
    <glyph glyph-name="Odieresis" unicode="&#xd6;" horiz-adv-x="840" 
d="M406 111q114 0 198 87t84 200q0 85 -51.5 138.5t-137.5 53.5q-114 0 -197.5 -87t-83.5 -201q0 -84 51 -137.5t137 -53.5zM394 -10q-137 0 -222.5 84t-85.5 214q0 110 54 206.5t153 156t220 59.5q137 0 222 -84t85 -214q0 -111 -53.5 -207t-152.5 -155.5t-220 -59.5z
M352 817q0 36 28 64.5t66 28.5q28 0 46 -18.5t18 -45.5q0 -36 -29 -64t-65 -28q-28 0 -46 18t-18 45zM581 817q0 36 28 64.5t66 28.5q28 0 46 -18.5t18 -45.5q0 -36 -29 -64t-65 -28q-28 0 -46 18t-18 45z" />
    <glyph glyph-name="multiply" unicode="&#xd7;" horiz-adv-x="545" 
d="M215 445l93 -115l141 118q19 16 42 16q21 0 35 -14t14 -34q0 -30 -25 -50l-141 -118l92 -114q9 -12 9 -28q0 -28 -16.5 -46t-43.5 -18q-24 0 -38 17l-92 114l-139 -116q-20 -17 -45 -17q-21 0 -34 13.5t-13 33.5q0 29 26 52l139 116l-88 111q-14 19 -14 31q0 28 17.5 46
t44.5 18q23 0 36 -16z" />
    <glyph glyph-name="Oslash" unicode="&#xd8;" horiz-adv-x="840" 
d="M394 -10q-95 0 -168 42l-39 -44q-20 -22 -45 -22q-19 0 -30 12t-11 29q0 21 16 39l39 44q-70 81 -70 198q0 110 54 206.5t153 156t220 59.5q89 0 163 -40l39 44q20 21 46 21q18 0 29.5 -12t11.5 -29q0 -19 -16 -38l-39 -43q73 -81 73 -201q0 -111 -53.5 -207
t-152.5 -155.5t-220 -59.5zM406 111q114 0 198 87t84 200q0 66 -32 113l-341 -380q40 -20 91 -20zM218 302q0 -64 29 -110l340 379q-40 19 -88 19q-114 0 -197.5 -87t-83.5 -201z" />
    <glyph glyph-name="Ugrave" unicode="&#xd9;" horiz-adv-x="789" 
d="M804 640l-66 -338q-28 -142 -129 -227t-240 -85q-114 0 -194.5 71t-80.5 185q0 30 6 62l66 337q5 28 27 46.5t50 18.5q24 0 39 -15t15 -38q0 -5 -2 -17l-65 -332q-4 -20 -4 -45q0 -71 46.5 -108.5t109.5 -37.5q82 0 146 52.5t83 148.5l64 327q5 28 27 46.5t50 18.5
q24 0 39 -15t15 -38q0 -5 -2 -17zM467 766l-80 88q-12 12 -12 32q0 29 20.5 49t47.5 20q22 0 37 -16l80 -88q11 -13 11 -31q0 -29 -19.5 -49t-48.5 -20q-23 0 -36 15z" />
    <glyph glyph-name="Uacute" unicode="&#xda;" horiz-adv-x="789" 
d="M804 640l-66 -338q-28 -142 -129 -227t-240 -85q-114 0 -194.5 71t-80.5 185q0 30 6 62l66 337q5 28 27 46.5t50 18.5q24 0 39 -15t15 -38q0 -5 -2 -17l-65 -332q-4 -20 -4 -45q0 -71 46.5 -108.5t109.5 -37.5q82 0 146 52.5t83 148.5l64 327q5 28 27 46.5t50 18.5
q24 0 39 -15t15 -38q0 -5 -2 -17zM633 849l-108 -84q-19 -15 -42 -15q-22 0 -36.5 14.5t-14.5 35.5q0 33 28 55l105 81q20 16 43 16q22 0 37 -14.5t15 -35.5q0 -31 -27 -53z" />
    <glyph glyph-name="Ucircumflex" unicode="&#xdb;" horiz-adv-x="789" 
d="M804 640l-66 -338q-28 -142 -129 -227t-240 -85q-114 0 -194.5 71t-80.5 185q0 30 6 62l66 337q5 28 27 46.5t50 18.5q24 0 39 -15t15 -38q0 -5 -2 -17l-65 -332q-4 -20 -4 -45q0 -71 46.5 -108.5t109.5 -37.5q82 0 146 52.5t83 148.5l64 327q5 28 27 46.5t50 18.5
q24 0 39 -15t15 -38q0 -5 -2 -17zM572 765l-53 60l-81 -62q-20 -15 -42 -15q-19 0 -34.5 14.5t-15.5 35.5q0 32 30 55l109 82q20 15 50 15q29 0 48 -19l79 -84q13 -15 13 -34q0 -31 -19.5 -47.5t-44.5 -16.5t-39 16z" />
    <glyph glyph-name="Udieresis" unicode="&#xdc;" horiz-adv-x="789" 
d="M804 640l-66 -338q-28 -142 -129 -227t-240 -85q-114 0 -194.5 71t-80.5 185q0 30 6 62l66 337q5 28 27 46.5t50 18.5q24 0 39 -15t15 -38q0 -5 -2 -17l-65 -332q-4 -20 -4 -45q0 -71 46.5 -108.5t109.5 -37.5q82 0 146 52.5t83 148.5l64 327q5 28 27 46.5t50 18.5
q24 0 39 -15t15 -38q0 -5 -2 -17zM324 817q0 36 28 64.5t66 28.5q28 0 46 -18.5t18 -45.5q0 -36 -29 -64t-65 -28q-28 0 -46 18t-18 45zM553 817q0 36 28 64.5t66 28.5q28 0 46 -18.5t18 -45.5q0 -36 -29 -64t-65 -28q-28 0 -46 18t-18 45z" />
    <glyph glyph-name="Yacute" unicode="&#xdd;" horiz-adv-x="669" 
d="M422 288l-45 -233q-5 -27 -26.5 -46t-51.5 -19q-24 0 -40 15t-16 38q0 6 2 16l46 230l-173 313q-8 16 -8 33q0 31 19.5 53t51.5 22q34 0 50 -29l145 -271l248 273q26 27 61 27q23 0 39.5 -14.5t16.5 -37.5q0 -28 -23 -53zM588 849l-108 -84q-20 -15 -42 -15t-36.5 14.5
t-14.5 35.5q0 33 28 55l105 81q20 16 43 16q22 0 37 -14.5t15 -35.5q0 -31 -27 -53z" />
    <glyph glyph-name="Thorn" unicode="&#xde;" horiz-adv-x="634" 
d="M171 645q5 27 27 46t51 19q24 0 38.5 -15t14.5 -38q0 -10 -2 -18l-4 -18h156q86 0 141 -56t55 -144q0 -118 -85.5 -196.5t-202.5 -78.5h-156l-18 -91q-5 -27 -27 -46t-50 -19q-24 0 -39 14.5t-15 37.5q0 10 2 18zM273 501l-46 -235h148q60 0 102 42.5t42 95.5
q0 40 -26 68.5t-64 28.5h-156z" />
    <glyph glyph-name="germandbls" unicode="&#xdf;" horiz-adv-x="660" 
d="M318 117h82q37 0 60 20.5t23 55.5q0 26 -21 47.5t-45.5 36t-45.5 43t-21 65.5q0 74 50.5 117t112.5 53q0 2 0.5 6t0.5 6q0 35 -27.5 56t-64.5 21q-55 0 -94 -35t-51 -96l-131 -682q-5 -27 -26 -44t-47 -17q-22 0 -37.5 14t-15.5 36q0 6 1 12l106 550q-21 0 -35 15.5
t-14 37.5q0 28 21 46.5t51 18.5q52 250 286 250q92 0 143.5 -51t51.5 -119q0 -44 -20 -74.5t-58 -38.5q-73 -15 -73 -62q0 -20 20.5 -41t44.5 -37.5t44.5 -48t20.5 -71.5q0 -97 -67 -152t-165 -55h-78q-26 0 -41.5 13t-15.5 35q0 30 21 49.5t54 19.5z" />
    <glyph glyph-name="agrave" unicode="&#xe0;" horiz-adv-x="638" 
d="M626 443l-75 -386q-6 -29 -26 -48t-54 -19q-21 0 -35 14t-14 32q0 5 1 7q-64 -53 -149 -53q-94 0 -152 60t-58 156q0 125 88.5 214.5t215.5 89.5q44 0 81 -16.5t54 -36.5q4 19 24.5 36t44.5 17q23 0 39.5 -14t16.5 -37q0 -8 -2 -16zM304 106q69 0 119 51t50 125
q0 50 -31 81t-82 31q-70 0 -121 -52t-51 -119q0 -52 31.5 -84.5t84.5 -32.5zM360 566l-80 88q-12 12 -12 32q0 29 20.5 49t47.5 20q22 0 37 -16l80 -88q11 -13 11 -31q0 -29 -19.5 -49t-48.5 -20q-22 0 -36 15z" />
    <glyph glyph-name="aacute" unicode="&#xe1;" horiz-adv-x="638" 
d="M626 443l-75 -386q-6 -29 -26 -48t-54 -19q-21 0 -35 14t-14 32q0 5 1 7q-64 -53 -149 -53q-94 0 -152 60t-58 156q0 125 88.5 214.5t215.5 89.5q44 0 81 -16.5t54 -36.5q4 19 24.5 36t44.5 17q23 0 39.5 -14t16.5 -37q0 -8 -2 -16zM304 106q69 0 119 51t50 125
q0 50 -31 81t-82 31q-70 0 -121 -52t-51 -119q0 -52 31.5 -84.5t84.5 -32.5zM529 649l-108 -84q-19 -15 -42 -15q-22 0 -36.5 14.5t-14.5 35.5q0 33 28 55l105 81q20 16 43 16q22 0 37 -14.5t15 -35.5q0 -31 -27 -53z" />
    <glyph glyph-name="acircumflex" unicode="&#xe2;" horiz-adv-x="638" 
d="M626 443l-75 -386q-6 -29 -26 -48t-54 -19q-21 0 -35 14t-14 32q0 5 1 7q-64 -53 -149 -53q-94 0 -152 60t-58 156q0 125 88.5 214.5t215.5 89.5q44 0 81 -16.5t54 -36.5q4 19 24.5 36t44.5 17q23 0 39.5 -14t16.5 -37q0 -8 -2 -16zM304 106q69 0 119 51t50 125
q0 50 -31 81t-82 31q-70 0 -121 -52t-51 -119q0 -52 31.5 -84.5t84.5 -32.5zM464 565l-53 60l-81 -62q-20 -15 -42 -15q-19 0 -34.5 14.5t-15.5 35.5q0 32 30 55l109 82q20 15 50 15q29 0 48 -19l79 -84q13 -15 13 -34q0 -31 -19.5 -47.5t-44.5 -16.5t-39 16z" />
    <glyph glyph-name="atilde" unicode="&#xe3;" horiz-adv-x="638" 
d="M626 443l-75 -386q-6 -29 -26 -48t-54 -19q-21 0 -35 14t-14 32q0 5 1 7q-64 -53 -149 -53q-94 0 -152 60t-58 156q0 125 88.5 214.5t215.5 89.5q44 0 81 -16.5t54 -36.5q4 19 24.5 36t44.5 17q23 0 39.5 -14t16.5 -37q0 -8 -2 -16zM304 106q69 0 119 51t50 125
q0 50 -31 81t-82 31q-70 0 -121 -52t-51 -119q0 -52 31.5 -84.5t84.5 -32.5zM359 729q33 0 68.5 -27.5t46.5 -27.5q8 0 16.5 8.5t15 19t20 19t31.5 8.5q20 0 33.5 -13t13.5 -32q0 -37 -38.5 -78.5t-100.5 -41.5q-25 0 -47 14t-38.5 27.5t-27.5 13.5q-12 0 -23 -13.5
t-26 -27.5t-36 -14q-20 0 -33 12.5t-13 31.5q0 38 37.5 79.5t100.5 41.5z" />
    <glyph glyph-name="adieresis" unicode="&#xe4;" horiz-adv-x="638" 
d="M626 443l-75 -386q-6 -29 -26 -48t-54 -19q-21 0 -35 14t-14 32q0 5 1 7q-64 -53 -149 -53q-94 0 -152 60t-58 156q0 125 88.5 214.5t215.5 89.5q44 0 81 -16.5t54 -36.5q4 19 24.5 36t44.5 17q23 0 39.5 -14t16.5 -37q0 -8 -2 -16zM304 106q69 0 119 51t50 125
q0 50 -31 81t-82 31q-70 0 -121 -52t-51 -119q0 -52 31.5 -84.5t84.5 -32.5zM215 617q0 36 28 64.5t66 28.5q28 0 46 -18.5t18 -45.5q0 -36 -29 -64t-65 -28q-28 0 -46 18t-18 45zM444 617q0 36 28 64.5t66 28.5q28 0 46 -18.5t18 -45.5q0 -36 -29 -64t-65 -28q-28 0 -46 18
t-18 45z" />
    <glyph glyph-name="aring" unicode="&#xe5;" horiz-adv-x="638" 
d="M626 443l-75 -386q-6 -29 -26 -48t-54 -19q-21 0 -35 14t-14 32q0 5 1 7q-64 -53 -149 -53q-94 0 -152 60t-58 156q0 125 88.5 214.5t215.5 89.5q44 0 81 -16.5t54 -36.5q4 19 24.5 36t44.5 17q23 0 39.5 -14t16.5 -37q0 -8 -2 -16zM304 106q69 0 119 51t50 125
q0 50 -31 81t-82 31q-70 0 -121 -52t-51 -119q0 -52 31.5 -84.5t84.5 -32.5zM291 635q0 58 43 99t105 41q44 0 72 -26t28 -68q0 -59 -43 -99.5t-104 -40.5q-44 0 -72.5 26t-28.5 68zM424 706q-23 0 -41 -17t-18 -40q0 -17 11.5 -28t28.5 -11q25 0 41.5 17.5t16.5 40.5
q0 16 -11.5 27t-27.5 11z" />
    <glyph glyph-name="ae" unicode="&#xe6;" horiz-adv-x="988" 
d="M892 199h-299q1 -40 34 -67.5t78 -27.5q51 0 90 18t54 18q22 0 35.5 -12.5t13.5 -32.5q0 -42 -46 -68q-62 -37 -162 -37q-90 0 -143 53q-20 -53 -76 -53q-21 0 -35 14t-14 32q0 5 1 7q-26 -20 -68.5 -36.5t-88.5 -16.5q-89 0 -145.5 60.5t-56.5 155.5q0 124 88.5 214
t215.5 90q44 0 81 -16.5t54 -36.5q4 19 24.5 36t44.5 17q23 0 39.5 -14.5t16.5 -39.5q70 53 152 53q91 0 148 -58.5t57 -139.5q0 -48 -25 -80t-68 -32zM470 251q3 16 3 31q0 50 -31 81t-82 31q-70 0 -121 -52t-51 -119q0 -50 32 -83.5t84 -33.5q60 0 107 41.5t59 103.5z
M757 397q-45 0 -87 -29.5t-57 -67.5h253q0 37 -30 67t-79 30z" />
    <glyph glyph-name="ccedilla" unicode="&#xe7;" horiz-adv-x="506" 
d="M178 -64q0 14 11 30l23 34q-68 20 -108 74t-40 127q0 135 91 222t227 87q76 0 114 -22.5t38 -54.5q0 -24 -21.5 -45t-48.5 -21q-14 0 -41 13t-66 13q-64 0 -116 -53t-52 -120q0 -49 33 -81.5t86 -32.5q36 0 68.5 15.5t48.5 15.5q21 0 34.5 -14t13.5 -34q0 -40 -42 -67
t-121 -31l-7 -14q32 -7 50.5 -28.5t18.5 -52.5q0 -55 -44 -90.5t-107 -35.5q-96 0 -96 48q0 22 15.5 38t34.5 16q9 0 24 -6.5t28 -6.5q11 0 20 8.5t9 20.5q0 9 -7.5 15.5t-18.5 6.5q-52 0 -52 26z" />
    <glyph glyph-name="egrave" unicode="&#xe8;" horiz-adv-x="587" 
d="M491 202h-299q1 -40 34 -69t78 -29q52 0 90 18t54 18q22 0 35.5 -12.5t13.5 -32.5q0 -42 -46 -68q-62 -37 -159 -37q-104 0 -166 59t-62 151q0 133 89.5 221t214.5 88q99 0 157.5 -58t58.5 -140q0 -47 -24.5 -78t-68.5 -31zM356 398q-49 0 -92 -31t-55 -70h256
q0 41 -29.5 71t-79.5 30zM368 566l-80 88q-12 12 -12 32q0 29 20.5 49t47.5 20q22 0 37 -16l80 -88q11 -13 11 -31q0 -29 -19.5 -49t-48.5 -20q-22 0 -36 15z" />
    <glyph glyph-name="eacute" unicode="&#xe9;" horiz-adv-x="587" 
d="M491 202h-299q1 -40 34 -69t78 -29q52 0 90 18t54 18q22 0 35.5 -12.5t13.5 -32.5q0 -42 -46 -68q-62 -37 -159 -37q-104 0 -166 59t-62 151q0 133 89.5 221t214.5 88q99 0 157.5 -58t58.5 -140q0 -47 -24.5 -78t-68.5 -31zM356 398q-49 0 -92 -31t-55 -70h256
q0 41 -29.5 71t-79.5 30zM523 649l-108 -84q-19 -15 -42 -15q-22 0 -36.5 14.5t-14.5 35.5q0 33 28 55l105 81q20 16 43 16q22 0 37 -14.5t15 -35.5q0 -31 -27 -53z" />
    <glyph glyph-name="ecircumflex" unicode="&#xea;" horiz-adv-x="587" 
d="M491 202h-299q1 -40 34 -69t78 -29q52 0 90 18t54 18q22 0 35.5 -12.5t13.5 -32.5q0 -42 -46 -68q-62 -37 -159 -37q-104 0 -166 59t-62 151q0 133 89.5 221t214.5 88q99 0 157.5 -58t58.5 -140q0 -47 -24.5 -78t-68.5 -31zM356 398q-49 0 -92 -31t-55 -70h256
q0 41 -29.5 71t-79.5 30zM452 565l-53 60l-81 -62q-20 -15 -42 -15q-19 0 -34.5 14.5t-15.5 35.5q0 32 30 55l109 82q20 15 50 15q29 0 48 -19l79 -84q13 -15 13 -34q0 -31 -19.5 -47.5t-44.5 -16.5t-39 16z" />
    <glyph glyph-name="edieresis" unicode="&#xeb;" horiz-adv-x="587" 
d="M491 202h-299q1 -40 34 -69t78 -29q52 0 90 18t54 18q22 0 35.5 -12.5t13.5 -32.5q0 -42 -46 -68q-62 -37 -159 -37q-104 0 -166 59t-62 151q0 133 89.5 221t214.5 88q99 0 157.5 -58t58.5 -140q0 -47 -24.5 -78t-68.5 -31zM356 398q-49 0 -92 -31t-55 -70h256
q0 41 -29.5 71t-79.5 30zM205 617q0 36 28 64.5t66 28.5q28 0 46 -18.5t18 -45.5q0 -36 -29 -64t-65 -28q-28 0 -46 18t-18 45zM434 617q0 36 28 64.5t66 28.5q28 0 46 -18.5t18 -45.5q0 -36 -29 -64t-65 -28q-28 0 -46 18t-18 45z" />
    <glyph glyph-name="igrave" unicode="&#xec;" horiz-adv-x="301" 
d="M73 146l58 300q5 27 26 45.5t51 18.5q23 0 37.5 -15t14.5 -37q0 -4 -2 -18l-56 -292q-3 -18 -3 -23q0 -18 19 -19q22 -2 35.5 -15t13.5 -35q0 -27 -23 -46.5t-60 -19.5q-48 0 -81.5 31.5t-33.5 84.5q0 18 4 40zM187 566l-80 88q-12 12 -12 32q0 29 20.5 49t47.5 20
q22 0 37 -16l80 -88q11 -13 11 -31q0 -29 -19.5 -49t-48.5 -20q-23 0 -36 15z" />
    <glyph glyph-name="iacute" unicode="&#xed;" horiz-adv-x="301" 
d="M73 146l58 300q5 27 26 45.5t51 18.5q23 0 37.5 -15t14.5 -37q0 -4 -2 -18l-56 -292q-3 -18 -3 -23q0 -18 19 -19q22 -2 35.5 -15t13.5 -35q0 -27 -23 -46.5t-60 -19.5q-48 0 -81.5 31.5t-33.5 84.5q0 18 4 40zM359 649l-108 -84q-19 -15 -42 -15q-22 0 -36.5 14.5
t-14.5 35.5q0 33 28 55l105 81q20 16 43 16q22 0 37 -14.5t15 -35.5q0 -31 -27 -53z" />
    <glyph glyph-name="icircumflex" unicode="&#xee;" horiz-adv-x="301" 
d="M73 146l58 300q5 27 26 45.5t51 18.5q23 0 37.5 -15t14.5 -37q0 -4 -2 -18l-56 -292q-3 -18 -3 -23q0 -18 19 -19q22 -2 35.5 -15t13.5 -35q0 -27 -23 -46.5t-60 -19.5q-48 0 -81.5 31.5t-33.5 84.5q0 18 4 40zM289 565l-53 60l-81 -62q-19 -15 -42 -15q-19 0 -34.5 14.5
t-15.5 35.5q0 32 30 55l109 82q20 15 50 15q29 0 48 -19l79 -84q13 -15 13 -34q0 -31 -19.5 -47.5t-44.5 -16.5t-39 16z" />
    <glyph glyph-name="idieresis" unicode="&#xef;" horiz-adv-x="301" 
d="M73 146l58 300q5 27 26 45.5t51 18.5q23 0 37.5 -15t14.5 -37q0 -4 -2 -18l-56 -292q-3 -18 -3 -23q0 -18 19 -19q22 -2 35.5 -15t13.5 -35q0 -27 -23 -46.5t-60 -19.5q-48 0 -81.5 31.5t-33.5 84.5q0 18 4 40zM41 617q0 36 28 64.5t66 28.5q28 0 46 -18.5t18 -45.5
q0 -36 -29 -64t-65 -28q-28 0 -46 18t-18 45zM270 617q0 36 28 64.5t66 28.5q28 0 46 -18.5t18 -45.5q0 -36 -29 -64t-65 -28q-28 0 -46 18t-18 45z" />
    <glyph glyph-name="eth" unicode="&#xf0;" horiz-adv-x="607" 
d="M302 543q0 28 27 50l27 22q-17 10 -45 15.5t-42.5 14t-14.5 32.5q0 29 20.5 47t52.5 18q56 0 127 -47l46 37q20 15 39 15q18 0 32 -12.5t14 -32.5q0 -29 -25 -50l-32 -28q65 -93 65 -258q0 -97 -27 -172t-72.5 -118t-98.5 -64.5t-111 -21.5q-98 0 -159 58.5t-61 149.5
q0 124 86 202t198 78q70 0 115 -31q-4 64 -32 98l-39 -32q-20 -17 -45 -17q-17 0 -31 12.5t-14 34.5zM297 103q59 0 106 49t47 111q0 46 -29 75t-78 29q-67 0 -112.5 -46.5t-45.5 -112.5q0 -47 30 -76t82 -29z" />
    <glyph glyph-name="ntilde" unicode="&#xf1;" horiz-adv-x="667" 
d="M459 59l40 206q3 17 3 31q0 46 -27.5 71.5t-74.5 25.5q-52 0 -103 -35.5t-59 -73.5l-46 -230q-6 -30 -27.5 -47t-48.5 -17q-24 0 -38.5 14.5t-14.5 34.5q0 10 2 20l75 387q5 28 26 46t50 18q23 0 37.5 -14t14.5 -36q0 -11 -1 -15q80 65 168 65q91 0 143.5 -52t52.5 -136
q0 -23 -5 -53l-41 -215q-6 -30 -27 -47t-48 -17q-24 0 -38.5 14.5t-14.5 34.5q0 10 2 20zM390 729q33 0 68.5 -27.5t46.5 -27.5q8 0 16.5 8.5t15 19t20 19t31.5 8.5q20 0 33.5 -13t13.5 -32q0 -37 -38.5 -78.5t-100.5 -41.5q-25 0 -47 14t-38.5 27.5t-27.5 13.5
q-12 0 -23 -13.5t-26 -27.5t-36 -14q-20 0 -33 12.5t-13 31.5q0 38 37.5 79.5t100.5 41.5z" />
    <glyph glyph-name="ograve" unicode="&#xf2;" horiz-adv-x="616" 
d="M600 289q0 -127 -85 -213t-219 -86q-104 0 -168 62.5t-64 156.5q0 130 87.5 215.5t220.5 85.5q100 0 164 -63t64 -158zM304 106q71 0 121 51t50 122q0 49 -32 81.5t-83 32.5q-74 0 -123 -50t-49 -120q0 -50 32 -83.5t84 -33.5zM356 566l-80 88q-12 12 -12 32
q0 29 20.5 49t47.5 20q22 0 37 -16l80 -88q11 -13 11 -31q0 -29 -19.5 -49t-48.5 -20q-22 0 -36 15z" />
    <glyph glyph-name="oacute" unicode="&#xf3;" horiz-adv-x="616" 
d="M600 289q0 -127 -85 -213t-219 -86q-104 0 -168 62.5t-64 156.5q0 130 87.5 215.5t220.5 85.5q100 0 164 -63t64 -158zM304 106q71 0 121 51t50 122q0 49 -32 81.5t-83 32.5q-74 0 -123 -50t-49 -120q0 -50 32 -83.5t84 -33.5zM524 649l-108 -84q-20 -15 -42 -15
t-36.5 14.5t-14.5 35.5q0 33 28 55l105 81q20 16 43 16q22 0 37 -14.5t15 -35.5q0 -31 -27 -53z" />
    <glyph glyph-name="ocircumflex" unicode="&#xf4;" horiz-adv-x="616" 
d="M600 289q0 -127 -85 -213t-219 -86q-104 0 -168 62.5t-64 156.5q0 130 87.5 215.5t220.5 85.5q100 0 164 -63t64 -158zM304 106q71 0 121 51t50 122q0 49 -32 81.5t-83 32.5q-74 0 -123 -50t-49 -120q0 -50 32 -83.5t84 -33.5zM460 565l-53 60l-81 -62q-20 -15 -42 -15
q-19 0 -34.5 14.5t-15.5 35.5q0 32 30 55l109 82q20 15 50 15q29 0 48 -19l79 -84q13 -15 13 -34q0 -31 -19.5 -47.5t-44.5 -16.5t-39 16z" />
    <glyph glyph-name="otilde" unicode="&#xf5;" horiz-adv-x="616" 
d="M600 289q0 -127 -85 -213t-219 -86q-104 0 -168 62.5t-64 156.5q0 130 87.5 215.5t220.5 85.5q100 0 164 -63t64 -158zM304 106q71 0 121 51t50 122q0 49 -32 81.5t-83 32.5q-74 0 -123 -50t-49 -120q0 -50 32 -83.5t84 -33.5zM355 729q33 0 68.5 -27.5t46.5 -27.5
q8 0 16.5 8.5t15 19t20 19t31.5 8.5q20 0 33.5 -13t13.5 -32q0 -37 -38.5 -78.5t-100.5 -41.5q-25 0 -47 14t-38.5 27.5t-27.5 13.5q-12 0 -23 -13.5t-26 -27.5t-36 -14q-20 0 -33 12.5t-13 31.5q0 38 37.5 79.5t100.5 41.5z" />
    <glyph glyph-name="odieresis" unicode="&#xf6;" horiz-adv-x="616" 
d="M600 289q0 -127 -85 -213t-219 -86q-104 0 -168 62.5t-64 156.5q0 130 87.5 215.5t220.5 85.5q100 0 164 -63t64 -158zM304 106q71 0 121 51t50 122q0 49 -32 81.5t-83 32.5q-74 0 -123 -50t-49 -120q0 -50 32 -83.5t84 -33.5zM212 617q0 36 28 64.5t66 28.5
q28 0 46 -18.5t18 -45.5q0 -36 -29 -64t-65 -28q-28 0 -46 18t-18 45zM441 617q0 36 28 64.5t66 28.5q28 0 46 -18.5t18 -45.5q0 -36 -29 -64t-65 -28q-28 0 -46 18t-18 45z" />
    <glyph glyph-name="divide" unicode="&#xf7;" horiz-adv-x="615" 
d="M217 53q0 36 28.5 64.5t66.5 28.5q28 0 46 -18t18 -44q0 -37 -29.5 -65.5t-65.5 -28.5q-28 0 -46 18t-18 45zM288 418q0 36 28.5 64.5t66.5 28.5q28 0 46 -18t18 -44q0 -37 -29.5 -65.5t-65.5 -28.5q-28 0 -46 18t-18 45zM153 310h377q22 0 36 -13.5t14 -34.5
q0 -29 -20.5 -48.5t-48.5 -19.5h-379q-22 0 -35.5 13.5t-13.5 33.5q0 29 20.5 49t49.5 20z" />
    <glyph glyph-name="oslash" unicode="&#xf8;" horiz-adv-x="616" 
d="M570 456l-19 -21q49 -58 49 -140q0 -127 -87.5 -216t-219.5 -89q-66 0 -121 26l-18 -20q-18 -20 -41 -20q-17 0 -26.5 11t-9.5 26q0 19 13 34l19 21q-45 56 -45 135q0 130 90 218.5t221 88.5q61 0 111 -25l20 23q17 19 42 19q17 0 26.5 -11t9.5 -27q0 -17 -14 -33z
M303 103q71 0 123 52.5t52 124.5q0 32 -15 58l-205 -227q21 -8 45 -8zM185 222q0 -32 12 -56l202 224q-24 6 -38 6q-74 0 -125 -51.5t-51 -122.5z" />
    <glyph glyph-name="ugrave" unicode="&#xf9;" horiz-adv-x="650" 
d="M247 441l-40 -206q-3 -18 -3 -35q0 -43 27.5 -68t74.5 -25q52 0 103 35.5t59 73.5l46 230q6 30 27.5 47t48.5 17q24 0 38.5 -14.5t14.5 -34.5q0 -10 -2 -20l-75 -387q-5 -28 -26 -46t-50 -18q-23 0 -37.5 14t-14.5 36q0 11 1 15q-80 -65 -168 -65q-91 0 -143.5 52
t-52.5 136q0 23 5 53l41 215q6 30 27 47t48 17q24 0 38.5 -14.5t14.5 -34.5q0 -10 -2 -20zM365 566l-80 88q-12 12 -12 32q0 29 20.5 49t47.5 20q22 0 37 -16l80 -88q11 -13 11 -31q0 -29 -19.5 -49t-48.5 -20q-23 0 -36 15z" />
    <glyph glyph-name="uacute" unicode="&#xfa;" horiz-adv-x="650" 
d="M247 441l-40 -206q-3 -18 -3 -35q0 -43 27.5 -68t74.5 -25q52 0 103 35.5t59 73.5l46 230q6 30 27.5 47t48.5 17q24 0 38.5 -14.5t14.5 -34.5q0 -10 -2 -20l-75 -387q-5 -28 -26 -46t-50 -18q-23 0 -37.5 14t-14.5 36q0 11 1 15q-80 -65 -168 -65q-91 0 -143.5 52
t-52.5 136q0 23 5 53l41 215q6 30 27 47t48 17q24 0 38.5 -14.5t14.5 -34.5q0 -10 -2 -20zM544 649l-108 -84q-20 -15 -42 -15t-36.5 14.5t-14.5 35.5q0 33 28 55l105 81q20 16 43 16q22 0 37 -14.5t15 -35.5q0 -31 -27 -53z" />
    <glyph glyph-name="ucircumflex" unicode="&#xfb;" horiz-adv-x="650" 
d="M247 441l-40 -206q-3 -18 -3 -35q0 -43 27.5 -68t74.5 -25q52 0 103 35.5t59 73.5l46 230q6 30 27.5 47t48.5 17q24 0 38.5 -14.5t14.5 -34.5q0 -10 -2 -20l-75 -387q-5 -28 -26 -46t-50 -18q-23 0 -37.5 14t-14.5 36q0 11 1 15q-80 -65 -168 -65q-91 0 -143.5 52
t-52.5 136q0 23 5 53l41 215q6 30 27 47t48 17q24 0 38.5 -14.5t14.5 -34.5q0 -10 -2 -20zM472 565l-53 60l-81 -62q-20 -15 -42 -15q-19 0 -34.5 14.5t-15.5 35.5q0 32 30 55l109 82q20 15 50 15q29 0 48 -19l79 -84q13 -15 13 -34q0 -31 -19.5 -47.5t-44.5 -16.5t-39 16z
" />
    <glyph glyph-name="udieresis" unicode="&#xfc;" horiz-adv-x="653" 
d="M247 441l-40 -206q-3 -18 -3 -35q0 -43 27.5 -68t74.5 -25q52 0 103 35.5t59 73.5l46 230q6 30 27.5 47t48.5 17q24 0 38.5 -14.5t14.5 -34.5q0 -10 -2 -20l-75 -387q-5 -28 -26 -46t-50 -18q-23 0 -37.5 14t-14.5 36q0 11 1 15q-80 -65 -168 -65q-91 0 -143.5 52
t-52.5 136q0 23 5 53l41 215q6 30 27 47t48 17q24 0 38.5 -14.5t14.5 -34.5q0 -10 -2 -20zM225 617q0 36 28 64.5t66 28.5q28 0 46 -18.5t18 -45.5q0 -36 -29 -64t-65 -28q-28 0 -46 18t-18 45zM454 617q0 36 28 64.5t66 28.5q28 0 46 -18.5t18 -45.5q0 -36 -29 -64t-65 -28
q-28 0 -46 18t-18 45z" />
    <glyph glyph-name="yacute" unicode="&#xfd;" horiz-adv-x="566" 
d="M598 411l-304 -531q-28 -48 -69 -74t-85 -26h-50q-25 0 -39 13.5t-14 36.5q0 28 20 47t49 19h38q23 0 36 21l60 101q-55 0 -67 50l-80 346q-3 15 -3 29q0 26 19 46.5t52 20.5q18 0 32.5 -11t18.5 -30l78 -363l202 362q24 42 72 42q22 0 36.5 -15t14.5 -37q0 -16 -17 -47z
M499 649l-108 -84q-19 -15 -42 -15q-22 0 -36.5 14.5t-14.5 35.5q0 33 28 55l105 81q20 16 43 16q22 0 37 -14.5t15 -35.5q0 -31 -27 -53z" />
    <glyph glyph-name="thorn" unicode="&#xfe;" horiz-adv-x="635" 
d="M214 249q-3 -16 -3 -32q0 -50 31 -80.5t82 -30.5q68 0 120 52t52 119q0 51 -32 84t-84 33q-61 0 -107.5 -41t-58.5 -104zM305 681l-45 -225q6 6 18 15t52.5 24t86.5 15q88 0 145 -61.5t57 -152.5q0 -128 -89.5 -217t-206.5 -89q-50 0 -88 16.5t-54 36.5l-41 -209
q-6 -27 -25.5 -45.5t-50.5 -18.5q-24 0 -38.5 14.5t-14.5 35.5q0 10 2 18l165 848q5 26 27.5 45t48.5 19q23 0 38 -15.5t15 -37.5q0 -6 -2 -16z" />
    <glyph glyph-name="ydieresis" unicode="&#xff;" horiz-adv-x="566" 
d="M598 411l-304 -531q-28 -48 -69 -74t-85 -26h-50q-25 0 -39 13.5t-14 36.5q0 28 20 47t49 19h38q23 0 36 21l60 101q-55 0 -67 50l-80 346q-3 15 -3 29q0 26 19 46.5t52 20.5q18 0 32.5 -11t18.5 -30l78 -363l202 362q24 42 72 42q22 0 36.5 -15t14.5 -37q0 -16 -17 -47z
M199 617q0 36 28 64.5t66 28.5q28 0 46 -18.5t18 -45.5q0 -36 -29 -64t-65 -28q-28 0 -46 18t-18 45zM428 617q0 36 28 64.5t66 28.5q28 0 46 -18.5t18 -45.5q0 -36 -29 -64t-65 -28q-28 0 -46 18t-18 45z" />
    <glyph glyph-name="Amacron" unicode="&#x100;" horiz-adv-x="719" 
d="M661 91q2 -16 2 -24q0 -30 -24 -53.5t-55 -23.5q-44 0 -52 49l-22 141h-291l-73 -139q-12 -22 -33 -36.5t-43 -14.5q-25 0 -41.5 15.5t-16.5 37.5q0 20 16 51l296 556q26 50 73 50h129q21 0 36.5 -14t18.5 -35zM282 300h212l-40 279h-25zM650 852q0 -27 -22.5 -49.5
t-51.5 -22.5h-187q-22 0 -35.5 13t-13.5 35q0 29 22 50.5t50 21.5h187q21 0 36 -13.5t15 -34.5z" />
    <glyph glyph-name="amacron" unicode="&#x101;" horiz-adv-x="638" 
d="M626 443l-75 -386q-6 -29 -26 -48t-54 -19q-21 0 -35 14t-14 32q0 5 1 7q-64 -53 -149 -53q-94 0 -152 60t-58 156q0 125 88.5 214.5t215.5 89.5q44 0 81 -16.5t54 -36.5q4 19 24.5 36t44.5 17q23 0 39.5 -14t16.5 -37q0 -8 -2 -16zM304 106q69 0 119 51t50 125
q0 50 -31 81t-82 31q-70 0 -121 -52t-51 -119q0 -52 31.5 -84.5t84.5 -32.5zM567 652q0 -27 -22.5 -49.5t-51.5 -22.5h-187q-22 0 -35.5 13t-13.5 35q0 29 22 50.5t50 21.5h187q21 0 36 -13.5t15 -34.5z" />
    <glyph glyph-name="Abreve" unicode="&#x102;" horiz-adv-x="719" 
d="M661 91q2 -16 2 -24q0 -30 -24 -53.5t-55 -23.5q-44 0 -52 49l-22 141h-291l-73 -139q-12 -22 -33 -36.5t-43 -14.5q-25 0 -41.5 15.5t-16.5 37.5q0 20 16 51l296 556q26 50 73 50h129q21 0 36.5 -14t18.5 -35zM282 300h212l-40 279h-25zM542 888q8 20 26 34.5t44 14.5
q21 0 33.5 -12.5t12.5 -32.5q0 -56 -49.5 -96t-108.5 -40h-49q-48 0 -83 26.5t-35 73.5q0 32 17.5 56.5t49.5 24.5q23 0 36 -14t13 -33q0 -40 40 -40q39 0 53 38z" />
    <glyph glyph-name="abreve" unicode="&#x103;" horiz-adv-x="638" 
d="M626 443l-75 -386q-6 -29 -26 -48t-54 -19q-21 0 -35 14t-14 32q0 5 1 7q-64 -53 -149 -53q-94 0 -152 60t-58 156q0 125 88.5 214.5t215.5 89.5q44 0 81 -16.5t54 -36.5q4 19 24.5 36t44.5 17q23 0 39.5 -14t16.5 -37q0 -8 -2 -16zM304 106q69 0 119 51t50 125
q0 50 -31 81t-82 31q-70 0 -121 -52t-51 -119q0 -52 31.5 -84.5t84.5 -32.5zM458 688q8 20 26 34.5t44 14.5q21 0 33.5 -12.5t12.5 -32.5q0 -56 -49.5 -96t-108.5 -40h-49q-48 0 -83 26.5t-35 73.5q0 32 17.5 56.5t49.5 24.5q23 0 36 -14t13 -33q0 -40 40 -40q39 0 53 38z
" />
    <glyph glyph-name="Aogonek" unicode="&#x104;" horiz-adv-x="719" 
d="M661 91q2 -16 2 -24q0 -36 -41 -67q-31 -24 -59.5 -55t-28.5 -53q0 -15 15 -15q7 0 24 6.5t26 6.5q20 0 31.5 -11t11.5 -29q0 -38 -36 -59t-87 -21q-55 0 -81 24.5t-26 59.5q0 49 42 89.5t89 66.5q-8 10 -11 29l-22 141h-291l-73 -139q-12 -22 -33 -36.5t-43 -14.5
q-25 0 -41.5 15.5t-16.5 37.5q0 20 16 51l296 556q26 50 73 50h129q21 0 36.5 -14t18.5 -35zM282 300h212l-40 279h-25z" />
    <glyph glyph-name="aogonek" unicode="&#x105;" horiz-adv-x="638" 
d="M626 443l-75 -386q-8 -38 -38 -57q-28 -18 -60 -50.5t-32 -57.5q0 -15 15 -15q7 0 24 6.5t26 6.5q20 0 31.5 -11t11.5 -29q0 -38 -36 -59t-87 -21q-55 0 -81 24.5t-26 59.5q0 27 14 53t37 46.5t42 33.5t38 24q-8 9 -8 25q0 5 1 7q-26 -20 -68.5 -36.5t-88.5 -16.5
q-89 0 -145.5 60.5t-56.5 155.5q0 124 88.5 214t215.5 90q44 0 81 -16.5t54 -36.5q4 19 24.5 36t44.5 17q23 0 39.5 -14t16.5 -37q0 -8 -2 -16zM470 251q3 16 3 31q0 50 -31 81t-82 31q-70 0 -121 -52t-51 -119q0 -50 32 -83.5t84 -33.5q60 0 107 41.5t59 103.5z" />
    <glyph glyph-name="Cacute" unicode="&#x106;" horiz-adv-x="702" 
d="M86 288q0 174 122 298t309 124q39 0 83 -10.5t80.5 -34t36.5 -54.5q0 -30 -21.5 -48t-48.5 -18q-16 0 -37 13q-49 32 -111 32q-114 0 -197.5 -87t-83.5 -201q0 -84 51 -137.5t137 -53.5q73 0 143 45q22 14 39 14q21 0 35.5 -14.5t14.5 -36.5q0 -38 -42.5 -69t-97.5 -45.5
t-104 -14.5q-137 0 -222.5 84t-85.5 214zM633 849l-108 -84q-19 -15 -42 -15q-22 0 -36.5 14.5t-14.5 35.5q0 33 28 55l105 81q20 16 43 16q22 0 37 -14.5t15 -35.5q0 -31 -27 -53z" />
    <glyph glyph-name="cacute" unicode="&#x107;" horiz-adv-x="506" 
d="M357 393q-66 0 -117 -52.5t-51 -120.5q0 -50 31.5 -82t87.5 -32q36 0 68.5 15.5t48.5 15.5q21 0 34.5 -14t13.5 -34q0 -43 -46.5 -71t-132.5 -28q-103 0 -166.5 61t-63.5 154q0 134 89.5 219.5t224.5 85.5q78 0 117 -24t39 -57q0 -25 -21.5 -43.5t-48.5 -18.5
q-14 0 -41 13t-66 13zM523 649l-108 -84q-19 -15 -42 -15q-22 0 -36.5 14.5t-14.5 35.5q0 33 28 55l105 81q20 16 43 16q22 0 37 -14.5t15 -35.5q0 -31 -27 -53z" />
    <glyph glyph-name="Ccircumflex" unicode="&#x108;" horiz-adv-x="702" 
d="M86 288q0 174 122 298t309 124q39 0 83 -10.5t80.5 -34t36.5 -54.5q0 -30 -21.5 -48t-48.5 -18q-16 0 -37 13q-49 32 -111 32q-114 0 -197.5 -87t-83.5 -201q0 -84 51 -137.5t137 -53.5q73 0 143 45q22 14 39 14q21 0 35.5 -14.5t14.5 -36.5q0 -38 -42.5 -69t-97.5 -45.5
t-104 -14.5q-137 0 -222.5 84t-85.5 214zM577 765l-53 60l-81 -62q-19 -15 -42 -15q-19 0 -34.5 14.5t-15.5 35.5q0 32 30 55l109 82q20 15 50 15q29 0 48 -19l79 -84q13 -15 13 -34q0 -31 -19.5 -47.5t-44.5 -16.5t-39 16z" />
    <glyph glyph-name="ccircumflex" unicode="&#x109;" horiz-adv-x="506" 
d="M357 393q-66 0 -117 -52.5t-51 -120.5q0 -50 31.5 -82t87.5 -32q36 0 68.5 15.5t48.5 15.5q21 0 34.5 -14t13.5 -34q0 -43 -46.5 -71t-132.5 -28q-103 0 -166.5 61t-63.5 154q0 134 89.5 219.5t224.5 85.5q78 0 117 -24t39 -57q0 -25 -21.5 -43.5t-48.5 -18.5
q-14 0 -41 13t-66 13zM453 565l-53 60l-81 -62q-20 -15 -42 -15q-19 0 -34.5 14.5t-15.5 35.5q0 32 30 55l109 82q20 15 50 15q29 0 48 -19l79 -84q13 -15 13 -34q0 -31 -19.5 -47.5t-44.5 -16.5t-39 16z" />
    <glyph glyph-name="Cdotaccent" unicode="&#x10a;" horiz-adv-x="702" 
d="M86 288q0 174 122 298t309 124q39 0 83 -10.5t80.5 -34t36.5 -54.5q0 -30 -21.5 -48t-48.5 -18q-16 0 -37 13q-49 32 -111 32q-114 0 -197.5 -87t-83.5 -201q0 -84 51 -137.5t137 -53.5q73 0 143 45q22 14 39 14q21 0 35.5 -14.5t14.5 -36.5q0 -38 -42.5 -69t-97.5 -45.5
t-104 -14.5q-137 0 -222.5 84t-85.5 214zM449 817q0 36 28 64.5t66 28.5q28 0 46 -18.5t18 -45.5q0 -36 -29 -64t-65 -28q-28 0 -46 18t-18 45z" />
    <glyph glyph-name="cdotaccent" unicode="&#x10b;" horiz-adv-x="506" 
d="M357 393q-66 0 -117 -52.5t-51 -120.5q0 -50 31.5 -82t87.5 -32q36 0 68.5 15.5t48.5 15.5q21 0 34.5 -14t13.5 -34q0 -43 -46.5 -71t-132.5 -28q-103 0 -166.5 61t-63.5 154q0 134 89.5 219.5t224.5 85.5q78 0 117 -24t39 -57q0 -25 -21.5 -43.5t-48.5 -18.5
q-14 0 -41 13t-66 13zM321 617q0 36 28 64.5t66 28.5q28 0 46 -18.5t18 -45.5q0 -36 -29 -64t-65 -28q-28 0 -46 18t-18 45z" />
    <glyph glyph-name="Ccaron" unicode="&#x10c;" horiz-adv-x="702" 
d="M86 288q0 174 122 298t309 124q39 0 83 -10.5t80.5 -34t36.5 -54.5q0 -30 -21.5 -48t-48.5 -18q-16 0 -37 13q-49 32 -111 32q-114 0 -197.5 -87t-83.5 -201q0 -84 51 -137.5t137 -53.5q73 0 143 45q22 14 39 14q21 0 35.5 -14.5t14.5 -36.5q0 -38 -42.5 -69t-97.5 -45.5
t-104 -14.5q-137 0 -222.5 84t-85.5 214zM477 937l53 -60l81 62q19 15 42 15q19 0 34.5 -14.5t15.5 -35.5q0 -32 -30 -55l-109 -82q-20 -15 -50 -15q-29 0 -48 19l-79 84q-13 15 -13 34q0 31 19.5 47.5t44.5 16.5t39 -16z" />
    <glyph glyph-name="ccaron" unicode="&#x10d;" horiz-adv-x="506" 
d="M357 393q-66 0 -117 -52.5t-51 -120.5q0 -50 31.5 -82t87.5 -32q36 0 68.5 15.5t48.5 15.5q21 0 34.5 -14t13.5 -34q0 -43 -46.5 -71t-132.5 -28q-103 0 -166.5 61t-63.5 154q0 134 89.5 219.5t224.5 85.5q78 0 117 -24t39 -57q0 -25 -21.5 -43.5t-48.5 -18.5
q-14 0 -41 13t-66 13zM340 737l53 -60l81 62q20 15 42 15q19 0 34.5 -14.5t15.5 -35.5q0 -32 -30 -55l-109 -82q-20 -15 -50 -15q-29 0 -48 19l-79 84q-13 15 -13 34q0 31 19.5 47.5t44.5 16.5t39 -16z" />
    <glyph glyph-name="Dcaron" unicode="&#x10e;" horiz-adv-x="722" 
d="M404 581h-121l-89 -461h121q116 0 187 82t71 194q0 81 -45.5 133t-123.5 52zM249 700h179q122 0 198 -80.5t76 -209.5q0 -178 -111.5 -294t-299.5 -116h-180q-26 0 -40.5 14t-14.5 37q0 9 3 22l109 563q5 28 27.5 46t53.5 18zM374 937l53 -60l81 62q19 15 42 15
q19 0 34.5 -14.5t15.5 -35.5q0 -32 -30 -55l-109 -82q-20 -15 -50 -15q-29 0 -48 19l-79 84q-13 15 -13 34q0 31 19.5 47.5t44.5 16.5t39 -16z" />
    <glyph glyph-name="dcaron" unicode="&#x10f;" horiz-adv-x="742" 
d="M469 251q3 16 3 32q0 50 -31 80.5t-83 30.5q-69 0 -120 -50.5t-51 -120.5q0 -51 32 -84t84 -33q61 0 107.5 41t58.5 104zM672 682l-122 -628q-6 -27 -26.5 -45.5t-49.5 -18.5q-23 0 -37 14t-14 32q0 1 0.5 4t0.5 4q-73 -54 -158 -54q-88 0 -145 61.5t-57 152.5
q0 132 89 219t207 87q50 0 87 -16.5t53 -36.5l45 229q6 27 25.5 45.5t50.5 18.5q24 0 38.5 -14.5t14.5 -35.5q0 -10 -2 -18zM748 667q0 31 26 56.5t60 25.5q23 0 42.5 -17.5t19.5 -57.5q0 -92 -57 -152t-102 -60q-17 0 -27 9.5t-10 25.5q0 21 20 36t43 33t28 44
q-43 12 -43 57z" />
    <glyph glyph-name="Dcroat" unicode="&#x110;" horiz-adv-x="733" 
d="M260 700h179q122 0 198 -80.5t76 -209.5q0 -178 -111.5 -294t-299.5 -116h-180q-26 0 -40.5 14t-14.5 37q0 9 3 22l44 230h-12q-21 0 -34 14t-13 36q0 27 19.5 46.5t50.5 19.5h12l42 217q5 28 27.5 46t53.5 18zM415 581h-121l-31 -162h72q21 0 34 -14t13 -36
q0 -27 -20 -46.5t-50 -19.5h-72l-35 -183h121q116 0 187 82t71 194q0 81 -45.5 133t-123.5 52z" />
    <glyph glyph-name="dcroat" unicode="&#x111;" horiz-adv-x="638" 
d="M678 554h-31l-97 -500q-6 -27 -26.5 -45.5t-49.5 -18.5q-23 0 -37 14t-14 32q0 1 0.5 4t0.5 4q-73 -54 -158 -54q-88 0 -145 61.5t-57 152.5q0 128 89.5 217t206.5 89q50 0 87 -16.5t53 -36.5l19 97h-89q-19 0 -31 13t-12 34q0 22 19.5 39.5t43.5 17.5h89l6 28
q6 27 25.5 45.5t50.5 18.5q24 0 38.5 -14.5t14.5 -35.5q0 -10 -2 -18l-5 -24h31q19 0 31 -13t12 -33q0 -23 -19.5 -40.5t-43.5 -17.5zM469 251q3 16 3 32q0 50 -31 80.5t-82 30.5q-68 0 -120 -52t-52 -119q0 -51 32 -84t84 -33q61 0 107.5 41t58.5 104z" />
    <glyph glyph-name="Emacron" unicode="&#x112;" horiz-adv-x="654" 
d="M503 0h-392q-26 0 -40.5 14t-14.5 37q0 9 3 22l109 563q5 28 27.5 46t53.5 18h384q57 0 57 -50q0 -32 -23.5 -51t-58.5 -19h-321l-30 -159h272q57 0 57 -50q0 -32 -23.5 -51t-58.5 -19h-271l-35 -181h330q57 0 57 -50q0 -32 -23.5 -51t-58.5 -19zM627 852
q0 -27 -22.5 -49.5t-51.5 -22.5h-187q-22 0 -35.5 13t-13.5 35q0 29 22 50.5t50 21.5h187q21 0 36 -13.5t15 -34.5z" />
    <glyph glyph-name="emacron" unicode="&#x113;" horiz-adv-x="587" 
d="M491 202h-299q1 -40 34 -69t78 -29q52 0 90 18t54 18q22 0 35.5 -12.5t13.5 -32.5q0 -42 -46 -68q-62 -37 -159 -37q-104 0 -166 59t-62 151q0 133 89.5 221t214.5 88q99 0 157.5 -58t58.5 -140q0 -47 -24.5 -78t-68.5 -31zM356 398q-49 0 -92 -31t-55 -70h256
q0 41 -29.5 71t-79.5 30zM560 652q0 -27 -22.5 -49.5t-51.5 -22.5h-187q-22 0 -35.5 13t-13.5 35q0 29 22 50.5t50 21.5h187q21 0 36 -13.5t15 -34.5z" />
    <glyph glyph-name="Ebreve" unicode="&#x114;" horiz-adv-x="654" 
d="M503 0h-392q-26 0 -40.5 14t-14.5 37q0 9 3 22l109 563q5 28 27.5 46t53.5 18h384q57 0 57 -50q0 -32 -23.5 -51t-58.5 -19h-321l-30 -159h272q57 0 57 -50q0 -32 -23.5 -51t-58.5 -19h-271l-35 -181h330q57 0 57 -50q0 -32 -23.5 -51t-58.5 -19zM517 888q8 20 26 34.5
t44 14.5q21 0 33.5 -12.5t12.5 -32.5q0 -56 -49.5 -96t-108.5 -40h-49q-48 0 -83 26.5t-35 73.5q0 32 17.5 56.5t49.5 24.5q23 0 36 -14t13 -33q0 -40 40 -40q39 0 53 38z" />
    <glyph glyph-name="ebreve" unicode="&#x115;" horiz-adv-x="587" 
d="M491 202h-299q1 -40 34 -69t78 -29q52 0 90 18t54 18q22 0 35.5 -12.5t13.5 -32.5q0 -42 -46 -68q-62 -37 -159 -37q-104 0 -166 59t-62 151q0 133 89.5 221t214.5 88q99 0 157.5 -58t58.5 -140q0 -47 -24.5 -78t-68.5 -31zM356 398q-49 0 -92 -31t-55 -70h256
q0 41 -29.5 71t-79.5 30zM449 688q8 20 26 34.5t44 14.5q21 0 33.5 -12.5t12.5 -32.5q0 -56 -49.5 -96t-108.5 -40h-49q-48 0 -83 26.5t-35 73.5q0 32 17.5 56.5t49.5 24.5q23 0 36 -14t13 -33q0 -40 40 -40q39 0 53 38z" />
    <glyph glyph-name="Edotaccent" unicode="&#x116;" horiz-adv-x="654" 
d="M503 0h-392q-26 0 -40.5 14t-14.5 37q0 9 3 22l109 563q5 28 27.5 46t53.5 18h384q57 0 57 -50q0 -32 -23.5 -51t-58.5 -19h-321l-30 -159h272q57 0 57 -50q0 -32 -23.5 -51t-58.5 -19h-271l-35 -181h330q57 0 57 -50q0 -32 -23.5 -51t-58.5 -19zM389 817q0 36 28 64.5
t66 28.5q28 0 46 -18.5t18 -45.5q0 -36 -29 -64t-65 -28q-28 0 -46 18t-18 45z" />
    <glyph glyph-name="edotaccent" unicode="&#x117;" horiz-adv-x="587" 
d="M491 202h-299q1 -40 34 -69t78 -29q52 0 90 18t54 18q22 0 35.5 -12.5t13.5 -32.5q0 -42 -46 -68q-62 -37 -159 -37q-104 0 -166 59t-62 151q0 133 89.5 221t214.5 88q99 0 157.5 -58t58.5 -140q0 -47 -24.5 -78t-68.5 -31zM356 398q-49 0 -92 -31t-55 -70h256
q0 41 -29.5 71t-79.5 30zM320 617q0 36 28 64.5t66 28.5q28 0 46 -18.5t18 -45.5q0 -36 -29 -64t-65 -28q-28 0 -46 18t-18 45z" />
    <glyph glyph-name="Eogonek" unicode="&#x118;" horiz-adv-x="654" 
d="M585 70q0 -20 -9 -33t-28 -28q-1 -1 -18.5 -14.5t-28.5 -23t-26 -24.5t-23 -29t-8 -26q0 -15 15 -15q7 0 24 6.5t26 6.5q20 0 31.5 -11t11.5 -29q0 -38 -36 -59t-87 -21q-55 0 -81 24.5t-26 59.5q0 77 112 146h-323q-26 0 -40.5 14t-14.5 37q0 9 3 22l109 563
q5 28 27.5 46t53.5 18h384q57 0 57 -50q0 -32 -23.5 -51t-58.5 -19h-321l-30 -159h272q57 0 57 -50q0 -32 -23.5 -51t-58.5 -19h-271l-35 -181h330q57 0 57 -50z" />
    <glyph glyph-name="eogonek" unicode="&#x119;" horiz-adv-x="587" 
d="M491 202h-299q1 -40 34 -69t78 -29q52 0 90 18t54 18q22 0 35.5 -12.5t13.5 -32.5q0 -35 -40 -65q-33 -24 -73 -67.5t-40 -70.5q0 -15 15 -15q7 0 24 6.5t26 6.5q20 0 31.5 -11t11.5 -29q0 -38 -36 -59t-87 -21q-55 0 -81 24.5t-26 59.5q0 73 99 138q-26 -2 -40 -2
q-97 0 -157 59.5t-60 150.5q0 133 89.5 221t214.5 88q99 0 157.5 -58t58.5 -140q0 -47 -24.5 -78t-68.5 -31zM355 398q-47 0 -89 -29.5t-57 -71.5h256q0 40 -30.5 70.5t-79.5 30.5z" />
    <glyph glyph-name="Ecaron" unicode="&#x11a;" horiz-adv-x="654" 
d="M503 0h-392q-26 0 -40.5 14t-14.5 37q0 9 3 22l109 563q5 28 27.5 46t53.5 18h384q57 0 57 -50q0 -32 -23.5 -51t-58.5 -19h-321l-30 -159h272q57 0 57 -50q0 -32 -23.5 -51t-58.5 -19h-271l-35 -181h330q57 0 57 -50q0 -32 -23.5 -51t-58.5 -19zM415 937l53 -60l81 62
q20 15 42 15q19 0 34.5 -14.5t15.5 -35.5q0 -32 -30 -55l-109 -82q-20 -15 -50 -15q-29 0 -48 19l-79 84q-13 15 -13 34q0 31 19.5 47.5t44.5 16.5t39 -16z" />
    <glyph glyph-name="ecaron" unicode="&#x11b;" horiz-adv-x="587" 
d="M491 202h-299q1 -40 34 -69t78 -29q52 0 90 18t54 18q22 0 35.5 -12.5t13.5 -32.5q0 -42 -46 -68q-62 -37 -159 -37q-104 0 -166 59t-62 151q0 133 89.5 221t214.5 88q99 0 157.5 -58t58.5 -140q0 -47 -24.5 -78t-68.5 -31zM356 398q-49 0 -92 -31t-55 -70h256
q0 41 -29.5 71t-79.5 30zM346 737l53 -60l81 62q19 15 42 15q19 0 34.5 -14.5t15.5 -35.5q0 -32 -30 -55l-109 -82q-20 -15 -50 -15q-29 0 -48 19l-79 84q-13 15 -13 34q0 31 19.5 47.5t44.5 16.5t39 -16z" />
    <glyph glyph-name="Gcircumflex" unicode="&#x11c;" horiz-adv-x="775" 
d="M86 290q0 110 53 205.5t152 155t220 59.5q52 0 106 -15.5t93.5 -45.5t39.5 -65q0 -23 -20 -42.5t-49 -19.5q-20 0 -55 25q-63 44 -131 44q-107 0 -192 -86t-85 -204q0 -83 52 -137.5t134 -54.5q97 0 168 57l22 114h-157q-24 0 -39 13.5t-15 35.5q0 31 23 51.5t54 20.5
h222q23 0 38.5 -15t15.5 -37q0 -7 -2 -17l-37 -190q-5 -26 -28 -47q-49 -46 -124.5 -75.5t-153.5 -29.5q-134 0 -219.5 84.5t-85.5 215.5zM586 765l-53 60l-81 -62q-19 -15 -42 -15q-19 0 -34.5 14.5t-15.5 35.5q0 32 30 55l109 82q20 15 50 15q29 0 48 -19l79 -84
q13 -15 13 -34q0 -31 -19.5 -47.5t-44.5 -16.5t-39 16z" />
    <glyph glyph-name="gcircumflex" unicode="&#x11d;" horiz-adv-x="618" 
d="M469 252q3 16 3 32q0 48 -30.5 79.5t-82.5 31.5q-71 0 -121 -52.5t-50 -123.5q0 -48 31 -78t83 -30q63 0 109 37t58 104zM254 -117q58 0 101 37.5t57 97.5l7 32q-67 -50 -147 -50q-94 0 -151 55.5t-57 146.5q0 128 89 218t214 90q85 0 136 -53q7 23 27.5 38t40.5 15
q25 0 41 -15t16 -36q0 -6 -2 -16l-80 -416q-23 -121 -106 -189t-204 -68q-63 0 -104.5 12t-56 27t-14.5 32q0 29 22 50t53 21q10 0 42 -14.5t76 -14.5zM456 565l-53 60l-81 -62q-19 -15 -42 -15q-19 0 -34.5 14.5t-15.5 35.5q0 32 30 55l109 82q20 15 50 15q29 0 48 -19
l79 -84q13 -15 13 -34q0 -31 -19.5 -47.5t-44.5 -16.5t-39 16z" />
    <glyph glyph-name="Gbreve" unicode="&#x11e;" horiz-adv-x="775" 
d="M86 290q0 110 53 205.5t152 155t220 59.5q52 0 106 -15.5t93.5 -45.5t39.5 -65q0 -23 -20 -42.5t-49 -19.5q-20 0 -55 25q-63 44 -131 44q-107 0 -192 -86t-85 -204q0 -83 52 -137.5t134 -54.5q97 0 168 57l22 114h-157q-24 0 -39 13.5t-15 35.5q0 31 23 51.5t54 20.5
h222q23 0 38.5 -15t15.5 -37q0 -7 -2 -17l-37 -190q-5 -26 -28 -47q-49 -46 -124.5 -75.5t-153.5 -29.5q-134 0 -219.5 84.5t-85.5 215.5zM582 888q8 20 26 34.5t44 14.5q21 0 33.5 -12.5t12.5 -32.5q0 -56 -49.5 -96t-108.5 -40h-49q-48 0 -83 26.5t-35 73.5
q0 32 17.5 56.5t49.5 24.5q23 0 36 -14t13 -33q0 -40 40 -40q39 0 53 38z" />
    <glyph glyph-name="gbreve" unicode="&#x11f;" horiz-adv-x="618" 
d="M469 252q3 16 3 32q0 48 -30.5 79.5t-82.5 31.5q-71 0 -121 -52.5t-50 -123.5q0 -48 31 -78t83 -30q63 0 109 37t58 104zM254 -117q58 0 101 37.5t57 97.5l7 32q-67 -50 -147 -50q-94 0 -151 55.5t-57 146.5q0 128 89 218t214 90q85 0 136 -53q7 23 27.5 38t40.5 15
q25 0 41 -15t16 -36q0 -6 -2 -16l-80 -416q-23 -121 -106 -189t-204 -68q-63 0 -104.5 12t-56 27t-14.5 32q0 29 22 50t53 21q10 0 42 -14.5t76 -14.5zM452 688q8 20 26 34.5t44 14.5q21 0 33.5 -12.5t12.5 -32.5q0 -56 -49.5 -96t-108.5 -40h-49q-48 0 -83 26.5t-35 73.5
q0 32 17.5 56.5t49.5 24.5q23 0 36 -14t13 -33q0 -40 40 -40q39 0 53 38z" />
    <glyph glyph-name="Gdotaccent" unicode="&#x120;" horiz-adv-x="775" 
d="M86 290q0 110 53 205.5t152 155t220 59.5q52 0 106 -15.5t93.5 -45.5t39.5 -65q0 -23 -20 -42.5t-49 -19.5q-20 0 -55 25q-63 44 -131 44q-107 0 -192 -86t-85 -204q0 -83 52 -137.5t134 -54.5q97 0 168 57l22 114h-157q-24 0 -39 13.5t-15 35.5q0 31 23 51.5t54 20.5
h222q23 0 38.5 -15t15.5 -37q0 -7 -2 -17l-37 -190q-5 -26 -28 -47q-49 -46 -124.5 -75.5t-153.5 -29.5q-134 0 -219.5 84.5t-85.5 215.5zM452 817q0 36 28 64.5t66 28.5q28 0 46 -18.5t18 -45.5q0 -36 -29 -64t-65 -28q-28 0 -46 18t-18 45z" />
    <glyph glyph-name="gdotaccent" unicode="&#x121;" horiz-adv-x="618" 
d="M469 252q3 16 3 32q0 48 -30.5 79.5t-82.5 31.5q-71 0 -121 -52.5t-50 -123.5q0 -48 31 -78t83 -30q63 0 109 37t58 104zM254 -117q58 0 101 37.5t57 97.5l7 32q-67 -50 -147 -50q-94 0 -151 55.5t-57 146.5q0 128 89 218t214 90q85 0 136 -53q7 23 27.5 38t40.5 15
q25 0 41 -15t16 -36q0 -6 -2 -16l-80 -416q-23 -121 -106 -189t-204 -68q-63 0 -104.5 12t-56 27t-14.5 32q0 29 22 50t53 21q10 0 42 -14.5t76 -14.5zM324 617q0 36 28 64.5t66 28.5q28 0 46 -18.5t18 -45.5q0 -36 -29 -64t-65 -28q-28 0 -46 18t-18 45z" />
    <glyph glyph-name="Gcommaaccent" unicode="&#x122;" horiz-adv-x="775" 
d="M86 290q0 110 53 205.5t152 155t220 59.5q52 0 106 -15.5t93.5 -45.5t39.5 -65q0 -23 -20 -42.5t-49 -19.5q-20 0 -55 25q-63 44 -131 44q-107 0 -192 -86t-85 -204q0 -83 52 -137.5t134 -54.5q97 0 168 57l22 114h-157q-24 0 -39 13.5t-15 35.5q0 31 23 51.5t54 20.5
h222q23 0 38.5 -15t15.5 -37q0 -7 -2 -17l-37 -190q-5 -26 -28 -47q-49 -46 -124.5 -75.5t-153.5 -29.5q-134 0 -219.5 84.5t-85.5 215.5zM283 -137q0 31 26 56.5t60 25.5q23 0 42.5 -17.5t19.5 -57.5q0 -92 -57 -152t-102 -60q-17 0 -27 9.5t-10 25.5q0 21 20 36t43 33
t28 44q-43 12 -43 57z" />
    <glyph glyph-name="gcommaaccent" unicode="&#x123;" horiz-adv-x="618" 
d="M469 252q3 16 3 32q0 48 -30.5 79.5t-82.5 31.5q-71 0 -121 -52.5t-50 -123.5q0 -48 31 -78t83 -30q63 0 109 37t58 104zM254 -117q58 0 101 37.5t57 97.5l7 32q-67 -50 -147 -50q-94 0 -151 55.5t-57 146.5q0 128 89 218t214 90q85 0 136 -53q7 23 27.5 38t40.5 15
q25 0 41 -15t16 -36q0 -6 -2 -16l-80 -416q-23 -121 -106 -189t-204 -68q-63 0 -104.5 12t-56 27t-14.5 32q0 29 22 50t53 21q10 0 42 -14.5t76 -14.5zM470 631q0 -31 -26 -56.5t-60 -25.5q-23 0 -42.5 17.5t-19.5 57.5q0 92 57 152t102 60q17 0 27 -9.5t10 -25.5
q0 -21 -20 -36t-43 -33t-28 -44q43 -12 43 -57z" />
    <glyph glyph-name="Hcircumflex" unicode="&#x124;" horiz-adv-x="784" 
d="M743 710q24 0 39 -15t15 -38q0 -5 -2 -17l-114 -586q-5 -27 -27 -45.5t-50 -18.5q-23 0 -38.5 15t-15.5 37q0 7 2 17l47 242h-364l-48 -247q-5 -27 -27 -45.5t-50 -18.5q-24 0 -39 14.5t-15 37.5q0 7 2 17l114 586q5 28 27 46.5t50 18.5q24 0 39 -15t15 -38q0 -5 -2 -17
l-43 -220h364l44 225q5 28 27 46.5t50 18.5zM567 765l-53 60l-81 -62q-19 -15 -42 -15q-19 0 -34.5 14.5t-15.5 35.5q0 32 30 55l109 82q20 15 50 15q29 0 48 -19l79 -84q13 -15 13 -34q0 -31 -19.5 -47.5t-44.5 -16.5t-39 16z" />
    <glyph glyph-name="hcircumflex" unicode="&#x125;" horiz-adv-x="664" 
d="M623 256l-38 -199q-6 -29 -26 -48t-53 -19q-24 0 -37.5 15t-13.5 35q0 4 2 18l40 207q3 17 3 32q0 45 -27.5 70.5t-74.5 25.5q-54 0 -104 -35t-59 -81l-43 -220q-6 -29 -26 -48t-53 -19q-23 0 -37 15t-14 35q0 4 2 18l121 625q6 29 26 48t53 19q24 0 37.5 -15t13.5 -35
q0 -4 -2 -18l-45 -231q77 59 161 59q91 0 145 -55.5t54 -140.5q0 -28 -5 -58zM540 767l-53 60l-81 -62q-20 -15 -42 -15q-19 0 -34.5 14.5t-15.5 35.5q0 32 30 55l109 82q20 15 50 15q29 0 48 -19l79 -84q13 -15 13 -34q0 -31 -19.5 -47.5t-44.5 -16.5t-39 16z" />
    <glyph glyph-name="Hbar" unicode="&#x126;" horiz-adv-x="804" 
d="M786 497h-10l-86 -443q-5 -27 -27 -45.5t-50 -18.5q-23 0 -38.5 15t-15.5 37q0 7 2 17l47 242h-364l-48 -247q-5 -27 -27 -45.5t-50 -18.5q-24 0 -39 14.5t-15 37.5q0 7 2 17l85 438h-12q-57 0 -57 50q0 31 22.5 46t59.5 15h8l8 37q5 28 27 46.5t50 18.5q24 0 39 -15
t15 -38q0 -5 -2 -17l-7 -32h364l8 37q5 28 27 46.5t50 18.5q24 0 39 -15t15 -38q0 -5 -2 -17l-7 -32h14q57 0 57 -48q0 -31 -23 -47t-59 -16zM267 420h364l15 77h-364z" />
    <glyph glyph-name="hbar" unicode="&#x127;" horiz-adv-x="664" 
d="M381 554h-90l-23 -111q77 59 161 59q91 0 145 -55.5t54 -140.5q0 -28 -5 -58l-35 -191q-6 -29 -26 -48t-53 -19q-24 0 -37.5 15t-13.5 35q0 4 2 18l37 199q3 17 3 32q0 45 -27.5 70.5t-74.5 25.5q-54 0 -104 -35t-59 -81l-40 -212q-6 -29 -26 -48t-53 -19q-24 0 -37.5 15
t-13.5 35q0 4 2 18l96 496h-30q-19 0 -31 13t-12 34q0 22 19.5 39.5t43.5 17.5h30l5 25q6 29 26 48t53 19q23 0 37 -15t14 -35q0 -4 -2 -18l-5 -24h90q19 0 31 -13t12 -33q0 -23 -19.5 -40.5t-43.5 -17.5z" />
    <glyph glyph-name="Itilde" unicode="&#x128;" horiz-adv-x="310" 
d="M179 645q5 27 26.5 46t51.5 19q24 0 40 -15t16 -37q0 -6 -2 -18l-113 -585q-5 -27 -27 -46t-52 -19q-24 0 -40 15t-16 38q0 6 2 16zM233 929q33 0 68.5 -27.5t46.5 -27.5q8 0 16.5 8.5t15 19t20 19t31.5 8.5q20 0 33.5 -13t13.5 -32q0 -37 -38.5 -78.5t-100.5 -41.5
q-25 0 -47 14t-38.5 27.5t-27.5 13.5q-12 0 -23 -13.5t-26 -27.5t-36 -14q-20 0 -33 12.5t-13 31.5q0 38 37.5 79.5t100.5 41.5z" />
    <glyph glyph-name="itilde" unicode="&#x129;" horiz-adv-x="301" 
d="M73 146l58 300q5 27 26 45.5t51 18.5q23 0 37.5 -15t14.5 -37q0 -4 -2 -18l-56 -292q-3 -18 -3 -23q0 -18 19 -19q22 -2 35.5 -15t13.5 -35q0 -27 -23 -46.5t-60 -19.5q-48 0 -81.5 31.5t-33.5 84.5q0 18 4 40zM185 729q33 0 68.5 -27.5t46.5 -27.5q8 0 16.5 8.5t15 19
t20 19t31.5 8.5q20 0 33.5 -13t13.5 -32q0 -37 -38.5 -78.5t-100.5 -41.5q-25 0 -47 14t-38.5 27.5t-27.5 13.5q-12 0 -23 -13.5t-26 -27.5t-36 -14q-20 0 -33 12.5t-13 31.5q0 38 37.5 79.5t100.5 41.5z" />
    <glyph glyph-name="Imacron" unicode="&#x12a;" horiz-adv-x="310" 
d="M179 645q5 27 26.5 46t51.5 19q24 0 40 -15t16 -37q0 -6 -2 -18l-113 -585q-5 -27 -27 -46t-52 -19q-24 0 -40 15t-16 38q0 6 2 16zM440 852q0 -27 -22.5 -49.5t-51.5 -22.5h-187q-22 0 -35.5 13t-13.5 35q0 29 22 50.5t50 21.5h187q21 0 36 -13.5t15 -34.5z" />
    <glyph glyph-name="imacron" unicode="&#x12b;" horiz-adv-x="301" 
d="M73 146l58 300q5 27 26 45.5t51 18.5q23 0 37.5 -15t14.5 -37q0 -4 -2 -18l-56 -292q-3 -18 -3 -23q0 -18 19 -19q22 -2 35.5 -15t13.5 -35q0 -27 -23 -46.5t-60 -19.5q-48 0 -81.5 31.5t-33.5 84.5q0 18 4 40zM390 652q0 -27 -22.5 -49.5t-51.5 -22.5h-187
q-22 0 -35.5 13t-13.5 35q0 29 22 50.5t50 21.5h187q21 0 36 -13.5t15 -34.5z" />
    <glyph glyph-name="Ibreve" unicode="&#x12c;" horiz-adv-x="310" 
d="M179 645q5 27 26.5 46t51.5 19q24 0 40 -15t16 -37q0 -6 -2 -18l-113 -585q-5 -27 -27 -46t-52 -19q-24 0 -40 15t-16 38q0 6 2 16zM330 888q8 20 26 34.5t44 14.5q21 0 33.5 -12.5t12.5 -32.5q0 -56 -49.5 -96t-108.5 -40h-49q-48 0 -83 26.5t-35 73.5q0 32 17.5 56.5
t49.5 24.5q23 0 36 -14t13 -33q0 -40 40 -40q39 0 53 38z" />
    <glyph glyph-name="ibreve" unicode="&#x12d;" horiz-adv-x="301" 
d="M73 146l58 300q5 27 26 45.5t51 18.5q23 0 37.5 -15t14.5 -37q0 -4 -2 -18l-56 -292q-3 -18 -3 -23q0 -18 19 -19q22 -2 35.5 -15t13.5 -35q0 -27 -23 -46.5t-60 -19.5q-48 0 -81.5 31.5t-33.5 84.5q0 18 4 40zM284 688q8 20 26 34.5t44 14.5q21 0 33.5 -12.5t12.5 -32.5
q0 -56 -49.5 -96t-108.5 -40h-49q-48 0 -83 26.5t-35 73.5q0 32 17.5 56.5t49.5 24.5q23 0 36 -14t13 -33q0 -40 40 -40q39 0 53 38z" />
    <glyph glyph-name="Iogonek" unicode="&#x12e;" horiz-adv-x="310" 
d="M179 645q5 27 26.5 46t51.5 19q24 0 40 -15.5t16 -37.5q0 -5 -2 -17l-113 -585q-6 -31 -36 -52q-28 -20 -59.5 -54t-31.5 -57q0 -15 15 -15q7 0 24 6.5t26 6.5q20 0 31.5 -11t11.5 -29q0 -38 -36 -59t-87 -21q-55 0 -81 24.5t-26 59.5q0 48 40 88t86 66q-12 14 -12 35
q0 6 2 16z" />
    <glyph glyph-name="iogonek" unicode="&#x12f;" horiz-adv-x="301" 
d="M73 146l56 292q5 27 26 45.5t51 18.5q23 0 37.5 -15t14.5 -37q0 -4 -2 -18l-54 -284q-3 -18 -3 -23q0 -18 19 -19q22 -2 35.5 -15t13.5 -35q0 -30 -23 -47q-11 -8 -27.5 -21t-44 -44t-27.5 -52q0 -15 15 -15q7 0 24 6.5t26 6.5q20 0 31.5 -11t11.5 -29q0 -38 -36 -59
t-87 -21q-55 0 -81 24.5t-26 59.5q0 77 112 146q-66 27 -66 106q0 18 4 40zM152 617q0 35 28 64t66 29q28 0 46.5 -18t18.5 -45q0 -36 -29.5 -64.5t-65.5 -28.5q-28 0 -46 18t-18 45z" />
    <glyph glyph-name="Idotaccent" unicode="&#x130;" horiz-adv-x="310" 
d="M179 645q5 27 26.5 46t51.5 19q24 0 40 -15t16 -37q0 -6 -2 -18l-113 -585q-5 -27 -27 -46t-52 -19q-24 0 -40 15t-16 38q0 6 2 16zM202 817q0 36 28 64.5t66 28.5q28 0 46 -18.5t18 -45.5q0 -36 -29 -64t-65 -28q-28 0 -46 18t-18 45z" />
    <glyph glyph-name="dotlessi" unicode="&#x131;" horiz-adv-x="301" 
d="M73 146l58 300q5 27 26 45.5t51 18.5q23 0 37.5 -15t14.5 -37q0 -4 -2 -18l-56 -292q-3 -18 -3 -23q0 -18 19 -19q22 -2 35.5 -15t13.5 -35q0 -27 -23 -46.5t-60 -19.5q-48 0 -81.5 31.5t-33.5 84.5q0 18 4 40z" />
    <glyph glyph-name="IJ" unicode="&#x132;" horiz-adv-x="908" 
d="M719 276l72 369q5 27 26.5 46t51.5 19q24 0 40 -15.5t16 -37.5q0 -5 -2 -17l-71 -364q-25 -130 -104 -208t-195 -78q-112 0 -176 67.5t-64 155.5q0 30 6 56.5t26 49t52 22.5q23 0 38 -15t15 -38q0 -6 -2.5 -25t-2.5 -35q0 -48 29 -79t82 -31q64 0 106.5 42.5t56.5 115.5z
M179 645q5 27 26.5 46t51.5 19q24 0 40 -15.5t16 -37.5q0 -5 -2 -17l-113 -585q-5 -27 -27 -46t-52 -19q-24 0 -40 15t-16 38q0 6 2 16z" />
    <glyph glyph-name="ij" unicode="&#x133;" horiz-adv-x="584" 
d="M152 617q0 35 28 64t66 29q28 0 46.5 -18t18.5 -45q0 -36 -29.5 -64.5t-65.5 -28.5q-28 0 -46 18t-18 45zM73 146l56 292q5 27 26 45.5t51 18.5q23 0 37.5 -15t14.5 -37q0 -4 -2 -18l-54 -284q-3 -18 -3 -23q0 -18 19 -19q22 -2 35.5 -15t13.5 -35q0 -27 -23 -46.5
t-60 -19.5q-48 0 -81.5 31.5t-33.5 84.5q0 18 4 40zM456 616q0 36 28.5 65t66.5 29q28 0 46 -18.5t18 -45.5q0 -36 -29.5 -64t-65.5 -28q-28 0 -46 17.5t-18 44.5zM561 432l-94 -484q-14 -74 -69 -121t-141 -47h-34q-23 0 -36.5 13t-13.5 34q0 28 21.5 48.5t50.5 20.5h29
q25 0 43 16.5t23 42.5l94 483q6 27 26.5 45.5t50.5 18.5q23 0 37.5 -15t14.5 -37q0 -4 -2 -18z" />
    <glyph glyph-name="Jcircumflex" unicode="&#x134;" horiz-adv-x="688" 
d="M504 292l69 353q5 27 26 46t51 19q24 0 40 -15.5t16 -37.5q0 -5 -2 -17l-74 -373q-27 -136 -108.5 -206.5t-206.5 -70.5q-111 0 -185 67.5t-74 168.5q0 45 18.5 80t62.5 35q23 0 38 -15t15 -38q0 -5 -2 -20.5t-2 -28.5q0 -55 36 -89.5t95 -34.5q77 0 124 48.5t63 128.5z
M726 765l-53 60l-81 -62q-20 -15 -42 -15q-19 0 -34.5 14.5t-15.5 35.5q0 32 30 55l109 82q20 15 50 15q29 0 48 -19l79 -84q13 -15 13 -34q0 -31 -19.5 -47.5t-44.5 -16.5t-39 16z" />
    <glyph glyph-name="jcircumflex" unicode="&#x135;" horiz-adv-x="331" 
d="M308 432l-94 -484q-14 -74 -69 -121t-141 -47h-34q-23 0 -36.5 13t-13.5 34q0 28 21.5 48.5t50.5 20.5h29q25 0 43 16.5t23 42.5l94 483q6 27 26.5 45.5t50.5 18.5q23 0 37.5 -15t14.5 -37q0 -4 -2 -18zM334 565l-53 60l-81 -62q-19 -15 -42 -15q-19 0 -34.5 14.5
t-15.5 35.5q0 32 30 55l109 82q20 15 50 15q29 0 48 -19l79 -84q13 -15 13 -34q0 -31 -19.5 -47.5t-44.5 -16.5t-39 16z" />
    <glyph glyph-name="Kcommaaccent" unicode="&#x136;" horiz-adv-x="680" 
d="M506 14l-213 288l-69 -54l-37 -194q-5 -27 -27 -45.5t-50 -18.5q-24 0 -39 14.5t-15 37.5q0 7 2 17l114 587q5 27 27 45.5t50 18.5q24 0 39 -14.5t15 -37.5q0 -7 -2 -17l-44 -223l359 277q18 15 45 15q23 0 37.5 -15.5t14.5 -37.5q0 -35 -32 -59l-284 -220l216 -279
q15 -19 15 -42q0 -27 -21 -47t-50 -20q-32 0 -51 24zM228 -137q0 31 26 56.5t60 25.5q23 0 42.5 -17.5t19.5 -57.5q0 -92 -57 -152t-102 -60q-17 0 -27 9.5t-10 25.5q0 21 20 36t43 33t28 44q-43 12 -43 57z" />
    <glyph glyph-name="kcommaaccent" unicode="&#x137;" horiz-adv-x="558" 
d="M212 165l-20 -108q-6 -29 -26 -48t-53 -19q-23 0 -37 15t-14 35q0 4 2 18l121 625q6 29 26 48t53 19q24 0 37.5 -15t13.5 -35q0 -4 -2 -18l-69 -355l235 162q33 21 54 21q23 0 37 -15t14 -38q0 -34 -30 -55l-175 -122l134 -186q13 -18 13 -40q0 -27 -18.5 -45.5
t-44.5 -18.5q-31 0 -48 24l-135 197zM187 -137q0 31 26 56.5t60 25.5q23 0 42.5 -17.5t19.5 -57.5q0 -92 -57 -152t-102 -60q-17 0 -27 9.5t-10 25.5q0 21 20 36t43 33t28 44q-43 12 -43 57z" />
    <glyph glyph-name="kgreenlandic" unicode="&#x138;" horiz-adv-x="558" 
d="M212 165l-20 -108q-6 -29 -26 -48t-53 -19q-23 0 -37 15t-14 35q0 4 2 18l76 385q6 29 26 48t53 19q23 0 37 -15t14 -35q0 -4 -2 -18l-24 -115l235 162q33 21 54 21q23 0 37 -15t14 -38q0 -34 -30 -55l-175 -122l134 -186q13 -18 13 -40q0 -27 -18.5 -45.5t-44.5 -18.5
q-31 0 -48 24l-135 197z" />
    <glyph glyph-name="Lacute" unicode="&#x139;" horiz-adv-x="572" 
d="M170 645q5 28 27 46.5t51 18.5q24 0 38.5 -14.5t14.5 -37.5q0 -8 -2 -18l-101 -520h277q24 0 39.5 -14t15.5 -36q0 -31 -24.5 -50.5t-53.5 -19.5h-342q-23 0 -38.5 14.5t-15.5 36.5q0 7 3 22zM447 849l-108 -84q-19 -15 -42 -15q-22 0 -36.5 14.5t-14.5 35.5q0 33 28 55
l105 81q20 16 43 16q22 0 37 -14.5t15 -35.5q0 -31 -27 -53z" />
    <glyph glyph-name="lacute" unicode="&#x13a;" horiz-adv-x="300" 
d="M381 850l-108 -84q-19 -15 -42 -15q-22 0 -36.5 14.5t-14.5 35.5q0 33 28 55l105 81q20 16 43 16q22 0 37 -14.5t15 -35.5q0 -31 -27 -53zM73 146l98 501q6 27 26.5 45.5t50.5 18.5q23 0 37.5 -15t14.5 -37q0 -4 -2 -18l-96 -493q-3 -18 -3 -23q0 -18 19 -19
q22 -2 35.5 -15t13.5 -35q0 -27 -23 -46.5t-60 -19.5q-48 0 -81.5 31.5t-33.5 84.5q0 18 4 40z" />
    <glyph glyph-name="Lcommaaccent" unicode="&#x13b;" horiz-adv-x="572" 
d="M170 645q5 28 27 46.5t51 18.5q24 0 38.5 -14.5t14.5 -37.5q0 -8 -2 -18l-101 -520h277q24 0 39.5 -14t15.5 -36q0 -31 -24.5 -50.5t-53.5 -19.5h-342q-23 0 -38.5 14.5t-15.5 36.5q0 7 3 22zM194 -137q0 31 26 56.5t60 25.5q23 0 42.5 -17.5t19.5 -57.5q0 -92 -57 -152
t-102 -60q-17 0 -27 9.5t-10 25.5q0 21 20 36t43 33t28 44q-43 12 -43 57z" />
    <glyph glyph-name="lcommaaccent" unicode="&#x13c;" horiz-adv-x="300" 
d="M73 146l106 541q6 27 26.5 45.5t50.5 18.5q23 0 37.5 -15t14.5 -37q0 -4 -2 -18l-104 -533q-3 -18 -3 -23q0 -18 19 -19q22 -2 35.5 -15t13.5 -35q0 -27 -23 -46.5t-60 -19.5q-48 0 -81.5 31.5t-33.5 84.5q0 18 4 40zM60 -137q0 31 26 56.5t60 25.5q23 0 42.5 -17.5
t19.5 -57.5q0 -92 -57 -152t-102 -60q-17 0 -27 9.5t-10 25.5q0 21 20 36t43 33t28 44q-43 12 -43 57z" />
    <glyph glyph-name="Lcaron" unicode="&#x13d;" horiz-adv-x="572" 
d="M170 645q5 28 27 46.5t51 18.5q24 0 38.5 -14.5t14.5 -37.5q0 -8 -2 -18l-101 -520h277q24 0 39.5 -14t15.5 -36q0 -31 -24.5 -50.5t-53.5 -19.5h-342q-23 0 -38.5 14.5t-15.5 36.5q0 7 3 22zM467 668q0 31 26 56.5t60 25.5q23 0 42.5 -17.5t19.5 -57.5q0 -92 -57 -152
t-102 -60q-17 0 -27 9.5t-10 25.5q0 21 20 36t43 33t28 44q-43 12 -43 57z" />
    <glyph glyph-name="lcaron" unicode="&#x13e;" horiz-adv-x="429" 
d="M73 146l106 541q6 27 26.5 45.5t50.5 18.5q23 0 37.5 -15t14.5 -37q0 -4 -2 -18l-104 -533q-3 -18 -3 -23q0 -18 19 -19q22 -2 35.5 -15t13.5 -35q0 -27 -23 -46.5t-60 -19.5q-48 0 -81.5 31.5t-33.5 84.5q0 18 4 40zM389 667q0 31 26 56.5t60 25.5q23 0 42.5 -17.5
t19.5 -57.5q0 -92 -57 -152t-102 -60q-17 0 -27 9.5t-10 25.5q0 21 20 36t43 33t28 44q-43 12 -43 57z" />
    <glyph glyph-name="Ldot" unicode="&#x13f;" horiz-adv-x="572" 
d="M170 645q5 28 27 46.5t51 18.5q24 0 38.5 -14.5t14.5 -37.5q0 -8 -2 -18l-101 -520h277q24 0 39.5 -14t15.5 -36q0 -31 -24.5 -50.5t-53.5 -19.5h-342q-23 0 -38.5 14.5t-15.5 36.5q0 7 3 22zM381 341q0 35 28 62.5t66 27.5q28 0 46.5 -19.5t18.5 -46.5q0 -36 -29 -63
t-66 -27q-28 0 -46 19t-18 47z" />
    <glyph glyph-name="ldot" unicode="&#x140;" horiz-adv-x="440" 
d="M73 146l106 541q6 27 26.5 45.5t50.5 18.5q23 0 37.5 -15t14.5 -37q0 -4 -2 -18l-104 -533q-3 -18 -3 -23q0 -18 19 -19q22 -2 35.5 -15t13.5 -35q0 -27 -23 -46.5t-60 -19.5q-48 0 -81.5 31.5t-33.5 84.5q0 18 4 40zM321 336q0 35 28 62.5t66 27.5q28 0 46.5 -19.5
t18.5 -46.5q0 -36 -29 -63t-66 -27q-28 0 -46 19t-18 47z" />
    <glyph glyph-name="Lslash" unicode="&#x141;" horiz-adv-x="586" 
d="M384 402l-130 -66l-42 -216h277q24 0 39.5 -14t15.5 -36q0 -31 -24.5 -50.5t-53.5 -19.5h-342q-23 0 -38.5 14.5t-15.5 36.5q0 7 3 22l37 190q-14 -7 -28 -7q-19 0 -33 13t-14 33q0 42 41 63l59 30l49 250q5 28 27 46.5t51 18.5q24 0 38.5 -14.5t14.5 -37.5q0 -8 -2 -18
l-33 -171l67 34q16 7 27 7q21 0 35.5 -14t14.5 -35q0 -38 -40 -59z" />
    <glyph glyph-name="lslash" unicode="&#x142;" horiz-adv-x="320" 
d="M243 336l-36 -187q-3 -15 -3 -21q0 -22 19 -22q22 0 35.5 -13.5t13.5 -33.5q0 -29 -23 -49t-60 -20q-48 0 -81.5 32.5t-33.5 87.5q0 19 4 36l23 118q-16 -8 -31 -8q-19 0 -33 13t-14 34q0 42 41 62l63 31l56 290q5 26 26.5 45t49.5 19q23 0 38 -15.5t15 -37.5
q0 -4 -2 -16l-41 -212l66 34q16 7 28 7q21 0 35 -13t14 -34q0 -41 -39 -61z" />
    <glyph glyph-name="Nacute" unicode="&#x143;" horiz-adv-x="786" 
d="M510 34l-204 410l-33 86l-13 -96l-73 -380q-5 -27 -27 -45.5t-50 -18.5q-24 0 -39 14.5t-15 37.5q0 7 2 17l111 574q6 30 26.5 48.5t52.5 18.5h39q41 0 58 -34l203 -411l32 -85l13 95l74 381q5 27 27 45.5t50 18.5q24 0 39 -14.5t15 -37.5q0 -7 -2 -17l-111 -574
q-6 -30 -26.5 -48.5t-52.5 -18.5h-39q-39 0 -57 34zM646 849l-108 -84q-20 -15 -42 -15t-36.5 14.5t-14.5 35.5q0 33 28 55l105 81q20 16 43 16q22 0 37 -14.5t15 -35.5q0 -31 -27 -53z" />
    <glyph glyph-name="nacute" unicode="&#x144;" horiz-adv-x="667" 
d="M459 59l40 206q3 17 3 31q0 46 -27.5 71.5t-74.5 25.5q-52 0 -103 -35.5t-59 -73.5l-46 -230q-6 -30 -27.5 -47t-48.5 -17q-24 0 -38.5 14.5t-14.5 34.5q0 10 2 20l75 387q5 28 26 46t50 18q23 0 37.5 -14t14.5 -36q0 -11 -1 -15q80 65 168 65q91 0 143.5 -52t52.5 -136
q0 -23 -5 -53l-41 -215q-6 -30 -27 -47t-48 -17q-24 0 -38.5 14.5t-14.5 34.5q0 10 2 20zM576 649l-108 -84q-20 -15 -42 -15t-36.5 14.5t-14.5 35.5q0 33 28 55l105 81q20 16 43 16q22 0 37 -14.5t15 -35.5q0 -31 -27 -53z" />
    <glyph glyph-name="Ncommaaccent" unicode="&#x145;" horiz-adv-x="786" 
d="M510 34l-204 410l-33 86l-13 -96l-73 -380q-5 -27 -27 -45.5t-50 -18.5q-24 0 -39 14.5t-15 37.5q0 7 2 17l111 574q6 30 26.5 48.5t52.5 18.5h39q41 0 58 -34l203 -411l32 -85l13 95l74 381q5 27 27 45.5t50 18.5q24 0 39 -14.5t15 -37.5q0 -7 -2 -17l-111 -574
q-6 -30 -26.5 -48.5t-52.5 -18.5h-39q-39 0 -57 34zM260 -137q0 31 26 56.5t60 25.5q23 0 42.5 -17.5t19.5 -57.5q0 -92 -57 -152t-102 -60q-17 0 -27 9.5t-10 25.5q0 21 20 36t43 33t28 44q-43 12 -43 57z" />
    <glyph glyph-name="ncommaaccent" unicode="&#x146;" horiz-adv-x="667" 
d="M459 59l40 206q3 17 3 31q0 46 -27.5 71.5t-74.5 25.5q-52 0 -103 -35.5t-59 -73.5l-46 -230q-6 -30 -27.5 -47t-48.5 -17q-24 0 -38.5 14.5t-14.5 34.5q0 10 2 20l75 387q5 28 26 46t50 18q23 0 37.5 -14t14.5 -36q0 -11 -1 -15q80 65 168 65q91 0 143.5 -52t52.5 -136
q0 -23 -5 -53l-41 -215q-6 -30 -27 -47t-48 -17q-24 0 -38.5 14.5t-14.5 34.5q0 10 2 20zM228 -137q0 31 26 56.5t60 25.5q23 0 42.5 -17.5t19.5 -57.5q0 -92 -57 -152t-102 -60q-17 0 -27 9.5t-10 25.5q0 21 20 36t43 33t28 44q-43 12 -43 57z" />
    <glyph glyph-name="Ncaron" unicode="&#x147;" horiz-adv-x="786" 
d="M510 34l-204 410l-33 86l-13 -96l-73 -380q-5 -27 -27 -45.5t-50 -18.5q-24 0 -39 14.5t-15 37.5q0 7 2 17l111 574q6 30 26.5 48.5t52.5 18.5h39q41 0 58 -34l203 -411l32 -85l13 95l74 381q5 27 27 45.5t50 18.5q24 0 39 -14.5t15 -37.5q0 -7 -2 -17l-111 -574
q-6 -30 -26.5 -48.5t-52.5 -18.5h-39q-39 0 -57 34zM464 937l53 -60l81 62q20 15 42 15q19 0 34.5 -14.5t15.5 -35.5q0 -32 -30 -55l-109 -82q-20 -15 -50 -15q-29 0 -48 19l-79 84q-13 15 -13 34q0 31 19.5 47.5t44.5 16.5t39 -16z" />
    <glyph glyph-name="ncaron" unicode="&#x148;" horiz-adv-x="667" 
d="M459 59l40 206q3 17 3 31q0 46 -27.5 71.5t-74.5 25.5q-52 0 -103 -35.5t-59 -73.5l-46 -230q-6 -30 -27.5 -47t-48.5 -17q-24 0 -38.5 14.5t-14.5 34.5q0 10 2 20l75 387q5 28 26 46t50 18q23 0 37.5 -14t14.5 -36q0 -11 -1 -15q80 65 168 65q91 0 143.5 -52t52.5 -136
q0 -23 -5 -53l-41 -215q-6 -30 -27 -47t-48 -17q-24 0 -38.5 14.5t-14.5 34.5q0 10 2 20zM385 737l53 -60l81 62q19 15 42 15q19 0 34.5 -14.5t15.5 -35.5q0 -32 -30 -55l-109 -82q-20 -15 -50 -15q-29 0 -48 19l-79 84q-13 15 -13 34q0 31 19.5 47.5t44.5 16.5t39 -16z" />
    <glyph glyph-name="napostrophe" unicode="&#x149;" horiz-adv-x="696" 
d="M488 59l40 206q3 17 3 31q0 46 -27.5 71.5t-74.5 25.5q-52 0 -103 -35.5t-59 -73.5l-46 -230q-6 -30 -27.5 -47t-48.5 -17q-24 0 -38.5 14.5t-14.5 34.5q0 10 2 20l75 387q5 28 26 46t50 18q23 0 37.5 -14t14.5 -36q0 -11 -1 -15q80 65 168 65q91 0 143.5 -52t52.5 -136
q0 -23 -5 -53l-41 -215q-6 -30 -27 -47t-48 -17q-24 0 -38.5 14.5t-14.5 34.5q0 10 2 20zM62 668q0 31 26 56.5t60 25.5q23 0 42.5 -17.5t19.5 -57.5q0 -92 -57 -152t-102 -60q-17 0 -27 9.5t-10 25.5q0 21 20 36t43 33t28 44q-43 12 -43 57z" />
    <glyph glyph-name="Eng" unicode="&#x14a;" horiz-adv-x="786" 
d="M538 -14l-232 458l-33 86l-13 -96l-73 -380q-5 -27 -27 -45.5t-50 -18.5q-24 0 -39 14.5t-15 37.5q0 7 2 17l111 574q6 30 26.5 48.5t52.5 18.5h39q41 0 58 -34l203 -411l32 -85l13 95l74 381q5 27 27 45.5t50 18.5q24 0 39 -14.5t15 -37.5q0 -7 -2 -17l-134 -698
q-15 -77 -71.5 -125t-150.5 -48q-23 0 -39 13t-16 35q0 27 13.5 41.5t33.5 19.5t40.5 9t37 16.5t20.5 36.5z" />
    <glyph glyph-name="eng" unicode="&#x14b;" horiz-adv-x="646" 
d="M416 -63l63 328q3 17 3 31q0 46 -27.5 71.5t-74.5 25.5q-52 0 -103 -35.5t-59 -73.5l-46 -230q-6 -30 -27.5 -47t-48.5 -17q-24 0 -38.5 14.5t-14.5 34.5q0 10 2 20l75 387q5 28 26 46t50 18q23 0 37.5 -14t14.5 -36q0 -11 -1 -15q80 65 168 65q91 0 143.5 -52t52.5 -136
q0 -23 -5 -53l-63 -330q-15 -78 -72 -123.5t-140 -45.5q-23 0 -36.5 12.5t-13.5 33.5q0 28 21.5 49t51.5 21q21 0 39.5 15t22.5 36z" />
    <glyph glyph-name="Omacron" unicode="&#x14c;" horiz-adv-x="840" 
d="M406 111q114 0 198 87t84 200q0 85 -51.5 138.5t-137.5 53.5q-114 0 -197.5 -87t-83.5 -201q0 -84 51 -137.5t137 -53.5zM394 -10q-137 0 -222.5 84t-85.5 214q0 110 54 206.5t153 156t220 59.5q137 0 222 -84t85 -214q0 -111 -53.5 -207t-152.5 -155.5t-220 -59.5z
M702 852q0 -27 -22.5 -49.5t-51.5 -22.5h-187q-22 0 -35.5 13t-13.5 35q0 29 22 50.5t50 21.5h187q21 0 36 -13.5t15 -34.5z" />
    <glyph glyph-name="omacron" unicode="&#x14d;" horiz-adv-x="616" 
d="M600 289q0 -127 -85 -213t-219 -86q-104 0 -168 62.5t-64 156.5q0 130 87.5 215.5t220.5 85.5q100 0 164 -63t64 -158zM304 106q71 0 121 51t50 122q0 49 -32 81.5t-83 32.5q-74 0 -123 -50t-49 -120q0 -50 32 -83.5t84 -33.5zM562 652q0 -27 -22.5 -49.5t-51.5 -22.5
h-187q-22 0 -35.5 13t-13.5 35q0 29 22 50.5t50 21.5h187q21 0 36 -13.5t15 -34.5z" />
    <glyph glyph-name="Obreve" unicode="&#x14e;" horiz-adv-x="840" 
d="M406 111q114 0 198 87t84 200q0 85 -51.5 138.5t-137.5 53.5q-114 0 -197.5 -87t-83.5 -201q0 -84 51 -137.5t137 -53.5zM394 -10q-137 0 -222.5 84t-85.5 214q0 110 54 206.5t153 156t220 59.5q137 0 222 -84t85 -214q0 -111 -53.5 -207t-152.5 -155.5t-220 -59.5z
M593 888q8 20 26 34.5t44 14.5q21 0 33.5 -12.5t12.5 -32.5q0 -56 -49.5 -96t-108.5 -40h-49q-48 0 -83 26.5t-35 73.5q0 32 17.5 56.5t49.5 24.5q23 0 36 -14t13 -33q0 -40 40 -40q39 0 53 38z" />
    <glyph glyph-name="obreve" unicode="&#x14f;" horiz-adv-x="616" 
d="M600 289q0 -127 -85 -213t-219 -86q-104 0 -168 62.5t-64 156.5q0 130 87.5 215.5t220.5 85.5q100 0 164 -63t64 -158zM304 106q71 0 121 51t50 122q0 49 -32 81.5t-83 32.5q-74 0 -123 -50t-49 -120q0 -50 32 -83.5t84 -33.5zM453 688q8 20 26 34.5t44 14.5
q21 0 33.5 -12.5t12.5 -32.5q0 -56 -49.5 -96t-108.5 -40h-49q-48 0 -83 26.5t-35 73.5q0 32 17.5 56.5t49.5 24.5q23 0 36 -14t13 -33q0 -40 40 -40q39 0 53 38z" />
    <glyph glyph-name="Ohungarumlaut" unicode="&#x150;" horiz-adv-x="840" 
d="M406 111q114 0 198 87t84 200q0 85 -51.5 138.5t-137.5 53.5q-114 0 -197.5 -87t-83.5 -201q0 -84 51 -137.5t137 -53.5zM394 -10q-137 0 -222.5 84t-85.5 214q0 110 54 206.5t153 156t220 59.5q137 0 222 -84t85 -214q0 -111 -53.5 -207t-152.5 -155.5t-220 -59.5z
M554 847l-93 -72q-19 -15 -40 -15t-35.5 13t-14.5 33q0 29 25 49l95 72q20 15 38 15q21 0 36 -13.5t15 -32.5q0 -29 -26 -49zM773 847l-93 -72q-19 -15 -40 -15t-35.5 13t-14.5 33q0 29 25 49l95 72q20 15 38 15q21 0 36 -13.5t15 -32.5q0 -29 -26 -49z" />
    <glyph glyph-name="ohungarumlaut" unicode="&#x151;" horiz-adv-x="616" 
d="M600 289q0 -127 -85 -213t-219 -86q-104 0 -168 62.5t-64 156.5q0 130 87.5 215.5t220.5 85.5q100 0 164 -63t64 -158zM304 106q71 0 121 51t50 122q0 49 -32 81.5t-83 32.5q-74 0 -123 -50t-49 -120q0 -50 32 -83.5t84 -33.5zM418 647l-93 -72q-19 -15 -40 -15t-35.5 13
t-14.5 33q0 29 25 49l95 72q20 15 38 15q21 0 36 -13.5t15 -32.5q0 -29 -26 -49zM637 647l-93 -72q-19 -15 -40 -15t-35.5 13t-14.5 33q0 29 25 49l95 72q20 15 38 15q21 0 36 -13.5t15 -32.5q0 -29 -26 -49z" />
    <glyph glyph-name="OE" unicode="&#x152;" horiz-adv-x="1223" 
d="M1073 0h-392q-26 0 -40.5 14t-14.5 37l3 22q-47 -36 -111.5 -59.5t-132.5 -23.5q-131 0 -215 84.5t-84 213.5q0 110 54 206.5t153 156t220 59.5q138 0 222 -89l3 15q5 28 27.5 46t53.5 18h384q57 0 57 -50q0 -32 -23.5 -51t-58.5 -19h-321l-30 -159h272q57 0 57 -50
q0 -32 -23.5 -51t-58.5 -19h-271l-35 -181h330q57 0 57 -50q0 -32 -23.5 -51t-58.5 -19zM406 111q61 0 125.5 35t110.5 103t46 149q0 85 -51.5 138.5t-137.5 53.5q-114 0 -197.5 -87t-83.5 -201q0 -84 51 -137.5t137 -53.5z" />
    <glyph glyph-name="oe" unicode="&#x153;" horiz-adv-x="984" 
d="M887 199h-299q1 -40 34 -67.5t78 -27.5q52 0 90 18t54 18q22 0 35.5 -12.5t13.5 -32.5q0 -42 -46 -68q-62 -37 -170 -37q-115 0 -171 83q-86 -83 -213 -83q-105 0 -167 59.5t-62 153.5q0 130 90 218.5t221 88.5q120 0 184 -85q82 84 205 84q99 0 157.5 -58t58.5 -140
q0 -48 -25 -80t-68 -32zM304 106q69 0 120 51.5t51 121.5q0 49 -32 81.5t-83 32.5q-72 0 -122 -50.5t-50 -119.5q0 -50 32 -83.5t84 -33.5zM752 397q-45 0 -87 -29.5t-57 -67.5h253q0 37 -30 67t-79 30z" />
    <glyph glyph-name="Racute" unicode="&#x154;" horiz-adv-x="674" 
d="M221 239l-35 -183q-5 -28 -26.5 -47t-49.5 -19q-24 0 -39 14.5t-15 37.5q0 7 2 17l111 576q5 27 27 46t52 19h230q87 0 141.5 -56t54.5 -145q0 -53 -18.5 -97t-45 -70t-53 -44t-45.5 -25l-18 -7l86 -155q9 -17 9 -36q0 -30 -21 -52.5t-54 -22.5q-36 0 -51 29l-118 220
h-124zM288 580l-43 -221h167q51 0 91 37.5t40 91.5q0 39 -25 65.5t-63 26.5h-167zM554 849l-108 -84q-20 -15 -42 -15t-36.5 14.5t-14.5 35.5q0 33 28 55l105 81q20 16 43 16q22 0 37 -14.5t15 -35.5q0 -31 -27 -53z" />
    <glyph glyph-name="racute" unicode="&#x155;" horiz-adv-x="424" 
d="M410 500h13q26 0 40 -12t14 -33q0 -30 -22 -50.5t-51 -20.5h-26q-51 0 -93 -34t-51 -81l-43 -216q-6 -26 -27 -44.5t-50 -18.5q-23 0 -37.5 15t-14.5 36q0 5 2 17l75 388q5 26 26 45t50 19q20 0 35 -15.5t15 -41.5l-1 -9q68 56 146 56zM485 649l-108 -84q-19 -15 -42 -15
q-22 0 -36.5 14.5t-14.5 35.5q0 33 28 55l105 81q20 16 43 16q22 0 37 -14.5t15 -35.5q0 -31 -27 -53z" />
    <glyph glyph-name="Rcommaaccent" unicode="&#x156;" horiz-adv-x="674" 
d="M221 239l-35 -183q-5 -28 -26.5 -47t-49.5 -19q-24 0 -39 14.5t-15 37.5q0 7 2 17l111 576q5 27 27 46t52 19h230q87 0 141.5 -56t54.5 -145q0 -53 -18.5 -97t-45 -70t-53 -44t-45.5 -25l-18 -7l86 -155q9 -17 9 -36q0 -30 -21 -52.5t-54 -22.5q-36 0 -51 29l-118 220
h-124zM288 580l-43 -221h167q51 0 91 37.5t40 91.5q0 39 -25 65.5t-63 26.5h-167zM217 -137q0 31 26 56.5t60 25.5q23 0 42.5 -17.5t19.5 -57.5q0 -92 -57 -152t-102 -60q-17 0 -27 9.5t-10 25.5q0 21 20 36t43 33t28 44q-43 12 -43 57z" />
    <glyph glyph-name="rcommaaccent" unicode="&#x157;" horiz-adv-x="424" 
d="M410 500h13q26 0 40 -12t14 -33q0 -30 -22 -50.5t-51 -20.5h-26q-51 0 -93 -34t-51 -81l-43 -216q-6 -26 -27 -44.5t-50 -18.5q-23 0 -37.5 15t-14.5 36q0 5 2 17l75 388q5 26 26 45t50 19q20 0 35 -15.5t15 -41.5l-1 -9q68 56 146 56zM106 -137q0 31 26 56.5t60 25.5
q23 0 42.5 -17.5t19.5 -57.5q0 -92 -57 -152t-102 -60q-17 0 -27 9.5t-10 25.5q0 21 20 36t43 33t28 44q-43 12 -43 57z" />
    <glyph glyph-name="Rcaron" unicode="&#x158;" horiz-adv-x="674" 
d="M221 239l-35 -183q-5 -28 -26.5 -47t-49.5 -19q-24 0 -39 14.5t-15 37.5q0 7 2 17l111 576q5 27 27 46t52 19h230q87 0 141.5 -56t54.5 -145q0 -53 -18.5 -97t-45 -70t-53 -44t-45.5 -25l-18 -7l86 -155q9 -17 9 -36q0 -30 -21 -52.5t-54 -22.5q-36 0 -51 29l-118 220
h-124zM288 580l-43 -221h167q51 0 91 37.5t40 91.5q0 39 -25 65.5t-63 26.5h-167zM376 937l53 -60l81 62q20 15 42 15q19 0 34.5 -14.5t15.5 -35.5q0 -32 -30 -55l-109 -82q-20 -15 -50 -15q-29 0 -48 19l-79 84q-13 15 -13 34q0 31 19.5 47.5t44.5 16.5t39 -16z" />
    <glyph glyph-name="rcaron" unicode="&#x159;" horiz-adv-x="424" 
d="M410 500h13q26 0 40 -12t14 -33q0 -30 -22 -50.5t-51 -20.5h-26q-51 0 -93 -34t-51 -81l-43 -216q-6 -26 -27 -44.5t-50 -18.5q-23 0 -37.5 15t-14.5 36q0 5 2 17l75 388q5 26 26 45t50 19q20 0 35 -15.5t15 -41.5l-1 -9q68 56 146 56zM301 737l53 -60l81 62q19 15 42 15
q19 0 34.5 -14.5t15.5 -35.5q0 -32 -30 -55l-109 -82q-20 -15 -50 -15q-29 0 -48 19l-79 84q-13 15 -13 34q0 31 19.5 47.5t44.5 16.5t39 -16z" />
    <glyph glyph-name="Sacute" unicode="&#x15a;" horiz-adv-x="637" 
d="M303 108q58 0 102 29t44 70q0 27 -23.5 46.5t-59 31t-76.5 27.5t-76.5 34.5t-59 54.5t-23.5 85q0 91 77.5 157.5t198.5 66.5q104 0 162 -45t58 -92q0 -24 -19.5 -46t-51.5 -22q-20 0 -36.5 14t-27.5 31t-36.5 31t-60.5 14q-57 0 -94 -27t-37 -63q0 -25 24 -43.5t60 -30
t78 -28t78 -35.5t60 -56t24 -86q0 -101 -84 -168.5t-209 -67.5q-111 0 -176.5 50t-65.5 97q0 30 20.5 50t48.5 20q21 0 35.5 -10t24.5 -24.5t23 -29.5t37.5 -25t60.5 -10zM548 849l-108 -84q-20 -15 -42 -15t-36.5 14.5t-14.5 35.5q0 33 28 55l105 81q20 16 43 16
q22 0 37 -14.5t15 -35.5q0 -31 -27 -53z" />
    <glyph glyph-name="sacute" unicode="&#x15b;" horiz-adv-x="520" 
d="M253 97q41 0 67.5 14.5t26.5 37.5q0 15 -18.5 25.5t-46.5 16t-61 15.5t-61 22.5t-46.5 38.5t-18.5 62q0 74 62.5 127.5t166.5 53.5q82 0 132.5 -28.5t50.5 -62.5q0 -25 -15 -44t-43 -19q-21 0 -62.5 24.5t-82.5 24.5t-63.5 -16t-22.5 -37q0 -18 27 -29.5t65 -20t76 -21.5
t65 -41t27 -70q0 -84 -69.5 -132t-173.5 -48q-82 0 -136 29.5t-54 65.5q0 28 19.5 46.5t46.5 18.5q17 0 35 -13t44 -26.5t63 -13.5zM473 649l-108 -84q-19 -15 -42 -15q-22 0 -36.5 14.5t-14.5 35.5q0 33 28 55l105 81q20 16 43 16q22 0 37 -14.5t15 -35.5q0 -31 -27 -53z
" />
    <glyph glyph-name="Scircumflex" unicode="&#x15c;" horiz-adv-x="637" 
d="M303 108q58 0 102 29t44 70q0 27 -23.5 46.5t-59 31t-76.5 27.5t-76.5 34.5t-59 54.5t-23.5 85q0 91 77.5 157.5t198.5 66.5q104 0 162 -45t58 -92q0 -24 -19.5 -46t-51.5 -22q-20 0 -36.5 14t-27.5 31t-36.5 31t-60.5 14q-57 0 -94 -27t-37 -63q0 -25 24 -43.5t60 -30
t78 -28t78 -35.5t60 -56t24 -86q0 -101 -84 -168.5t-209 -67.5q-111 0 -176.5 50t-65.5 97q0 30 20.5 50t48.5 20q21 0 35.5 -10t24.5 -24.5t23 -29.5t37.5 -25t60.5 -10zM490 765l-53 60l-81 -62q-20 -15 -42 -15q-19 0 -34.5 14.5t-15.5 35.5q0 32 30 55l109 82
q20 15 50 15q29 0 48 -19l79 -84q13 -15 13 -34q0 -31 -19.5 -47.5t-44.5 -16.5t-39 16z" />
    <glyph glyph-name="scircumflex" unicode="&#x15d;" horiz-adv-x="520" 
d="M253 97q41 0 67.5 14.5t26.5 37.5q0 15 -18.5 25.5t-46.5 16t-61 15.5t-61 22.5t-46.5 38.5t-18.5 62q0 74 62.5 127.5t166.5 53.5q82 0 132.5 -28.5t50.5 -62.5q0 -25 -15 -44t-43 -19q-21 0 -62.5 24.5t-82.5 24.5t-63.5 -16t-22.5 -37q0 -18 27 -29.5t65 -20t76 -21.5
t65 -41t27 -70q0 -84 -69.5 -132t-173.5 -48q-82 0 -136 29.5t-54 65.5q0 28 19.5 46.5t46.5 18.5q17 0 35 -13t44 -26.5t63 -13.5zM411 565l-53 60l-81 -62q-19 -15 -42 -15q-19 0 -34.5 14.5t-15.5 35.5q0 32 30 55l109 82q20 15 50 15q29 0 48 -19l79 -84q13 -15 13 -34
q0 -31 -19.5 -47.5t-44.5 -16.5t-39 16z" />
    <glyph glyph-name="Scedilla" unicode="&#x15e;" horiz-adv-x="637" 
d="M189 -64q0 14 11 30l20 31q-78 16 -122.5 59.5t-44.5 80.5q0 30 20.5 50t48.5 20q21 0 35.5 -10t24.5 -24.5t23 -29.5t37.5 -25t60.5 -10q58 0 102 29t44 70q0 27 -23.5 46.5t-59 31t-76.5 27.5t-76.5 34.5t-59 54.5t-23.5 85q0 91 77.5 157.5t198.5 66.5q104 0 162 -45
t58 -92q0 -24 -19.5 -46t-51.5 -22q-20 0 -36.5 14t-27.5 31t-36.5 31t-60.5 14q-57 0 -94 -27t-37 -63q0 -25 24 -43.5t60 -30t78 -28t78 -35.5t60 -56t24 -86q0 -94 -77 -160.5t-189 -74.5l-8 -14q32 -7 50.5 -28.5t18.5 -52.5q0 -55 -44 -90.5t-107 -35.5q-96 0 -96 48
q0 22 15.5 38t34.5 16q9 0 24 -6.5t28 -6.5q11 0 20 8.5t9 20.5q0 9 -7.5 15.5t-18.5 6.5q-52 0 -52 26z" />
    <glyph glyph-name="scedilla" unicode="&#x15f;" horiz-adv-x="515" 
d="M248 97q41 0 67.5 14.5t26.5 37.5q0 15 -18.5 25.5t-46.5 16t-61 15.5t-61 22.5t-46.5 38.5t-18.5 62q0 74 62.5 127.5t166.5 53.5q81 0 132 -30.5t51 -64.5q0 -23 -16.5 -40.5t-44.5 -17.5q-21 0 -60 24t-80 24t-64.5 -16t-23.5 -37q0 -18 27 -29.5t65 -20t76 -21.5
t65 -41t27 -70q0 -70 -50 -116t-131 -59l-10 -18q32 -7 50.5 -28.5t18.5 -52.5q0 -55 -44 -90.5t-107 -35.5q-96 0 -96 48q0 22 15.5 38t34.5 16q9 0 24 -6.5t28 -6.5q11 0 20 8.5t9 20.5q0 9 -7.5 15.5t-18.5 6.5q-52 0 -52 26q0 14 11 30l17 27q-65 8 -105 35t-40 57
q0 28 20 46.5t46 18.5q17 0 35 -13t44 -26.5t63 -13.5z" />
    <glyph glyph-name="Scaron" unicode="&#x160;" horiz-adv-x="637" 
d="M303 108q58 0 102 29t44 70q0 27 -23.5 46.5t-59 31t-76.5 27.5t-76.5 34.5t-59 54.5t-23.5 85q0 91 77.5 157.5t198.5 66.5q104 0 162 -45t58 -92q0 -24 -19.5 -46t-51.5 -22q-20 0 -36.5 14t-27.5 31t-36.5 31t-60.5 14q-57 0 -94 -27t-37 -63q0 -25 24 -43.5t60 -30
t78 -28t78 -35.5t60 -56t24 -86q0 -101 -84 -168.5t-209 -67.5q-111 0 -176.5 50t-65.5 97q0 30 20.5 50t48.5 20q21 0 35.5 -10t24.5 -24.5t23 -29.5t37.5 -25t60.5 -10zM384 937l53 -60l81 62q20 15 42 15q19 0 34.5 -14.5t15.5 -35.5q0 -32 -30 -55l-109 -82
q-20 -15 -50 -15q-29 0 -48 19l-79 84q-13 15 -13 34q0 31 19.5 47.5t44.5 16.5t39 -16z" />
    <glyph glyph-name="scaron" unicode="&#x161;" horiz-adv-x="520" 
d="M253 97q41 0 67.5 14.5t26.5 37.5q0 15 -18.5 25.5t-46.5 16t-61 15.5t-61 22.5t-46.5 38.5t-18.5 62q0 74 62.5 127.5t166.5 53.5q82 0 132.5 -28.5t50.5 -62.5q0 -25 -15 -44t-43 -19q-21 0 -62.5 24.5t-82.5 24.5t-63.5 -16t-22.5 -37q0 -18 27 -29.5t65 -20t76 -21.5
t65 -41t27 -70q0 -84 -69.5 -132t-173.5 -48q-82 0 -136 29.5t-54 65.5q0 28 19.5 46.5t46.5 18.5q17 0 35 -13t44 -26.5t63 -13.5zM297 737l53 -60l81 62q19 15 42 15q19 0 34.5 -14.5t15.5 -35.5q0 -32 -30 -55l-109 -82q-20 -15 -50 -15q-29 0 -48 19l-79 84
q-13 15 -13 34q0 31 19.5 47.5t44.5 16.5t39 -16z" />
    <glyph glyph-name="Tcommaaccent" unicode="&#x162;" horiz-adv-x="590" 
d="M308 580h-152q-57 0 -57 50q0 32 23.5 51t58.5 19h435q57 0 57 -50q0 -32 -23.5 -51t-58.5 -19h-151l-102 -525q-5 -27 -26.5 -46t-51.5 -19q-24 0 -40 15t-16 38q0 6 2 16zM170 -137q0 31 26 56.5t60 25.5q23 0 42.5 -17.5t19.5 -57.5q0 -92 -57 -152t-102 -60
q-17 0 -27 9.5t-10 25.5q0 21 20 36t43 33t28 44q-43 12 -43 57z" />
    <glyph glyph-name="tcommaaccent" unicode="&#x163;" horiz-adv-x="385" 
d="M328 71q0 -30 -20 -50.5t-55 -20.5h-44q-54 0 -84.5 30.5t-30.5 77.5q0 15 3 33l47 241h-34q-22 0 -35 14t-13 37q0 25 20.5 46t50.5 21h34l14 70q5 27 26 45t51 18q22 0 37.5 -15t15.5 -36q0 -7 -3 -22l-12 -60h70q22 0 35.5 -14.5t13.5 -39.5t-21.5 -44.5t-50.5 -19.5
h-70l-44 -223q-3 -17 -3 -23q0 -18 22 -18h32q22 0 35 -13t13 -34zM112 -137q0 31 26 56.5t60 25.5q23 0 42.5 -17.5t19.5 -57.5q0 -92 -57 -152t-102 -60q-17 0 -27 9.5t-10 25.5q0 21 20 36t43 33t28 44q-43 12 -43 57z" />
    <glyph glyph-name="Tcaron" unicode="&#x164;" horiz-adv-x="590" 
d="M308 580h-152q-57 0 -57 50q0 32 23.5 51t58.5 19h435q57 0 57 -50q0 -32 -23.5 -51t-58.5 -19h-151l-102 -525q-5 -27 -26.5 -46t-51.5 -19q-24 0 -40 15t-16 38q0 6 2 16zM364 937l53 -60l81 62q20 15 42 15q19 0 34.5 -14.5t15.5 -35.5q0 -32 -30 -55l-109 -82
q-20 -15 -50 -15q-29 0 -48 19l-79 84q-13 15 -13 34q0 31 19.5 47.5t44.5 16.5t39 -16z" />
    <glyph glyph-name="tcaron" unicode="&#x165;" horiz-adv-x="422" 
d="M382 708q0 31 26 56.5t60 25.5q23 0 42.5 -17.5t19.5 -57.5q0 -92 -48.5 -143t-92.5 -51q-17 0 -27 9.5t-10 25.5q0 17 10 27.5t22 15.5t24.5 18t16.5 34q-43 12 -43 57zM328 71q0 -30 -20 -50.5t-55 -20.5h-44q-54 0 -84.5 30.5t-30.5 77.5q0 15 3 33l47 241h-34
q-22 0 -35 14t-13 37q0 25 20.5 46t50.5 21h34l14 70q5 27 26 45t51 18q22 0 37.5 -15t15.5 -36q0 -7 -3 -22l-12 -60h70q22 0 35.5 -14.5t13.5 -39.5t-21.5 -44.5t-50.5 -19.5h-70l-44 -223q-3 -17 -3 -23q0 -18 22 -18h32q22 0 35 -13t13 -34z" />
    <glyph glyph-name="Tbar" unicode="&#x166;" horiz-adv-x="590" 
d="M467 303h-81l-48 -248q-5 -27 -26.5 -46t-51.5 -19q-24 0 -40 15t-16 38q0 6 2 16l48 244h-81q-21 0 -34 13.5t-13 34.5q0 27 21 47t48 20h81l32 162h-152q-57 0 -57 50q0 32 23.5 51t58.5 19h435q57 0 57 -50q0 -32 -23.5 -51t-58.5 -19h-151l-32 -162h81q20 0 34 -14
t14 -34q0 -28 -21.5 -47.5t-48.5 -19.5z" />
    <glyph glyph-name="tbar" unicode="&#x167;" horiz-adv-x="392" 
d="M284 218h-37l-11 -59q-3 -17 -3 -23q0 -7 5.5 -12.5t12.5 -5.5h36q21 0 34.5 -13t13.5 -34q0 -28 -21 -49.5t-50 -21.5h-48q-50 0 -82 31.5t-32 79.5q0 13 3 30l15 77h-19q-21 0 -34 13.5t-13 37.5t20.5 42t47.5 18h19l11 53h-35q-21 0 -34.5 13t-13.5 33q0 27 21.5 49.5
t49.5 22.5h35l14 70q5 27 27 45t49 18q23 0 38 -15.5t15 -37.5q0 -5 -3 -20l-12 -60h70q21 0 35 -13.5t14 -34.5q0 -28 -22.5 -49t-49.5 -21h-70l-11 -53h36q21 0 35 -13t14 -37t-22 -42.5t-48 -18.5z" />
    <glyph glyph-name="Utilde" unicode="&#x168;" horiz-adv-x="789" 
d="M804 640l-66 -338q-28 -142 -129 -227t-240 -85q-114 0 -194.5 71t-80.5 185q0 30 6 62l66 337q5 28 27 46.5t50 18.5q24 0 39 -15t15 -38q0 -5 -2 -17l-65 -332q-4 -20 -4 -45q0 -71 46.5 -108.5t109.5 -37.5q82 0 146 52.5t83 148.5l64 327q5 28 27 46.5t50 18.5
q24 0 39 -15t15 -38q0 -5 -2 -17zM465 929q33 0 68.5 -27.5t46.5 -27.5q8 0 16.5 8.5t15 19t20 19t31.5 8.5q20 0 33.5 -13t13.5 -32q0 -37 -38.5 -78.5t-100.5 -41.5q-25 0 -47 14t-38.5 27.5t-27.5 13.5q-12 0 -23 -13.5t-26 -27.5t-36 -14q-20 0 -33 12.5t-13 31.5
q0 38 37.5 79.5t100.5 41.5z" />
    <glyph glyph-name="utilde" unicode="&#x169;" horiz-adv-x="650" 
d="M247 441l-40 -206q-3 -18 -3 -35q0 -43 27.5 -68t74.5 -25q52 0 103 35.5t59 73.5l46 230q6 30 27.5 47t48.5 17q24 0 38.5 -14.5t14.5 -34.5q0 -10 -2 -20l-75 -387q-5 -28 -26 -46t-50 -18q-23 0 -37.5 14t-14.5 36q0 11 1 15q-80 -65 -168 -65q-91 0 -143.5 52
t-52.5 136q0 23 5 53l41 215q6 30 27 47t48 17q24 0 38.5 -14.5t14.5 -34.5q0 -10 -2 -20zM368 729q33 0 68.5 -27.5t46.5 -27.5q8 0 16.5 8.5t15 19t20 19t31.5 8.5q20 0 33.5 -13t13.5 -32q0 -37 -38.5 -78.5t-100.5 -41.5q-25 0 -47 14t-38.5 27.5t-27.5 13.5
q-12 0 -23 -13.5t-26 -27.5t-36 -14q-20 0 -33 12.5t-13 31.5q0 38 37.5 79.5t100.5 41.5z" />
    <glyph glyph-name="Umacron" unicode="&#x16a;" horiz-adv-x="789" 
d="M804 640l-66 -338q-28 -142 -129 -227t-240 -85q-114 0 -194.5 71t-80.5 185q0 30 6 62l66 337q5 28 27 46.5t50 18.5q24 0 39 -15t15 -38q0 -5 -2 -17l-65 -332q-4 -20 -4 -45q0 -71 46.5 -108.5t109.5 -37.5q82 0 146 52.5t83 148.5l64 327q5 28 27 46.5t50 18.5
q24 0 39 -15t15 -38q0 -5 -2 -17zM675 852q0 -27 -22.5 -49.5t-51.5 -22.5h-187q-22 0 -35.5 13t-13.5 35q0 29 22 50.5t50 21.5h187q21 0 36 -13.5t15 -34.5z" />
    <glyph glyph-name="umacron" unicode="&#x16b;" horiz-adv-x="650" 
d="M247 441l-40 -206q-3 -18 -3 -35q0 -43 27.5 -68t74.5 -25q52 0 103 35.5t59 73.5l46 230q6 30 27.5 47t48.5 17q24 0 38.5 -14.5t14.5 -34.5q0 -10 -2 -20l-75 -387q-5 -28 -26 -46t-50 -18q-23 0 -37.5 14t-14.5 36q0 11 1 15q-80 -65 -168 -65q-91 0 -143.5 52
t-52.5 136q0 23 5 53l41 215q6 30 27 47t48 17q24 0 38.5 -14.5t14.5 -34.5q0 -10 -2 -20zM576 652q0 -27 -22.5 -49.5t-51.5 -22.5h-187q-22 0 -35.5 13t-13.5 35q0 29 22 50.5t50 21.5h187q21 0 36 -13.5t15 -34.5z" />
    <glyph glyph-name="Ubreve" unicode="&#x16c;" horiz-adv-x="789" 
d="M804 640l-66 -338q-28 -142 -129 -227t-240 -85q-114 0 -194.5 71t-80.5 185q0 30 6 62l66 337q5 28 27 46.5t50 18.5q24 0 39 -15t15 -38q0 -5 -2 -17l-65 -332q-4 -20 -4 -45q0 -71 46.5 -108.5t109.5 -37.5q82 0 146 52.5t83 148.5l64 327q5 28 27 46.5t50 18.5
q24 0 39 -15t15 -38q0 -5 -2 -17zM568 888q8 20 26 34.5t44 14.5q21 0 33.5 -12.5t12.5 -32.5q0 -56 -49.5 -96t-108.5 -40h-49q-48 0 -83 26.5t-35 73.5q0 32 17.5 56.5t49.5 24.5q23 0 36 -14t13 -33q0 -40 40 -40q39 0 53 38z" />
    <glyph glyph-name="ubreve" unicode="&#x16d;" horiz-adv-x="650" 
d="M247 441l-40 -206q-3 -18 -3 -35q0 -43 27.5 -68t74.5 -25q52 0 103 35.5t59 73.5l46 230q6 30 27.5 47t48.5 17q24 0 38.5 -14.5t14.5 -34.5q0 -10 -2 -20l-75 -387q-5 -28 -26 -46t-50 -18q-23 0 -37.5 14t-14.5 36q0 11 1 15q-80 -65 -168 -65q-91 0 -143.5 52
t-52.5 136q0 23 5 53l41 215q6 30 27 47t48 17q24 0 38.5 -14.5t14.5 -34.5q0 -10 -2 -20zM466 688q8 20 26 34.5t44 14.5q21 0 33.5 -12.5t12.5 -32.5q0 -56 -49.5 -96t-108.5 -40h-49q-48 0 -83 26.5t-35 73.5q0 32 17.5 56.5t49.5 24.5q23 0 36 -14t13 -33q0 -40 40 -40
q39 0 53 38z" />
    <glyph glyph-name="Uring" unicode="&#x16e;" horiz-adv-x="789" 
d="M804 640l-66 -338q-28 -142 -129 -227t-240 -85q-114 0 -194.5 71t-80.5 185q0 30 6 62l66 337q5 28 27 46.5t50 18.5q24 0 39 -15t15 -38q0 -5 -2 -17l-65 -332q-4 -20 -4 -45q0 -71 46.5 -108.5t109.5 -37.5q82 0 146 52.5t83 148.5l64 327q5 28 27 46.5t50 18.5
q24 0 39 -15t15 -38q0 -5 -2 -17zM397 835q0 58 43 99t105 41q44 0 72 -26t28 -68q0 -59 -43 -99.5t-104 -40.5q-44 0 -72.5 26t-28.5 68zM530 906q-23 0 -41 -17t-18 -40q0 -17 11.5 -28t28.5 -11q25 0 41.5 17.5t16.5 40.5q0 16 -11.5 27t-27.5 11z" />
    <glyph glyph-name="uring" unicode="&#x16f;" horiz-adv-x="650" 
d="M247 441l-40 -206q-3 -18 -3 -35q0 -43 27.5 -68t74.5 -25q52 0 103 35.5t59 73.5l46 230q6 30 27.5 47t48.5 17q24 0 38.5 -14.5t14.5 -34.5q0 -10 -2 -20l-75 -387q-5 -28 -26 -46t-50 -18q-23 0 -37.5 14t-14.5 36q0 11 1 15q-80 -65 -168 -65q-91 0 -143.5 52
t-52.5 136q0 23 5 53l41 215q6 30 27 47t48 17q24 0 38.5 -14.5t14.5 -34.5q0 -10 -2 -20zM298 635q0 58 43 99t105 41q44 0 72 -26t28 -68q0 -59 -43 -99.5t-104 -40.5q-44 0 -72.5 26t-28.5 68zM431 706q-23 0 -41 -17t-18 -40q0 -17 11.5 -28t28.5 -11q25 0 41.5 17.5
t16.5 40.5q0 16 -11.5 27t-27.5 11z" />
    <glyph glyph-name="Uhungarumlaut" unicode="&#x170;" horiz-adv-x="789" 
d="M804 640l-66 -338q-28 -142 -129 -227t-240 -85q-114 0 -194.5 71t-80.5 185q0 30 6 62l66 337q5 28 27 46.5t50 18.5q24 0 39 -15t15 -38q0 -5 -2 -17l-65 -332q-4 -20 -4 -45q0 -71 46.5 -108.5t109.5 -37.5q82 0 146 52.5t83 148.5l64 327q5 28 27 46.5t50 18.5
q24 0 39 -15t15 -38q0 -5 -2 -17zM527 847l-93 -72q-19 -15 -40 -15t-35.5 13t-14.5 33q0 29 25 49l95 72q20 15 38 15q21 0 36 -13.5t15 -32.5q0 -29 -26 -49zM746 847l-93 -72q-19 -15 -40 -15t-35.5 13t-14.5 33q0 29 25 49l95 72q20 15 38 15q21 0 36 -13.5t15 -32.5
q0 -29 -26 -49z" />
    <glyph glyph-name="uhungarumlaut" unicode="&#x171;" horiz-adv-x="650" 
d="M247 441l-40 -206q-3 -18 -3 -35q0 -43 27.5 -68t74.5 -25q52 0 103 35.5t59 73.5l46 230q6 30 27.5 47t48.5 17q24 0 38.5 -14.5t14.5 -34.5q0 -10 -2 -20l-75 -387q-5 -28 -26 -46t-50 -18q-23 0 -37.5 14t-14.5 36q0 11 1 15q-80 -65 -168 -65q-91 0 -143.5 52
t-52.5 136q0 23 5 53l41 215q6 30 27 47t48 17q24 0 38.5 -14.5t14.5 -34.5q0 -10 -2 -20zM430 647l-93 -72q-19 -15 -40 -15t-35.5 13t-14.5 33q0 29 25 49l95 72q20 15 38 15q21 0 36 -13.5t15 -32.5q0 -29 -26 -49zM649 647l-93 -72q-19 -15 -40 -15t-35.5 13t-14.5 33
q0 29 25 49l95 72q20 15 38 15q21 0 36 -13.5t15 -32.5q0 -29 -26 -49z" />
    <glyph glyph-name="Uogonek" unicode="&#x172;" horiz-adv-x="789" 
d="M804 640l-66 -338q-34 -176 -181 -264q-30 -18 -84 -69t-54 -77q0 -15 15 -15q7 0 24 6.5t26 6.5q20 0 31.5 -11t11.5 -29q0 -38 -36 -59t-87 -21q-55 0 -81 24.5t-26 59.5q0 71 98 137q-4 0 -12.5 -0.5t-13.5 -0.5q-114 0 -194.5 71t-80.5 185q0 30 6 62l66 337
q5 28 27 46.5t50 18.5q24 0 39 -15t15 -38q0 -5 -2 -17l-65 -332q-4 -20 -4 -45q0 -71 46.5 -108.5t109.5 -37.5q82 0 146 52.5t83 148.5l64 327q5 28 27 46.5t50 18.5q24 0 39 -15t15 -38q0 -5 -2 -17z" />
    <glyph glyph-name="uogonek" unicode="&#x173;" horiz-adv-x="650" 
d="M247 441l-40 -206q-3 -18 -3 -35q0 -43 27.5 -68t74.5 -25q52 0 103 35.5t59 73.5l46 230q6 30 27.5 47t48.5 17q24 0 38.5 -14.5t14.5 -34.5q0 -10 -2 -20l-75 -387q-8 -37 -37 -54q-27 -16 -57.5 -50t-30.5 -58q0 -15 15 -15q7 0 24 6.5t26 6.5q20 0 31.5 -11t11.5 -29
q0 -38 -36 -59t-87 -21q-55 0 -81 24.5t-26 59.5q0 49 41.5 89.5t87.5 65.5q-10 13 -10 31q0 11 1 15q-80 -65 -168 -65q-91 0 -143.5 52t-52.5 136q0 23 5 53l41 215q6 30 27 47t48 17q24 0 38.5 -14.5t14.5 -34.5q0 -10 -2 -20z" />
    <glyph glyph-name="Wcircumflex" unicode="&#x174;" horiz-adv-x="887" 
d="M906 640l-150 -575q-8 -29 -29 -47t-52 -18h-27q-40 0 -57 33l-124 238l-219 -238q-30 -33 -70 -33h-34q-28 0 -43 14.5t-15 38.5q0 4 2 22l72 568q4 29 26.5 48t52.5 19q55 0 55 -52q0 -2 -2 -20l-63 -463l185 210q36 40 77 40q42 0 62 -40l102 -209l119 469
q7 28 28.5 46.5t50.5 18.5q25 0 40 -15t15 -39q0 -8 -2 -16zM627 765l-53 60l-81 -62q-20 -15 -42 -15q-19 0 -34.5 14.5t-15.5 35.5q0 32 30 55l109 82q20 15 50 15q29 0 48 -19l79 -84q13 -15 13 -34q0 -31 -19.5 -47.5t-44.5 -16.5t-39 16z" />
    <glyph glyph-name="wcircumflex" unicode="&#x175;" horiz-adv-x="739" 
d="M413 355q47 0 59 -42l53 -193h8l103 333q8 26 29.5 41.5t44.5 15.5q24 0 37.5 -13.5t13.5 -34.5q0 -18 -7 -39l-121 -370q-17 -53 -89 -53h-48q-54 0 -67 47l-42 155h-4l-103 -155q-30 -47 -86 -47h-49q-32 0 -49.5 14t-17.5 36q0 8 1 24l20 349q2 35 22 61t56 26
q21 0 36.5 -14t15.5 -38q0 -6 -1 -20l-28 -318h7l128 189q31 46 78 46zM521 565l-53 60l-81 -62q-19 -15 -42 -15q-19 0 -34.5 14.5t-15.5 35.5q0 32 30 55l109 82q20 15 50 15q29 0 48 -19l79 -84q13 -15 13 -34q0 -31 -19.5 -47.5t-44.5 -16.5t-39 16z" />
    <glyph glyph-name="Ycircumflex" unicode="&#x176;" horiz-adv-x="669" 
d="M422 288l-45 -233q-5 -27 -26.5 -46t-51.5 -19q-24 0 -40 15t-16 38q0 6 2 16l46 230l-173 313q-8 16 -8 33q0 31 19.5 53t51.5 22q34 0 50 -29l145 -271l248 273q26 27 61 27q23 0 39.5 -14.5t16.5 -37.5q0 -28 -23 -53zM519 765l-53 60l-81 -62q-19 -15 -42 -15
q-19 0 -34.5 14.5t-15.5 35.5q0 32 30 55l109 82q20 15 50 15q29 0 48 -19l79 -84q13 -15 13 -34q0 -31 -19.5 -47.5t-44.5 -16.5t-39 16z" />
    <glyph glyph-name="ycircumflex" unicode="&#x177;" horiz-adv-x="566" 
d="M598 411l-304 -531q-28 -48 -69 -74t-85 -26h-50q-25 0 -39 13.5t-14 36.5q0 28 20 47t49 19h38q23 0 36 21l60 101q-55 0 -67 50l-80 346q-3 15 -3 29q0 26 19 46.5t52 20.5q18 0 32.5 -11t18.5 -30l78 -363l202 362q24 42 72 42q22 0 36.5 -15t14.5 -37q0 -16 -17 -47z
M434 565l-53 60l-81 -62q-20 -15 -42 -15q-19 0 -34.5 14.5t-15.5 35.5q0 32 30 55l109 82q20 15 50 15q29 0 48 -19l79 -84q13 -15 13 -34q0 -31 -19.5 -47.5t-44.5 -16.5t-39 16z" />
    <glyph glyph-name="Ydieresis" unicode="&#x178;" horiz-adv-x="669" 
d="M422 288l-45 -233q-5 -27 -26.5 -46t-51.5 -19q-24 0 -40 15t-16 38q0 6 2 16l46 230l-173 313q-8 16 -8 33q0 31 19.5 53t51.5 22q34 0 50 -29l145 -271l248 273q26 27 61 27q23 0 39.5 -14.5t16.5 -37.5q0 -28 -23 -53zM268 817q0 36 28 64.5t66 28.5q28 0 46 -18.5
t18 -45.5q0 -36 -29 -64t-65 -28q-28 0 -46 18t-18 45zM497 817q0 36 28 64.5t66 28.5q28 0 46 -18.5t18 -45.5q0 -36 -29 -64t-65 -28q-28 0 -46 18t-18 45z" />
    <glyph glyph-name="Zacute" unicode="&#x179;" horiz-adv-x="690" 
d="M521 580h-315q-27 0 -42 14t-15 37q0 29 23 49t59 20h421q30 0 46 -17.5t16 -42.5q0 -35 -32 -67l-459 -453h338q27 0 42 -14t15 -37q0 -29 -23 -49t-59 -20h-444q-29 0 -46.5 15.5t-17.5 42.5q0 36 34 70zM580 849l-108 -84q-20 -15 -42 -15t-36.5 14.5t-14.5 35.5
q0 33 28 55l105 81q20 16 43 16q22 0 37 -14.5t15 -35.5q0 -31 -27 -53z" />
    <glyph glyph-name="zacute" unicode="&#x17a;" horiz-adv-x="523" 
d="M345 384h-183q-23 0 -37.5 12t-14.5 33q0 31 22 51t54 20h279q31 0 46.5 -16t15.5 -41q0 -40 -37 -74l-280 -253h200q55 0 55 -47q0 -30 -22.5 -49.5t-56.5 -19.5h-292q-29 0 -45.5 16t-16.5 42q0 40 45 81zM468 649l-108 -84q-19 -15 -42 -15q-22 0 -36.5 14.5
t-14.5 35.5q0 33 28 55l105 81q20 16 43 16q22 0 37 -14.5t15 -35.5q0 -31 -27 -53z" />
    <glyph glyph-name="Zdotaccent" unicode="&#x17b;" horiz-adv-x="690" 
d="M521 580h-315q-27 0 -42 14t-15 37q0 29 23 49t59 20h421q30 0 46 -17.5t16 -42.5q0 -35 -32 -67l-459 -453h338q27 0 42 -14t15 -37q0 -29 -23 -49t-59 -20h-444q-29 0 -46.5 15.5t-17.5 42.5q0 36 34 70zM390 817q0 36 28 64.5t66 28.5q28 0 46 -18.5t18 -45.5
q0 -36 -29 -64t-65 -28q-28 0 -46 18t-18 45z" />
    <glyph glyph-name="zdotaccent" unicode="&#x17c;" horiz-adv-x="523" 
d="M345 384h-183q-23 0 -37.5 12t-14.5 33q0 31 22 51t54 20h279q31 0 46.5 -16t15.5 -41q0 -40 -37 -74l-280 -253h200q55 0 55 -47q0 -30 -22.5 -49.5t-56.5 -19.5h-292q-29 0 -45.5 16t-16.5 42q0 40 45 81zM272 617q0 36 28 64.5t66 28.5q28 0 46 -18.5t18 -45.5
q0 -36 -29 -64t-65 -28q-28 0 -46 18t-18 45z" />
    <glyph glyph-name="Zcaron" unicode="&#x17d;" horiz-adv-x="690" 
d="M521 580h-315q-27 0 -42 14t-15 37q0 29 23 49t59 20h421q30 0 46 -17.5t16 -42.5q0 -35 -32 -67l-459 -453h338q27 0 42 -14t15 -37q0 -29 -23 -49t-59 -20h-444q-29 0 -46.5 15.5t-17.5 42.5q0 36 34 70zM421 937l53 -60l81 62q19 15 42 15q19 0 34.5 -14.5t15.5 -35.5
q0 -32 -30 -55l-109 -82q-20 -15 -50 -15q-29 0 -48 19l-79 84q-13 15 -13 34q0 31 19.5 47.5t44.5 16.5t39 -16z" />
    <glyph glyph-name="zcaron" unicode="&#x17e;" horiz-adv-x="523" 
d="M345 384h-183q-23 0 -37.5 12t-14.5 33q0 31 22 51t54 20h279q31 0 46.5 -16t15.5 -41q0 -40 -37 -74l-280 -253h200q55 0 55 -47q0 -30 -22.5 -49.5t-56.5 -19.5h-292q-29 0 -45.5 16t-16.5 42q0 40 45 81zM293 737l53 -60l81 62q19 15 42 15q19 0 34.5 -14.5
t15.5 -35.5q0 -32 -30 -55l-109 -82q-20 -15 -50 -15q-29 0 -48 19l-79 84q-13 15 -13 34q0 31 19.5 47.5t44.5 16.5t39 -16z" />
    <glyph glyph-name="Schwa" unicode="&#x18f;" horiz-adv-x="810" 
d="M791 407q0 -118 -58.5 -215t-152.5 -150t-200 -53q-75 0 -134 26.5t-92.5 69t-51 90t-17.5 95.5q0 31 4 49q8 40 35.5 69t74.5 29h461q-2 75 -53.5 124.5t-138.5 49.5q-84 0 -171 -54q-14 -9 -39 -9q-17 0 -32 15t-15 37q0 49 88 89.5t187 40.5q136 0 220.5 -86
t84.5 -217zM639 298h-430q0 -85 46 -138t132 -53q80 0 153 53t99 138z" />
    <glyph glyph-name="florin" unicode="&#x192;" 
d="M143 -112h20q16 0 20 25l75 388h-123q-25 0 -40.5 15t-15.5 34q0 28 18.5 48t50.5 20h133l34 175q8 43 42 75t83 32h50q32 0 48.5 -16t16.5 -38q0 -28 -17.5 -46t-44.5 -18h-32q-20 0 -24 -25l-25 -139h139q26 0 39.5 -15.5t13.5 -35.5q0 -29 -18 -47.5t-47 -18.5h-149
l-84 -424q-6 -42 -40 -74.5t-84 -32.5h-39q-24 0 -41.5 16t-17.5 37q0 27 18.5 46t40.5 19z" />
    <glyph glyph-name="AEacute" unicode="&#x1fc;" horiz-adv-x="1055" 
d="M614 120h315q24 0 39.5 -13t15.5 -35q0 -30 -24 -51t-54 -21h-379q-24 0 -38.5 14.5t-14.5 37.5q0 10 3 25l21 108h-265l-115 -161q-24 -34 -63 -34q-27 0 -42 15.5t-15 37.5t13 41l422 581q25 35 64 35h545q24 0 39 -13.5t15 -35.5q0 -32 -23 -52t-54 -20h-315l-31 -157
h260q24 0 39 -13.5t15 -34.5q0 -32 -23.5 -52.5t-54.5 -20.5h-260zM517 579l-200 -278h203l55 278h-58zM826 849l-108 -84q-20 -15 -42 -15t-36.5 14.5t-14.5 35.5q0 33 28 55l105 81q20 16 43 16q22 0 37 -14.5t15 -35.5q0 -31 -27 -53z" />
    <glyph glyph-name="aeacute" unicode="&#x1fd;" horiz-adv-x="988" 
d="M892 199h-299q1 -40 34 -67.5t78 -27.5q51 0 90 18t54 18q22 0 35.5 -12.5t13.5 -32.5q0 -42 -46 -68q-62 -37 -162 -37q-90 0 -143 53q-20 -53 -76 -53q-21 0 -35 14t-14 32q0 5 1 7q-26 -20 -68.5 -36.5t-88.5 -16.5q-89 0 -145.5 60.5t-56.5 155.5q0 124 88.5 214
t215.5 90q44 0 81 -16.5t54 -36.5q4 19 24.5 36t44.5 17q23 0 39.5 -14.5t16.5 -39.5q70 53 152 53q91 0 148 -58.5t57 -139.5q0 -48 -25 -80t-68 -32zM470 251q3 16 3 31q0 50 -31 81t-82 31q-70 0 -121 -52t-51 -119q0 -50 32 -83.5t84 -33.5q60 0 107 41.5t59 103.5z
M757 397q-45 0 -87 -29.5t-57 -67.5h253q0 37 -30 67t-79 30zM696 649l-108 -84q-20 -15 -42 -15t-36.5 14.5t-14.5 35.5q0 33 28 55l105 81q20 16 43 16q22 0 37 -14.5t15 -35.5q0 -31 -27 -53z" />
    <glyph glyph-name="Oslashacute" unicode="&#x1fe;" horiz-adv-x="840" 
d="M394 -10q-95 0 -168 42l-39 -44q-20 -22 -45 -22q-19 0 -30 12t-11 29q0 21 16 39l39 44q-70 81 -70 198q0 110 54 206.5t153 156t220 59.5q89 0 163 -40l39 44q20 21 46 21q18 0 29.5 -12t11.5 -29q0 -19 -16 -38l-39 -43q73 -81 73 -201q0 -111 -53.5 -207
t-152.5 -155.5t-220 -59.5zM406 111q114 0 198 87t84 200q0 66 -32 113l-341 -380q40 -20 91 -20zM218 302q0 -64 29 -110l340 379q-40 19 -88 19q-114 0 -197.5 -87t-83.5 -201zM656 847l-106 -82q-20 -15 -42 -15t-36.5 14.5t-14.5 35.5q0 33 27 54l106 82q20 16 43 16
q22 0 36.5 -14.5t14.5 -35.5q0 -32 -28 -55z" />
    <glyph glyph-name="oslashacute" unicode="&#x1ff;" horiz-adv-x="616" 
d="M570 456l-19 -21q49 -58 49 -140q0 -127 -87.5 -216t-219.5 -89q-66 0 -121 26l-18 -20q-18 -20 -41 -20q-17 0 -26.5 11t-9.5 26q0 19 13 34l19 21q-45 56 -45 135q0 130 90 218.5t221 88.5q61 0 111 -25l20 23q17 19 42 19q17 0 26.5 -11t9.5 -27q0 -17 -14 -33z
M303 103q71 0 123 52.5t52 124.5q0 32 -15 58l-205 -227q21 -8 45 -8zM185 222q0 -32 12 -56l202 224q-24 6 -38 6q-74 0 -125 -51.5t-51 -122.5zM524 649l-108 -84q-20 -15 -42 -15t-36.5 14.5t-14.5 35.5q0 33 28 55l105 81q20 16 43 16q22 0 37 -14.5t15 -35.5
q0 -31 -27 -53z" />
    <glyph glyph-name="Scommaaccent" unicode="&#x218;" horiz-adv-x="637" 
d="M303 108q58 0 102 29t44 70q0 27 -23.5 46.5t-59 31t-76.5 27.5t-76.5 34.5t-59 54.5t-23.5 85q0 91 77.5 157.5t198.5 66.5q104 0 162 -45t58 -92q0 -24 -19.5 -46t-51.5 -22q-20 0 -36.5 14t-27.5 31t-36.5 31t-60.5 14q-57 0 -94 -27t-37 -63q0 -25 24 -43.5t60 -30
t78 -28t78 -35.5t60 -56t24 -86q0 -101 -84 -168.5t-209 -67.5q-111 0 -176.5 50t-65.5 97q0 30 20.5 50t48.5 20q21 0 35.5 -10t24.5 -24.5t23 -29.5t37.5 -25t60.5 -10zM175 -137q0 31 26 56.5t60 25.5q23 0 42.5 -17.5t19.5 -57.5q0 -92 -57 -152t-102 -60q-17 0 -27 9.5
t-10 25.5q0 21 20 36t43 33t28 44q-43 12 -43 57z" />
    <glyph glyph-name="scommaaccent" unicode="&#x219;" horiz-adv-x="520" 
d="M253 97q41 0 67.5 14.5t26.5 37.5q0 15 -18.5 25.5t-46.5 16t-61 15.5t-61 22.5t-46.5 38.5t-18.5 62q0 74 62.5 127.5t166.5 53.5q82 0 132.5 -28.5t50.5 -62.5q0 -25 -15 -44t-43 -19q-21 0 -62.5 24.5t-82.5 24.5t-63.5 -16t-22.5 -37q0 -18 27 -29.5t65 -20t76 -21.5
t65 -41t27 -70q0 -84 -69.5 -132t-173.5 -48q-82 0 -136 29.5t-54 65.5q0 28 19.5 46.5t46.5 18.5q17 0 35 -13t44 -26.5t63 -13.5zM147 -137q0 31 26 56.5t60 25.5q23 0 42.5 -17.5t19.5 -57.5q0 -92 -57 -152t-102 -60q-17 0 -27 9.5t-10 25.5q0 21 20 36t43 33t28 44
q-43 12 -43 57z" />
    <glyph glyph-name="uni021A" unicode="&#x21a;" horiz-adv-x="590" 
d="M308 580h-152q-57 0 -57 50q0 32 23.5 51t58.5 19h435q57 0 57 -50q0 -32 -23.5 -51t-58.5 -19h-151l-102 -525q-5 -27 -26.5 -46t-51.5 -19q-24 0 -40 15t-16 38q0 6 2 16zM180 -137q0 31 26 56.5t60 25.5q23 0 42.5 -17.5t19.5 -57.5q0 -92 -57 -152t-102 -60
q-17 0 -27 9.5t-10 25.5q0 21 20 36t43 33t28 44q-43 12 -43 57z" />
    <glyph glyph-name="uni021B" unicode="&#x21b;" horiz-adv-x="406" 
d="M319 71q0 -30 -20 -50.5t-55 -20.5h-44q-54 0 -84.5 30.5t-30.5 77.5q0 15 3 33l47 241h-34q-22 0 -35 14t-13 37q0 25 20.5 46t50.5 21h34l14 70q5 27 26 45t51 18q22 0 37.5 -15t15.5 -36q0 -7 -3 -22l-12 -60h70q22 0 35.5 -14.5t13.5 -39.5t-21.5 -44.5t-50.5 -19.5
h-70l-44 -223q-3 -17 -3 -23q0 -18 22 -18h32q21 0 34.5 -13t13.5 -34zM89 -137q0 31 26 56.5t60 25.5q23 0 42.5 -17.5t19.5 -57.5q0 -92 -57 -152t-102 -60q-17 0 -27 9.5t-10 25.5q0 21 20 36t43 33t28 44q-43 12 -43 57z" />
    <glyph glyph-name="dotlessj" unicode="&#x237;" horiz-adv-x="331" 
d="M308 432l-94 -484q-14 -74 -69 -121t-141 -47h-34q-23 0 -36.5 13t-13.5 34q0 28 21.5 48.5t50.5 20.5h29q25 0 43 16.5t23 42.5l94 483q6 27 26.5 45.5t50.5 18.5q23 0 37.5 -15t14.5 -37q0 -4 -2 -18z" />
    <glyph glyph-name="schwa" unicode="&#x259;" horiz-adv-x="587" 
d="M145 297h299q-1 40 -34 69t-78 29q-52 0 -90 -18t-54 -18q-22 0 -35.5 12.5t-13.5 32.5q0 42 46 68q62 37 159 37q104 0 166 -59t62 -151q0 -133 -89.5 -221t-214.5 -88q-99 0 -157.5 58t-58.5 140q0 47 24.5 78t68.5 31zM280 101q49 0 92 31t55 70h-256q0 -41 29.5 -71
t79.5 -30z" />
    <glyph glyph-name="circumflex" unicode="&#x2c6;" horiz-adv-x="324" 
d="M278 565l-53 60l-81 -62q-20 -15 -42 -15q-19 0 -34.5 14.5t-15.5 35.5q0 32 30 55l109 82q20 15 50 15q29 0 48 -19l79 -84q13 -15 13 -34q0 -31 -19.5 -47.5t-44.5 -16.5t-39 16z" />
    <glyph glyph-name="caron" unicode="&#x2c7;" horiz-adv-x="324" 
d="M172 737l53 -60l81 62q19 15 42 15q19 0 34.5 -14.5t15.5 -35.5q0 -32 -30 -55l-109 -82q-20 -15 -50 -15q-29 0 -48 19l-79 84q-13 15 -13 34q0 31 19.5 47.5t44.5 16.5t39 -16z" />
    <glyph glyph-name="breve" unicode="&#x2d8;" horiz-adv-x="324" 
d="M278 688q8 20 26 34.5t44 14.5q21 0 33.5 -12.5t12.5 -32.5q0 -56 -49.5 -96t-108.5 -40h-49q-48 0 -83 26.5t-35 73.5q0 32 17.5 56.5t49.5 24.5q23 0 36 -14t13 -33q0 -40 40 -40q39 0 53 38z" />
    <glyph glyph-name="dotaccent" unicode="&#x2d9;" horiz-adv-x="156" 
d="M60 617q0 36 28 64.5t66 28.5q28 0 46 -18.5t18 -45.5q0 -36 -29 -64t-65 -28q-28 0 -46 18t-18 45z" />
    <glyph glyph-name="ring" unicode="&#x2da;" horiz-adv-x="244" 
d="M61 635q0 58 43 99t105 41q44 0 72 -26t28 -68q0 -59 -43 -99.5t-104 -40.5q-44 0 -72.5 26t-28.5 68zM194 706q-23 0 -41 -17t-18 -40q0 -17 11.5 -28t28.5 -11q25 0 41.5 17.5t16.5 40.5q0 16 -11.5 27t-27.5 11z" />
    <glyph glyph-name="ogonek" unicode="&#x2db;" horiz-adv-x="196" 
d="M133 20l75 -9q-11 -9 -28 -23t-45.5 -45.5t-28.5 -50.5q0 -15 15 -15q7 0 24 6.5t26 6.5q20 0 31.5 -11t11.5 -29q0 -38 -36 -59t-87 -21q-55 0 -81 24.5t-26 59.5q0 27 15.5 54t37 46t43.5 34.5t37 23.5t16 8z" />
    <glyph glyph-name="tilde" unicode="&#x2dc;" horiz-adv-x="370" 
d="M194 729q33 0 68.5 -27.5t46.5 -27.5q8 0 16.5 8.5t15 19t20 19t31.5 8.5q20 0 33.5 -13t13.5 -32q0 -37 -38.5 -78.5t-100.5 -41.5q-25 0 -47 14t-38.5 27.5t-27.5 13.5q-12 0 -23 -13.5t-26 -27.5t-36 -14q-20 0 -33 12.5t-13 31.5q0 38 37.5 79.5t100.5 41.5z" />
    <glyph glyph-name="hungarumlaut" unicode="&#x2dd;" horiz-adv-x="413" 
d="M236 647l-93 -72q-19 -15 -40 -15t-35.5 13t-14.5 33q0 29 25 49l95 72q20 15 38 15q21 0 36 -13.5t15 -32.5q0 -29 -26 -49zM455 647l-93 -72q-19 -15 -40 -15t-35.5 13t-14.5 33q0 29 25 49l95 72q20 15 38 15q21 0 36 -13.5t15 -32.5q0 -29 -26 -49z" />
    <glyph glyph-name="afii10023" unicode="&#x401;" horiz-adv-x="654" 
d="M503 0h-392q-26 0 -40.5 14t-14.5 37q0 9 3 22l109 563q5 28 27.5 46t53.5 18h384q57 0 57 -50q0 -32 -23.5 -51t-58.5 -19h-321l-30 -159h272q57 0 57 -50q0 -32 -23.5 -51t-58.5 -19h-271l-35 -181h330q57 0 57 -50q0 -32 -23.5 -51t-58.5 -19zM260 817q0 36 28 64.5
t66 28.5q28 0 46 -18.5t18 -45.5q0 -36 -29 -64t-65 -28q-28 0 -46 18t-18 45zM489 817q0 36 28 64.5t66 28.5q28 0 46 -18.5t18 -45.5q0 -36 -29 -64t-65 -28q-28 0 -46 18t-18 45z" />
    <glyph glyph-name="afii10051" unicode="&#x402;" horiz-adv-x="699" 
d="M525 201l7 43q3 16 3 33q0 78 -103 78q-37 0 -75 -5.5t-57 -11.5l-19 -5l-54 -278q-5 -29 -25.5 -47t-50.5 -18q-24 0 -39 15t-15 38q0 4 2 18l101 518h-75q-23 0 -39.5 15.5t-16.5 37.5q0 31 24.5 49.5t54.5 18.5h322q23 0 38.5 -14.5t15.5 -36.5q0 -33 -23 -51.5
t-54 -18.5h-118l-25 -124q72 21 162 21q97 0 149.5 -45t52.5 -128q0 -21 -5 -59l-7 -43q-14 -87 -75.5 -144t-161.5 -57h-45q-26 0 -41.5 14.5t-15.5 37.5q0 31 23 50.5t55 19.5h36q34 0 60.5 21.5t33.5 57.5z" />
    <glyph glyph-name="afii10052" unicode="&#x403;" horiz-adv-x="572" 
d="M291 580l-101 -525q-5 -27 -26.5 -46t-51.5 -19q-24 0 -40 15t-16 38q0 6 2 16l111 576q6 29 28.5 47t52.5 18h335q28 0 43 -14t15 -36q0 -31 -22 -50.5t-55 -19.5h-275zM561 849l-108 -84q-20 -15 -42 -15t-36.5 14.5t-14.5 35.5q0 33 28 55l105 81q20 16 43 16
q22 0 37 -14.5t15 -35.5q0 -31 -27 -53z" />
    <glyph glyph-name="afii10053" unicode="&#x404;" horiz-adv-x="702" 
d="M507 301h-289q0 -84 51 -137t137 -53q73 0 143 45q22 14 39 14q21 0 35.5 -14.5t14.5 -36.5q0 -38 -42.5 -69t-97.5 -45.5t-104 -14.5q-137 0 -222.5 84t-85.5 214q0 174 122 298t309 124q39 0 83 -10.5t80.5 -34t36.5 -54.5q0 -30 -21.5 -48t-48.5 -18q-16 0 -37 13
q-49 32 -111 32q-81 0 -150 -48t-104 -123h282q23 0 37 -15t14 -36q0 -27 -20.5 -47t-50.5 -20z" />
    <glyph glyph-name="afii10054" unicode="&#x405;" horiz-adv-x="637" 
d="M303 108q58 0 102 29t44 70q0 27 -23.5 46.5t-59 31t-76.5 27.5t-76.5 34.5t-59 54.5t-23.5 85q0 91 77.5 157.5t198.5 66.5q104 0 162 -45t58 -92q0 -24 -19.5 -46t-51.5 -22q-20 0 -36.5 14t-27.5 31t-36.5 31t-60.5 14q-57 0 -94 -27t-37 -63q0 -25 24 -43.5t60 -30
t78 -28t78 -35.5t60 -56t24 -86q0 -101 -84 -168.5t-209 -67.5q-111 0 -176.5 50t-65.5 97q0 30 20.5 50t48.5 20q21 0 35.5 -10t24.5 -24.5t23 -29.5t37.5 -25t60.5 -10z" />
    <glyph glyph-name="afii10055" unicode="&#x406;" horiz-adv-x="290" 
d="M169 645q5 27 26.5 46t51.5 19q24 0 40 -15t16 -37q0 -6 -2 -18l-113 -585q-5 -27 -27 -46t-52 -19q-24 0 -40 15t-16 38q0 6 2 16z" />
    <glyph glyph-name="afii10056" unicode="&#x407;" horiz-adv-x="290" 
d="M169 645q5 27 26.5 46t51.5 19q24 0 40 -15t16 -37q0 -6 -2 -18l-113 -585q-5 -27 -27 -46t-52 -19q-24 0 -40 15t-16 38q0 6 2 16zM77 817q0 36 28 64.5t66 28.5q28 0 46 -18.5t18 -45.5q0 -36 -29 -64t-65 -28q-28 0 -46 18t-18 45zM306 817q0 36 28 64.5t66 28.5
q28 0 46 -18.5t18 -45.5q0 -36 -29 -64t-65 -28q-28 0 -46 18t-18 45z" />
    <glyph glyph-name="afii10057" unicode="&#x408;" horiz-adv-x="688" 
d="M500 276l73 369q5 27 26 46t51 19q24 0 40 -15.5t16 -37.5q0 -5 -2 -17l-72 -364q-25 -130 -113 -208t-210 -78q-108 0 -180.5 67.5t-72.5 168.5q0 45 18.5 80t62.5 35q23 0 38 -15t15 -38q0 -5 -2 -20.5t-2 -28.5q0 -54 36 -87t94 -33q71 0 121 45t63 112z" />
    <glyph glyph-name="afii10058" unicode="&#x409;" horiz-adv-x="989" 
d="M614 327l-40 -208h135q57 0 94.5 35t37.5 90q0 37 -24.5 60t-67.5 23h-135zM320 700h301q24 0 38.5 -15.5t14.5 -37.5q0 -12 -2 -20l-35 -181h135q97 0 148 -52t51 -140q0 -109 -75.5 -181.5t-210.5 -72.5h-200q-25 0 -39 14.5t-14 35.5q0 7 2 21l99 511h-174
q-46 -215 -94.5 -335.5t-135.5 -198.5q-35 -32 -57 -45t-45 -13t-37 13.5t-14 35.5q0 24 14 41t40 35q80 53 123 163t92 364q5 26 25.5 42t49.5 16z" />
    <glyph glyph-name="afii10059" unicode="&#x40a;" horiz-adv-x="1000" 
d="M446 71l47 242h-256l-50 -259q-5 -27 -27 -45.5t-50 -18.5q-24 0 -39 14.5t-15 37.5q0 7 2 17l114 586q5 28 27 46.5t50 18.5q24 0 39 -15t15 -38q0 -5 -2 -17l-41 -208h256l41 212q6 28 26.5 47t51.5 19q24 0 38.5 -15.5t14.5 -37.5q0 -12 -2 -20l-41 -204h130
q98 0 152.5 -51t54.5 -137q0 -108 -77 -176.5t-213 -68.5h-195q-25 0 -39 14.5t-14 35.5q0 7 2 21zM622 314l-36 -195h130q60 0 98 29.5t38 85.5q0 34 -28 57t-72 23h-130z" />
    <glyph glyph-name="afii10060" unicode="&#x40b;" horiz-adv-x="698" 
d="M661 248l-36 -193q-5 -29 -26 -47t-51 -18q-24 0 -39 15t-15 38q0 4 2 18l36 183q3 16 3 33q0 78 -103 78q-37 0 -75 -5.5t-57 -11.5l-19 -5l-54 -278q-5 -29 -25.5 -47t-50.5 -18q-24 0 -39 15t-15 38q0 4 2 18l101 518h-75q-23 0 -39.5 15.5t-16.5 37.5q0 31 24.5 49.5
t54.5 18.5h322q23 0 38.5 -14.5t15.5 -36.5q0 -33 -23 -51.5t-54 -18.5h-118l-25 -124q72 21 162 21q97 0 148.5 -45t51.5 -128q0 -23 -5 -55z" />
    <glyph glyph-name="afii10061" unicode="&#x40c;" horiz-adv-x="663" 
d="M235 302l-48 -248q-5 -27 -27 -45.5t-50 -18.5q-24 0 -39 14.5t-15 37.5q0 7 2 17l114 587q5 27 27 45.5t50 18.5q24 0 39 -14.5t15 -37.5q0 -7 -2 -17l-43 -222h46l211 209q82 82 138 82q23 0 37 -14t14 -35q0 -29 -14 -44.5t-46 -33.5t-53 -38l-189 -184l200 -262
q15 -19 15 -42q0 -27 -21 -47t-50 -20q-32 0 -51 24l-211 288h-49zM586 849l-108 -84q-19 -15 -42 -15q-22 0 -36.5 14.5t-14.5 35.5q0 33 28 55l105 81q20 16 43 16q22 0 37 -14.5t15 -35.5q0 -31 -27 -53z" />
    <glyph glyph-name="afii10062" unicode="&#x40e;" horiz-adv-x="664" 
d="M294 242l-156 368q-6 15 -6 27q0 29 20 51t53 22q39 0 54 -37l128 -310l230 309q28 38 65 38q26 0 39.5 -16t13.5 -38q0 -23 -19 -48l-368 -486q-45 -60 -87 -91t-94 -31h-34q-26 0 -41 14.5t-15 39.5q0 32 22.5 52t55.5 20h22q25 0 49 30zM510 888q8 20 26 34.5t44 14.5
q21 0 33.5 -12.5t12.5 -32.5q0 -56 -49.5 -96t-108.5 -40h-49q-48 0 -83 26.5t-35 73.5q0 32 17.5 56.5t49.5 24.5q23 0 35.5 -14t12.5 -33q0 -48 44 -48q33 0 50 46z" />
    <glyph glyph-name="afii10145" unicode="&#x40f;" horiz-adv-x="772" 
d="M284 0h-175q-25 0 -39 14t-14 37q0 6 3 27l111 568q5 28 26.5 46t50.5 18q23 0 38.5 -14.5t15.5 -36.5q0 -11 -2 -19l-102 -521h352l103 527q6 31 27.5 47.5t49.5 16.5q24 0 39 -14.5t15 -37.5q0 -11 -2 -19l-112 -574q-6 -29 -27.5 -47t-50.5 -18h-178l-32 -165
q-13 -65 -78 -65q-23 0 -37.5 15t-14.5 37q0 8 2 22z" />
    <glyph glyph-name="afii10017" unicode="&#x410;" horiz-adv-x="719" 
d="M661 91q2 -16 2 -24q0 -30 -24 -53.5t-55 -23.5q-44 0 -52 49l-22 141h-291l-73 -139q-12 -22 -33 -36.5t-43 -14.5q-25 0 -41.5 15.5t-16.5 37.5q0 20 16 51l296 556q26 50 73 50h129q21 0 36.5 -14t18.5 -35zM282 300h212l-40 279h-25z" />
    <glyph glyph-name="afii10018" unicode="&#x411;" horiz-adv-x="677" 
d="M236 327l-40 -207h182q56 0 95 34t39 89q0 38 -25 61t-69 23h-182zM285 580l-26 -135h182q96 0 147 -51.5t51 -135.5q0 -119 -77 -188.5t-208 -69.5h-246q-24 0 -38 14t-14 36q0 7 1 14l111 572q6 30 27.5 47t54.5 17h359q26 0 41 -14.5t15 -37.5q0 -29 -22.5 -48.5
t-54.5 -19.5h-303z" />
    <glyph glyph-name="afii10019" unicode="&#x412;" horiz-adv-x="689" 
d="M249 700h241q89 0 135.5 -43t46.5 -111q0 -34 -8.5 -64t-21 -48.5t-25 -32.5t-21.5 -20l-8 -6q6 -4 15 -12.5t24.5 -41t15.5 -72.5q0 -108 -76 -178.5t-220 -70.5h-236q-26 0 -40.5 14t-14.5 37q0 9 3 22l109 563q5 28 27.5 46t53.5 18zM464 580h-180l-31 -160h180
q45 0 76.5 26.5t31.5 70.5q0 29 -20.5 46t-56.5 17zM411 302h-180l-36 -182h181q59 0 96.5 31t37.5 81q0 70 -99 70z" />
    <glyph glyph-name="afii10020" unicode="&#x413;" horiz-adv-x="572" 
d="M291 580l-101 -525q-5 -27 -26.5 -46t-51.5 -19q-24 0 -40 15t-16 38q0 6 2 16l111 576q6 29 28.5 47t52.5 18h335q28 0 43 -14t15 -36q0 -31 -22 -50.5t-55 -19.5h-275z" />
    <glyph glyph-name="afii10021" unicode="&#x414;" horiz-adv-x="807" 
d="M-53 -160l41 214q5 29 26.5 46.5t50.5 17.5h23q74 84 105 177.5t79 340.5q5 28 27 46t51 18h378q22 0 37 -14t15 -37q0 -10 -3 -22l-98 -509h34q22 0 37 -13.5t15 -34.5q0 -5 -3 -26l-40 -211q-6 -29 -28.5 -46t-48.5 -17q-23 0 -37.5 14t-14.5 34q0 8 3 29l30 153h-520
l-32 -165q-6 -29 -27.5 -47t-48.5 -18q-22 0 -37.5 15t-15.5 38q0 9 2 17zM641 582h-256q-24 -110 -34.5 -154.5t-30.5 -114.5t-41.5 -113t-50.5 -82h323z" />
    <glyph glyph-name="afii10022" unicode="&#x415;" horiz-adv-x="654" 
d="M503 0h-392q-26 0 -40.5 14t-14.5 37q0 9 3 22l109 563q5 28 27.5 46t53.5 18h384q57 0 57 -50q0 -32 -23.5 -51t-58.5 -19h-321l-30 -159h272q57 0 57 -50q0 -32 -23.5 -51t-58.5 -19h-271l-35 -181h330q57 0 57 -50q0 -32 -23.5 -51t-58.5 -19z" />
    <glyph glyph-name="afii10024" unicode="&#x416;" horiz-adv-x="921" 
d="M444 419l44 227q5 27 25 45.5t51 18.5q23 0 38 -16t15 -38q0 -7 -2 -17l-43 -220h47l140 187q78 104 136 104q24 0 38.5 -14t14.5 -35q0 -27 -14 -44.5t-44.5 -42t-52.5 -53.5l-118 -155l127 -269q9 -18 9 -39q0 -29 -21.5 -48.5t-50.5 -19.5q-37 0 -53 36l-124 276h-57
l-48 -248q-5 -25 -27 -44.5t-48 -19.5q-24 0 -39 15.5t-15 37.5q0 7 1 11l48 248h-50l-238 -276q-32 -36 -67 -36q-23 0 -37 14.5t-14 35.5q0 29 25 57l241 274l-55 150q-12 33 -41 63.5t-29 50.5q0 30 21 52.5t51 22.5q56 0 96 -104l72 -187h48z" />
    <glyph glyph-name="afii10025" unicode="&#x417;" horiz-adv-x="608" 
d="M401 710q94 0 147 -48t53 -121q0 -46 -28.5 -92t-76.5 -73q32 -20 52 -56t20 -77q0 -108 -83.5 -180.5t-217.5 -72.5q-109 0 -170.5 52.5t-61.5 96.5q0 30 22 49.5t50 19.5q33 0 53 -37q35 -64 121 -64q58 0 105.5 33.5t47.5 87.5q0 36 -31.5 57t-82.5 21q-24 0 -39 12.5
t-15 34.5q0 32 23 51t59 20q42 2 81.5 29t39.5 70q0 32 -26.5 52.5t-63.5 20.5q-67 0 -126 -59q-31 -31 -62 -31q-23 0 -37 15t-14 36q0 7 1 11q8 42 84.5 92t175.5 50z" />
    <glyph glyph-name="afii10026" unicode="&#x418;" horiz-adv-x="786" 
d="M582 437l-363 -406q-28 -31 -69 -31h-40q-26 0 -40 15t-14 36q0 7 2 19l112 576q5 29 26.5 46.5t51.5 17.5q25 0 40 -14t15 -36q0 -2 -3 -23l-71 -366l-23 -94l63 86l364 406q28 31 65 31h41q29 0 42.5 -15t13.5 -37q0 -8 -2 -18l-112 -575q-5 -28 -26.5 -46.5
t-51.5 -18.5q-24 0 -39.5 15t-15.5 38q0 5 2 17l72 369l23 94z" />
    <glyph glyph-name="afii10027" unicode="&#x419;" horiz-adv-x="786" 
d="M563 888q8 20 26 34.5t44 14.5q21 0 33.5 -12.5t12.5 -32.5q0 -56 -49.5 -96t-108.5 -40h-49q-48 0 -83 26.5t-35 73.5q0 32 17.5 56.5t49.5 24.5q23 0 35.5 -14t12.5 -33q0 -48 44 -48q33 0 50 46zM583 437l-363 -406q-28 -31 -69 -31h-40q-26 0 -40 15t-14 36q0 7 2 19
l112 576q5 29 26.5 46.5t51.5 17.5q25 0 40 -14t15 -36q0 -2 -3 -23l-71 -366l-23 -94l63 86l364 406q28 31 65 31h41q29 0 42.5 -15t13.5 -37q0 -8 -2 -18l-112 -575q-5 -28 -26.5 -46.5t-51.5 -18.5q-24 0 -39.5 15t-15.5 38q0 5 2 17l72 369l23 94z" />
    <glyph glyph-name="afii10028" unicode="&#x41a;" horiz-adv-x="663" 
d="M235 302l-48 -248q-5 -27 -27 -45.5t-50 -18.5q-24 0 -39 14.5t-15 37.5q0 7 2 17l114 587q5 27 27 45.5t50 18.5q24 0 39 -14.5t15 -37.5q0 -7 -2 -17l-43 -222h46l211 209q82 82 138 82q23 0 37 -14t14 -35q0 -29 -14 -44.5t-46 -33.5t-53 -38l-189 -184l200 -262
q15 -19 15 -42q0 -27 -21 -47t-50 -20q-32 0 -51 24l-211 288h-49z" />
    <glyph glyph-name="afii10029" unicode="&#x41b;" horiz-adv-x="741" 
d="M245 642q5 26 25.5 42t49.5 16h379q24 0 38.5 -13.5t14.5 -34.5q0 -12 -3 -24l-112 -574q-5 -27 -25.5 -45.5t-50.5 -18.5q-23 0 -38.5 14t-15.5 33q0 11 3 27l101 518h-252q-46 -215 -94.5 -335.5t-135.5 -198.5q-35 -32 -57 -45t-45 -13t-37 13.5t-14 35.5q0 24 14 41
t40 35q80 53 123 163t92 364z" />
    <glyph glyph-name="afii10030" unicode="&#x41c;" horiz-adv-x="882" 
d="M649 59l71 370l26 104l-71 -81l-143 -142q-34 -34 -70 -34q-38 0 -59 34l-87 140l-42 82l-14 -103l-73 -375q-5 -27 -27 -45.5t-50 -18.5q-24 0 -39 14.5t-15 37.5q0 7 2 17l111 574q6 30 26.5 48.5t52.5 18.5h40q37 0 55 -32l141 -249l237 249q32 32 64 32h53
q26 0 40.5 -13.5t14.5 -35.5q0 -6 -2 -18l-112 -579q-5 -27 -27 -45.5t-50 -18.5q-24 0 -39.5 14.5t-15.5 37.5q0 7 2 17z" />
    <glyph glyph-name="afii10031" unicode="&#x41d;" horiz-adv-x="784" 
d="M743 710q24 0 39 -15t15 -38q0 -5 -2 -17l-114 -586q-5 -27 -27 -45.5t-50 -18.5q-23 0 -38.5 15t-15.5 37q0 7 2 17l47 242h-364l-48 -247q-5 -27 -27 -45.5t-50 -18.5q-24 0 -39 14.5t-15 37.5q0 7 2 17l114 586q5 28 27 46.5t50 18.5q24 0 39 -15t15 -38q0 -5 -2 -17
l-43 -220h364l44 225q5 28 27 46.5t50 18.5z" />
    <glyph glyph-name="afii10032" unicode="&#x41e;" horiz-adv-x="840" 
d="M406 111q114 0 198 87t84 200q0 85 -51.5 138.5t-137.5 53.5q-114 0 -197.5 -87t-83.5 -201q0 -84 51 -137.5t137 -53.5zM394 -10q-137 0 -222.5 84t-85.5 214q0 110 54 206.5t153 156t220 59.5q137 0 222 -84t85 -214q0 -111 -53.5 -207t-152.5 -155.5t-220 -59.5z" />
    <glyph glyph-name="afii10033" unicode="&#x41f;" horiz-adv-x="784" 
d="M248 700h494q25 0 39 -14t14 -37q0 -6 -3 -27l-111 -568q-5 -28 -26.5 -46t-50.5 -18q-23 0 -38.5 14.5t-15.5 36.5q0 11 2 19l102 521h-364l-103 -527q-6 -31 -27.5 -47.5t-49.5 -16.5q-24 0 -39 14.5t-15 37.5q0 11 2 19l112 574q6 29 27.5 47t50.5 18z" />
    <glyph glyph-name="afii10034" unicode="&#x420;" horiz-adv-x="634" 
d="M290 580l-46 -235h142q65 0 107 41t42 97q0 43 -25.5 70t-64.5 27h-155zM58 59l111 576q5 27 27 46t52 19h220q86 0 141 -56t55 -144q0 -114 -81 -194.5t-207 -80.5h-155l-34 -171q-5 -27 -27 -45.5t-50 -18.5q-24 0 -39 14.5t-15 37.5q0 7 2 17z" />
    <glyph glyph-name="afii10035" unicode="&#x421;" horiz-adv-x="702" 
d="M86 288q0 174 122 298t309 124q39 0 83 -10.5t80.5 -34t36.5 -54.5q0 -30 -21.5 -48t-48.5 -18q-16 0 -37 13q-49 32 -111 32q-114 0 -197.5 -87t-83.5 -201q0 -84 51 -137.5t137 -53.5q73 0 143 45q22 14 39 14q21 0 35.5 -14.5t14.5 -36.5q0 -38 -42.5 -69t-97.5 -45.5
t-104 -14.5q-137 0 -222.5 84t-85.5 214z" />
    <glyph glyph-name="afii10036" unicode="&#x422;" horiz-adv-x="590" 
d="M308 580h-152q-57 0 -57 50q0 32 23.5 51t58.5 19h435q57 0 57 -50q0 -32 -23.5 -51t-58.5 -19h-151l-102 -525q-5 -27 -26.5 -46t-51.5 -19q-24 0 -40 15t-16 38q0 6 2 16z" />
    <glyph glyph-name="afii10037" unicode="&#x423;" horiz-adv-x="664" 
d="M294 242l-156 368q-6 15 -6 27q0 29 20 51t53 22q39 0 54 -37l128 -310l230 309q28 38 65 38q26 0 39.5 -16t13.5 -38q0 -23 -19 -48l-368 -486q-45 -60 -87 -91t-94 -31h-34q-26 0 -41 14.5t-15 39.5q0 32 22.5 52t55.5 20h22q25 0 49 30z" />
    <glyph glyph-name="afii10038" unicode="&#x424;" horiz-adv-x="792" 
d="M427 673q5 27 25 45.5t48 18.5q25 0 40.5 -15.5t15.5 -36.5q0 -7 -1 -13l-2 -10q98 -12 164.5 -81t66.5 -171q0 -96 -50.5 -171t-127.5 -114t-166 -43l-5 -28q-5 -29 -25.5 -46.5t-50.5 -17.5q-24 0 -38.5 15t-14.5 37q0 7 1 14l5 26q-99 15 -165 83.5t-66 168.5
q0 138 102.5 229.5t241.5 98.5zM403 547q-78 -12 -133.5 -66.5t-55.5 -136.5q0 -60 33 -99t88 -46zM463 199q81 7 134.5 62.5t53.5 138.5q0 56 -33.5 97.5t-86.5 49.5z" />
    <glyph glyph-name="afii10039" unicode="&#x425;" horiz-adv-x="748" 
d="M289 683l137 -216l218 217q26 26 57 26q25 0 43.5 -15.5t18.5 -39.5q0 -29 -24 -53l-247 -239l170 -261q11 -16 11 -37q0 -30 -22 -52.5t-52 -22.5q-33 0 -50 28l-157 250l-255 -254q-26 -24 -58 -24q-24 0 -39.5 16t-15.5 39q0 30 25 55l275 268l-147 230q-12 19 -12 36
q0 28 21 52t52 24q34 0 51 -27z" />
    <glyph glyph-name="afii10040" unicode="&#x426;" horiz-adv-x="804" 
d="M550 119l103 527q5 28 27 46t50 18q24 0 39 -15t15 -38q0 -5 -2 -17l-102 -522h30q28 0 42 -13.5t14 -36.5q0 -9 -2 -19l-42 -214q-5 -27 -26.5 -46t-47.5 -19t-40.5 15t-14.5 37q0 6 2 18l31 160h-517q-25 0 -39 14.5t-14 37.5q0 9 2 19l112 575q5 28 27 46t50 18
q24 0 39 -15t15 -38q0 -5 -2 -17l-102 -521h353z" />
    <glyph glyph-name="afii10041" unicode="&#x427;" horiz-adv-x="675" 
d="M499 360l56 285q5 28 26 46.5t50 18.5q24 0 39.5 -15t15.5 -38q0 -5 -2 -17l-114 -584q-6 -28 -25.5 -47t-51.5 -19q-25 0 -39.5 15.5t-14.5 38.5q0 6 2 18l35 179q-82 -17 -161 -17q-107 0 -161.5 45t-54.5 131q0 26 6 62l36 183q5 28 26 46.5t51 18.5q24 0 39 -15
t15 -38q0 -7 -2 -17l-35 -178q-4 -20 -4 -40q0 -80 105 -80q38 0 79 4.5t63 9.5z" />
    <glyph glyph-name="afii10042" unicode="&#x428;" horiz-adv-x="938" 
d="M946 640l-111 -574q-6 -30 -28.5 -48t-53.5 -18h-641q-28 0 -42 13.5t-14 35.5q0 11 3 28l110 569q5 28 27 46t50 18q24 0 39 -15t15 -38q0 -5 -2 -17l-101 -521h194l103 527q5 28 27 46t50 18q24 0 39 -15t15 -38q0 -5 -2 -17l-101 -521h193l102 527q5 28 27 46t50 18
q24 0 39 -15t15 -38q0 -5 -2 -17z" />
    <glyph glyph-name="afii10043" unicode="&#x429;" horiz-adv-x="952" 
d="M775 0h-663q-28 0 -42 13.5t-14 35.5q0 11 3 28l110 569q5 28 27 46t50 18q24 0 39 -15t15 -38q0 -5 -2 -17l-101 -521h185l103 527q5 28 27 46t50 18q24 0 39 -15t15 -38q0 -5 -2 -17l-101 -521h186l102 527q5 28 27 46t50 18q24 0 39 -15t15 -38q0 -5 -2 -17l-101 -522
h30q28 0 42 -13.5t14 -36.5q0 -9 -2 -19l-42 -214q-5 -27 -26.5 -46t-47.5 -19q-25 0 -40 15t-15 37q0 6 2 18z" />
    <glyph glyph-name="afii10044" unicode="&#x42a;" horiz-adv-x="664" 
d="M267 327l-40 -208h156q57 0 94.5 35t37.5 90q0 37 -24.5 60t-67.5 23h-156zM326 627l-36 -181h156q97 0 148 -52t51 -140q0 -109 -75.5 -181.5t-210.5 -72.5h-221q-25 0 -39 14.5t-14 35.5q0 7 2 21l99 510h-78q-24 0 -38 15t-14 37q0 28 22 47.5t51 19.5h143
q56 0 56 -54q0 -5 -2 -19z" />
    <glyph glyph-name="afii10045" unicode="&#x42b;" horiz-adv-x="863" 
d="M238 327l-40 -208h130q57 0 94.5 35t37.5 90q0 37 -24.5 60t-67.5 23h-130zM58 71l111 573q6 28 26.5 47t51.5 19q24 0 38.5 -15.5t14.5 -37.5q0 -12 -2 -20l-37 -191h130q97 0 148 -52t51 -140q0 -109 -75.5 -181.5t-210.5 -72.5h-195q-25 0 -39 14.5t-14 35.5q0 7 2 21
zM739 645q5 27 26.5 46t51.5 19q24 0 40 -15t16 -37q0 -6 -2 -18l-113 -585q-5 -27 -27 -46t-52 -19q-24 0 -40 15t-16 38q0 6 2 16z" />
    <glyph glyph-name="afii10046" unicode="&#x42c;" horiz-adv-x="635" 
d="M238 327l-40 -208h156q57 0 94.5 35t37.5 90q0 37 -24.5 60t-67.5 23h-156zM58 71l111 573q6 28 26.5 47t51.5 19q24 0 38.5 -15.5t14.5 -37.5q0 -12 -2 -20l-37 -191h156q97 0 148 -52t51 -140q0 -109 -75.5 -181.5t-210.5 -72.5h-221q-25 0 -39 14.5t-14 35.5q0 7 2 21
z" />
    <glyph glyph-name="afii10047" unicode="&#x42d;" horiz-adv-x="702" 
d="M683 412q0 -174 -122 -298t-309 -124q-39 0 -87.5 11t-89.5 35t-41 55t22 52.5t48 21.5q16 0 37 -13q64 -42 129 -42q87 0 159 54t104 137h-284q-22 0 -36.5 15.5t-14.5 36.5q0 27 20.5 46.5t51.5 19.5h280q-7 76 -57 123t-130 47q-73 0 -126 -34q-19 -12 -39 -12
q-21 0 -35.5 14.5t-14.5 36.5q0 36 38.5 63.5t89 40t99.5 12.5q137 0 222.5 -84t85.5 -214z" />
    <glyph glyph-name="afii10048" unicode="&#x42e;" horiz-adv-x="1060" 
d="M619 -10q-137 0 -220.5 84t-83.5 214v13h-80l-48 -247q-5 -27 -27 -45.5t-50 -18.5q-24 0 -39 14.5t-15 37.5q0 7 2 17l114 586q5 28 27 46.5t50 18.5q24 0 39 -15t15 -38q0 -5 -2 -17l-43 -220h78q41 127 149 208.5t253 81.5q137 0 220 -84t83 -214q0 -111 -52.5 -207
t-150.5 -155.5t-219 -59.5zM631 111q113 0 195.5 86.5t82.5 200.5q0 85 -49.5 138.5t-135.5 53.5q-113 0 -195 -87t-82 -201q0 -85 49.5 -138t134.5 -53z" />
    <glyph glyph-name="afii10049" unicode="&#x42f;" horiz-adv-x="674" 
d="M501 359l43 221h-162q-58 0 -98.5 -38.5t-40.5 -89.5q0 -43 25.5 -68t65.5 -25h167zM63 97l150 159q-102 57 -102 174q0 114 81 192t208 78h228q26 0 40.5 -14.5t14.5 -37.5q0 -9 -3 -24l-109 -568q-6 -31 -27.5 -48.5t-50.5 -17.5q-23 0 -37.5 14.5t-14.5 35.5q0 7 2 21
l34 178h-122l-206 -223q-24 -26 -57 -26q-24 0 -38.5 15.5t-14.5 37.5q0 30 24 54z" />
    <glyph glyph-name="afii10065" unicode="&#x430;" horiz-adv-x="635" 
d="M626 443l-75 -386q-6 -29 -26 -48t-54 -19q-21 0 -35 14t-14 32q0 5 1 7q-26 -20 -68.5 -36.5t-88.5 -16.5q-89 0 -145.5 60.5t-56.5 155.5q0 124 88.5 214t215.5 90q44 0 81 -16.5t54 -36.5q4 19 24.5 36t44.5 17q23 0 39.5 -14t16.5 -37q0 -8 -2 -16zM470 251
q3 16 3 31q0 50 -31 81t-82 31q-70 0 -121 -52t-51 -119q0 -50 32 -83.5t84 -33.5q60 0 107 41.5t59 103.5z" />
    <glyph glyph-name="afii10066" unicode="&#x431;" horiz-adv-x="619" 
d="M424 688q44 10 83 36t58 26q18 0 32.5 -13t14.5 -33q0 -42 -43.5 -69t-124.5 -48q-64 -17 -120.5 -53t-80.5 -87q7 5 19 13.5t50.5 22t78.5 13.5q88 0 144 -56.5t56 -153.5q0 -126 -84 -210.5t-211 -84.5q-105 0 -165 60.5t-60 178.5q0 53 10 102q32 145 115 233.5
t228 122.5zM354 383q-65 0 -113 -45t-48 -111q0 -54 30.5 -87.5t82.5 -33.5q66 0 113 52.5t47 117.5q0 47 -31.5 77t-80.5 30z" />
    <glyph glyph-name="afii10067" unicode="&#x432;" horiz-adv-x="571" 
d="M212 500h193q77 0 115 -34t38 -90q0 -29 -14.5 -55.5t-29.5 -38.5l-14 -13q4 -3 10.5 -9.5t17.5 -29t11 -48.5q0 -86 -61 -134t-175 -48h-192q-25 0 -40 15t-15 36q0 7 2 17l72 369q5 25 29 44t53 19zM382 388h-138l-16 -84h138q27 0 46 14t19 32q0 17 -13 27.5t-36 10.5
zM348 210h-139l-18 -98h139q37 0 61 17t24 40q0 41 -67 41z" />
    <glyph glyph-name="afii10068" unicode="&#x433;" horiz-adv-x="486" 
d="M211 500h273q23 0 36.5 -13t13.5 -36q0 -29 -21.5 -48.5t-51.5 -19.5h-214l-64 -330q-6 -26 -26.5 -44.5t-49.5 -18.5q-22 0 -37 15t-15 34q0 7 2 19l74 379q5 26 27.5 44.5t52.5 18.5z" />
    <glyph glyph-name="afii10069" unicode="&#x434;" horiz-adv-x="672" 
d="M501 386h-171q-17 -76 -25.5 -109.5t-24.5 -81t-34 -80.5h203zM93 115h17q39 49 57.5 111t48.5 215q5 27 27.5 43t51.5 16h287q25 0 40 -13t15 -34q0 -9 -3 -27l-60 -311h18q25 0 40 -14.5t15 -35.5q0 -5 -2 -19l-30 -153q-5 -25 -25.5 -43.5t-49.5 -18.5
q-22 0 -36.5 14.5t-14.5 35.5q0 5 2 17l19 102h-382l-20 -107q-5 -25 -25.5 -43.5t-48.5 -18.5q-22 0 -36.5 14.5t-14.5 35.5q0 5 2 19l29 152q5 27 26.5 45t52.5 18z" />
    <glyph glyph-name="afii10070" unicode="&#x435;" horiz-adv-x="587" 
d="M491 202h-299q1 -40 34 -69t78 -29q52 0 90 18t54 18q22 0 35.5 -12.5t13.5 -32.5q0 -42 -46 -68q-62 -37 -159 -37q-104 0 -166 59t-62 151q0 133 89.5 221t214.5 88q99 0 157.5 -58t58.5 -140q0 -47 -24.5 -78t-68.5 -31zM356 398q-49 0 -92 -31t-55 -70h256
q0 41 -29.5 71t-79.5 30z" />
    <glyph glyph-name="afii10072" unicode="&#x436;" horiz-adv-x="768" 
d="M358 314l26 133q5 26 25 44.5t49 18.5q22 0 36.5 -15t14.5 -36q0 -5 -2 -17l-25 -128h31l82 101q36 45 67 70t65 25q49 0 49 -47q0 -28 -11 -40.5t-37 -29t-46 -41.5l-77 -95l98 -173q6 -12 6 -25q0 -30 -18.5 -49.5t-44.5 -19.5q-16 0 -27.5 7t-15.5 15l-104 187h-39
l-28 -146q-5 -26 -25.5 -44.5t-49.5 -18.5q-23 0 -37 14t-14 35q0 7 2 17l28 143h-33l-178 -187q-20 -22 -53 -22q-20 0 -34 13t-14 33q0 28 23 52l171 179l-39 91q-11 24 -35 44.5t-24 43.5q0 25 20 44.5t49 19.5q33 0 54 -25t40 -70l42 -101h33z" />
    <glyph glyph-name="afii10073" unicode="&#x437;" horiz-adv-x="520" 
d="M321 510q84 0 131 -36.5t47 -93.5q0 -31 -20 -62t-52 -49q2 -1 5.5 -3t12.5 -10.5t15.5 -19.5t12 -29.5t5.5 -40.5q0 -78 -68 -127t-168 -49q-135 0 -187 68q-15 19 -15 40q0 25 16.5 45t44.5 20q25 0 50 -29q29 -35 86 -35q24 0 47.5 4.5t44.5 19.5t21 39q0 42 -86 42
q-54 0 -54 43q0 52 72 59q94 9 94 55q0 17 -20.5 29t-47.5 12q-59 0 -100 -36q-28 -26 -54 -26q-23 0 -35.5 13.5t-12.5 32.5q0 8 1 12q7 37 72.5 74.5t141.5 37.5z" />
    <glyph glyph-name="afii10074" unicode="&#x438;" horiz-adv-x="658" 
d="M58 71l73 376q5 26 24.5 44.5t48.5 18.5q22 0 36 -14.5t14 -34.5q0 -7 -2 -19l-53 -275l34 43l273 263q28 27 62 27h30q26 0 39.5 -13.5t13.5 -33.5q0 -8 -2 -18l-74 -382q-5 -26 -24.5 -44.5t-48.5 -18.5q-22 0 -36 14.5t-14 34.5q0 7 2 19l53 276l-33 -42l-275 -265
q-28 -27 -62 -27h-31q-51 0 -51 45q0 8 3 26z" />
    <glyph glyph-name="afii10075" unicode="&#x439;" horiz-adv-x="660" 
d="M59 71l73 376q5 26 24.5 44.5t48.5 18.5q22 0 36 -14.5t14 -34.5q0 -7 -2 -19l-53 -275l34 43l273 263q28 27 62 27h30q26 0 39.5 -13.5t13.5 -33.5q0 -8 -2 -18l-74 -382q-5 -26 -24.5 -44.5t-48.5 -18.5q-22 0 -36 14.5t-14 34.5q0 7 2 19l53 276l-33 -42l-275 -265
q-28 -27 -62 -27h-31q-51 0 -51 45q0 8 3 26zM473 688q8 20 26 34.5t44 14.5q21 0 33.5 -12.5t12.5 -32.5q0 -56 -49.5 -96t-108.5 -40h-49q-48 0 -83 26.5t-35 73.5q0 32 17.5 56.5t49.5 24.5q23 0 35.5 -14t12.5 -33q0 -48 44 -48q33 0 50 46z" />
    <glyph glyph-name="afii10076" unicode="&#x43a;" horiz-adv-x="558" 
d="M212 197l-28 -141q-13 -66 -78 -66q-24 0 -37.5 15t-13.5 35q0 4 2 18l75 385q6 29 26 48t53 19q23 0 37 -15t14 -35q0 -4 -2 -18l-25 -127h40l128 130q64 65 121 65q25 0 39.5 -14t14.5 -35q0 -25 -16 -39.5t-44 -28t-43 -28.5l-113 -114l138 -155q18 -20 18 -44
q0 -29 -16 -45.5t-47 -16.5q-30 0 -48 24l-155 183h-40z" />
    <glyph glyph-name="afii10077" unicode="&#x43b;" horiz-adv-x="619" 
d="M473 384h-173q-31 -135 -73 -220.5t-114 -142.5q-40 -31 -69 -31q-23 0 -36 12.5t-13 32.5q0 18 8.5 32.5t17 21.5t24.5 19q59 41 84.5 107.5t55.5 220.5q5 26 27.5 45t52.5 19h290q27 0 41.5 -14.5t14.5 -33.5q0 -6 -3 -24l-73 -375q-5 -26 -25 -44.5t-49 -18.5
q-23 0 -38 15t-15 34q0 8 2 22z" />
    <glyph glyph-name="afii10078" unicode="&#x43c;" horiz-adv-x="715" 
d="M232 330l-54 -278q-5 -26 -24.5 -44t-48.5 -18q-22 0 -36 14.5t-14 34.5q0 7 2 19l74 382q5 25 24.5 42.5t49.5 17.5h23q37 0 53 -26l106 -168l169 168q27 26 63 26h34q27 0 40.5 -13t13.5 -32q0 -8 -3 -26l-73 -377q-5 -26 -24.5 -44t-48.5 -18q-22 0 -36 14.5t-14 34.5
q0 7 2 19l53 272l-131 -128q-30 -30 -65 -30t-54 30z" />
    <glyph glyph-name="afii10079" unicode="&#x43d;" horiz-adv-x="665" 
d="M505 316l24 128q13 66 78 66q23 0 37 -15t14 -35q0 -4 -2 -18l-74 -386q-13 -66 -78 -66q-24 0 -37.5 15t-13.5 35q0 4 2 18l27 142h-271l-27 -144q-13 -66 -78 -66q-24 0 -37.5 15t-13.5 35q0 4 2 18l74 386q13 66 78 66q23 0 37 -15t14 -35q0 -4 -2 -18l-24 -126h271z
" />
    <glyph glyph-name="afii10080" unicode="&#x43e;" horiz-adv-x="616" 
d="M600 295q0 -127 -87.5 -216t-219.5 -89q-105 0 -167 59.5t-62 153.5q0 130 90 218.5t221 88.5q101 0 163 -60.5t62 -154.5zM304 106q69 0 120 51.5t51 121.5q0 49 -32 81.5t-83 32.5q-72 0 -122 -50.5t-50 -119.5q0 -50 32 -83.5t84 -33.5z" />
    <glyph glyph-name="afii10081" unicode="&#x43f;" horiz-adv-x="665" 
d="M655 432l-73 -376q-13 -66 -78 -66q-24 0 -37.5 15t-13.5 35q0 4 2 18l63 326h-271l-63 -328q-13 -66 -78 -66q-24 0 -37.5 15t-13.5 35q0 4 2 18l74 379q5 27 26 45t52 18h393q28 0 41.5 -14.5t13.5 -36.5q0 -7 -2 -17z" />
    <glyph glyph-name="afii10082" unicode="&#x440;" horiz-adv-x="635" 
d="M214 249q-3 -16 -3 -32q0 -50 31 -80.5t82 -30.5q68 0 120 52t52 119q0 51 -32 84t-84 33q-61 0 -107.5 -41t-58.5 -104zM15 -162l118 608q6 27 26.5 45.5t49.5 18.5q23 0 37 -14t14 -32q0 -1 -0.5 -4t-0.5 -4q73 54 158 54q88 0 145 -61.5t57 -152.5q0 -128 -89.5 -217
t-206.5 -89q-50 0 -87 16.5t-53 36.5l-41 -209q-6 -27 -25.5 -45.5t-50.5 -18.5q-24 0 -38.5 14.5t-14.5 35.5q0 10 2 18z" />
    <glyph glyph-name="afii10083" unicode="&#x441;" horiz-adv-x="506" 
d="M357 393q-64 0 -116 -53t-52 -120q0 -49 33 -81.5t86 -32.5q36 0 68.5 15.5t48.5 15.5q21 0 34.5 -14t13.5 -34q0 -43 -48 -71t-139 -28q-98 0 -160 59.5t-62 151.5q0 135 91 222t227 87q76 0 114 -22.5t38 -54.5q0 -24 -21.5 -45t-48.5 -21q-14 0 -41 13t-66 13z" />
    <glyph glyph-name="afii10084" unicode="&#x442;" horiz-adv-x="507" 
d="M367 384l-63 -328q-13 -66 -78 -66q-24 0 -37.5 15t-13.5 35q0 4 2 18l63 326h-115q-23 0 -36.5 12.5t-13.5 35.5q0 29 21 48.5t52 19.5h357q50 0 50 -51q0 -28 -21.5 -46.5t-51.5 -18.5h-115z" />
    <glyph glyph-name="afii10085" unicode="&#x443;" horiz-adv-x="561" 
d="M192 -75l51 89q-27 0 -47 16.5t-25 37.5l-80 348q-3 18 -3 26q0 28 20.5 48t51.5 20q18 0 32.5 -11t18.5 -30l82 -369l202 365q25 45 72 45q23 0 37.5 -14.5t14.5 -37.5q0 -19 -17 -47l-292 -509q-70 -122 -173 -122h-38q-24 0 -38 13.5t-14 36.5q0 27 21 46.5t48 19.5
h23q37 0 53 29z" />
    <glyph glyph-name="afii10086" unicode="&#x444;" horiz-adv-x="720" 
d="M530 683l-34 -178q92 -10 149 -69.5t57 -146.5q0 -124 -90 -206.5t-216 -89.5l-31 -160q-5 -27 -25.5 -45t-49.5 -18q-22 0 -37 14.5t-15 32.5q0 6 3 24l29 152q-95 10 -150.5 68t-55.5 145q0 129 89.5 211t216.5 90l35 181q5 25 25.5 43.5t49.5 18.5q22 0 37 -14.5
t15 -33.5q0 -9 -2 -19zM347 392q-71 -9 -115.5 -56t-44.5 -113q0 -48 28.5 -79t76.5 -38zM418 106q68 9 114.5 55t46.5 115q0 48 -28.5 78.5t-77.5 37.5z" />
    <glyph glyph-name="afii10087" unicode="&#x445;" horiz-adv-x="564" 
d="M382 15l-99 146l-156 -149q-23 -22 -54 -22q-23 0 -37.5 14.5t-14.5 36.5q0 31 24 54l174 160l-103 153q-10 15 -10 34q0 29 16.5 48.5t46.5 19.5t45 -24l95 -145l153 147q24 22 53 22q24 0 39 -15t15 -37q0 -31 -24 -53l-171 -158l105 -154q13 -19 13 -41
q0 -26 -17.5 -44t-42.5 -18q-33 0 -50 25z" />
    <glyph glyph-name="afii10088" unicode="&#x446;" horiz-adv-x="690" 
d="M646 442l-65 -327h18q28 0 42 -13t14 -33q0 -7 -3 -28l-29 -149q-5 -28 -25 -45t-50 -17q-22 0 -36.5 13.5t-14.5 31.5q0 14 3 26l19 99h-412q-25 0 -38.5 14t-13.5 34q0 13 2 21l74 377q12 64 76 64q23 0 36.5 -15t13.5 -35q0 -4 -2 -18l-64 -327h265l65 331
q12 64 76 64q23 0 37 -15t14 -35q0 -4 -2 -18z" />
    <glyph glyph-name="afii10089" unicode="&#x447;" horiz-adv-x="529" 
d="M520 442l-75 -389q-12 -63 -76 -63q-23 0 -37 15t-14 35q0 4 2 18l19 101q-58 -11 -110 -11q-89 0 -136.5 36t-47.5 102q0 17 4 39l24 122q12 63 77 63q23 0 36.5 -15t13.5 -35q0 -4 -2 -18l-23 -111q-2 -14 -2 -22q0 -48 81 -48q23 0 50 2.5t42 5.5l15 3l34 175
q12 63 76 63q23 0 37 -15t14 -35q0 -4 -2 -18z" />
    <glyph glyph-name="afii10090" unicode="&#x448;" horiz-adv-x="763" 
d="M754 442l-74 -379q-5 -26 -24 -44.5t-50 -18.5h-499q-25 0 -38 14t-13 33q0 6 3 27l73 373q12 63 76 63q23 0 36.5 -15t13.5 -35q0 -4 -2 -18l-64 -327h124l65 331q12 64 76 64q23 0 36.5 -15t13.5 -35q0 -4 -2 -18l-64 -327h124l65 331q12 64 76 64q23 0 36.5 -15
t13.5 -35q0 -4 -2 -18z" />
    <glyph glyph-name="afii10091" unicode="&#x449;" horiz-adv-x="798" 
d="M627 0h-521q-25 0 -38 14t-13 33q0 6 3 27l73 373q12 63 76 63q23 0 36.5 -15t13.5 -35q0 -4 -2 -18l-64 -327h124l65 331q12 64 76 64q23 0 36.5 -15t13.5 -35q0 -4 -2 -18l-64 -327h124l65 331q12 64 76 64q23 0 36.5 -15t13.5 -35q0 -4 -2 -18l-64 -327h18
q29 0 42.5 -14t13.5 -34q0 -11 -2 -23l-30 -152q-12 -62 -75 -62q-23 0 -37 14t-14 31q0 13 3 25z" />
    <glyph glyph-name="afii10092" unicode="&#x44a;" horiz-adv-x="559" 
d="M221 215l-19 -100h145q28 0 48 15t20 43q0 19 -13.5 30.5t-35.5 11.5h-145zM109 500h101q24 0 39.5 -15.5t15.5 -35.5q0 -4 -2 -18l-20 -105h136q80 0 120 -38t40 -103q0 -79 -55 -132t-163 -53h-203q-25 0 -38.5 14t-13.5 34q0 13 2 21l62 318h-43q-21 0 -34 13.5
t-13 36.5q0 25 20.5 44t48.5 19z" />
    <glyph glyph-name="afii10093" unicode="&#x44b;" horiz-adv-x="740" 
d="M281 0h-174q-25 0 -38.5 14t-13.5 34q0 13 2 21l74 377q12 64 76 64q23 0 36.5 -15t13.5 -35q0 -4 -2 -18l-23 -116h112q79 0 117 -37.5t38 -103.5q0 -79 -55 -132t-163 -53zM210 215l-19 -100h116q28 0 48 15t20 43q0 19 -13.5 30.5t-35.5 11.5h-116zM731 442l-72 -386
q-13 -66 -76 -66q-23 0 -37 15t-14 35q0 4 2 18l72 386q13 66 76 66q24 0 37.5 -15t13.5 -35q0 -4 -2 -18z" />
    <glyph glyph-name="afii10094" unicode="&#x44c;" horiz-adv-x="549" 
d="M310 0h-203q-25 0 -38.5 14t-13.5 34q0 13 2 21l74 377q12 64 76 64q23 0 36.5 -15t13.5 -35q0 -4 -2 -18l-23 -116h136q80 0 120 -38t40 -103q0 -79 -55 -132t-163 -53zM210 215l-19 -100h145q28 0 48 15t20 43q0 19 -13.5 30.5t-35.5 11.5h-145z" />
    <glyph glyph-name="afii10095" unicode="&#x44d;" horiz-adv-x="516" 
d="M202 107q45 0 87 23.5t64 66.5h-185q-20 0 -34 14t-14 33q0 25 20 44t49 19h183q-6 38 -36.5 62.5t-75.5 24.5q-36 0 -68.5 -13.5t-48.5 -13.5q-21 0 -34.5 14t-13.5 34q0 42 47.5 68.5t139.5 26.5q98 0 158.5 -60.5t60.5 -156.5q0 -132 -90.5 -217.5t-230.5 -85.5
q-78 0 -116.5 22.5t-38.5 54.5q0 24 21.5 45t48.5 21q14 0 41.5 -13t65.5 -13z" />
    <glyph glyph-name="afii10096" unicode="&#x44e;" horiz-adv-x="824" 
d="M809 295q0 -126 -86 -215.5t-215 -89.5q-102 0 -163 58.5t-62 151.5h-72l-27 -144q-13 -66 -78 -66q-24 0 -37.5 15t-13.5 35q0 4 2 18l74 386q13 66 78 66q23 0 37 -15t14 -35q0 -4 -2 -18l-24 -126h69q33 87 110 140.5t175 53.5t159.5 -60.5t61.5 -154.5zM519 106
q68 0 117.5 51.5t49.5 121.5q0 49 -31.5 81.5t-81.5 32.5q-71 0 -119.5 -50.5t-48.5 -119.5q0 -50 31.5 -83.5t82.5 -33.5z" />
    <glyph glyph-name="afii10097" unicode="&#x44f;" horiz-adv-x="572" 
d="M561 426l-72 -373q-5 -26 -25 -44.5t-47 -18.5q-24 0 -39 15t-15 37q0 7 2 17l19 97h-75l-153 -146q-21 -20 -49 -20q-25 0 -38.5 13.5t-13.5 32.5q0 29 28 56l86 82q-82 44 -82 134q0 78 61 135t162 57h199q27 0 41 -15t14 -36q0 -5 -3 -23zM406 267l23 118h-143
q-30 0 -52.5 -19t-22.5 -47q0 -23 14 -37.5t38 -14.5h143z" />
    <glyph glyph-name="afii10071" unicode="&#x451;" horiz-adv-x="587" 
d="M491 202h-299q1 -40 34 -69t78 -29q52 0 90 18t54 18q22 0 35.5 -12.5t13.5 -32.5q0 -42 -46 -68q-62 -37 -159 -37q-104 0 -166 59t-62 151q0 133 89.5 221t214.5 88q99 0 157.5 -58t58.5 -140q0 -47 -24.5 -78t-68.5 -31zM356 398q-49 0 -92 -31t-55 -70h256
q0 41 -29.5 71t-79.5 30zM199 617q0 36 28 64.5t66 28.5q28 0 46 -18.5t18 -45.5q0 -36 -29 -64t-65 -28q-28 0 -46 18t-18 45zM428 617q0 36 28 64.5t66 28.5q28 0 46 -18.5t18 -45.5q0 -36 -29 -64t-65 -28q-28 0 -46 18t-18 45z" />
    <glyph glyph-name="afii10099" unicode="&#x452;" horiz-adv-x="655" 
d="M616 248l-60 -309q-14 -75 -69 -122t-133 -47q-59 0 -59 50q0 25 21 45t51 21q52 3 62 51l61 320q3 17 3 32q0 45 -27.5 70.5t-74.5 25.5q-54 0 -104 -35t-59 -81l-42 -212q-6 -29 -26 -48t-53 -19q-23 0 -37 15t-14 35q0 4 2 18l96 496h-30q-19 0 -31 13t-12 34
q0 22 19.5 39.5t43.5 17.5h30l5 25q6 29 26 48t53 19q24 0 37.5 -15t13.5 -35q0 -4 -2 -18l-5 -24h90q19 0 31 -13t12 -33q0 -23 -19.5 -40.5t-43.5 -17.5h-90l-21 -111q77 59 161 59q91 0 145 -55.5t54 -140.5q0 -28 -5 -58z" />
    <glyph glyph-name="afii10100" unicode="&#x453;" horiz-adv-x="486" 
d="M211 500h273q23 0 36.5 -13t13.5 -36q0 -29 -21.5 -48.5t-51.5 -19.5h-214l-64 -330q-6 -26 -26.5 -44.5t-49.5 -18.5q-22 0 -37 15t-15 34q0 7 2 19l74 379q5 26 27.5 44.5t52.5 18.5zM475 649l-108 -84q-19 -15 -42 -15q-22 0 -36.5 14.5t-14.5 35.5q0 33 28 55l105 81
q20 16 43 16q22 0 37 -14.5t15 -35.5q0 -31 -27 -53z" />
    <glyph glyph-name="afii10101" unicode="&#x454;" horiz-adv-x="516" 
d="M371 196h-180q8 -40 39 -65t78 -25q36 0 68.5 15.5t48.5 15.5q21 0 34.5 -14t13.5 -34q0 -43 -48 -71t-139 -28q-98 0 -160 59.5t-62 151.5q0 135 91 222t227 87q76 0 114 -22.5t38 -54.5q0 -24 -21.5 -45t-48.5 -21q-14 0 -41 13t-66 13q-40 0 -78.5 -23.5t-62.5 -61.5
h175q21 0 35 -15t14 -34q0 -26 -20.5 -44.5t-48.5 -18.5z" />
    <glyph glyph-name="afii10102" unicode="&#x455;" horiz-adv-x="520" 
d="M253 101q42 0 68 12.5t26 35.5q0 15 -18.5 25.5t-46.5 16t-61 15.5t-61 22.5t-46.5 38.5t-18.5 62q0 74 62.5 127.5t166.5 53.5q81 0 132 -30.5t51 -64.5q0 -24 -18 -43t-46 -19q-21 0 -58.5 24t-78.5 24q-42 0 -65 -14.5t-23 -34.5q0 -18 27 -29.5t65 -20t76 -21.5
t65 -41t27 -70q0 -84 -69.5 -132t-173.5 -48q-81 0 -135.5 30.5t-54.5 66.5q0 28 19.5 46.5t46.5 18.5q14 0 29 -8t26.5 -17.5t34.5 -17.5t52 -8z" />
    <glyph glyph-name="afii10103" unicode="&#x456;" horiz-adv-x="311" 
d="M152 617q0 35 28 64t66 29q28 0 46.5 -18t18.5 -45q0 -36 -29.5 -64.5t-65.5 -28.5q-28 0 -46 18t-18 45zM73 146l56 292q5 27 26 45.5t51 18.5q23 0 37.5 -15t14.5 -37q0 -4 -2 -18l-54 -284q-3 -18 -3 -23q0 -18 19 -19q22 -2 35.5 -15t13.5 -35q0 -27 -23 -46.5
t-60 -19.5q-48 0 -81.5 31.5t-33.5 84.5q0 18 4 40z" />
    <glyph glyph-name="afii10104" unicode="&#x457;" horiz-adv-x="311" 
d="M73 146l58 300q5 27 26 45.5t51 18.5q23 0 37.5 -15t14.5 -37q0 -4 -2 -18l-56 -292q-3 -18 -3 -23q0 -18 19 -19q22 -2 35.5 -15t13.5 -35q0 -27 -23 -46.5t-60 -19.5q-48 0 -81.5 31.5t-33.5 84.5q0 18 4 40zM41 617q0 36 28 64.5t66 28.5q28 0 46 -18.5t18 -45.5
q0 -36 -29 -64t-65 -28q-28 0 -46 18t-18 45zM270 617q0 36 28 64.5t66 28.5q28 0 46 -18.5t18 -45.5q0 -36 -29 -64t-65 -28q-28 0 -46 18t-18 45z" />
    <glyph glyph-name="afii10105" unicode="&#x458;" horiz-adv-x="308" 
d="M168 616q0 36 28.5 65t66.5 29q28 0 46 -18.5t18 -45.5q0 -36 -29.5 -64t-65.5 -28q-28 0 -46 17.5t-18 44.5zM273 432l-94 -484q-14 -74 -69 -121t-141 -47h-34q-23 0 -36.5 13t-13.5 34q0 28 21.5 48.5t50.5 20.5h29q25 0 43 16.5t23 42.5l94 483q6 27 26.5 45.5
t50.5 18.5q23 0 37.5 -15t14.5 -37q0 -4 -2 -18z" />
    <glyph glyph-name="afii10106" unicode="&#x459;" horiz-adv-x="835" 
d="M519 215l-19 -100h126q28 0 48 15t20 43q0 19 -13.5 30.5t-35.5 11.5h-126zM428 385l-128 -1q-31 -135 -73 -220.5t-114 -142.5q-40 -31 -69 -31q-23 0 -36 12.5t-13 32.5q0 18 8.5 32.5t17 21.5t24.5 19q59 41 84.5 107.5t55.5 220.5q5 26 27.5 45t52.5 19h243
q24 0 39.5 -15.5t15.5 -35.5q0 -4 -2 -18l-20 -105h117q80 0 120 -38t40 -103q0 -79 -55 -132t-163 -53h-184q-25 0 -38.5 14t-13.5 34q0 13 2 21z" />
    <glyph glyph-name="afii10107" unicode="&#x45a;" horiz-adv-x="848" 
d="M613 0h-184q-25 0 -38.5 14t-13.5 34q0 13 2 21l27 139h-194l-28 -152q-13 -66 -78 -66q-24 0 -37.5 15t-13.5 35q0 4 2 18l74 386q13 66 78 66q23 0 37 -15t14 -35q0 -4 -2 -18l-23 -118h194l24 122q12 64 76 64q23 0 36.5 -15t13.5 -35q0 -4 -2 -18l-23 -118h117
q80 0 120 -38t40 -103q0 -79 -55 -131t-163 -52zM532 210l-19 -95h126q29 0 48.5 14t19.5 41q0 19 -13 29.5t-36 10.5h-126z" />
    <glyph glyph-name="afii10108" unicode="&#x45b;" horiz-adv-x="651" 
d="M371 554h-90l-23 -111q77 59 161 59q91 0 145 -55.5t54 -140.5q0 -28 -5 -58l-35 -191q-6 -29 -26 -48t-53 -19q-23 0 -37 15t-14 35q0 4 2 18l37 199q3 17 3 32q0 45 -27.5 70.5t-74.5 25.5q-54 0 -104 -35t-59 -81l-40 -212q-6 -29 -26 -48t-53 -19q-24 0 -37.5 15
t-13.5 35q0 4 2 18l96 496h-30q-19 0 -31 13t-12 34q0 22 19.5 39.5t43.5 17.5h30l5 25q6 29 26 48t53 19q23 0 37 -15t14 -35q0 -4 -2 -18l-5 -24h90q19 0 31 -13t12 -33q0 -23 -19.5 -40.5t-43.5 -17.5z" />
    <glyph glyph-name="afii10109" unicode="&#x45c;" horiz-adv-x="558" 
d="M212 197l-28 -141q-13 -66 -78 -66q-24 0 -37.5 15t-13.5 35q0 4 2 18l75 385q6 29 26 48t53 19q23 0 37 -15t14 -35q0 -4 -2 -18l-25 -127h40l128 130q64 65 121 65q25 0 39.5 -14t14.5 -35q0 -25 -16 -39.5t-44 -28t-43 -28.5l-113 -114l138 -155q18 -20 18 -44
q0 -29 -16 -45.5t-47 -16.5q-30 0 -48 24l-155 183h-40zM511 649l-108 -84q-19 -15 -42 -15q-22 0 -36.5 14.5t-14.5 35.5q0 33 28 55l105 81q20 16 43 16q22 0 37 -14.5t15 -35.5q0 -31 -27 -53z" />
    <glyph glyph-name="afii10110" unicode="&#x45e;" horiz-adv-x="561" 
d="M436 688q8 20 26 34.5t44 14.5q21 0 33.5 -12.5t12.5 -32.5q0 -56 -49.5 -96t-108.5 -40h-49q-48 0 -83 26.5t-35 73.5q0 32 17.5 56.5t49.5 24.5q23 0 35.5 -14t12.5 -33q0 -48 44 -48q33 0 50 46zM192 -75l51 89q-27 0 -47 16.5t-25 37.5l-80 348q-3 18 -3 26
q0 28 20.5 48t51.5 20q18 0 32.5 -11t18.5 -30l82 -369l202 365q25 45 72 45q23 0 37.5 -14.5t14.5 -37.5q0 -19 -17 -47l-292 -509q-70 -122 -173 -122h-38q-24 0 -38 13.5t-14 36.5q0 27 21 46.5t48 19.5h23q37 0 53 29z" />
    <glyph glyph-name="afii10193" unicode="&#x45f;" horiz-adv-x="656" 
d="M239 0h-129q-28 0 -41.5 14.5t-13.5 36.5q0 7 2 17l73 376q13 66 78 66q23 0 36.5 -15t13.5 -35q0 -4 -2 -18l-63 -327h263l63 329q13 66 78 66q23 0 37 -15t14 -35q0 -4 -2 -18l-74 -379q-5 -27 -26 -45t-52 -18h-129l-21 -106q-6 -27 -25.5 -45.5t-49.5 -18.5
q-23 0 -37.5 15t-14.5 35q0 10 2 18z" />
    <glyph glyph-name="afii10146" unicode="&#x462;" horiz-adv-x="678" 
d="M443 584h-112l-27 -138h156q97 0 148 -52t51 -140q0 -109 -75.5 -181.5t-210.5 -72.5h-221q-25 0 -39 14.5t-14 35.5q0 7 2 21l99 510h-78q-24 0 -38 15t-14 37q0 28 22 47.5t51 19.5h320q23 0 37 -15t14 -36q0 -27 -20.5 -46t-50.5 -19zM281 327l-40 -208h156
q57 0 94.5 35t37.5 90q0 37 -24.5 60t-67.5 23h-156z" />
    <glyph glyph-name="afii10194" unicode="&#x463;" horiz-adv-x="549" 
d="M372 488h-109l-31 -162h136q80 0 120 -38t40 -103q0 -79 -55 -132t-163 -53h-203q-25 0 -38.5 14t-13.5 34q0 13 2 21l81 419h-16q-23 0 -37 14.5t-14 35.5q0 27 20.5 46.5t51.5 19.5h17l16 82q12 64 76 64q23 0 36.5 -15t13.5 -35q0 -4 -2 -18l-15 -78h107q23 0 37 -15
t14 -36q0 -27 -20.5 -46t-50.5 -19zM210 215l-19 -100h145q28 0 48 15t20 43q0 19 -13.5 30.5t-35.5 11.5h-145z" />
    <glyph glyph-name="afii10147" unicode="&#x472;" horiz-adv-x="840" 
d="M394 -10q-137 0 -222.5 84t-85.5 214q0 110 54 206.5t153 156t220 59.5q137 0 222 -84t85 -214q0 -111 -53.5 -207t-152.5 -155.5t-220 -59.5zM499 590q-85 0 -156 -51t-102 -130q60 33 115 33q46 0 114.5 -33.5t93.5 -33.5q51 0 123 47q-8 75 -58 121.5t-130 46.5z
M406 111q84 0 155.5 51t104.5 129q-59 -33 -118 -33q-45 0 -113.5 33.5t-94.5 33.5q-54 0 -121 -47q7 -75 57 -121t130 -46z" />
    <glyph glyph-name="afii10195" unicode="&#x473;" horiz-adv-x="616" 
d="M283 330q31 0 60 -23.5t63 -23.5q16 0 33 5.5t26 10.5l9 5q-5 40 -39 66t-79 26q-48 0 -87.5 -25t-63.5 -67q45 26 78 26zM380 168q-32 0 -60 23.5t-63 23.5q-16 0 -32.5 -5.5t-25.5 -10.5l-9 -5q5 -40 39 -66t79 -26q47 0 86 26.5t61 65.5q-42 -26 -75 -26zM600 295
q0 -127 -87.5 -216t-219.5 -89q-105 0 -167 59.5t-62 153.5q0 130 90 218.5t221 88.5q101 0 163 -60.5t62 -154.5z" />
    <glyph glyph-name="afii10148" unicode="&#x474;" horiz-adv-x="727" 
d="M346 116h14l213 473q27 61 72 91t90 30q24 0 38 -13t14 -34q0 -28 -18 -45t-44 -36t-38 -46l-224 -485q-24 -51 -68 -51h-117q-24 0 -38.5 13.5t-17.5 35.5l-91 560q-2 16 -2 24q0 31 21.5 54t54.5 23q22 0 36.5 -13.5t18.5 -35.5z" />
    <glyph glyph-name="afii10196" unicode="&#x475;" horiz-adv-x="530" 
d="M254 115l9 1l114 255q26 57 68.5 98t88.5 41q22 0 35.5 -13t13.5 -33q0 -22 -11.5 -38.5t-26.5 -27t-34.5 -30.5t-31.5 -45l-133 -275q-23 -48 -82 -48h-52q-27 0 -43 14t-20 36l-69 355q-4 26 -4 37q0 27 18.5 47.5t51.5 20.5q19 0 34.5 -12.5t19.5 -35.5z" />
    <glyph glyph-name="afii10050" unicode="&#x490;" horiz-adv-x="583" 
d="M528 700l10 55q4 25 23.5 41.5t43.5 16.5t38 -13t14 -33q0 -5 -2 -17l-21 -110q-6 -30 -27 -45t-50 -15h-266l-101 -525q-5 -27 -26.5 -46t-51.5 -19q-24 0 -40 15t-16 38q0 6 2 16l111 576q6 29 28.5 47t52.5 18h278z" />
    <glyph glyph-name="afii10098" unicode="&#x491;" horiz-adv-x="485" 
d="M415 500l8 41q5 25 22 42t43 17q22 0 35.5 -13.5t13.5 -34.5q0 -4 -2 -18l-18 -91q-5 -27 -25.5 -43.5t-46.5 -16.5h-198l-64 -330q-6 -26 -26.5 -44.5t-49.5 -18.5q-22 0 -37 15t-15 34q0 7 2 19l74 379q5 26 27.5 44.5t52.5 18.5h204z" />
    <glyph glyph-name="uni04D8" unicode="&#x4d8;" horiz-adv-x="810" 
d="M791 407q0 -118 -58.5 -215t-152.5 -150t-200 -53q-75 0 -134 26.5t-92.5 69t-51 90t-17.5 95.5q0 31 4 49q8 40 35.5 69t74.5 29h461q-2 75 -53.5 124.5t-138.5 49.5q-84 0 -171 -54q-14 -9 -39 -9q-17 0 -32 15t-15 37q0 49 88 89.5t187 40.5q136 0 220.5 -86
t84.5 -217zM639 298h-430q0 -85 46 -138t132 -53q80 0 153 53t99 138z" />
    <glyph glyph-name="afii10846" unicode="&#x4d9;" horiz-adv-x="587" 
d="M145 297h299q-1 40 -34 69t-78 29q-52 0 -90 -18t-54 -18q-22 0 -35.5 12.5t-13.5 32.5q0 42 46 68q62 37 159 37q104 0 166 -59t62 -151q0 -133 -89.5 -221t-214.5 -88q-99 0 -157.5 58t-58.5 140q0 47 24.5 78t68.5 31zM280 101q49 0 92 31t55 70h-256q0 -41 29.5 -71
t79.5 -30z" />
    <glyph glyph-name="Wgrave" unicode="&#x1e80;" horiz-adv-x="887" 
d="M906 640l-150 -575q-8 -29 -29 -47t-52 -18h-27q-40 0 -57 33l-124 238l-219 -238q-30 -33 -70 -33h-34q-28 0 -43 14.5t-15 38.5q0 4 2 22l72 568q4 29 26.5 48t52.5 19q55 0 55 -52q0 -2 -2 -20l-63 -463l185 210q36 40 77 40q42 0 62 -40l102 -209l119 469
q7 28 28.5 46.5t50.5 18.5q25 0 40 -15t15 -39q0 -8 -2 -16zM531 766l-80 88q-12 12 -12 32q0 29 20.5 49t47.5 20q22 0 37 -16l80 -88q11 -13 11 -31q0 -29 -19.5 -49t-48.5 -20q-23 0 -36 15z" />
    <glyph glyph-name="wgrave" unicode="&#x1e81;" horiz-adv-x="739" 
d="M413 355q47 0 59 -42l53 -193h8l103 333q8 26 29.5 41.5t44.5 15.5q24 0 37.5 -13.5t13.5 -34.5q0 -18 -7 -39l-121 -370q-17 -53 -89 -53h-48q-54 0 -67 47l-42 155h-4l-103 -155q-30 -47 -86 -47h-49q-32 0 -49.5 14t-17.5 36q0 8 1 24l20 349q2 35 22 61t56 26
q21 0 36.5 -14t15.5 -38q0 -6 -1 -20l-28 -318h7l128 189q31 46 78 46zM406 566l-80 88q-12 12 -12 32q0 29 20.5 49t47.5 20q22 0 37 -16l80 -88q11 -13 11 -31q0 -29 -19.5 -49t-48.5 -20q-22 0 -36 15z" />
    <glyph glyph-name="Wacute" unicode="&#x1e82;" horiz-adv-x="887" 
d="M906 640l-150 -575q-8 -29 -29 -47t-52 -18h-27q-40 0 -57 33l-124 238l-219 -238q-30 -33 -70 -33h-34q-28 0 -43 14.5t-15 38.5q0 4 2 22l72 568q4 29 26.5 48t52.5 19q55 0 55 -52q0 -2 -2 -20l-63 -463l185 210q36 40 77 40q42 0 62 -40l102 -209l119 469
q7 28 28.5 46.5t50.5 18.5q25 0 40 -15t15 -39q0 -8 -2 -16zM681 849l-108 -84q-19 -15 -42 -15q-22 0 -36.5 14.5t-14.5 35.5q0 33 28 55l105 81q20 16 43 16q22 0 37 -14.5t15 -35.5q0 -31 -27 -53z" />
    <glyph glyph-name="wacute" unicode="&#x1e83;" horiz-adv-x="739" 
d="M413 355q47 0 59 -42l53 -193h8l103 333q8 26 29.5 41.5t44.5 15.5q24 0 37.5 -13.5t13.5 -34.5q0 -18 -7 -39l-121 -370q-17 -53 -89 -53h-48q-54 0 -67 47l-42 155h-4l-103 -155q-30 -47 -86 -47h-49q-32 0 -49.5 14t-17.5 36q0 8 1 24l20 349q2 35 22 61t56 26
q21 0 36.5 -14t15.5 -38q0 -6 -1 -20l-28 -318h7l128 189q31 46 78 46zM589 649l-108 -84q-19 -15 -42 -15q-22 0 -36.5 14.5t-14.5 35.5q0 33 28 55l105 81q20 16 43 16q22 0 37 -14.5t15 -35.5q0 -31 -27 -53z" />
    <glyph glyph-name="Wdieresis" unicode="&#x1e84;" horiz-adv-x="887" 
d="M906 640l-150 -575q-8 -29 -29 -47t-52 -18h-27q-40 0 -57 33l-124 238l-219 -238q-30 -33 -70 -33h-34q-28 0 -43 14.5t-15 38.5q0 4 2 22l72 568q4 29 26.5 48t52.5 19q55 0 55 -52q0 -2 -2 -20l-63 -463l185 210q36 40 77 40q42 0 62 -40l102 -209l119 469
q7 28 28.5 46.5t50.5 18.5q25 0 40 -15t15 -39q0 -8 -2 -16zM382 817q0 36 28 64.5t66 28.5q28 0 46 -18.5t18 -45.5q0 -36 -29 -64t-65 -28q-28 0 -46 18t-18 45zM611 817q0 36 28 64.5t66 28.5q28 0 46 -18.5t18 -45.5q0 -36 -29 -64t-65 -28q-28 0 -46 18t-18 45z" />
    <glyph glyph-name="wdieresis" unicode="&#x1e85;" horiz-adv-x="739" 
d="M413 355q47 0 59 -42l53 -193h8l103 333q8 26 29.5 41.5t44.5 15.5q24 0 37.5 -13.5t13.5 -34.5q0 -18 -7 -39l-121 -370q-17 -53 -89 -53h-48q-54 0 -67 47l-42 155h-4l-103 -155q-30 -47 -86 -47h-49q-32 0 -49.5 14t-17.5 36q0 8 1 24l20 349q2 35 22 61t56 26
q21 0 36.5 -14t15.5 -38q0 -6 -1 -20l-28 -318h7l128 189q31 46 78 46zM271 617q0 36 28 64.5t66 28.5q28 0 46 -18.5t18 -45.5q0 -36 -29 -64t-65 -28q-28 0 -46 18t-18 45zM500 617q0 36 28 64.5t66 28.5q28 0 46 -18.5t18 -45.5q0 -36 -29 -64t-65 -28q-28 0 -46 18
t-18 45z" />
    <glyph glyph-name="Ygrave" unicode="&#x1ef2;" horiz-adv-x="669" 
d="M422 288l-45 -233q-5 -27 -26.5 -46t-51.5 -19q-24 0 -40 15t-16 38q0 6 2 16l46 230l-173 313q-8 16 -8 33q0 31 19.5 53t51.5 22q34 0 50 -29l145 -271l248 273q26 27 61 27q23 0 39.5 -14.5t16.5 -37.5q0 -28 -23 -53zM422 766l-80 88q-12 12 -12 32q0 29 20.5 49
t47.5 20q22 0 37 -16l80 -88q11 -13 11 -31q0 -29 -19.5 -49t-48.5 -20q-22 0 -36 15z" />
    <glyph glyph-name="ygrave" unicode="&#x1ef3;" horiz-adv-x="566" 
d="M598 411l-304 -531q-28 -48 -69 -74t-85 -26h-50q-25 0 -39 13.5t-14 36.5q0 28 20 47t49 19h38q23 0 36 21l60 101q-55 0 -67 50l-80 346q-3 15 -3 29q0 26 19 46.5t52 20.5q18 0 32.5 -11t18.5 -30l78 -363l202 362q24 42 72 42q22 0 36.5 -15t14.5 -37q0 -16 -17 -47z
M339 566l-80 88q-12 12 -12 32q0 29 20.5 49t47.5 20q22 0 37 -16l80 -88q11 -13 11 -31q0 -29 -19.5 -49t-48.5 -20q-23 0 -36 15z" />
    <glyph glyph-name="figuredash" unicode="&#x2012;" horiz-adv-x="525" 
d="M480 194h-404q-23 0 -37 14.5t-14 35.5q0 27 20.5 46.5t51.5 19.5h403q23 0 37 -15t14 -36q0 -27 -20.5 -46t-50.5 -19z" />
    <glyph glyph-name="endash" unicode="&#x2013;" horiz-adv-x="525" 
d="M480 194h-404q-23 0 -37 14.5t-14 35.5q0 27 20.5 46.5t51.5 19.5h403q23 0 37 -15t14 -36q0 -27 -20.5 -46t-50.5 -19z" />
    <glyph glyph-name="emdash" unicode="&#x2014;" horiz-adv-x="988" 
d="M939 194h-865q-23 0 -37 14.5t-14 35.5q0 27 20.5 46.5t51.5 19.5h864q23 0 37 -15t14 -36q0 -27 -20.5 -46t-50.5 -19z" />
    <glyph glyph-name="quoteleft" unicode="&#x2018;" horiz-adv-x="263" 
d="M234 484q0 -36 -29 -64.5t-66 -28.5q-27 0 -47.5 17.5t-20.5 61.5q0 103 62.5 171.5t113.5 68.5q18 0 29.5 -10.5t11.5 -27.5q0 -19 -14 -34.5t-31.5 -24.5t-34.5 -27t-22 -41q22 -5 35 -22t13 -39z" />
    <glyph glyph-name="quoteright" unicode="&#x2019;" horiz-adv-x="263" 
d="M135 617q0 36 29 64.5t66 28.5q27 0 47.5 -17.5t20.5 -61.5q0 -103 -62.5 -171.5t-113.5 -68.5q-18 0 -29.5 10.5t-11.5 27.5q0 19 14 34.5t31.5 24.5t34.5 27t22 41q-22 5 -35 22t-13 39z" />
    <glyph glyph-name="quotesinglbase" unicode="&#x201a;" horiz-adv-x="293" 
d="M80 53q0 36 29 64.5t66 28.5q27 0 47.5 -17.5t20.5 -61.5q0 -103 -62.5 -171.5t-113.5 -68.5q-18 0 -29.5 10.5t-11.5 27.5q0 19 14 34.5t31.5 24.5t34.5 27t22 41q-22 5 -35 22t-13 39z" />
    <glyph glyph-name="quotedblleft" unicode="&#x201c;" horiz-adv-x="518" 
d="M489 484q0 -36 -29 -64.5t-66 -28.5q-27 0 -47.5 17.5t-20.5 61.5q0 103 62.5 171.5t113.5 68.5q18 0 29.5 -10.5t11.5 -27.5q0 -19 -14 -34.5t-31.5 -24.5t-34.5 -27t-22 -41q22 -5 35 -22t13 -39zM264 484q0 -36 -29 -64.5t-66 -28.5q-27 0 -47.5 17.5t-20.5 61.5
q0 103 62.5 171.5t113.5 68.5q18 0 29.5 -10.5t11.5 -27.5q0 -19 -14 -34.5t-31.5 -24.5t-34.5 -27t-22 -41q22 -5 35 -22t13 -39z" />
    <glyph glyph-name="quotedblright" unicode="&#x201d;" horiz-adv-x="488" 
d="M135 617q0 36 29 64.5t66 28.5q27 0 47.5 -17.5t20.5 -61.5q0 -103 -62.5 -171.5t-113.5 -68.5q-18 0 -29.5 10.5t-11.5 27.5q0 19 14 34.5t31.5 24.5t34.5 27t22 41q-22 5 -35 22t-13 39zM360 617q0 36 29 64.5t66 28.5q27 0 47.5 -17.5t20.5 -61.5q0 -103 -62.5 -171.5
t-113.5 -68.5q-18 0 -29.5 10.5t-11.5 27.5q0 19 14 34.5t31.5 24.5t34.5 27t22 41q-22 5 -35 22t-13 39z" />
    <glyph glyph-name="quotedblbase" unicode="&#x201e;" horiz-adv-x="518" 
d="M80 53q0 36 29 64.5t66 28.5q27 0 47.5 -17.5t20.5 -61.5q0 -103 -62.5 -171.5t-113.5 -68.5q-18 0 -29.5 10.5t-11.5 27.5q0 19 14 34.5t31.5 24.5t34.5 27t22 41q-22 5 -35 22t-13 39zM305 53q0 36 29 64.5t66 28.5q27 0 47.5 -17.5t20.5 -61.5q0 -103 -62.5 -171.5
t-113.5 -68.5q-18 0 -29.5 10.5t-11.5 27.5q0 19 14 34.5t31.5 24.5t34.5 27t22 41q-22 5 -35 22t-13 39z" />
    <glyph glyph-name="dagger" unicode="&#x2020;" horiz-adv-x="616" 
d="M538 334h-126l-97 -502q-5 -26 -26.5 -44t-49.5 -18q-22 0 -36.5 14.5t-14.5 35.5q0 3 3 21l95 493h-125q-22 0 -36 14.5t-14 35.5q0 27 21 46.5t52 19.5h125l38 197q5 26 26 44.5t49 18.5q22 0 37 -15t15 -36q0 -7 -2 -17l-37 -192h125q22 0 35.5 -14.5t13.5 -35.5
q0 -28 -20.5 -47t-50.5 -19z" />
    <glyph glyph-name="daggerdbl" unicode="&#x2021;" horiz-adv-x="616" 
d="M123 146h126l36 188h-124q-22 0 -36 14.5t-14 35.5q0 27 21 46.5t52 19.5h125l38 197q5 26 26 44.5t49 18.5q22 0 37 -15t15 -36q0 -7 -2 -17l-37 -192h125q22 0 35.5 -14.5t13.5 -35.5q0 -28 -20.5 -47t-50.5 -19h-126l-37 -188h125q22 0 36 -14.5t14 -35.5
q0 -27 -21 -46.5t-52 -19.5h-125l-38 -197q-5 -26 -26 -44.5t-49 -18.5q-22 0 -37 15t-15 36q0 7 2 17l37 192h-125q-22 0 -35.5 14.5t-13.5 35.5q0 28 20.5 47t50.5 19z" />
    <glyph glyph-name="bullet" unicode="&#x2022;" horiz-adv-x="496" 
d="M467 333q0 -74 -52.5 -126.5t-126.5 -52.5q-75 0 -126 52t-51 127q0 72 51 124.5t126 52.5q73 0 126 -52.5t53 -124.5z" />
    </font>
</defs>
</svg>
