<?xml version="1.0" standalone="no"?>
<!DOCTYPE svg PUBLIC "-//W3C//DTD SVG 1.1//EN" "http://www.w3.org/Graphics/SVG/1.1/DTD/svg11.dtd" >
<svg xmlns="http://www.w3.org/2000/svg" xmlns:xlink="http://www.w3.org/1999/xlink" version="1.1">
<metadata>
Created by FontForge 20161013 at Wed Jul 10 00:26:53 2013
 By ,,,
Copyright (c) 2012 by Tipografiaramis. All rights reserved.
</metadata>
<defs>
<font id="UltimaPro-Italic" horiz-adv-x="600" >
  <font-face 
    font-family="Ultima Pro"
    font-weight="400"
    font-style="italic"
    font-stretch="normal"
    units-per-em="1000"
    panose-1="2 0 5 3 0 0 0 2 0 4"
    ascent="750"
    descent="-250"
    x-height="500"
    cap-height="700"
    bbox="-131 -281 1391 949"
    underline-thickness="50"
    underline-position="-200"
    unicode-range="U+0020-FB14"
  />
<missing-glyph horiz-adv-x="250" 
 />
    <glyph glyph-name="fi" unicode="fi" horiz-adv-x="582" 
d="M142 415h-41q-15 0 -24.5 10t-9.5 25q0 21 15 35.5t36 14.5h41l23 119q10 54 52 92.5t98 38.5h57q15 0 25 -10.5t10 -25.5q0 -20 -15.5 -34.5t-35.5 -14.5h-41q-20 0 -35.5 -14t-19.5 -33l-23 -118h256q17 0 29.5 -11.5t12.5 -27.5q0 -5 -2 -19l-64 -328q-2 -8 -2 -15
q0 -24 24 -24q16 0 26 -10t10 -25q0 -22 -18.5 -36t-43.5 -14q-45 0 -70.5 23.5t-25.5 61.5q0 17 4 39l58 301h-211l-116 -597q-4 -20 -19 -34t-36 -14q-18 0 -29 11.5t-11 27.5q0 8 2 18zM476 635q0 28 22.5 51.5t53.5 23.5q23 0 37.5 -14.5t14.5 -36.5q0 -30 -23.5 -52.5
t-52.5 -22.5q-22 0 -37 14.5t-15 36.5z" />
    <glyph glyph-name="fl" unicode="fl" horiz-adv-x="578" 
d="M142 415h-41q-15 0 -24.5 10t-9.5 25q0 21 15 35.5t36 14.5h41l23 119q10 54 52 92.5t98 38.5h226q17 0 29.5 -11.5t12.5 -27.5q0 -5 -2 -19l-112 -578q-2 -8 -2 -15q0 -24 24 -24q16 0 26 -10t10 -25q0 -22 -18.5 -36t-43.5 -14q-45 0 -70.5 23.5t-25.5 61.5q0 17 4 39
l105 551h-163q-20 0 -35.5 -14t-19.5 -33l-23 -118h97q15 0 25 -10.5t10 -25.5q0 -20 -16 -34.5t-36 -14.5h-97l-116 -597q-4 -20 -19 -34t-36 -14q-18 0 -29 11.5t-11 27.5q0 8 2 18z" />
    <glyph glyph-name="f_f" unicode="ff" horiz-adv-x="694" 
d="M32 -173l114 588h-41q-15 0 -24.5 10t-9.5 25q0 21 15 35.5t36 14.5h41l22 112q12 62 53.5 100t97.5 38h53q18 0 28.5 -10t10.5 -26q0 -20 -15.5 -34.5t-35.5 -14.5h-41q-20 0 -35.5 -14t-19.5 -33l-23 -118h97q15 0 25 -10.5t10 -25.5q0 -20 -16 -34.5t-36 -14.5h-97
l-116 -597q-4 -20 -19 -34t-36 -14q-18 0 -29 11.5t-11 27.5q0 8 2 18zM379 -173l114 588h-41q-15 0 -24.5 10t-9.5 25q0 21 15 35.5t36 14.5h41l22 112q12 62 53.5 100t97.5 38h53q18 0 28.5 -10t10.5 -26q0 -20 -15.5 -34.5t-35.5 -14.5h-41q-20 0 -35.5 -14t-19.5 -33
l-23 -118h97q15 0 25 -10.5t10 -25.5q0 -20 -16 -34.5t-36 -14.5h-97l-116 -597q-4 -20 -19 -34t-36 -14q-18 0 -29 11.5t-11 27.5q0 8 2 18z" />
    <glyph glyph-name="f_f_i" unicode="ffi" horiz-adv-x="970" 
d="M32 -173l114 588h-41q-15 0 -24.5 10t-9.5 25q0 21 15 35.5t36 14.5h41l22 112q12 62 53.5 100t97.5 38h53q18 0 28.5 -10t10.5 -26q0 -20 -15.5 -34.5t-35.5 -14.5h-41q-20 0 -35.5 -14t-19.5 -33l-23 -118h97q15 0 25 -10.5t10 -25.5q0 -20 -16 -34.5t-36 -14.5h-97
l-116 -597q-4 -20 -19 -34t-36 -14q-18 0 -29 11.5t-11 27.5q0 8 2 18zM379 -173l114 588h-41q-15 0 -24.5 10t-9.5 25q0 21 15 35.5t36 14.5h41l22 112q12 62 53.5 100t97.5 38h53q18 0 28.5 -10t10.5 -26q0 -20 -15.5 -34.5t-35.5 -14.5h-41q-20 0 -35.5 -14t-19.5 -33
l-23 -118h97q15 0 25 -10.5t10 -25.5q0 -20 -16 -34.5t-36 -14.5h-97l-116 -597q-4 -20 -19 -34t-36 -14q-18 0 -29 11.5t-11 27.5q0 8 2 18zM854 635q0 28 22.5 51.5t53.5 23.5q23 0 37.5 -14.5t14.5 -36.5q0 -30 -23.5 -52.5t-52.5 -22.5q-22 0 -37 14.5t-15 36.5z
M930 452l-66 -338q-2 -8 -2 -15q0 -24 24 -24q16 0 26 -10t10 -25q0 -22 -18.5 -36t-43.5 -14q-45 0 -70.5 23.5t-25.5 61.5q0 17 4 39l67 349q4 21 19 34t36 13q17 0 29.5 -11.5t12.5 -27.5q0 -5 -2 -19z" />
    <glyph glyph-name="f_f_l" unicode="ffl" horiz-adv-x="970" 
d="M32 -173l114 588h-41q-15 0 -24.5 10t-9.5 25q0 21 15 35.5t36 14.5h41l22 112q12 62 53.5 100t97.5 38h53q18 0 28.5 -10t10.5 -26q0 -20 -15.5 -34.5t-35.5 -14.5h-41q-20 0 -35.5 -14t-19.5 -33l-23 -118h97q15 0 25 -10.5t10 -25.5q0 -20 -16 -34.5t-36 -14.5h-97
l-116 -597q-4 -20 -19 -34t-36 -14q-18 0 -29 11.5t-11 27.5q0 8 2 18zM379 -173l114 588h-41q-15 0 -24.5 10t-9.5 25q0 21 15 35.5t36 14.5h41l22 112q12 62 53.5 100t97.5 38h53q18 0 28.5 -10t10.5 -26q0 -20 -15.5 -34.5t-35.5 -14.5h-41q-20 0 -35.5 -14t-19.5 -33
l-23 -118h97q15 0 25 -10.5t10 -25.5q0 -20 -16 -34.5t-36 -14.5h-97l-116 -597q-4 -20 -19 -34t-36 -14q-18 0 -29 11.5t-11 27.5q0 8 2 18zM976 692l-112 -578q-2 -8 -2 -15q0 -24 24 -24q16 0 26 -10t10 -25q0 -22 -18.5 -36t-43.5 -14q-45 0 -70.5 23.5t-25.5 61.5
q0 17 4 39l113 589q4 21 19 34t36 13q17 0 29.5 -11.5t12.5 -27.5q0 -5 -2 -19z" />
    <glyph glyph-name=".notdef" horiz-adv-x="250" 
 />
    <glyph glyph-name=".null" horiz-adv-x="0" 
 />
    <glyph glyph-name="nonmarkingreturn" horiz-adv-x="333" 
 />
    <glyph glyph-name="space" unicode=" " horiz-adv-x="250" 
 />
    <glyph glyph-name="exclam" unicode="!" horiz-adv-x="286" 
d="M55 41q0 28 22.5 51.5t53.5 23.5q23 0 37.5 -14.5t14.5 -36.5q0 -30 -23.5 -52.5t-52.5 -22.5q-23 0 -37.5 14.5t-14.5 36.5zM283 653l-79 -406q-4 -20 -19.5 -33.5t-34.5 -13.5q-18 0 -30 11t-12 27q0 7 2 19l79 406q4 20 19 33.5t34 13.5q18 0 30.5 -11t12.5 -27
q0 -7 -2 -19z" />
    <glyph glyph-name="quotedbl" unicode="&#x22;" horiz-adv-x="497" 
d="M277 710q17 0 29 -11.5t12 -28.5q0 -18 -13 -34l-129 -167q-19 -24 -47 -24q-18 0 -29.5 11.5t-11.5 27.5q0 19 12 34l129 167q19 25 48 25zM479 710q17 0 29 -11.5t12 -28.5q0 -18 -13 -34l-129 -167q-19 -24 -47 -24q-18 0 -29.5 11.5t-11.5 27.5q0 19 12 34l129 167
q19 25 48 25z" />
    <glyph glyph-name="numbersign" unicode="#" 
d="M290 405l-45 -138h129l45 138h-129zM580 627l-47 -135h62q15 0 25 -10.5t10 -24.5q0 -20 -15.5 -36t-36.5 -16h-72l-46 -138h62q15 0 25.5 -11t10.5 -26q0 -19 -16.5 -34.5t-36.5 -15.5h-74l-49 -150q-6 -17 -19.5 -28.5t-30.5 -11.5q-16 0 -26 11t-10 25q0 10 6 28
l43 126h-129l-50 -150q-6 -17 -19.5 -28.5t-30.5 -11.5q-16 0 -26 11t-10 25q0 10 6 28l42 126h-60q-15 0 -24.5 9.5t-9.5 24.5q0 19 15.5 36t35.5 17h70l46 138h-60q-16 0 -25.5 9.5t-9.5 25.5q0 20 15.5 36t36.5 16h73l51 159q6 17 19.5 28.5t30.5 11.5q16 0 26 -11
t10 -25q0 -10 -6 -28l-43 -135h128l53 159q6 17 19.5 28.5t30.5 11.5q16 0 26 -11t10 -25q0 -10 -6 -28z" />
    <glyph glyph-name="dollar" unicode="$" 
d="M217 0h-141q-18 0 -30 9.5t-12 24.5q0 23 17.5 37t40.5 14h206q63 0 104 33.5t41 87.5q0 40 -33 65t-80 39.5t-94 31.5t-80 52t-33 90q0 94 63 155t170 61l13 68q4 18 17.5 30t31.5 12q14 0 24.5 -10t10.5 -24q0 -9 -2 -17l-11 -59h114q18 0 29.5 -9.5t11.5 -24.5
q0 -22 -17.5 -36.5t-40.5 -14.5h-209q-50 0 -81.5 -34.5t-31.5 -72.5t33.5 -63t81.5 -40.5t96.5 -33.5t82 -55t33.5 -92q0 -95 -68.5 -159.5t-172.5 -64.5l-13 -68q-4 -18 -17.5 -30t-31.5 -12q-14 0 -24.5 10t-10.5 24q0 9 2 17z" />
    <glyph glyph-name="percent" unicode="%" horiz-adv-x="800" 
d="M138 44l529 646q15 20 39 20q13 0 22 -9t9 -22q0 -10 -10 -23l-528 -645q-18 -21 -39 -21q-13 0 -22 9t-9 21q0 10 9 24zM423 115q0 69 57 125.5t130 56.5q55 0 90.5 -35t35.5 -89q0 -72 -57 -127.5t-128 -55.5q-56 0 -92 35.5t-36 89.5zM596 226q-37 0 -68.5 -29
t-31.5 -69q0 -29 19 -48t49 -19q39 0 69 29.5t30 68.5q0 29 -19 48t-48 19zM131 528q0 70 56 126.5t130 56.5q56 0 91.5 -35t35.5 -89q0 -72 -58 -127t-129 -55q-55 0 -90.5 35t-35.5 88zM303 641q-38 0 -69 -30t-31 -69q0 -29 19 -48t49 -19q39 0 69.5 30t30.5 69
q0 29 -19 48t-49 19z" />
    <glyph glyph-name="ampersand" unicode="&#x26;" horiz-adv-x="656" 
d="M555 220h-17q-26 -100 -100.5 -165t-174.5 -65q-95 0 -152 56.5t-57 141.5q0 38 14.5 74.5t34.5 61t40.5 43.5t34.5 28l15 9q-35 39 -35 109q0 78 67 137.5t162 59.5q63 0 117.5 -30.5t54.5 -68.5q0 -22 -17 -37.5t-38 -15.5q-14 0 -26 10.5t-21 23.5t-29.5 23.5
t-49.5 10.5q-50 0 -87.5 -31.5t-37.5 -80.5q0 -30 18 -51.5t46 -23.5q36 -4 36 -37q0 -18 -17 -31t-40 -14q-53 -2 -99.5 -49.5t-46.5 -110.5q0 -50 33.5 -86t93.5 -36q62 0 108.5 43.5t57.5 101.5h-42q-35 0 -35 39q0 18 16.5 31.5t35.5 13.5h140q42 0 42 34q0 5 -1 11
t-1 9q0 14 9.5 23.5t25.5 9.5q24 0 36.5 -18.5t12.5 -44.5q0 -47 -36.5 -77.5t-90.5 -30.5z" />
    <glyph glyph-name="quotesingle" unicode="'" horiz-adv-x="295" 
d="M277 710q17 0 29 -11.5t12 -28.5q0 -18 -13 -34l-129 -167q-19 -24 -47 -24q-18 0 -29.5 11.5t-11.5 27.5q0 19 12 34l129 167q19 25 48 25z" />
    <glyph glyph-name="parenleft" unicode="(" horiz-adv-x="341" 
d="M244 -98q0 -22 -17 -38.5t-40 -16.5q-27 0 -40 29q-54 131 -54 268q0 297 214 567q21 25 47 25q18 0 30.5 -12t12.5 -29q0 -18 -11 -32q-89 -124 -140 -242.5t-51 -245.5q0 -132 45 -250q4 -10 4 -23z" />
    <glyph glyph-name="parenright" unicode=")" horiz-adv-x="341" 
d="M152 681q0 22 17 38.5t40 16.5q27 0 40 -29q54 -131 54 -268q0 -297 -214 -567q-21 -25 -47 -25q-18 0 -30.5 12t-12.5 29q0 18 11 32q89 124 140 242.5t51 245.5q0 132 -45 250q-4 10 -4 23z" />
    <glyph glyph-name="asterisk" unicode="*" horiz-adv-x="472" 
d="M436 611q15 0 25 -9.5t10 -23.5q0 -34 -37 -46l-87 -27l35 -66q6 -12 6 -27q0 -18 -12.5 -30.5t-30.5 -12.5q-21 0 -33 21l-37 67l-65 -70q-16 -18 -39 -18q-15 0 -24.5 9t-9.5 22q0 19 14 35l64 72l-74 27q-22 8 -22 33q0 19 14.5 31.5t32.5 12.5q6 0 18 -3l68 -25
l17 87q4 18 17.5 29t32.5 11q14 0 25.5 -9t11.5 -23q0 -2 -2 -16l-16 -79l75 24q16 4 23 4z" />
    <glyph glyph-name="plus" unicode="+" horiz-adv-x="589" 
d="M506 212h-153l-29 -150q-4 -18 -17 -29.5t-30 -11.5q-16 0 -27 11t-11 26q0 1 0.5 3t0.5 3l29 148h-149q-15 0 -25.5 10t-10.5 24q0 20 14.5 34t35.5 14h151l29 148q4 19 17.5 30t30.5 11q15 0 25.5 -10t10.5 -25q0 -1 -0.5 -3.5t-0.5 -3.5l-28 -147h151q14 0 24.5 -10.5
t10.5 -24.5q0 -20 -14.5 -33.5t-34.5 -13.5z" />
    <glyph glyph-name="comma" unicode="," horiz-adv-x="258" 
d="M78 46q0 26 20.5 46.5t48.5 20.5q19 0 35 -13.5t16 -47.5q0 -74 -46.5 -125t-84.5 -51q-14 0 -22.5 7.5t-8.5 20.5q0 22 31 39q40 21 48 57q-37 6 -37 46z" />
    <glyph glyph-name="hyphen" unicode="-" horiz-adv-x="430" 
d="M346 211h-228q-16 0 -25.5 9.5t-9.5 24.5q0 19 15.5 33.5t35.5 14.5h228q14 0 23.5 -10t9.5 -24q0 -19 -15.5 -33.5t-33.5 -14.5z" />
    <glyph glyph-name="period" unicode="." horiz-adv-x="246" 
d="M64 40q0 28 22 52t54 24q23 0 37.5 -14.5t14.5 -37.5q0 -29 -24 -51.5t-53 -22.5q-23 0 -37 14t-14 36z" />
    <glyph glyph-name="slash" unicode="/" horiz-adv-x="327" 
d="M415 645l-355 -625q-17 -30 -50 -30q-16 0 -26.5 11t-10.5 27q0 12 6 24l353 626q18 32 52 32q17 0 27.5 -11.5t10.5 -27.5q0 -13 -7 -26z" />
    <glyph glyph-name="zero" unicode="0" 
d="M281 72q69 0 119 44t65 120l44 220q4 24 4 47q0 57 -32.5 91.5t-92.5 34.5q-69 0 -119.5 -44.5t-65.5 -120.5l-44 -220q-4 -24 -4 -47q0 -56 33 -90.5t93 -34.5zM270 -10q-92 0 -149.5 56.5t-57.5 145.5q0 25 5 55l41 211q23 118 100 185t189 67q92 0 149.5 -56.5
t57.5 -145.5q0 -25 -5 -55l-41 -211q-23 -118 -100 -185t-189 -67z" />
    <glyph glyph-name="one" unicode="1" 
d="M354 83h166q15 0 25 -10.5t10 -25.5q0 -21 -14.5 -34t-36.5 -13h-436q-15 0 -24.5 10t-9.5 25q0 21 14.5 34.5t36.5 13.5h176l105 535h-104q-15 0 -24.5 10t-9.5 25q0 21 14.5 34t36.5 13h150q16 0 26.5 -11t10.5 -28q0 -6 -2 -20z" />
    <glyph glyph-name="two" unicode="2" 
d="M173 84h304q18 0 28 -11t10 -26q0 -21 -14.5 -34t-36.5 -13h-361q-23 0 -36.5 13t-13.5 32q0 36 35 66l302 265q27 23 42 38t33.5 47t18.5 64q0 42 -28 73.5t-75 31.5q-54 0 -94.5 -36t-65.5 -88q-14 -28 -46 -28q-17 0 -25.5 11.5t-8.5 25.5q0 31 31 72q90 123 222 123
q84 0 132.5 -52.5t48.5 -125.5q0 -46 -22 -89.5t-43 -65.5t-54 -50z" />
    <glyph glyph-name="three" unicode="3" 
d="M391 710q83 0 130.5 -45.5t47.5 -109.5q0 -56 -35 -104.5t-93 -73.5q100 -37 100 -151q0 -90 -82 -163t-196 -73q-94 0 -151.5 51.5t-57.5 100.5q0 22 11 38.5t32 16.5q16 0 27.5 -9.5t14.5 -22.5q10 -39 42.5 -65.5t89.5 -26.5q67 0 119.5 43.5t52.5 109.5
q0 45 -35.5 72t-87.5 27q-17 0 -28.5 9t-11.5 25q0 19 15.5 33t36.5 14q50 0 95.5 40t45.5 96q0 39 -26.5 63t-69.5 24q-91 0 -140 -79q-17 -28 -45 -28q-17 0 -26 11t-9 25q0 39 67 95.5t167 56.5z" />
    <glyph glyph-name="four" unicode="4" 
d="M148 254h248l77 383zM356 47l24 124h-285q-26 0 -41.5 14t-15.5 34q0 28 25 58l339 396q23 27 43 27h84q17 0 28 -10t11 -25q0 -2 -3 -20l-76 -391h51q18 0 28 -10.5t10 -25.5q0 -21 -14.5 -34t-36.5 -13h-54l-26 -134q-4 -20 -18 -33.5t-33 -13.5q-18 0 -30 11t-12 27
q0 7 2 19z" />
    <glyph glyph-name="five" unicode="5" 
d="M248 74q81 0 136 54.5t55 128.5q0 58 -37.5 89t-83.5 31q-43 0 -85 -10.5t-54 -10.5q-17 0 -26.5 11t-9.5 24q0 7 9 38l69 223q6 21 21.5 34.5t34.5 13.5h268q39 0 39 -35q0 -21 -16 -35t-41 -14h-226l-53 -170q42 11 92 11q80 0 137.5 -50t57.5 -141q0 -110 -84.5 -193
t-213.5 -83q-108 0 -166 58q-17 17 -17 37q0 19 14 33.5t33 14.5q15 0 48 -24q46 -35 99 -35z" />
    <glyph glyph-name="six" unicode="6" 
d="M279 -10q-91 0 -151 56t-60 160q0 99 46 195.5t112.5 162t138.5 106t127 40.5q17 0 28 -9.5t11 -25.5q0 -20 -14 -34t-32 -18q-70 -17 -148 -75.5t-122 -143.5q31 27 75 40.5t82 13.5q86 0 138.5 -56.5t52.5 -140.5q0 -113 -87.5 -192t-196.5 -79zM348 377
q-74 0 -131.5 -51t-57.5 -127q0 -55 36 -91t93 -36q69 0 125 55.5t56 127.5q0 53 -34 87.5t-87 34.5z" />
    <glyph glyph-name="seven" unicode="7" 
d="M613 602l-382 -581q-21 -31 -51 -31q-18 0 -28 11t-10 27t11 32l368 557h-332q-17 0 -27 10t-10 26q0 19 15.5 33t38.5 14h382q20 0 33 -12.5t13 -30.5q0 -23 -21 -55z" />
    <glyph glyph-name="eight" unicode="8" 
d="M279 72q73 0 123 44t50 105q0 49 -35.5 77t-87.5 28q-64 0 -118.5 -41t-54.5 -109q0 -45 35 -74.5t88 -29.5zM396 710q89 0 137 -46.5t48 -114.5q0 -52 -30.5 -94.5t-60.5 -59.5l-30 -17q4 -2 10 -5.5t21 -16.5t27 -29t21.5 -43.5t9.5 -58.5q0 -96 -78 -165.5t-193 -69.5
q-102 0 -161 48.5t-59 126.5q0 41 16.5 78t40 60.5t47 41t40.5 25.5l16 8q-7 4 -18 12.5t-29 41t-18 73.5q0 73 67.5 139t175.5 66zM388 630q-62 0 -102.5 -37t-40.5 -94q0 -40 29 -65t71 -25q53 0 98.5 38.5t45.5 93.5q0 40 -28.5 64.5t-72.5 24.5z" />
    <glyph glyph-name="nine" unicode="9" 
d="M386 710q91 0 151 -56t60 -160q0 -99 -46 -195.5t-112.5 -162t-138.5 -106t-127 -40.5q-17 0 -28 9.5t-11 25.5q0 20 14 34t32 18q70 17 148 75.5t122 143.5q-31 -27 -75 -40.5t-82 -13.5q-86 0 -138.5 56.5t-52.5 140.5q0 113 87.5 192t196.5 79zM317 323q74 0 131.5 51
t57.5 127q0 55 -36 91t-93 36q-69 0 -125 -55.5t-56 -127.5q0 -53 34 -87.5t87 -34.5z" />
    <glyph glyph-name="colon" unicode=":" horiz-adv-x="246" 
d="M45 40q0 28 22 52t54 24q23 0 37.5 -14.5t14.5 -37.5q0 -29 -24 -51.5t-53 -22.5q-23 0 -37 14t-14 36zM121 435q0 28 22.5 51.5t53.5 23.5q23 0 37.5 -14.5t14.5 -36.5q0 -30 -23.5 -52.5t-52.5 -22.5q-23 0 -37.5 14.5t-14.5 36.5z" />
    <glyph glyph-name="semicolon" unicode=";" horiz-adv-x="258" 
d="M131 434q0 28 22 52t54 24q23 0 37.5 -14.5t14.5 -37.5q0 -29 -24 -51.5t-53 -22.5q-23 0 -37 14t-14 36zM59 46q0 26 20.5 46.5t48.5 20.5q19 0 35 -13.5t16 -47.5q0 -74 -46.5 -125t-84.5 -51q-14 0 -22.5 7.5t-8.5 19.5q0 23 31 40q41 22 48 57q-37 6 -37 46z" />
    <glyph glyph-name="less" unicode="&#x3c;" horiz-adv-x="587" 
d="M557 403l-357 -156l295 -155q18 -10 18 -32q0 -21 -17 -38t-37 -17q-12 0 -22 5l-334 194q-20 12 -20 36q0 16 10.5 32.5t26.5 23.5l413 195q8 4 21 4q15 0 26 -13t11 -29q0 -14 -9.5 -29t-24.5 -21z" />
    <glyph glyph-name="equal" unicode="=" horiz-adv-x="589" 
d="M525 316h-386q-15 0 -25.5 10t-10.5 24q0 20 14.5 34t35.5 14h386q14 0 24.5 -10.5t10.5 -24.5q0 -20 -14.5 -33.5t-34.5 -13.5zM485 103h-386q-15 0 -25.5 10t-10.5 24q0 20 14.5 34t35.5 14h386q14 0 24.5 -10.5t10.5 -24.5q0 -20 -14.5 -33.5t-34.5 -13.5z" />
    <glyph glyph-name="greater" unicode="&#x3e;" horiz-adv-x="587" 
d="M78 97l357 156l-295 155q-18 10 -18 32q0 21 17 38t37 17q12 0 22 -5l334 -194q20 -12 20 -36q0 -16 -10.5 -32.5t-26.5 -23.5l-413 -195q-8 -4 -21 -4q-15 0 -26 13t-11 29q0 14 9.5 29t24.5 21z" />
    <glyph glyph-name="question" unicode="?" horiz-adv-x="520" 
d="M360 710q76 0 124 -44t48 -106q0 -44 -20.5 -80.5t-51 -62t-61.5 -49t-56.5 -53.5t-32.5 -63q-4 -22 -22 -37.5t-40 -15.5q-18 0 -28.5 12t-10.5 32q0 8 1 13q7 37 33 71t57.5 60t62.5 51t51.5 53.5t20.5 57.5q0 33 -26 56t-63 23q-90 0 -135 -89q-16 -32 -48 -32
q-31 0 -31 35q0 8 1 11q10 51 74 104t153 53zM157 39q0 28 22 52t54 24q23 0 37.5 -14.5t14.5 -37.5q0 -28 -23.5 -51t-53.5 -23q-23 0 -37 14t-14 36z" />
    <glyph glyph-name="at" unicode="@" horiz-adv-x="975" 
d="M634 65h-36q-16 0 -28.5 11.5t-12.5 33.5q0 1 0.5 3.5t0.5 4.5q-69 -57 -143 -57q-58 0 -93.5 37.5t-35.5 97.5q0 99 86 188.5t191 89.5q76 0 93 -59q10 27 29 43t40 16q16 0 27 -10.5t11 -25.5q0 -6 -4 -19q0 -1 -21.5 -67.5t-43.5 -131.5l-22 -66q79 0 137.5 63.5
t58.5 162.5q0 105 -80 172t-190 67q-106 0 -204.5 -58t-160 -155.5t-61.5 -205.5q0 -126 77 -205.5t212 -79.5q110 0 228 77q22 14 40 14q39 0 39 -33q0 -31 -28 -52q-131 -98 -297 -98q-161 0 -263.5 103.5t-102.5 263.5q0 141 72.5 261t195.5 189.5t265 69.5
q156 0 253 -87.5t97 -232.5q0 -146 -97 -235.5t-229 -89.5zM548 387q-60 0 -112 -53.5t-52 -118.5q0 -66 77 -66q60 0 111.5 52t51.5 114q0 33 -20.5 52.5t-55.5 19.5z" />
    <glyph glyph-name="A" unicode="A" horiz-adv-x="707" 
d="M549 29l-28 163h-326l-89 -161q-24 -41 -60 -41q-17 0 -27.5 11.5t-10.5 27.5t13 40l332 594q20 37 58 37h87q39 0 46 -37l100 -594q2 -14 2 -24q0 -23 -14.5 -39t-37.5 -16q-17 0 -30 11t-15 28zM433 618l-190 -341h265l-57 341h-18z" />
    <glyph glyph-name="B" unicode="B" horiz-adv-x="652" 
d="M228 700h242q86 0 131 -41.5t45 -108.5q0 -36 -10 -67t-24 -50.5t-28 -33.5t-24 -20l-10 -6q3 -2 7 -5t15 -15t19.5 -26t15.5 -37.5t7 -50.5q0 -103 -69.5 -171t-205.5 -68h-248q-16 0 -27 11t-11 28q0 4 2 14l117 600q4 20 20.5 33.5t35.5 13.5zM451 615h-192l-41 -211
h192q58 0 99 34.5t41 93.5q0 38 -26.5 60.5t-72.5 22.5zM394 319h-193l-45 -234h193q73 0 120.5 40.5t47.5 105.5q0 88 -123 88z" />
    <glyph glyph-name="C" unicode="C" horiz-adv-x="672" 
d="M77 282q0 79 32 155.5t87 137t136 98t173 37.5q64 0 128 -24t64 -60q0 -21 -14 -34.5t-29 -13.5q-14 0 -36 13q-55 35 -124 35q-127 0 -223.5 -103.5t-96.5 -227.5q0 -94 58 -157.5t155 -63.5q82 0 162 52q14 10 33 10q14 0 24.5 -10t10.5 -26q0 -30 -31 -49
q-96 -61 -215 -61q-128 0 -211 84t-83 208z" />
    <glyph glyph-name="D" unicode="D" horiz-adv-x="700" 
d="M226 700h169q141 0 219 -76t78 -201q0 -111 -49.5 -206t-149.5 -156t-231 -61h-173q-16 0 -26 10t-10 26q0 7 1 10l119 608q4 20 19 33t34 13zM378 615h-119l-103 -530h119q148 0 236 99t88 225q0 95 -54 150.5t-167 55.5z" />
    <glyph glyph-name="E" unicode="E" horiz-adv-x="624" 
d="M156 86h355q17 0 27.5 -9.5t10.5 -24.5q0 -21 -16.5 -36.5t-38.5 -15.5h-402q-17 0 -27.5 10.5t-10.5 27.5q0 3 3 21l116 595q4 19 20 32.5t36 13.5h402q17 0 27 -9.5t10 -24.5q0 -21 -15.5 -36.5t-38.5 -15.5h-355l-41 -209h298q17 0 27 -9t10 -24q0 -21 -16.5 -37
t-37.5 -16h-298z" />
    <glyph glyph-name="F" unicode="F" horiz-adv-x="568" 
d="M54 49l118 605q4 20 20 33t36 13h377q17 0 27 -9.5t10 -24.5q0 -21 -16.5 -36.5t-37.5 -15.5h-330l-42 -216h270q16 0 26.5 -10t10.5 -24q0 -21 -16 -36.5t-37 -15.5h-270l-54 -273q-4 -21 -18 -35t-36 -14q-17 0 -28.5 11t-11.5 28q0 8 2 20z" />
    <glyph glyph-name="G" unicode="G" horiz-adv-x="744" 
d="M76 278q0 107 55 206t154.5 162.5t215.5 63.5q70 0 129 -24.5t90 -67.5q8 -9 8 -24q0 -17 -14 -32.5t-33 -15.5q-21 0 -43 22q-55 57 -149 57q-80 0 -153.5 -49t-117.5 -126t-44 -156q0 -93 57.5 -157t150.5 -64q103 0 188 62l31 160h-176q-18 0 -29 9.5t-11 25.5
q0 22 16.5 36.5t40.5 14.5h224q17 0 28.5 -11t11.5 -28q0 -1 -4 -23l-38 -195q-3 -15 -18 -30q-114 -104 -280 -104q-129 0 -209.5 81.5t-80.5 206.5z" />
    <glyph glyph-name="H" unicode="H" horiz-adv-x="765" 
d="M777 653l-119 -616q-4 -20 -19 -33.5t-34 -13.5q-18 0 -30 11t-12 27q0 7 2 19l52 272h-415l-54 -282q-4 -20 -19 -33.5t-34 -13.5q-18 0 -30 11t-12 27q0 7 2 19l119 616q4 20 19 33.5t34 13.5q18 0 30 -11t12 -27q0 -7 -2 -19l-48 -250h415l50 260q4 20 19 33.5
t34 13.5q18 0 30 -11t12 -27q0 -7 -2 -19z" />
    <glyph glyph-name="I" unicode="I" horiz-adv-x="275" 
d="M277 653l-119 -616q-4 -20 -19 -33.5t-34 -13.5q-18 0 -30 11t-12 27q0 7 2 19l119 616q4 20 19 33.5t34 13.5q18 0 30 -11t12 -27q0 -7 -2 -19z" />
    <glyph glyph-name="J" unicode="J" horiz-adv-x="670" 
d="M687 653l-68 -354q-27 -139 -113 -224t-218 -85q-105 0 -171 63t-66 154q0 102 62 102q17 0 27.5 -10.5t10.5 -27.5q0 -7 -2.5 -24t-2.5 -30q0 -62 41 -102t108 -40q84 0 146.5 63t81.5 161l71 364q4 20 19 33.5t34 13.5q18 0 30 -11t12 -27q0 -7 -2 -19z" />
    <glyph glyph-name="K" unicode="K" horiz-adv-x="652" 
d="M190 254l-42 -217q-4 -20 -19 -33.5t-34 -13.5q-18 0 -30 11t-12 27q0 7 2 19l119 616q4 20 19 33.5t34 13.5q18 0 30 -11t12 -27q0 -7 -2 -19l-53 -276l406 322q13 11 33 11q17 0 28 -11.5t11 -27.5q0 -25 -26 -45l-306 -239l225 -318q11 -14 11 -29q0 -22 -14 -36
t-37 -14q-22 0 -33 15l-228 324z" />
    <glyph glyph-name="L" unicode="L" horiz-adv-x="549" 
d="M56 58l118 604q4 20 19.5 34t34.5 14q18 0 30 -11t12 -27q0 -7 -2 -19l-110 -568h305q17 0 28.5 -10t11.5 -25q0 -22 -17.5 -36t-39.5 -14h-353q-17 0 -28.5 11t-11.5 28q0 1 3 19z" />
    <glyph glyph-name="M" unicode="M" horiz-adv-x="860" 
d="M660 47l103 533l-28 -33l-223 -217q-28 -28 -57 -28q-30 0 -47 28l-138 217l-17 34l-105 -544q-4 -20 -19 -33.5t-34 -13.5q-18 0 -30 11t-12 27q0 7 2 19l118 603q4 22 21 36t37 14h34q24 0 41 -27l166 -267l269 267q29 27 50 27h41q18 0 29 -11t11 -28q0 -6 -1 -11
l-118 -613q-4 -20 -19 -33.5t-34 -13.5q-18 0 -30 11t-12 27q0 7 2 19z" />
    <glyph glyph-name="N" unicode="N" horiz-adv-x="766" 
d="M777 653l-118 -604q-4 -19 -21 -34t-37 -15h-35q-32 0 -44 25l-255 516l-13 39l-106 -543q-4 -20 -19 -33.5t-34 -13.5q-18 0 -30 11t-12 27q0 7 2 19l118 604q4 19 21 34t38 15h34q32 0 44 -25l255 -516l13 -39l106 543q4 20 19 33.5t34 13.5q18 0 30 -11t12 -27
q0 -7 -2 -19z" />
    <glyph glyph-name="O" unicode="O" horiz-adv-x="813" 
d="M76 281q0 82 33 159.5t89.5 137t138.5 96t173 36.5q127 0 210 -83.5t83 -207.5q0 -114 -57.5 -213t-156.5 -157.5t-214 -58.5q-132 0 -215.5 83t-83.5 208zM494 626q-126 0 -224 -102t-98 -231q0 -95 58.5 -157t156.5 -62q124 0 222 102t98 230q0 95 -58 157.5t-155 62.5
z" />
    <glyph glyph-name="P" unicode="P" horiz-adv-x="614" 
d="M172 652q4 20 20 34t36 14h214q96 0 149 -53.5t53 -138.5q0 -111 -80 -190.5t-212 -79.5h-167l-38 -199q-4 -20 -19.5 -34.5t-36.5 -14.5q-17 0 -28 11t-11 27q0 6 2 18zM259 615l-57 -292h163q84 0 135 52.5t51 117.5q0 58 -32 90t-97 32h-163z" />
    <glyph glyph-name="Q" unicode="Q" horiz-adv-x="815" 
d="M359 -37q15 0 50 -14.5t110 -29.5t189 -15q15 0 25 -10.5t10 -26.5q0 -22 -18 -36t-44 -14q-200 0 -349 62q-27 10 -27 35q0 20 16.5 34.5t37.5 14.5zM76 281q0 107 58.5 206t159.5 161t216 62q128 0 210.5 -83.5t82.5 -207.5q0 -112 -60 -211.5t-160 -158.5t-212 -59
q-130 0 -212.5 83t-82.5 208zM494 626q-126 0 -224 -102t-98 -231q0 -95 58.5 -157t156.5 -62q124 0 222.5 102t98.5 230q0 95 -58.5 157.5t-155.5 62.5z" />
    <glyph glyph-name="R" unicode="R" horiz-adv-x="653" 
d="M260 615l-54 -277h188q63 0 114.5 47.5t51.5 113.5q0 49 -32 82.5t-80 33.5h-188zM55 47l117 605q4 20 21.5 34t36.5 14h234q84 0 137.5 -51.5t53.5 -132.5q0 -84 -55 -157t-146 -100l103 -185q8 -12 8 -29q0 -21 -15.5 -38t-39.5 -17q-28 0 -40 23l-130 240h-151
l-41 -216q-4 -20 -19 -33.5t-34 -13.5q-18 0 -30 11t-12 27q0 7 2 19z" />
    <glyph glyph-name="S" unicode="S" horiz-adv-x="604" 
d="M282 74q74 0 128.5 39.5t54.5 87.5q0 39 -35 64.5t-85 41.5t-100 35t-85 57.5t-35 95.5q0 93 79.5 154t192.5 61q96 0 151 -42.5t55 -82.5q0 -18 -10.5 -33t-32.5 -15q-26 0 -54 38q-39 54 -119 54q-71 0 -118 -38t-47 -81q0 -31 25.5 -54t63.5 -35.5t82 -29.5t82 -35.5
t63.5 -55t25.5 -85.5q0 -98 -85.5 -161.5t-206.5 -63.5q-105 0 -165.5 49t-60.5 90q0 21 14 36.5t33 15.5q16 0 29 -11t24.5 -26.5t26.5 -31.5t43 -27t66 -11z" />
    <glyph glyph-name="T" unicode="T" horiz-adv-x="571" 
d="M616 700q17 0 28.5 -9.5t11.5 -25.5q0 -23 -17.5 -37t-41.5 -14h-179l-111 -575q-4 -21 -19 -35t-37 -14q-17 0 -28.5 11t-11.5 28q0 8 2 20l109 565h-178q-17 0 -29 10.5t-12 26.5q0 22 17.5 35.5t41.5 13.5h454z" />
    <glyph glyph-name="U" unicode="U" horiz-adv-x="775" 
d="M782 653l-67 -348q-28 -146 -128.5 -230.5t-227.5 -84.5q-116 0 -190.5 68.5t-74.5 181.5q0 36 10 86l66 338q4 20 19 33t34 13q18 0 30 -11t12 -27q0 -4 -3 -19l-66 -337q-8 -38 -8 -71q0 -82 50.5 -125.5t123.5 -43.5q92 0 164.5 61.5t93.5 169.5l69 356q4 20 19 33.5
t34 13.5q18 0 30 -11t12 -27q0 -7 -2 -19z" />
    <glyph glyph-name="V" unicode="V" horiz-adv-x="704" 
d="M235 37l-100 594q-2 14 -2 24q0 23 14.5 39t37.5 16q17 0 29.5 -11t15.5 -28l98 -589h10l325 588q22 40 57 40q17 0 28.5 -11t11.5 -27q0 -17 -13 -41l-328 -592q-9 -16 -24.5 -27.5t-29.5 -11.5h-89q-17 0 -28 10.5t-13 26.5z" />
    <glyph glyph-name="W" unicode="W" horiz-adv-x="860" 
d="M881 653l-156 -603q-6 -22 -22 -36t-37 -14h-32q-26 0 -40 27l-139 264l-241 -264q-24 -27 -51 -27h-40q-18 0 -28.5 11.5t-10.5 29.5q0 1 0.5 4t0.5 5l78 610q3 23 19 36.5t39 13.5q18 0 28.5 -11t10.5 -29q0 -2 -0.5 -5t-0.5 -5l-72 -542l224 249q28 31 61 31
q34 0 49 -31l127 -251l139 544q5 22 21 36t36 14q18 0 29 -11t11 -28q0 -7 -3 -18z" />
    <glyph glyph-name="X" unicode="X" horiz-adv-x="711" 
d="M633 67q8 -11 8 -25q0 -22 -16 -37t-39 -15q-19 0 -34 22l-174 282l-287 -286q-18 -18 -41 -18q-17 0 -28 11t-11 27q0 22 19 40l303 299l-164 260q-12 19 -12 32q0 19 15.5 35t37.5 16q23 0 36 -21l156 -253l256 256q18 18 41 18q17 0 28 -12t11 -28q0 -21 -18 -39
l-271 -269z" />
    <glyph glyph-name="Y" unicode="Y" horiz-adv-x="653" 
d="M254 49l47 244l-179 335q-9 16 -9 30q0 22 14.5 37t38.5 15q25 0 36 -20l162 -305l283 307q18 18 40 18q18 0 29 -10q12 -12 12 -28q0 -20 -18 -40l-312 -335l-50 -258q-4 -21 -19 -35t-37 -14q-17 0 -28.5 11t-11.5 28q0 8 2 20z" />
    <glyph glyph-name="Z" unicode="Z" horiz-adv-x="673" 
d="M572 614h-379q-18 0 -28 10t-10 25q0 21 16.5 36t38.5 15h448q19 0 31.5 -13.5t12.5 -31.5q0 -30 -22 -52l-523 -517h403q17 0 27.5 -9.5t10.5 -24.5q0 -21 -16.5 -36.5t-38.5 -15.5h-473q-19 0 -31.5 12t-12.5 32q0 30 24 54z" />
    <glyph glyph-name="bracketleft" unicode="[" horiz-adv-x="361" 
d="M43 -90l150 769q4 21 20.5 34.5t35.5 13.5h138q17 0 28 -10.5t11 -26.5q0 -22 -17.5 -36.5t-38.5 -14.5h-90l-135 -694h90q17 0 28 -10t11 -26q0 -22 -17.5 -37t-38.5 -15h-138q-17 0 -27.5 11.5t-10.5 28.5q0 7 1 13z" />
    <glyph glyph-name="backslash" unicode="\" horiz-adv-x="327" 
d="M205 20l-111 625q0 1 -0.5 5t-0.5 6q0 21 17.5 37.5t38.5 16.5q16 0 27 -9t13 -23l112 -626q0 -1 0.5 -3.5t0.5 -3.5q0 -21 -17.5 -38t-39.5 -17q-35 0 -40 30z" />
    <glyph glyph-name="bracketright" unicode="]" horiz-adv-x="361" 
d="M373 674l-150 -769q-4 -21 -20.5 -34.5t-35.5 -13.5h-138q-17 0 -28 10.5t-11 26.5q0 22 17.5 36.5t38.5 14.5h90l135 694h-90q-17 0 -28 10t-11 26q0 22 17.5 37t38.5 15h138q17 0 27.5 -11.5t10.5 -28.5q0 -7 -1 -13z" />
    <glyph glyph-name="asciicircum" unicode="^" horiz-adv-x="534" 
d="M420 330l-87 255l-186 -253q-18 -24 -42 -24q-16 0 -27.5 10t-11.5 23q0 11 9 25l234 320q18 24 46 24q29 0 37 -24l107 -319q3 -6 3 -15q0 -16 -16 -30t-33 -14q-26 0 -33 22z" />
    <glyph glyph-name="underscore" unicode="_" horiz-adv-x="523" 
d="M-3 -75h522q13 0 21 -7.5t8 -20.5q0 -16 -13 -29t-30 -13h-522q-29 0 -29 27q0 18 12 30.5t31 12.5z" />
    <glyph glyph-name="grave" unicode="`" horiz-adv-x="185" 
d="M160 578l-82 92q-8 8 -8 22q0 18 15 33t34 15q15 0 25 -11l83 -93q9 -9 9 -23q0 -20 -15 -34t-35 -14q-15 0 -26 13z" />
    <glyph glyph-name="a" unicode="a" horiz-adv-x="627" 
d="M485 246q6 32 6 49q0 58 -36.5 96t-97.5 38q-83 0 -145.5 -64t-62.5 -152q0 -63 37 -102t102 -39q73 0 128 50t69 124zM440 47l3 17q-7 -8 -21 -20.5t-60 -33t-96 -20.5q-87 0 -147 61t-60 156q0 128 92 215.5t211 87.5q30 0 56.5 -7.5t43.5 -18.5t29.5 -22t18.5 -18
l5 -8l5 26q4 21 19 34.5t36 13.5q17 0 29.5 -11.5t12.5 -27.5q0 -5 -2 -19l-81 -415q-4 -21 -19 -34.5t-36 -13.5q-17 0 -29.5 11.5t-12.5 27.5q0 3 0.5 6t1.5 6.5t1 6.5z" />
    <glyph glyph-name="b" unicode="b" horiz-adv-x="637" 
d="M194 253q-6 -32 -6 -49q0 -58 36.5 -96t97.5 -38q83 0 145.5 64t62.5 152q0 64 -37 103t-102 39q-73 0 -128 -50.5t-69 -124.5zM286 692l-50 -257l8 8t22 18t36 23t49 18t62 8q87 0 147 -61.5t60 -156.5q0 -125 -89 -213.5t-210 -88.5q-31 0 -58.5 7.5t-44.5 18t-30 21.5
t-18 19l-6 7l-5 -26q-4 -21 -19 -34t-36 -13q-17 0 -29.5 11t-12.5 27q0 5 2 19l128 655q4 21 19 34.5t36 13.5q17 0 29.5 -11.5t12.5 -27.5q0 -3 -1.5 -10t-1.5 -9z" />
    <glyph glyph-name="c" unicode="c" horiz-adv-x="503" 
d="M363 429q-83 0 -146.5 -65t-63.5 -147q0 -62 39 -103.5t103 -41.5q40 0 78.5 18t46.5 18q16 0 26 -10.5t10 -26.5q0 -27 -33 -47q-57 -34 -139 -34q-99 0 -159.5 60t-60.5 158q0 123 90 212.5t223 89.5q80 0 124 -28q21 -13 21 -33q0 -19 -17 -34.5t-36 -15.5
q-12 0 -32 11q-32 19 -74 19z" />
    <glyph glyph-name="d" unicode="d" horiz-adv-x="627" 
d="M491 246q6 32 6 49q0 58 -36.5 96t-97.5 38q-83 0 -145.5 -64t-62.5 -152q0 -63 37 -102t102 -39q73 0 128 50t69 124zM446 47l3 17q-7 -8 -21 -20.5t-60 -33t-96 -20.5q-87 0 -147 61t-60 156q0 128 92 215.5t211 87.5q30 0 56.5 -7.5t43.5 -18.5t29.5 -22t18.5 -18
l5 -8l51 266q4 21 19 34.5t36 13.5q17 0 29.5 -11.5t12.5 -27.5q0 -5 -2 -19l-127 -655q-4 -21 -19 -34.5t-36 -13.5q-17 0 -29.5 11.5t-12.5 27.5q0 3 0.5 6t1.5 6.5t1 6.5z" />
    <glyph glyph-name="e" unicode="e" horiz-adv-x="585" 
d="M510 211h-356q0 -59 40.5 -99t103.5 -40q57 0 129 35q16 8 29 8q16 0 25 -9.5t9 -23.5q0 -32 -30 -46q-84 -46 -178 -46q-99 0 -158.5 60t-59.5 158q0 123 89.5 212.5t220.5 89.5q94 0 149.5 -59t55.5 -138q0 -40 -16.5 -71t-52.5 -31zM363 430q-63 0 -119.5 -41
t-74.5 -101h326v11q0 58 -36 94.5t-96 36.5z" />
    <glyph glyph-name="f" unicode="f" horiz-adv-x="347" 
d="M32 -173l114 588h-41q-15 0 -24.5 10t-9.5 25q0 21 15 35.5t36 14.5h41l22 112q12 62 53.5 100t97.5 38h53q18 0 28.5 -10t10.5 -26q0 -20 -15.5 -34.5t-35.5 -14.5h-41q-20 0 -35.5 -14t-19.5 -33l-23 -118h97q15 0 25 -10.5t10 -25.5q0 -20 -16 -34.5t-36 -14.5h-97
l-116 -597q-4 -20 -19 -34t-36 -14q-18 0 -29 11.5t-11 27.5q0 8 2 18z" />
    <glyph glyph-name="g" unicode="g" horiz-adv-x="627" 
d="M491 246q6 32 6 49q0 58 -36.5 96t-97.5 38q-83 0 -145.5 -64t-62.5 -152q0 -63 37 -102t102 -39q73 0 128 50t69 124zM439 11l10 53q-7 -8 -21 -20.5t-60 -33t-96 -20.5q-87 0 -147 61t-60 156q0 128 92 215.5t211 87.5q30 0 56.5 -7.5t43.5 -18.5t29.5 -22t18.5 -18
l5 -8l5 26q4 21 19 34.5t36 13.5q17 0 29.5 -11.5t12.5 -27.5q0 -5 -2 -19l-85 -436q-22 -113 -103 -179.5t-194 -66.5q-81 0 -123 17.5t-42 44.5q0 20 15 35t37 15q6 0 42 -15.5t83 -15.5q67 0 121 46t67 114z" />
    <glyph glyph-name="h" unicode="h" horiz-adv-x="639" 
d="M467 47l44 223q4 24 4 43q0 55 -31 84.5t-88 29.5q-64 0 -120 -38t-65 -85l-52 -267q-4 -21 -19 -34t-36 -13q-17 0 -29.5 11t-12.5 27q0 5 2 19l128 655q4 21 19 34.5t36 13.5q17 0 29.5 -11.5t12.5 -27.5q0 -8 -3 -20l-50 -255q35 33 85.5 53.5t98.5 20.5
q90 0 141.5 -51t51.5 -133q0 -22 -5 -52l-46 -237q-4 -21 -19 -34t-36 -13q-17 0 -29.5 11t-12.5 27q0 5 2 19z" />
    <glyph glyph-name="i" unicode="i" horiz-adv-x="276" 
d="M160 635q0 28 22.5 51.5t53.5 23.5q23 0 37.5 -14.5t14.5 -36.5q0 -30 -23.5 -52.5t-52.5 -22.5q-22 0 -37 14.5t-15 36.5zM236 452l-66 -338q-2 -8 -2 -15q0 -24 24 -24q16 0 26 -10t10 -25q0 -22 -18.5 -36t-43.5 -14q-45 0 -70.5 23.5t-25.5 61.5q0 17 4 39l67 349
q4 21 19 34t36 13q17 0 29.5 -11.5t12.5 -27.5q0 -5 -2 -19z" />
    <glyph glyph-name="j" unicode="j" horiz-adv-x="297" 
d="M200 636q0 28 23.5 51t53.5 23q22 0 36.5 -14.5t14.5 -35.5q0 -31 -23 -53.5t-53 -22.5q-22 0 -37 15t-15 37zM273 453l-104 -535q-12 -62 -53.5 -100t-97.5 -38h-53q-18 0 -28.5 10t-10.5 26q0 20 15.5 34.5t35.5 14.5h41q20 0 35.5 14t19.5 33l107 550q4 20 19 34
t36 14q18 0 29 -11.5t11 -27.5q0 -8 -2 -18z" />
    <glyph glyph-name="k" unicode="k" horiz-adv-x="531" 
d="M185 171l-26 -134q-4 -21 -19 -34t-36 -13q-17 0 -29.5 11t-12.5 27q0 5 2 19l128 655q4 21 19 34.5t36 13.5q17 0 29.5 -11.5t12.5 -27.5q0 -8 -3 -20l-79 -405l261 206q22 18 43 18q18 0 28 -10t10 -27q0 -25 -18 -39l-196 -150l147 -220q7 -11 7 -25q0 -21 -15 -35
t-35 -14q-23 0 -32 13l-146 226z" />
    <glyph glyph-name="l" unicode="l" horiz-adv-x="276" 
d="M282 692l-112 -578q-2 -8 -2 -15q0 -24 24 -24q16 0 26 -10t10 -25q0 -22 -18.5 -36t-43.5 -14q-45 0 -70.5 23.5t-25.5 61.5q0 17 4 39l113 589q4 21 19 34t36 13q17 0 29.5 -11.5t12.5 -27.5q0 -5 -2 -19z" />
    <glyph glyph-name="m" unicode="m" horiz-adv-x="979" 
d="M239 453l-4 -19q31 33 76 54.5t94 21.5q50 0 92 -23.5t63 -69.5q96 93 201 93q86 0 139 -50t53 -135q0 -31 -5 -55l-45 -233q-4 -21 -19 -34t-36 -13q-17 0 -29 11t-12 27q0 5 2 19l45 229q4 17 4 38q0 53 -31.5 83t-81.5 30q-53 0 -103.5 -39.5t-61.5 -95.5l-49 -255
q-4 -21 -19 -34t-36 -13q-17 0 -29 11t-12 27q0 5 2 19l45 229q4 19 4 40q0 52 -28.5 81.5t-77.5 29.5q-55 0 -107.5 -39t-62.5 -88l-51 -263q-4 -21 -19 -34t-36 -13q-17 0 -29.5 11t-12.5 27q0 2 2 16l81 419q4 21 19 34t36 13q17 0 29 -11t12 -27q0 -5 -2 -19z" />
    <glyph glyph-name="n" unicode="n" horiz-adv-x="638" 
d="M467 44l43 225q5 25 5 44q0 54 -31.5 84t-88.5 30q-64 0 -120 -38t-65 -85l-51 -267q-4 -21 -19 -34t-36 -13q-17 0 -29.5 11t-12.5 27q0 2 2 16l81 419q4 21 19 34t36 13q17 0 29 -11t12 -27q0 -5 -2 -19l-3 -17q34 33 84.5 53.5t98.5 20.5q90 0 141.5 -51t51.5 -133
q0 -22 -5 -52l-45 -237q-4 -21 -19 -34t-36 -13q-17 0 -29.5 11t-12.5 27q0 2 2 16z" />
    <glyph glyph-name="o" unicode="o" horiz-adv-x="613" 
d="M377 510q96 0 157 -61t61 -157q0 -123 -90 -212.5t-224 -89.5q-96 0 -156.5 61t-60.5 157q0 124 89.5 213t223.5 89zM295 71q84 0 146.5 64.5t62.5 147.5q0 67 -37.5 107t-102.5 40q-84 0 -147 -65t-63 -148q0 -66 38 -106t103 -40z" />
    <glyph glyph-name="p" unicode="p" horiz-adv-x="628" 
d="M184 253q-6 -32 -6 -49q0 -58 36.5 -95.5t97.5 -37.5q83 0 145.5 63.5t62.5 151.5q0 64 -37 103.5t-102 39.5q-73 0 -128 -51t-69 -125zM229 452l-3 -17q7 8 21 20.5t60 33t96 20.5q87 0 147 -61t60 -156q0 -127 -91 -214.5t-207 -87.5q-32 0 -59.5 7.5t-45 18t-30 21.5
t-17.5 19l-6 7l-48 -245q-4 -21 -19 -34.5t-36 -13.5q-17 0 -29.5 11.5t-12.5 27.5q0 5 2 19l124 634q4 21 19 34.5t36 13.5q17 0 29.5 -11.5t12.5 -27.5q0 -3 -1.5 -10t-1.5 -9z" />
    <glyph glyph-name="q" unicode="q" horiz-adv-x="627" 
d="M491 247q6 32 6 49q0 58 -36.5 96t-97.5 38q-83 0 -145.5 -64t-62.5 -152q0 -64 37 -103t102 -39q73 0 128 50.5t69 124.5zM404 -172l45 237l-8 -8t-22 -18t-36 -23t-49 -18t-62 -8q-87 0 -147 61.5t-60 156.5q0 125 89 213.5t210 88.5q31 0 58.5 -7.5t44.5 -18t30 -21.5
t19 -19l5 -7l5 26q4 21 19 34t36 13q17 0 29.5 -11t12.5 -27q0 -5 -2 -19l-123 -635q-4 -21 -19 -34.5t-36 -13.5q-17 0 -29.5 11.5t-12.5 27.5q0 3 1.5 10t1.5 9z" />
    <glyph glyph-name="r" unicode="r" horiz-adv-x="387" 
d="M364 500h40q17 0 28 -9t11 -25q0 -21 -16.5 -36t-38.5 -15h-45q-52 0 -94 -38t-51 -87l-49 -252q-4 -19 -21.5 -33.5t-36.5 -14.5q-17 0 -28 11.5t-11 27.5q0 4 3 19l80 414q4 19 21 33.5t36 14.5q17 0 28.5 -11.5t11.5 -28.5q0 -6 -6 -35q27 28 64 46.5t74 18.5z" />
    <glyph glyph-name="s" unicode="s" horiz-adv-x="512" 
d="M245 71q45 0 88.5 18t43.5 57q0 21 -20.5 35.5t-52 21.5t-67.5 18t-67.5 23.5t-52 38.5t-20.5 63q0 76 66.5 120t151.5 44q95 0 154 -47q30 -23 30 -46q0 -19 -14.5 -34t-34.5 -15q-17 0 -40 23q-41 39 -105 39q-43 0 -79.5 -18t-36.5 -50q0 -23 29.5 -37.5t71 -25
t83 -24t71 -42.5t29.5 -73q0 -79 -71 -124.5t-164 -45.5q-101 0 -162 48q-34 27 -34 51q0 21 15.5 35.5t35.5 14.5q16 0 33 -19q42 -49 119 -49z" />
    <glyph glyph-name="t" unicode="t" horiz-adv-x="338" 
d="M266 575l-15 -75h92q15 0 25 -10t10 -25q0 -20 -16 -35t-36 -15h-92l-54 -279q-3 -15 -3 -22q0 -29 33 -29h36q18 0 28.5 -9.5t10.5 -24.5q0 -22 -16 -36.5t-41 -14.5h-45q-48 0 -76 28.5t-28 72.5q0 15 3 31l55 283h-39q-16 0 -26 10t-10 24q0 22 14.5 36.5t38.5 14.5
h39l17 86q4 21 19 34t36 13q17 0 29.5 -11.5t12.5 -27.5q0 -5 -2 -19z" />
    <glyph glyph-name="u" unicode="u" horiz-adv-x="628" 
d="M219 456l-43 -225q-5 -25 -5 -44q0 -54 31.5 -84t88.5 -30q64 0 120 38t65 85l51 267q4 21 19 34t36 13q17 0 29.5 -11t12.5 -27q0 -2 -2 -16l-81 -419q-4 -21 -19 -34t-36 -13q-17 0 -29 11t-12 27q0 5 2 19l3 17q-34 -33 -84.5 -53.5t-98.5 -20.5q-90 0 -141.5 51
t-51.5 133q0 22 5 52l45 237q4 21 19 34t36 13q17 0 29.5 -11t12.5 -27q0 -2 -2 -16z" />
    <glyph glyph-name="v" unicode="v" horiz-adv-x="519" 
d="M139 510q15 0 27.5 -11t14.5 -26l64 -391h9l219 397q17 31 49 31q19 0 30.5 -11t11.5 -26q0 -19 -10 -36l-232 -397q-23 -40 -66 -40h-44q-21 0 -34.5 11.5t-16.5 28.5l-74 385q-3 13 -3 29q0 23 14 39.5t41 16.5z" />
    <glyph glyph-name="w" unicode="w" horiz-adv-x="726" 
d="M404 343q18 0 31 -8.5t17 -21.5l71 -231h7l114 380q7 22 23.5 35t35.5 13t28.5 -11t9.5 -28q0 -10 -7 -31l-131 -400q-6 -17 -24.5 -28.5t-40.5 -11.5h-44q-39 0 -52 40l-58 197l-136 -197q-27 -40 -66 -40h-44q-22 0 -36.5 10.5t-14.5 27.5q0 8 1 21l22 381q2 30 17 50
t44 20q16 0 28 -10.5t12 -28.5q0 -7 -1 -17l-32 -372h7l161 231q21 30 58 30z" />
    <glyph glyph-name="x" unicode="x" horiz-adv-x="550" 
d="M398 12l-111 172l-188 -180q-14 -14 -35 -14q-16 0 -27 10t-11 24q0 23 16 39l200 191l-121 184q-6 10 -6 20q0 20 14.5 36t36.5 16q21 0 36 -22l108 -168l180 172q20 18 42 18q15 0 25.5 -11t10.5 -26q0 -20 -15 -35l-199 -188l122 -184q9 -14 9 -27q0 -19 -15 -34
t-35 -15q-22 0 -37 22z" />
    <glyph glyph-name="y" unicode="y" horiz-adv-x="548" 
d="M585 437l-323 -562q-55 -95 -148 -95h-34q-16 0 -25.5 10t-9.5 26q0 20 15 34.5t36 14.5h25q20 0 32 8t23 28l68 117q-61 0 -71 43l-86 376q-3 12 -3 21q0 22 16.5 37t39.5 15q32 0 40 -32l88 -404h8l230 404q18 32 53 32q17 0 28 -11t11 -28q0 -11 -13 -34z" />
    <glyph glyph-name="z" unicode="z" horiz-adv-x="494" 
d="M382 415h-232q-17 0 -27.5 9t-10.5 25q0 21 16 36t38 15h305q21 0 32 -12.5t11 -29.5q-1 -26 -27 -50l-332 -323h250q17 0 27.5 -10t10.5 -25q0 -21 -16 -35.5t-39 -14.5h-322q-19 0 -30.5 11.5t-11.5 28.5q0 26 28 53z" />
    <glyph glyph-name="braceleft" unicode="{" horiz-adv-x="360" 
d="M69 341q16 3 27 8t24.5 22.5t18.5 44.5l28 146q14 72 63 118.5t124 46.5h29q17 0 29 -10.5t12 -26.5q0 -21 -17.5 -36.5t-40.5 -15.5h-27q-27 0 -47.5 -19.5t-25.5 -47.5l-29 -148q-18 -96 -101 -130q53 -27 53 -98q0 -17 -3 -34l-28 -145q-1 -5 -1 -16q0 -23 12.5 -38
t35.5 -15h27q17 0 29 -10t12 -26q0 -21 -17.5 -37t-40.5 -16h-29q-59 0 -93 36.5t-34 92.5q0 20 4 37l28 145q2 9 2 24q0 42 -42 51q-12 3 -23 13t-11 26q0 20 15.5 37t36.5 21z" />
    <glyph glyph-name="bar" unicode="|" horiz-adv-x="275" 
d="M295 698l-172 -881q-4 -20 -19.5 -33.5t-36.5 -13.5q-17 0 -28.5 11.5t-11.5 26.5q0 9 2 15l172 880q4 20 20 34t37 14q16 0 27.5 -11t11.5 -27q0 -3 -2 -15z" />
    <glyph glyph-name="braceright" unicode="}" horiz-adv-x="360" 
d="M347 244q-16 -3 -27 -8t-24.5 -22.5t-18.5 -44.5l-28 -146q-14 -72 -63 -118.5t-124 -46.5h-29q-17 0 -29 10.5t-12 26.5q0 21 17.5 36.5t40.5 15.5h27q27 0 47.5 19.5t25.5 47.5l29 148q18 96 101 130q-53 26 -53 98q0 18 3 34l28 145q1 5 1 16q0 23 -12.5 38t-35.5 15
h-27q-17 0 -29 10t-12 26q0 21 17.5 37t40.5 16h29q59 0 93 -36.5t34 -92.5q0 -20 -4 -37l-28 -145q-2 -9 -2 -24q0 -42 42 -51q12 -3 23 -13t11 -26q0 -20 -15.5 -37t-36.5 -21z" />
    <glyph glyph-name="asciitilde" unicode="~" horiz-adv-x="584" 
d="M206 246q-19 0 -32 -11t-19 -24.5t-18.5 -24.5t-29.5 -11q-14 0 -22.5 8t-8.5 21q0 38 40.5 79t99.5 41q43 0 111.5 -33.5t97.5 -33.5q19 0 32.5 11t19 24.5t18 24.5t30.5 11q13 0 22 -8.5t9 -21.5q0 -37 -41 -78t-99 -41q-43 0 -112 33.5t-98 33.5z" />
    <glyph glyph-name="exclamdown" unicode="&#xa1;" horiz-adv-x="286" 
d="M278 458q0 -28 -22.5 -51.5t-53.5 -23.5q-23 0 -37.5 14.5t-14.5 36.5q0 30 23.5 52.5t52.5 22.5q23 0 37.5 -14.5t14.5 -36.5zM50 -154l79 406q4 20 19.5 33.5t34.5 13.5q18 0 30 -11t12 -27q0 -7 -2 -19l-79 -406q-4 -20 -19 -33.5t-34 -13.5q-18 0 -30.5 11t-12.5 27
q0 7 2 19z" />
    <glyph glyph-name="cent" unicode="&#xa2;" 
d="M475 563l-11 -56q51 -7 80 -25q21 -13 21 -33q0 -19 -17 -34.5t-36 -15.5q-12 0 -32 11q-32 19 -74 19q-83 0 -146.5 -65t-63.5 -147q0 -62 39 -103.5t103 -41.5q40 0 78.5 18t46.5 18q16 0 26 -10.5t10 -26.5q0 -27 -33 -47q-40 -24 -102 -32l-11 -59q-4 -18 -17 -29.5
t-32 -11.5q-14 0 -24.5 9.5t-10.5 23.5q0 9 1 16l10 53q-80 14 -126.5 71.5t-46.5 142.5q0 113 77 199.5t196 99.5l13 65q4 18 17.5 30t31.5 12q14 0 24.5 -10t10.5 -24q0 -9 -2 -17z" />
    <glyph glyph-name="sterling" unicode="&#xa3;" 
d="M215 86h280q15 0 24.5 -10t9.5 -25q0 -22 -15 -36.5t-36 -14.5h-396q-15 0 -24.5 10t-9.5 25q0 22 15 36.5t36 14.5h20l42 215h-52q-15 0 -24.5 9.5t-9.5 24.5q0 22 14.5 36t35.5 14h51l29 146q16 81 76 130t152 49q45 0 88.5 -17.5t66.5 -42.5q10 -11 10 -24
q0 -20 -15.5 -36t-36.5 -16q-18 0 -32 14q-42 37 -94 37q-47 0 -79 -27t-40 -68l-28 -145h161q15 0 24.5 -9.5t9.5 -24.5q0 -22 -14.5 -36t-35.5 -14h-161z" />
    <glyph glyph-name="currency" unicode="&#xa4;" 
d="M568 89q0 -17 -12 -30t-30 -13t-33 15l-32 32q-57 -36 -120 -36q-67 0 -121 37l-32 -32q-14 -14 -33 -14q-17 0 -30 12.5t-13 29.5q0 20 14 33l33 32q-36 55 -36 120q0 64 37 121l-33 32q-14 13 -14 33q0 17 13 29.5t30 12.5q20 0 32 -13l32 -34q56 37 119 37
q64 0 123 -37l31 33q14 14 34 14q16 0 28.5 -13t12.5 -30q0 -19 -13 -32l-32 -33q36 -57 36 -120q0 -65 -37 -121l32 -31q14 -13 14 -34zM194 275q0 -58 43.5 -102.5t103.5 -44.5q58 0 102 44t44 103t-43.5 102.5t-102.5 43.5t-103 -43.5t-44 -102.5z" />
    <glyph glyph-name="yen" unicode="&#xa5;" 
d="M160 365h83l-107 263q-9 23 -9 30q0 22 14.5 37t38.5 15q27 0 36 -20l124 -305l241 307q15 18 40 18q17 0 29 -11t12 -27q0 -18 -18 -40l-214 -267h81q14 0 23.5 -10.5t9.5 -25.5q0 -19 -15.5 -32.5t-33.5 -13.5h-127l-14 -72h129q14 0 23.5 -10.5t9.5 -25.5
q0 -19 -15.5 -32.5t-33.5 -13.5h-129l-17 -90q-4 -21 -19 -35t-37 -14q-17 0 -28.5 11t-11.5 28q0 8 2 20l15 80h-126q-15 0 -24.5 10t-9.5 24q0 19 15 33.5t35 14.5h125l14 72h-127q-15 0 -24.5 10t-9.5 24q0 19 15 33.5t35 14.5z" />
    <glyph glyph-name="brokenbar" unicode="&#xa6;" horiz-adv-x="255" 
d="M285 697l-59 -300q-4 -20 -19.5 -33.5t-36.5 -13.5q-17 0 -28.5 11.5t-11.5 26.5q0 9 2 15l59 299q4 20 20 34t37 14q16 0 27.5 -11t11.5 -27q0 -3 -2 -15zM172 117l-59 -300q-4 -20 -19.5 -33.5t-36.5 -13.5q-17 0 -28.5 11.5t-11.5 26.5q0 9 2 15l59 299q4 20 20 34
t37 14q16 0 27.5 -11t11.5 -27q0 -3 -2 -15z" />
    <glyph glyph-name="section" unicode="&#xa7;" horiz-adv-x="654" 
d="M287 -250h-170q-17 0 -27.5 9.5t-10.5 24.5q0 20 16.5 35t37.5 15h167q41 0 77 32t36 73q0 35 -34 59t-82.5 39t-97.5 33t-83 53.5t-34 88.5q0 62 37 113t99 84q-28 37 -28 90q0 80 62 140.5t158 60.5h170q17 0 27.5 -9.5t10.5 -24.5q0 -20 -17 -35t-38 -15h-167
q-41 0 -77 -32t-36 -73q0 -36 34 -59.5t83 -38.5t98 -32.5t83 -52.5t34 -88q0 -62 -36.5 -113.5t-100.5 -85.5q29 -40 29 -91q0 -80 -63 -140t-157 -60zM390 99q50 7 87.5 40t37.5 82q0 24 -12 41.5t-36 30t-46 20.5t-58 18.5t-56 18.5q-51 -7 -88 -39.5t-37 -82.5
q0 -30 21.5 -51.5t45.5 -30.5t71.5 -24t69.5 -23z" />
    <glyph glyph-name="dieresis" unicode="&#xa8;" horiz-adv-x="309" 
d="M61 636q0 26 21 47t48 21q20 0 33.5 -13.5t13.5 -33.5q0 -27 -21.5 -47t-47.5 -20q-21 0 -34 13t-13 33zM256 636q0 26 21 47t48 21q21 0 34 -13t13 -33q0 -27 -21 -47.5t-48 -20.5q-20 0 -33.5 13t-13.5 33z" />
    <glyph glyph-name="copyright" unicode="&#xa9;" horiz-adv-x="838" 
d="M543 510q24 -15 24 -36q0 -12 -9.5 -22t-23.5 -10q-7 0 -30 7q-29 9 -50 9q-46 0 -77.5 -32t-31.5 -77q0 -46 32 -79t77 -33q12 0 42 8q26 7 35 7q14 0 24 -9.5t10 -21.5q0 -23 -24 -36q-34 -19 -85 -19q-76 0 -129 52.5t-53 130.5q0 77 53 129t129 52q51 0 87 -20z
M86 351q0 149 105 254t254 105t254 -105t105 -254t-105 -254t-254 -105t-254 105t-105 254zM153 351q0 -121 85.5 -207t207.5 -86t207.5 86t85.5 207t-85.5 207t-207.5 86t-207.5 -86t-85.5 -207z" />
    <glyph glyph-name="ordfeminine" unicode="&#xaa;" horiz-adv-x="467" 
d="M464 665l-53 -272q-3 -14 -15.5 -25t-27.5 -11q-13 0 -21.5 7t-8.5 17q0 3 2 14q-43 -38 -111 -38q-60 0 -100.5 40.5t-40.5 101.5q0 82 62 146.5t148 64.5q63 0 96 -37q10 37 43 37q13 0 21 -8.5t8 -21.5q0 -6 -2 -15zM246 421q51 0 89 42.5t38 95.5q0 38 -22.5 62.5
t-61.5 24.5q-50 0 -90.5 -41t-40.5 -93q0 -39 24 -65t64 -26z" />
    <glyph glyph-name="guillemotleft" unicode="&#xab;" horiz-adv-x="490" 
d="M368 247l58 -104q4 -7 4 -16q0 -22 -16 -35.5t-34 -13.5q-21 0 -31 19l-68 128q-7 14 -7 23q0 13 19 34l117 128q16 18 38 18q14 0 25 -10.5t11 -25.5q0 -23 -14 -38zM177 247l58 -104q4 -7 4 -16q0 -22 -16 -35.5t-34 -13.5q-21 0 -31 19l-68 128q-7 14 -7 23
q0 13 19 34l117 128q17 18 38 18q14 0 25 -10.5t11 -25.5q0 -23 -14 -38z" />
    <glyph glyph-name="logicalnot" unicode="&#xac;" horiz-adv-x="570" 
d="M151 390h371q14 0 22.5 -8.5t8.5 -22.5q0 -6 -1 -9l-35 -180q-4 -19 -17 -30t-32 -11q-15 0 -24.5 9t-9.5 24q0 5 1 8l27 138h-327q-16 0 -25 9.5t-9 23.5q0 21 15 35t35 14z" />
    <glyph glyph-name="registered" unicode="&#xae;" horiz-adv-x="838" 
d="M360 526h111q56 0 90.5 -34t34.5 -83q0 -68 -67 -100l54 -89q6 -11 6 -19q0 -13 -10.5 -24t-24.5 -11q-22 0 -31 15l-68 118h-58v-98q0 -14 -11 -24.5t-26 -10.5q-14 0 -25 11t-11 24v286q0 15 11 27t25 12zM467 463h-70v-104h71q28 0 43.5 14.5t15.5 37.5t-16 37.5
t-44 14.5zM86 351q0 149 105 254t254 105t254 -105t105 -254t-105 -254t-254 -105t-254 105t-105 254zM153 351q0 -121 85.5 -207t207.5 -86t207.5 86t85.5 207t-85.5 207t-207.5 86t-207.5 -86t-85.5 -207z" />
    <glyph glyph-name="macron" unicode="&#xaf;" horiz-adv-x="262" 
d="M324 651q0 -19 -15 -34t-36 -15h-177q-16 0 -25.5 9.5t-9.5 24.5q0 19 15.5 33.5t35.5 14.5h177q15 0 25 -9.5t10 -23.5z" />
    <glyph glyph-name="degree" unicode="&#xb0;" horiz-adv-x="392" 
d="M385 565q0 -60 -42.5 -103t-104.5 -43q-60 0 -102.5 42.5t-42.5 103.5t43 103t102 42q61 0 104 -42.5t43 -102.5zM321 565q0 34 -24 58t-59 24q-34 0 -58 -24t-24 -58q0 -37 23.5 -60t58.5 -23t59 23t24 60z" />
    <glyph glyph-name="plusminus" unicode="&#xb1;" horiz-adv-x="590" 
d="M520 296h-153l-26 -134q-4 -18 -17 -29.5t-30 -11.5q-16 0 -27 11t-11 26q0 1 0.5 3t0.5 3l26 132h-149q-15 0 -25.5 10t-10.5 24q0 20 14.5 34t35.5 14h151l27 135q4 19 17.5 30t30.5 11q15 0 25.5 -10t10.5 -25q0 -1 -0.5 -3.5t-0.5 -3.5l-26 -134h151q14 0 24.5 -10.5
t10.5 -24.5q0 -20 -14.5 -33.5t-34.5 -13.5zM88 82h386q15 0 25.5 -10t10.5 -24q0 -20 -14.5 -34t-35.5 -14h-386q-14 0 -24.5 10.5t-10.5 24.5q0 20 14.5 33.5t34.5 13.5z" />
    <glyph glyph-name="twosuperior" unicode="&#xb2;" horiz-adv-x="363" 
d="M97 535l168 145q45 38 45 74q0 20 -12.5 34t-36.5 14q-43 0 -73 -51q-13 -22 -35 -22q-15 0 -22 7.5t-7 16.5t8 26t24 38.5t48 37t72 15.5q51 0 81 -30.5t30 -72.5q0 -66 -72 -128l-137 -117h145q14 0 22.5 -8t8.5 -21q0 -17 -13.5 -28t-31.5 -11h-203q-16 0 -26 9.5
t-10 24.5q0 24 27 47z" />
    <glyph glyph-name="threesuperior" unicode="&#xb3;" horiz-adv-x="363" 
d="M280 870q51 0 81 -26t30 -65q0 -58 -67 -103q47 -30 47 -85q0 -63 -50 -105.5t-120 -42.5q-59 0 -93.5 31t-34.5 63q0 17 11 31t29 14q10 0 19 -7.5t11 -17.5q5 -19 22 -33t45 -14q31 0 57 21t26 53q0 21 -17 35t-42 14q-32 0 -32 29q0 15 12.5 26t30.5 13q23 2 45 21.5
t22 41.5q0 18 -13.5 29.5t-33.5 11.5q-41 0 -69 -37q-18 -22 -35 -22q-29 0 -29 27q0 30 44.5 63.5t103.5 33.5z" />
    <glyph glyph-name="acute" unicode="&#xb4;" horiz-adv-x="185" 
d="M236 664l-114 -89q-14 -11 -30 -11q-17 0 -28 10.5t-11 26.5q0 23 20 38l116 89q17 12 30 12q16 0 27 -11t11 -27q0 -22 -21 -38z" />
    <glyph glyph-name="mu" unicode="&#xb5;" horiz-adv-x="639" 
d="M472 63l-8 -8t-22 -17.5t-35 -22t-45.5 -17.5t-54.5 -8q-46 0 -85 21t-58 54l-48 -247q-4 -19 -21 -33.5t-36 -14.5q-17 0 -28 11.5t-11 27.5q0 5 2 15l124 638q4 20 20 34t37 14q17 0 28 -11.5t11 -27.5q0 -4 -2 -14l-41 -208q-4 -19 -4 -42q0 -59 33.5 -96.5
t94.5 -37.5q72 0 121 50t64 126l42 213q4 20 19.5 34t36.5 14q18 0 29 -11.5t11 -27.5q0 -4 -2 -14l-82 -421q-4 -19 -20 -33t-37 -14q-17 0 -28 11.5t-11 27.5q0 5 6 35z" />
    <glyph glyph-name="paragraph" unicode="&#xb6;" horiz-adv-x="633" 
d="M378 -50l130 664h-75l-69 -353q-4 -18 -16 -29t-29 -11q-86 0 -142 55t-56 138q0 119 84 202.5t207 83.5h201q45 0 45 -38q0 -20 -16 -34t-42 -18l-129 -664q-17 -86 -68.5 -131t-127.5 -45q-53 0 -92.5 25.5t-39.5 61.5q0 21 13.5 36t33.5 15q23 0 36 -21q21 -33 58 -33
q32 0 58.5 25.5t35.5 70.5z" />
    <glyph glyph-name="periodcentered" unicode="&#xb7;" horiz-adv-x="266" 
d="M103 338q0 28 22 52t54 24q23 0 37.5 -14.5t14.5 -37.5q0 -29 -24 -51.5t-53 -22.5q-23 0 -37 14t-14 36z" />
    <glyph glyph-name="cedilla" unicode="&#xb8;" horiz-adv-x="213" 
d="M27 -68q3 10 12 22l30 46h72l-28 -43q38 0 62 -20.5t24 -53.5q0 -49 -39.5 -81t-101.5 -32q-84 0 -84 37q0 14 11 24.5t23 10.5q11 0 25.5 -8t30.5 -8q20 0 33.5 14.5t13.5 32.5q0 13 -8.5 22t-22.5 9q-4 0 -14 -0.5t-11 -0.5q-29 0 -29 23q0 1 0.5 3t0.5 3z" />
    <glyph glyph-name="onesuperior" unicode="&#xb9;" horiz-adv-x="231" 
d="M257 822l-66 -340q-3 -16 -15.5 -27.5t-28.5 -11.5q-14 0 -23 9.5t-9 22.5q0 7 1 13l59 303h-29q-13 0 -21.5 8.5t-8.5 20.5q0 16 13 28t30 12h68q13 0 22 -8.5t9 -21.5z" />
    <glyph glyph-name="ordmasculine" unicode="&#xba;" horiz-adv-x="446" 
d="M451 563q0 -81 -58.5 -143t-148.5 -62q-65 0 -105.5 42t-40.5 103q0 83 60 145t146 62q66 0 106.5 -42.5t40.5 -104.5zM253 422q50 0 90 41t40 93q0 38 -24 63.5t-63 25.5q-51 0 -90 -41t-39 -92q0 -38 23.5 -64t62.5 -26z" />
    <glyph glyph-name="guillemotright" unicode="&#xbb;" horiz-adv-x="490" 
d="M171 259l-58 104q-4 7 -4 16q0 22 16 35.5t34 13.5q21 0 31 -19l68 -128q7 -14 7 -23q0 -13 -19 -34l-117 -128q-17 -18 -38 -18q-14 0 -25 10.5t-11 25.5q0 23 14 38zM362 259l-58 104q-4 7 -4 16q0 22 16 35.5t34 13.5q21 0 31 -19l68 -128q7 -14 7 -23q0 -13 -19 -34
l-117 -128q-16 -18 -38 -18q-14 0 -25 10.5t-11 25.5q0 23 14 38z" />
    <glyph glyph-name="onequarter" unicode="&#xbc;" horiz-adv-x="732" 
d="M68 41l534 651q15 18 34 18q12 0 19.5 -8t7.5 -20t-9 -24l-529 -647q-17 -21 -36 -21q-13 0 -21 8t-8 20t8 23zM285 662l-66 -340q-3 -16 -15.5 -27.5t-28.5 -11.5q-14 0 -23 9.5t-9 22.5q0 7 1 13l59 303h-29q-13 0 -21.5 8.5t-8.5 20.5q0 16 13 28t30 12h68
q13 0 22 -8.5t9 -21.5zM631 90h-19l-12 -63q-3 -15 -16 -26.5t-29 -11.5q-13 0 -21.5 9t-8.5 22q0 6 1 12l11 58h-149q-17 0 -27.5 10t-10.5 25q0 20 20 43l184 216q19 21 35 21h46q14 0 23 -7.5t9 -18.5q0 -6 -2 -18l-40 -203h19q13 0 20.5 -8.5t7.5 -20.5
q0 -16 -12.5 -27.5t-28.5 -11.5zM445 153h105l32 162z" />
    <glyph glyph-name="onehalf" unicode="&#xbd;" horiz-adv-x="767" 
d="M68 41l534 651q15 18 34 18q12 0 19.5 -8t7.5 -20t-9 -24l-529 -647q-17 -21 -36 -21q-13 0 -21 8t-8 20t8 23zM285 662l-66 -340q-3 -16 -15.5 -27.5t-28.5 -11.5q-14 0 -23 9.5t-9 22.5q0 7 1 13l59 303h-29q-13 0 -21.5 8.5t-8.5 20.5q0 16 13 28t30 12h68
q13 0 22 -8.5t9 -21.5zM433 81l168 145q45 38 45 74q0 20 -12.5 34t-36.5 14q-43 0 -73 -51q-13 -22 -35 -22q-15 0 -22 7.5t-7 16.5t8 26t24 38.5t48 37t72 15.5q51 0 81 -30.5t30 -72.5q0 -66 -72 -128l-137 -117h145q14 0 22.5 -8t8.5 -21q0 -17 -13.5 -28t-31.5 -11
h-203q-16 0 -26 9.5t-10 24.5q0 24 27 47z" />
    <glyph glyph-name="threequarters" unicode="&#xbe;" horiz-adv-x="853" 
d="M189 41l534 651q15 18 34 18q14 0 21.5 -10t5.5 -24q-2 -9 -9 -18l-529 -647q-18 -21 -36 -21q-15 0 -22.5 10t-5.5 24q3 11 7 17zM752 91h-19l-12 -63q-3 -15 -16.5 -26.5t-28.5 -11.5t-24 12t-6 26l12 63h-149q-20 0 -30.5 13t-6.5 31q2 14 16 32l187 218q19 21 35 21
h46q15 0 24.5 -11t6.5 -25l-41 -211h19q15 0 22.5 -10.5t5.5 -23.5q-3 -15 -14.5 -24.5t-26.5 -9.5zM566 159h105l32 162zM299 710q51 0 81 -26t30 -65q0 -58 -67 -103q47 -30 47 -85q0 -63 -50 -105.5t-120 -42.5q-59 0 -93.5 31t-34.5 63q0 17 11 31t29 14q10 0 19 -7.5
t11 -17.5q5 -19 22 -33t45 -14q31 0 57 21t26 53q0 21 -17 35t-42 14q-32 0 -32 29q0 15 12.5 26t30.5 13q23 2 45 21.5t22 41.5q0 18 -13.5 29.5t-33.5 11.5q-41 0 -69 -37q-18 -22 -35 -22q-29 0 -29 27q0 30 44.5 63.5t103.5 33.5z" />
    <glyph glyph-name="questiondown" unicode="&#xbf;" horiz-adv-x="520" 
d="M208 -211q-76 0 -124 44t-48 106q0 44 20.5 80.5t51 62t61.5 49t56.5 53.5t32.5 63q4 22 22 37.5t40 15.5q18 0 28.5 -12t10.5 -32q0 -8 -1 -13q-7 -35 -33 -68.5t-57.5 -60t-62.5 -52t-51.5 -54.5t-20.5 -58q0 -33 26 -56t63 -23q90 0 135 89q16 32 48 32q31 0 31 -35
q0 -8 -1 -11q-10 -51 -74 -104t-153 -53zM411 460q0 -28 -22 -52t-54 -24q-23 0 -37.5 15t-14.5 37q0 28 23.5 51t53.5 23q23 0 37 -14t14 -36z" />
    <glyph glyph-name="Agrave" unicode="&#xc0;" horiz-adv-x="707" 
d="M549 29l-28 163h-326l-89 -161q-24 -41 -60 -41q-17 0 -27.5 11.5t-10.5 27.5t13 40l332 594q20 37 58 37h87q39 0 46 -37l100 -594q2 -14 2 -24q0 -23 -14.5 -39t-37.5 -16q-17 0 -30 11t-15 28zM433 618l-190 -341h265l-57 341h-18zM421 778l-82 92q-8 8 -8 22
q0 18 15 33t34 15q15 0 25 -11l83 -93q9 -9 9 -23q0 -20 -15 -34t-35 -14q-15 0 -26 13z" />
    <glyph glyph-name="Aacute" unicode="&#xc1;" horiz-adv-x="707" 
d="M549 29l-28 163h-326l-89 -161q-24 -41 -60 -41q-17 0 -27.5 11.5t-10.5 27.5t13 40l332 594q20 37 58 37h87q39 0 46 -37l100 -594q2 -14 2 -24q0 -23 -14.5 -39t-37.5 -16q-17 0 -30 11t-15 28zM433 618l-190 -341h265l-57 341h-18zM570 864l-114 -89q-14 -11 -30 -11
q-17 0 -28 10.5t-11 26.5q0 23 20 38l116 89q17 12 30 12q16 0 27 -11t11 -27q0 -22 -21 -38z" />
    <glyph glyph-name="Acircumflex" unicode="&#xc2;" horiz-adv-x="707" 
d="M549 29l-28 163h-326l-89 -161q-24 -41 -60 -41q-17 0 -27.5 11.5t-10.5 27.5t13 40l332 594q20 37 58 37h87q39 0 46 -37l100 -594q2 -14 2 -24q0 -23 -14.5 -39t-37.5 -16q-17 0 -30 11t-15 28zM433 618l-190 -341h265l-57 341h-18zM553 777l-66 73l-95 -73
q-18 -14 -39 -14q-14 0 -24 9t-10 24q0 22 21 38l119 92q19 14 40 14q24 0 36 -14l84 -92q9 -9 9 -23q0 -21 -15 -34.5t-30 -13.5q-16 0 -30 14z" />
    <glyph glyph-name="Atilde" unicode="&#xc3;" horiz-adv-x="707" 
d="M549 29l-28 163h-326l-89 -161q-24 -41 -60 -41q-17 0 -27.5 11.5t-10.5 27.5t13 40l332 594q20 37 58 37h87q39 0 46 -37l100 -594q2 -14 2 -24q0 -23 -14.5 -39t-37.5 -16q-17 0 -30 11t-15 28zM433 618l-190 -341h265l-57 341h-18zM439 908q26 0 48 -13t37 -26.5
t24 -13.5q18 0 35 26.5t39 26.5q13 0 21.5 -8t8.5 -21q0 -30 -33.5 -62.5t-86.5 -32.5q-26 0 -48 13t-36.5 26.5t-23.5 13.5q-16 0 -25.5 -13.5t-20.5 -26.5t-29 -13q-14 0 -22 7.5t-8 20.5q0 30 34 63t86 33z" />
    <glyph glyph-name="Adieresis" unicode="&#xc4;" horiz-adv-x="707" 
d="M549 29l-28 163h-326l-89 -161q-24 -41 -60 -41q-17 0 -27.5 11.5t-10.5 27.5t13 40l332 594q20 37 58 37h87q39 0 46 -37l100 -594q2 -14 2 -24q0 -23 -14.5 -39t-37.5 -16q-17 0 -30 11t-15 28zM433 618l-190 -341h265l-57 341h-18zM329 836q0 26 21 47t48 21
q20 0 33.5 -13.5t13.5 -33.5q0 -27 -21.5 -47t-47.5 -20q-21 0 -34 13t-13 33zM524 836q0 26 21 47t48 21q21 0 34 -13t13 -33q0 -27 -21 -47.5t-48 -20.5q-20 0 -33.5 13t-13.5 33z" />
    <glyph glyph-name="Aring" unicode="&#xc5;" horiz-adv-x="707" 
d="M549 29l-28 163h-326l-89 -161q-24 -41 -60 -41q-17 0 -27.5 11.5t-10.5 27.5t13 40l332 594q20 37 58 37h87q39 0 46 -37l100 -594q2 -14 2 -24q0 -23 -14.5 -39t-37.5 -16q-17 0 -30 11t-15 28zM433 618l-190 -341h265l-57 341h-18zM370 820q0 51 39.5 90t94.5 39
q40 0 66 -24.5t26 -62.5q0 -51 -40.5 -89.5t-94.5 -38.5q-40 0 -65.5 24t-25.5 62zM492 890q-21 0 -40 -17.5t-19 -40.5q0 -17 11.5 -28.5t28.5 -11.5q22 0 41 17.5t19 39.5q0 17 -12 29t-29 12z" />
    <glyph glyph-name="AE" unicode="&#xc6;" horiz-adv-x="1043" 
d="M589 85h333q18 0 29.5 -9t11.5 -25q0 -21 -17.5 -36t-39.5 -15h-380q-17 0 -28 11t-11 28q0 6 1 9l29 148h-308l-132 -181q-18 -25 -45 -25q-19 0 -29.5 11t-10.5 26q0 20 12 35l451 613q18 25 46 25h541q18 0 29.5 -9.5t11.5 -25.5q0 -23 -17.5 -37t-40.5 -14h-333
l-40 -209h275q18 0 29 -10t11 -25q0 -22 -17.5 -36.5t-39.5 -14.5h-275zM514 614l-245 -337h264l65 337h-84z" />
    <glyph glyph-name="Ccedilla" unicode="&#xc7;" horiz-adv-x="672" 
d="M269 -68q3 10 12 22l27 42q-104 19 -167.5 98.5t-63.5 187.5q0 79 32 155.5t87 137t136 98t173 37.5q64 0 128 -24t64 -60q0 -21 -14 -34.5t-30 -13.5q-14 0 -33 12t-50.5 24t-75.5 12q-127 0 -223.5 -103.5t-96.5 -227.5q0 -94 58 -157.5t155 -63.5q82 0 162 52
q14 10 33 10q14 0 24.5 -9.5t10.5 -25.5q0 -31 -30 -49q-94 -60 -211 -62l-21 -33q38 0 62 -20.5t24 -53.5q0 -49 -39.5 -81t-101.5 -32q-84 0 -84 37q0 14 11 24.5t23 10.5q11 0 25.5 -8t30.5 -8q20 0 33.5 14.5t13.5 32.5q0 13 -8.5 22t-22.5 9q-4 0 -14 -0.5t-11 -0.5
q-29 0 -29 23q0 1 0.5 3t0.5 3z" />
    <glyph glyph-name="Egrave" unicode="&#xc8;" horiz-adv-x="624" 
d="M156 86h355q17 0 27.5 -9.5t10.5 -24.5q0 -21 -16.5 -36.5t-38.5 -15.5h-402q-17 0 -27.5 10.5t-10.5 27.5q0 3 3 21l116 595q4 19 20 32.5t36 13.5h402q17 0 27 -9.5t10 -24.5q0 -21 -15.5 -36.5t-38.5 -15.5h-355l-41 -209h298q17 0 27 -9t10 -24q0 -21 -16.5 -37
t-37.5 -16h-298zM402 778l-82 92q-8 8 -8 22q0 18 15 33t34 15q15 0 25 -11l83 -93q9 -9 9 -23q0 -20 -15 -34t-35 -14q-15 0 -26 13z" />
    <glyph glyph-name="Eacute" unicode="&#xc9;" horiz-adv-x="624" 
d="M156 86h355q17 0 27.5 -9.5t10.5 -24.5q0 -21 -16.5 -36.5t-38.5 -15.5h-402q-17 0 -27.5 10.5t-10.5 27.5q0 3 3 21l116 595q4 19 20 32.5t36 13.5h402q17 0 27 -9.5t10 -24.5q0 -21 -15.5 -36.5t-38.5 -15.5h-355l-41 -209h298q17 0 27 -9t10 -24q0 -21 -16.5 -37
t-37.5 -16h-298zM570 864l-114 -89q-14 -11 -30 -11q-17 0 -28 10.5t-11 26.5q0 23 20 38l116 89q17 12 30 12q16 0 27 -11t11 -27q0 -22 -21 -38z" />
    <glyph glyph-name="Ecircumflex" unicode="&#xca;" horiz-adv-x="624" 
d="M156 86h355q17 0 27.5 -9.5t10.5 -24.5q0 -21 -16.5 -36.5t-38.5 -15.5h-402q-17 0 -27.5 10.5t-10.5 27.5q0 3 3 21l116 595q4 19 20 32.5t36 13.5h402q17 0 27 -9.5t10 -24.5q0 -21 -15.5 -36.5t-38.5 -15.5h-355l-41 -209h298q17 0 27 -9t10 -24q0 -21 -16.5 -37
t-37.5 -16h-298zM518 777l-66 73l-95 -73q-17 -14 -39 -14q-14 0 -24 9t-10 24q0 22 21 38l119 92q19 14 40 14q24 0 36 -14l84 -92q9 -9 9 -23q0 -21 -15 -34.5t-30 -13.5q-16 0 -30 14z" />
    <glyph glyph-name="Edieresis" unicode="&#xcb;" horiz-adv-x="629" 
d="M156 86h355q17 0 27.5 -9.5t10.5 -24.5q0 -21 -16.5 -36.5t-38.5 -15.5h-402q-17 0 -27.5 10.5t-10.5 27.5q0 3 3 21l116 595q4 19 20 32.5t36 13.5h402q17 0 27 -9.5t10 -24.5q0 -21 -15.5 -36.5t-38.5 -15.5h-355l-41 -209h298q17 0 27 -9t10 -24q0 -21 -16.5 -37
t-37.5 -16h-298zM295 836q0 26 21 47t48 21q20 0 33.5 -13.5t13.5 -33.5q0 -27 -21.5 -47t-47.5 -20q-21 0 -34 13t-13 33zM490 836q0 26 21 47t48 21q21 0 34 -13t13 -33q0 -27 -21 -47.5t-48 -20.5q-20 0 -33.5 13t-13.5 33z" />
    <glyph glyph-name="Igrave" unicode="&#xcc;" horiz-adv-x="275" 
d="M277 653l-119 -616q-4 -20 -19 -33.5t-34 -13.5q-18 0 -30 11t-12 27q0 7 2 19l119 616q4 20 19 33.5t34 13.5q18 0 30 -11t12 -27q0 -7 -2 -19zM219 778l-82 92q-8 8 -8 22q0 18 15 33t34 15q15 0 25 -11l83 -93q9 -9 9 -23q0 -20 -15 -34t-35 -14q-15 0 -26 13z" />
    <glyph glyph-name="Iacute" unicode="&#xcd;" horiz-adv-x="275" 
d="M277 653l-119 -616q-4 -20 -19 -33.5t-34 -13.5q-18 0 -30 11t-12 27q0 7 2 19l119 616q4 20 19 33.5t34 13.5q18 0 30 -11t12 -27q0 -7 -2 -19zM374 864l-114 -89q-14 -11 -30 -11q-17 0 -28 10.5t-11 26.5q0 23 20 38l116 89q16 12 30 12q16 0 27 -11t11 -27
q0 -22 -21 -38z" />
    <glyph glyph-name="Icircumflex" unicode="&#xce;" horiz-adv-x="275" 
d="M277 653l-119 -616q-4 -20 -19 -33.5t-34 -13.5q-18 0 -30 11t-12 27q0 7 2 19l119 616q4 20 19 33.5t34 13.5q18 0 30 -11t12 -27q0 -7 -2 -19zM330 777l-66 73l-95 -73q-17 -14 -39 -14q-14 0 -24 9t-10 24q0 22 21 38l119 92q19 14 40 14q24 0 36 -14l84 -92
q9 -9 9 -23q0 -21 -15 -34.5t-30 -13.5q-16 0 -30 14z" />
    <glyph glyph-name="Idieresis" unicode="&#xcf;" horiz-adv-x="275" 
d="M277 653l-119 -616q-4 -20 -19 -33.5t-34 -13.5q-18 0 -30 11t-12 27q0 7 2 19l119 616q4 20 19 33.5t34 13.5q18 0 30 -11t12 -27q0 -7 -2 -19zM112 836q0 26 21 47t48 21q20 0 33.5 -13.5t13.5 -33.5q0 -27 -21.5 -47t-47.5 -20q-21 0 -34 13t-13 33zM307 836
q0 26 21 47t48 21q21 0 34 -13t13 -33q0 -27 -21 -47.5t-48 -20.5q-20 0 -33.5 13t-13.5 33z" />
    <glyph glyph-name="Eth" unicode="&#xd0;" horiz-adv-x="708" 
d="M234 700h169q141 0 219 -76t78 -201q0 -111 -49.5 -206t-149.5 -156t-231 -61h-173q-16 0 -26 10t-10 26q0 7 1 10l53 274h-30q-15 0 -25 9.5t-10 23.5q0 19 15.5 34t35.5 15h30l50 252q4 20 19 33t34 13zM313 320h-104l-45 -235h119q148 0 236 99t88 225q0 95 -54 150.5
t-167 55.5h-119l-42 -213h104q14 0 23.5 -10t9.5 -24q0 -19 -15.5 -33.5t-33.5 -14.5z" />
    <glyph glyph-name="Ntilde" unicode="&#xd1;" horiz-adv-x="788" 
d="M777 653l-118 -604q-4 -19 -21 -34t-37 -15h-35q-32 0 -44 25l-255 516l-13 39l-106 -543q-4 -20 -19 -33.5t-34 -13.5q-18 0 -30 11t-12 27q0 7 2 19l118 604q4 19 21 34t38 15h34q32 0 44 -25l255 -516l13 -39l106 543q4 20 19 33.5t34 13.5q18 0 30 -11t12 -27
q0 -7 -2 -19zM465 908q26 0 48 -13t37 -26.5t24 -13.5q18 0 35 26.5t39 26.5q13 0 21.5 -8t8.5 -21q0 -30 -33.5 -62.5t-86.5 -32.5q-26 0 -48 13t-36.5 26.5t-23.5 13.5q-16 0 -25.5 -13.5t-20.5 -26.5t-29 -13q-14 0 -22 7.5t-8 20.5q0 30 34 63t86 33z" />
    <glyph glyph-name="Ograve" unicode="&#xd2;" horiz-adv-x="813" 
d="M76 281q0 82 33 159.5t89.5 137t138.5 96t173 36.5q127 0 210 -83.5t83 -207.5q0 -114 -57.5 -213t-156.5 -157.5t-214 -58.5q-132 0 -215.5 83t-83.5 208zM494 626q-126 0 -224 -102t-98 -231q0 -95 58.5 -157t156.5 -62q124 0 222 102t98 230q0 95 -58 157.5t-155 62.5
zM498 778l-82 92q-8 8 -8 22q0 18 15 33t34 15q15 0 25 -11l83 -93q9 -9 9 -23q0 -20 -15 -34t-35 -14q-15 0 -26 13z" />
    <glyph glyph-name="Oacute" unicode="&#xd3;" horiz-adv-x="813" 
d="M76 281q0 82 33 159.5t89.5 137t138.5 96t173 36.5q127 0 210 -83.5t83 -207.5q0 -114 -57.5 -213t-156.5 -157.5t-214 -58.5q-132 0 -215.5 83t-83.5 208zM494 626q-126 0 -224 -102t-98 -231q0 -95 58.5 -157t156.5 -62q124 0 222 102t98 230q0 95 -58 157.5t-155 62.5
zM646 864l-114 -89q-14 -11 -30 -11q-17 0 -28 10.5t-11 26.5q0 23 20 38l116 89q17 12 30 12q16 0 27 -11t11 -27q0 -22 -21 -38z" />
    <glyph glyph-name="Ocircumflex" unicode="&#xd4;" horiz-adv-x="813" 
d="M76 281q0 82 33 159.5t89.5 137t138.5 96t173 36.5q127 0 210 -83.5t83 -207.5q0 -114 -57.5 -213t-156.5 -157.5t-214 -58.5q-132 0 -215.5 83t-83.5 208zM494 626q-126 0 -224 -102t-98 -231q0 -95 58.5 -157t156.5 -62q124 0 222 102t98 230q0 95 -58 157.5t-155 62.5
zM603 777l-66 73l-95 -73q-18 -14 -39 -14q-14 0 -24 9t-10 24q0 22 21 38l119 92q19 14 40 14q24 0 36 -14l84 -92q9 -9 9 -23q0 -21 -15 -34.5t-30 -13.5q-16 0 -30 14z" />
    <glyph glyph-name="Otilde" unicode="&#xd5;" horiz-adv-x="813" 
d="M76 281q0 82 33 159.5t89.5 137t138.5 96t173 36.5q127 0 210 -83.5t83 -207.5q0 -114 -57.5 -213t-156.5 -157.5t-214 -58.5q-132 0 -215.5 83t-83.5 208zM494 626q-126 0 -224 -102t-98 -231q0 -95 58.5 -157t156.5 -62q124 0 222 102t98 230q0 95 -58 157.5t-155 62.5
zM490 908q26 0 48 -13t37 -26.5t24 -13.5q18 0 35 26.5t39 26.5q13 0 21.5 -8t8.5 -21q0 -30 -33.5 -62.5t-86.5 -32.5q-26 0 -47.5 13t-36.5 26.5t-24 13.5q-16 0 -25.5 -13.5t-20.5 -26.5t-29 -13q-14 0 -22 7.5t-8 20.5q0 30 34 63t86 33z" />
    <glyph glyph-name="Odieresis" unicode="&#xd6;" horiz-adv-x="813" 
d="M76 281q0 82 33 159.5t89.5 137t138.5 96t173 36.5q127 0 210 -83.5t83 -207.5q0 -114 -57.5 -213t-156.5 -157.5t-214 -58.5q-132 0 -215.5 83t-83.5 208zM494 626q-126 0 -224 -102t-98 -231q0 -95 58.5 -157t156.5 -62q124 0 222 102t98 230q0 95 -58 157.5t-155 62.5
zM379 836q0 26 21 47t48 21q20 0 33.5 -13.5t13.5 -33.5q0 -27 -21.5 -47t-47.5 -20q-21 0 -34 13t-13 33zM574 836q0 26 21 47t48 21q21 0 34 -13t13 -33q0 -27 -21 -47.5t-48 -20.5q-20 0 -33.5 13t-13.5 33z" />
    <glyph glyph-name="multiply" unicode="&#xd7;" horiz-adv-x="531" 
d="M166 458q16 0 26 -12l109 -136l163 136q12 11 29 11q15 0 24.5 -10t9.5 -24q0 -20 -17 -35l-162 -136l110 -136q6 -9 6 -19q0 -19 -15 -35t-34 -16q-17 0 -27 12l-109 136l-162 -135q-13 -12 -33 -12q-13 0 -22.5 10t-9.5 24q0 20 19 36l161 135l-111 137q-6 6 -6 18
q0 20 15.5 35.5t35.5 15.5z" />
    <glyph glyph-name="Oslash" unicode="&#xd8;" horiz-adv-x="823" 
d="M110 27l48 54q-75 80 -75 200q0 107 58.5 206t159.5 161t216 62q90 0 162 -45l44 50q16 18 38 18q13 0 22 -9t9 -22q0 -14 -12 -27l-48 -53q78 -83 78 -203q0 -112 -60 -211.5t-160 -158.5t-212 -59q-95 0 -167 47l-44 -49q-17 -19 -39 -19q-13 0 -21 9t-8 21q0 17 11 28
zM715 406q0 83 -47 143l-395 -442q52 -33 121 -33q124 0 222.5 102t98.5 230zM501 626q-126 0 -224 -102t-98 -231q0 -84 44 -140l394 442q-50 31 -116 31z" />
    <glyph glyph-name="Ugrave" unicode="&#xd9;" horiz-adv-x="765" 
d="M777 653l-67 -348q-28 -146 -128.5 -230.5t-227.5 -84.5q-116 0 -190.5 68.5t-74.5 181.5q0 36 10 86l66 338q4 20 19 33t34 13q18 0 30 -11t12 -27q0 -4 -3 -19l-66 -337q-8 -38 -8 -71q0 -82 50.5 -125.5t123.5 -43.5q92 0 164.5 61.5t93.5 169.5l69 356q4 20 19 33.5
t34 13.5q18 0 30 -11t12 -27q0 -7 -2 -19zM440 778l-82 92q-8 8 -8 22q0 18 15 33t34 15q15 0 25 -11l83 -93q9 -9 9 -23q0 -20 -15 -34t-35 -14q-15 0 -26 13z" />
    <glyph glyph-name="Uacute" unicode="&#xda;" horiz-adv-x="765" 
d="M777 653l-67 -348q-28 -146 -128.5 -230.5t-227.5 -84.5q-116 0 -190.5 68.5t-74.5 181.5q0 36 10 86l66 338q4 20 19 33t34 13q18 0 30 -11t12 -27q0 -4 -3 -19l-66 -337q-8 -38 -8 -71q0 -82 50.5 -125.5t123.5 -43.5q92 0 164.5 61.5t93.5 169.5l69 356q4 20 19 33.5
t34 13.5q18 0 30 -11t12 -27q0 -7 -2 -19zM624 864l-114 -89q-14 -11 -30 -11q-17 0 -28 10.5t-11 26.5q0 23 20 38l116 89q17 12 30 12q16 0 27 -11t11 -27q0 -22 -21 -38z" />
    <glyph glyph-name="Ucircumflex" unicode="&#xdb;" horiz-adv-x="765" 
d="M777 653l-67 -348q-28 -146 -128.5 -230.5t-227.5 -84.5q-116 0 -190.5 68.5t-74.5 181.5q0 36 10 86l66 338q4 20 19 33t34 13q18 0 30 -11t12 -27q0 -4 -3 -19l-66 -337q-8 -38 -8 -71q0 -82 50.5 -125.5t123.5 -43.5q92 0 164.5 61.5t93.5 169.5l69 356q4 20 19 33.5
t34 13.5q18 0 30 -11t12 -27q0 -7 -2 -19zM570 777l-66 73l-95 -73q-17 -14 -39 -14q-14 0 -24 9t-10 24q0 22 21 38l119 92q19 14 40 14q24 0 36 -14l84 -92q9 -9 9 -23q0 -21 -15 -34.5t-30 -13.5q-16 0 -30 14z" />
    <glyph glyph-name="Udieresis" unicode="&#xdc;" horiz-adv-x="765" 
d="M777 653l-67 -348q-28 -146 -128.5 -230.5t-227.5 -84.5q-116 0 -190.5 68.5t-74.5 181.5q0 36 10 86l66 338q4 20 19 33t34 13q18 0 30 -11t12 -27q0 -4 -3 -19l-66 -337q-8 -38 -8 -71q0 -82 50.5 -125.5t123.5 -43.5q92 0 164.5 61.5t93.5 169.5l69 356q4 20 19 33.5
t34 13.5q18 0 30 -11t12 -27q0 -7 -2 -19zM349 836q0 26 21 47t48 21q20 0 33.5 -13.5t13.5 -33.5q0 -27 -21.5 -47t-47.5 -20q-21 0 -34 13t-13 33zM544 836q0 26 21 47t48 21q21 0 34 -13t13 -33q0 -27 -21 -47.5t-48 -20.5q-20 0 -33.5 13t-13.5 33z" />
    <glyph glyph-name="Yacute" unicode="&#xdd;" horiz-adv-x="653" 
d="M254 49l47 244l-179 335q-9 16 -9 30q0 22 14.5 37t38.5 15q25 0 36 -20l162 -305l283 307q18 18 40 18q18 0 29 -10q12 -12 12 -28q0 -20 -18 -40l-312 -335l-50 -258q-4 -21 -19 -35t-37 -14q-17 0 -28.5 11t-11.5 28q0 8 2 20zM572 864l-114 -89q-14 -11 -30 -11
q-17 0 -28 10.5t-11 26.5q0 23 20 38l116 89q16 12 30 12q16 0 27 -11t11 -27q0 -22 -21 -38z" />
    <glyph glyph-name="Thorn" unicode="&#xde;" horiz-adv-x="634" 
d="M244 533l-57 -292h163q84 0 135 52.5t51 117.5q0 58 -32 90t-97 32h-163zM267 654l-7 -36h167q96 0 149 -53.5t53 -138.5q0 -111 -80 -190.5t-212 -79.5h-167l-22 -118q-4 -20 -19.5 -34.5t-36.5 -14.5q-17 0 -28 11t-11 27q0 6 2 18l119 616q4 20 19.5 34.5t36.5 14.5
q17 0 28 -11t11 -27q0 -6 -2 -18z" />
    <glyph glyph-name="germandbls" unicode="&#xdf;" horiz-adv-x="631" 
d="M396 73q50 0 82.5 30t32.5 67q0 24 -15 46t-36.5 39.5t-43 36.5t-36.5 45.5t-15 58.5q0 67 49.5 106.5t125.5 49.5q1 5 1 23q0 48 -32 75t-78 27q-59 0 -101.5 -40t-57.5 -113l-141 -707q-4 -21 -18.5 -34t-35.5 -13q-17 0 -29.5 11t-12.5 27q0 5 2 19l117 588h-23
q-15 0 -25 12t-10 28q0 18 16 31.5t36 13.5h23q45 250 269 250q89 0 138.5 -51.5t49.5 -123.5q0 -79 -62 -95l-21 -4q-21 -5 -29.5 -8.5t-24 -11.5t-22 -21t-6.5 -30q0 -23 22.5 -48t49.5 -45t49.5 -57t22.5 -82q0 -77 -64.5 -130t-156.5 -53q-65 0 -110.5 21t-45.5 54
q0 18 14 32t30 14q13 0 27 -9.5t37 -19t58 -9.5z" />
    <glyph glyph-name="agrave" unicode="&#xe0;" horiz-adv-x="627" 
d="M485 246q6 32 6 49q0 58 -36.5 96t-97.5 38q-83 0 -145.5 -64t-62.5 -152q0 -63 37 -102t102 -39q73 0 128 50t69 124zM440 47l3 17q-7 -8 -21 -20.5t-60 -33t-96 -20.5q-87 0 -147 61t-60 156q0 128 92 215.5t211 87.5q30 0 56.5 -7.5t43.5 -18.5t29.5 -22t18.5 -18
l5 -8l5 26q4 21 19 34.5t36 13.5q17 0 29.5 -11.5t12.5 -27.5q0 -5 -2 -19l-81 -415q-4 -21 -19 -34.5t-36 -13.5q-17 0 -29.5 11.5t-12.5 27.5q0 3 0.5 6t1.5 6.5t1 6.5zM357 578l-82 92q-8 8 -8 22q0 18 15 33t34 15q15 0 25 -11l83 -93q9 -9 9 -23q0 -20 -15 -34t-35 -14
q-15 0 -26 13z" />
    <glyph glyph-name="aacute" unicode="&#xe1;" horiz-adv-x="627" 
d="M485 246q6 32 6 49q0 58 -36.5 96t-97.5 38q-83 0 -145.5 -64t-62.5 -152q0 -63 37 -102t102 -39q73 0 128 50t69 124zM440 47l3 17q-7 -8 -21 -20.5t-60 -33t-96 -20.5q-87 0 -147 61t-60 156q0 128 92 215.5t211 87.5q30 0 56.5 -7.5t43.5 -18.5t29.5 -22t18.5 -18
l5 -8l5 26q4 21 19 34.5t36 13.5q17 0 29.5 -11.5t12.5 -27.5q0 -5 -2 -19l-81 -415q-4 -21 -19 -34.5t-36 -13.5q-17 0 -29.5 11.5t-12.5 27.5q0 3 0.5 6t1.5 6.5t1 6.5zM518 664l-114 -89q-14 -11 -30 -11q-17 0 -28 10.5t-11 26.5q0 23 20 38l116 89q17 12 30 12
q16 0 27 -11t11 -27q0 -22 -21 -38z" />
    <glyph glyph-name="acircumflex" unicode="&#xe2;" horiz-adv-x="627" 
d="M485 246q6 32 6 49q0 58 -36.5 96t-97.5 38q-83 0 -145.5 -64t-62.5 -152q0 -63 37 -102t102 -39q73 0 128 50t69 124zM440 47l3 17q-7 -8 -21 -20.5t-60 -33t-96 -20.5q-87 0 -147 61t-60 156q0 128 92 215.5t211 87.5q30 0 56.5 -7.5t43.5 -18.5t29.5 -22t18.5 -18
l5 -8l5 26q4 21 19 34.5t36 13.5q17 0 29.5 -11.5t12.5 -27.5q0 -5 -2 -19l-81 -415q-4 -21 -19 -34.5t-36 -13.5q-17 0 -29.5 11.5t-12.5 27.5q0 3 0.5 6t1.5 6.5t1 6.5zM460 577l-66 73l-95 -73q-17 -14 -39 -14q-14 0 -24 9t-10 24q0 22 21 38l119 92q19 14 40 14
q24 0 36 -14l84 -92q9 -9 9 -23q0 -21 -15 -34.5t-30 -13.5q-16 0 -30 14z" />
    <glyph glyph-name="atilde" unicode="&#xe3;" horiz-adv-x="627" 
d="M485 246q6 32 6 49q0 58 -36.5 96t-97.5 38q-83 0 -145.5 -64t-62.5 -152q0 -63 37 -102t102 -39q73 0 128 50t69 124zM440 47l3 17q-7 -8 -21 -20.5t-60 -33t-96 -20.5q-87 0 -147 61t-60 156q0 128 92 215.5t211 87.5q30 0 56.5 -7.5t43.5 -18.5t29.5 -22t18.5 -18
l5 -8l5 26q4 21 19 34.5t36 13.5q17 0 29.5 -11.5t12.5 -27.5q0 -5 -2 -19l-81 -415q-4 -21 -19 -34.5t-36 -13.5q-17 0 -29.5 11.5t-12.5 27.5q0 3 0.5 6t1.5 6.5t1 6.5zM347 708q26 0 48 -13t37 -26.5t24 -13.5q18 0 35 26.5t39 26.5q13 0 21.5 -8t8.5 -21
q0 -30 -33.5 -62.5t-86.5 -32.5q-26 0 -48 13t-36.5 26.5t-23.5 13.5q-16 0 -25.5 -13.5t-20.5 -26.5t-29 -13q-14 0 -22 7.5t-8 20.5q0 30 34 63t86 33z" />
    <glyph glyph-name="adieresis" unicode="&#xe4;" horiz-adv-x="627" 
d="M485 246q6 32 6 49q0 58 -36.5 96t-97.5 38q-83 0 -145.5 -64t-62.5 -152q0 -63 37 -102t102 -39q73 0 128 50t69 124zM440 47l3 17q-7 -8 -21 -20.5t-60 -33t-96 -20.5q-87 0 -147 61t-60 156q0 128 92 215.5t211 87.5q30 0 56.5 -7.5t43.5 -18.5t29.5 -22t18.5 -18
l5 -8l5 26q4 21 19 34.5t36 13.5q17 0 29.5 -11.5t12.5 -27.5q0 -5 -2 -19l-81 -415q-4 -21 -19 -34.5t-36 -13.5q-17 0 -29.5 11.5t-12.5 27.5q0 3 0.5 6t1.5 6.5t1 6.5zM238 636q0 26 21 47t48 21q20 0 33.5 -13.5t13.5 -33.5q0 -27 -21.5 -47t-47.5 -20q-21 0 -34 13
t-13 33zM433 636q0 26 21 47t48 21q21 0 34 -13t13 -33q0 -27 -21 -47.5t-48 -20.5q-20 0 -33.5 13t-13.5 33z" />
    <glyph glyph-name="aring" unicode="&#xe5;" horiz-adv-x="627" 
d="M485 246q6 32 6 49q0 58 -36.5 96t-97.5 38q-83 0 -145.5 -64t-62.5 -152q0 -63 37 -102t102 -39q73 0 128 50t69 124zM440 47l3 17q-7 -8 -21 -20.5t-60 -33t-96 -20.5q-87 0 -147 61t-60 156q0 128 92 215.5t211 87.5q30 0 56.5 -7.5t43.5 -18.5t29.5 -22t18.5 -18
l5 -8l5 26q4 21 19 34.5t36 13.5q17 0 29.5 -11.5t12.5 -27.5q0 -5 -2 -19l-81 -415q-4 -21 -19 -34.5t-36 -13.5q-17 0 -29.5 11.5t-12.5 27.5q0 3 0.5 6t1.5 6.5t1 6.5zM281 620q0 51 39.5 90t94.5 39q40 0 66 -24.5t26 -62.5q0 -51 -40.5 -89.5t-94.5 -38.5
q-40 0 -65.5 24t-25.5 62zM403 690q-21 0 -40 -17.5t-19 -40.5q0 -17 11.5 -28.5t28.5 -11.5q22 0 41 17.5t19 39.5q0 17 -12 29t-29 12z" />
    <glyph glyph-name="ae" unicode="&#xe6;" horiz-adv-x="976" 
d="M891 211h-330v-9q0 -62 36.5 -96t98.5 -34q41 0 88.5 21.5t59.5 21.5q15 0 24 -9.5t9 -23.5q0 -31 -30 -47q-83 -45 -167 -45q-49 0 -91 21.5t-59 52.5l-6 -26q-5 -20 -20 -34t-35 -14q-17 0 -28.5 11.5t-11.5 27.5q0 6 1 9l5 26q-79 -74 -173 -74q-87 0 -145 60.5
t-58 156.5q0 128 90 215.5t209 87.5q97 0 149 -73l5 25q4 21 18.5 34.5t34.5 13.5q17 0 29.5 -11.5t12.5 -27.5q0 -6 -1 -9l-5 -27q70 75 173 75q88 0 141 -58.5t53 -141.5q0 -38 -19 -68.5t-58 -30.5zM474 245q6 48 6 52q0 58 -33.5 95t-94.5 37q-81 0 -142 -64t-61 -152
q0 -64 35 -102.5t99 -38.5q71 0 125.5 50t65.5 123zM761 430q-61 0 -113 -40.5t-72 -101.5h306q0 2 0.5 7t0.5 7q0 51 -33 89.5t-89 38.5z" />
    <glyph glyph-name="ccedilla" unicode="&#xe7;" horiz-adv-x="503" 
d="M182 -68q3 10 12 22l28 43q-74 17 -116 73t-42 138q0 123 90 212.5t223 89.5q80 0 124 -28q21 -13 21 -33q0 -19 -17 -34.5t-36 -15.5q-12 0 -32 11q-32 19 -74 19q-83 0 -146.5 -65t-63.5 -147q0 -62 39 -103.5t103 -41.5q40 0 78.5 18t46.5 18q16 0 26 -10.5t10 -26.5
q0 -27 -33 -47q-55 -33 -134 -34l-21 -33q38 0 62 -20.5t24 -53.5q0 -49 -39.5 -81t-101.5 -32q-84 0 -84 37q0 14 11 24.5t23 10.5q11 0 25.5 -8t30.5 -8q20 0 33.5 14.5t13.5 32.5q0 13 -8.5 22t-22.5 9q-4 0 -14 -0.5t-11 -0.5q-29 0 -29 23q0 1 0.5 3t0.5 3z" />
    <glyph glyph-name="egrave" unicode="&#xe8;" horiz-adv-x="585" 
d="M510 211h-356q0 -59 40.5 -99t103.5 -40q57 0 129 35q16 8 29 8q16 0 25 -9.5t9 -23.5q0 -32 -30 -46q-84 -46 -178 -46q-99 0 -158.5 60t-59.5 158q0 123 89.5 212.5t220.5 89.5q94 0 149.5 -59t55.5 -138q0 -40 -16.5 -71t-52.5 -31zM363 430q-63 0 -119.5 -41
t-74.5 -101h326v11q0 58 -36 94.5t-96 36.5zM356 578l-82 92q-8 8 -8 22q0 18 15 33t34 15q15 0 25 -11l83 -93q9 -9 9 -23q0 -20 -15 -34t-35 -14q-15 0 -26 13z" />
    <glyph glyph-name="eacute" unicode="&#xe9;" horiz-adv-x="585" 
d="M510 211h-356q0 -59 40.5 -99t103.5 -40q57 0 129 35q16 8 29 8q16 0 25 -9.5t9 -23.5q0 -32 -30 -46q-84 -46 -178 -46q-99 0 -158.5 60t-59.5 158q0 123 89.5 212.5t220.5 89.5q94 0 149.5 -59t55.5 -138q0 -40 -16.5 -71t-52.5 -31zM363 430q-63 0 -119.5 -41
t-74.5 -101h326v11q0 58 -36 94.5t-96 36.5zM518 664l-114 -89q-14 -11 -30 -11q-17 0 -28 10.5t-11 26.5q0 23 20 38l116 89q17 12 30 12q16 0 27 -11t11 -27q0 -22 -21 -38z" />
    <glyph glyph-name="ecircumflex" unicode="&#xea;" horiz-adv-x="585" 
d="M510 211h-356q0 -59 40.5 -99t103.5 -40q57 0 129 35q16 8 29 8q16 0 25 -9.5t9 -23.5q0 -32 -30 -46q-84 -46 -178 -46q-99 0 -158.5 60t-59.5 158q0 123 89.5 212.5t220.5 89.5q94 0 149.5 -59t55.5 -138q0 -40 -16.5 -71t-52.5 -31zM363 430q-63 0 -119.5 -41
t-74.5 -101h326v11q0 58 -36 94.5t-96 36.5zM470 577l-66 73l-95 -73q-17 -14 -39 -14q-14 0 -24 9t-10 24q0 22 21 38l119 92q19 14 40 14q24 0 36 -14l84 -92q9 -9 9 -23q0 -21 -15 -34.5t-30 -13.5q-16 0 -30 14z" />
    <glyph glyph-name="edieresis" unicode="&#xeb;" horiz-adv-x="585" 
d="M510 211h-356q0 -59 40.5 -99t103.5 -40q57 0 129 35q16 8 29 8q16 0 25 -9.5t9 -23.5q0 -32 -30 -46q-84 -46 -178 -46q-99 0 -158.5 60t-59.5 158q0 123 89.5 212.5t220.5 89.5q94 0 149.5 -59t55.5 -138q0 -40 -16.5 -71t-52.5 -31zM363 430q-63 0 -119.5 -41
t-74.5 -101h326v11q0 58 -36 94.5t-96 36.5zM247 636q0 26 21 47t48 21q20 0 33.5 -13.5t13.5 -33.5q0 -27 -21.5 -47t-47.5 -20q-21 0 -34 13t-13 33zM442 636q0 26 21 47t48 21q21 0 34 -13t13 -33q0 -27 -21 -47.5t-48 -20.5q-20 0 -33.5 13t-13.5 33z" />
    <glyph glyph-name="igrave" unicode="&#xec;" horiz-adv-x="276" 
d="M236 452l-66 -338q-2 -8 -2 -15q0 -24 24 -24q16 0 26 -10t10 -25q0 -22 -18.5 -36t-43.5 -14q-45 0 -70.5 23.5t-25.5 61.5q0 17 4 39l67 349q4 21 19 34t36 13q17 0 29.5 -11.5t12.5 -27.5q0 -5 -2 -19zM183 578l-82 92q-8 8 -8 22q0 18 15 33t34 15q15 0 25 -11
l83 -93q9 -9 9 -23q0 -20 -15 -34t-35 -14q-15 0 -26 13z" />
    <glyph glyph-name="iacute" unicode="&#xed;" horiz-adv-x="276" 
d="M236 452l-66 -338q-2 -8 -2 -15q0 -24 24 -24q16 0 26 -10t10 -25q0 -22 -18.5 -36t-43.5 -14q-45 0 -70.5 23.5t-25.5 61.5q0 17 4 39l67 349q4 21 19 34t36 13q17 0 29.5 -11.5t12.5 -27.5q0 -5 -2 -19zM346 664l-114 -89q-14 -11 -30 -11q-17 0 -28 10.5t-11 26.5
q0 23 20 38l116 89q17 12 30 12q16 0 27 -11t11 -27q0 -22 -21 -38z" />
    <glyph glyph-name="icircumflex" unicode="&#xee;" horiz-adv-x="276" 
d="M236 452l-66 -338q-2 -8 -2 -15q0 -24 24 -24q16 0 26 -10t10 -25q0 -22 -18.5 -36t-43.5 -14q-45 0 -70.5 23.5t-25.5 61.5q0 17 4 39l67 349q4 21 19 34t36 13q17 0 29.5 -11.5t12.5 -27.5q0 -5 -2 -19zM293 577l-66 73l-95 -73q-17 -14 -39 -14q-14 0 -24 9t-10 24
q0 22 21 38l119 92q19 14 40 14q24 0 36 -14l84 -92q9 -9 9 -23q0 -21 -15 -34.5t-30 -13.5q-16 0 -30 14z" />
    <glyph glyph-name="idieresis" unicode="&#xef;" horiz-adv-x="276" 
d="M236 452l-66 -338q-2 -8 -2 -15q0 -24 24 -24q16 0 26 -10t10 -25q0 -22 -18.5 -36t-43.5 -14q-45 0 -70.5 23.5t-25.5 61.5q0 17 4 39l67 349q4 21 19 34t36 13q17 0 29.5 -11.5t12.5 -27.5q0 -5 -2 -19zM73 636q0 26 21 47t48 21q20 0 33.5 -13.5t13.5 -33.5
q0 -27 -21.5 -47t-47.5 -20q-21 0 -34 13t-13 33zM268 636q0 26 21 47t48 21q21 0 34 -13t13 -33q0 -27 -21 -47.5t-48 -20.5q-20 0 -33.5 13t-13.5 33z" />
    <glyph glyph-name="eth" unicode="&#xf0;" horiz-adv-x="604" 
d="M331 583l53 42q-18 14 -41.5 22t-39 10t-27 10.5t-11.5 25.5q0 20 16 33.5t37 13.5q36 0 76 -16t66 -37l67 54q13 11 29 11q13 0 23.5 -9t10.5 -23q0 -22 -17 -36l-61 -50q77 -92 77 -259q0 -97 -27.5 -173.5t-72.5 -121t-97.5 -67.5t-107.5 -23q-102 0 -161 56t-59 146
q0 119 86 202t199 84q97 0 149 -61q-4 98 -61 157l-62 -51q-16 -12 -30 -12q-13 0 -24 10t-11 24q0 22 21 38zM475 235q3 18 3 34q0 56 -36 91.5t-96 35.5q-80 0 -137.5 -57t-57.5 -139q0 -57 36.5 -93t97.5 -36q70 0 123.5 48t66.5 116z" />
    <glyph glyph-name="ntilde" unicode="&#xf1;" horiz-adv-x="638" 
d="M467 44l43 225q5 25 5 44q0 54 -31.5 84t-88.5 30q-64 0 -120 -38t-65 -85l-51 -267q-4 -21 -19 -34t-36 -13q-17 0 -29.5 11t-12.5 27q0 2 2 16l81 419q4 21 19 34t36 13q17 0 29 -11t12 -27q0 -5 -2 -19l-3 -17q34 33 84.5 53.5t98.5 20.5q90 0 141.5 -51t51.5 -133
q0 -22 -5 -52l-45 -237q-4 -21 -19 -34t-36 -13q-17 0 -29.5 11t-12.5 27q0 2 2 16zM384 708q26 0 48 -13t37 -26.5t24 -13.5q18 0 35 26.5t39 26.5q13 0 21.5 -8t8.5 -21q0 -30 -33.5 -62.5t-86.5 -32.5q-26 0 -47.5 13t-36.5 26.5t-24 13.5q-16 0 -25.5 -13.5t-20.5 -26.5
t-29 -13q-14 0 -22 7.5t-8 20.5q0 30 34 63t86 33z" />
    <glyph glyph-name="ograve" unicode="&#xf2;" horiz-adv-x="613" 
d="M378 510q96 0 157 -61t61 -157q0 -123 -90 -212.5t-224 -89.5q-96 0 -156.5 61t-60.5 157q0 124 89.5 213t223.5 89zM296 71q84 0 146.5 64.5t62.5 147.5q0 67 -37.5 107t-102.5 40q-84 0 -147 -65t-63 -148q0 -66 38 -106t103 -40zM354 578l-82 92q-8 8 -8 22
q0 18 15 33t34 15q15 0 25 -11l83 -93q9 -9 9 -23q0 -20 -15 -34t-35 -14q-15 0 -26 13z" />
    <glyph glyph-name="oacute" unicode="&#xf3;" horiz-adv-x="613" 
d="M378 510q96 0 157 -61t61 -157q0 -123 -90 -212.5t-224 -89.5q-96 0 -156.5 61t-60.5 157q0 124 89.5 213t223.5 89zM296 71q84 0 146.5 64.5t62.5 147.5q0 67 -37.5 107t-102.5 40q-84 0 -147 -65t-63 -148q0 -66 38 -106t103 -40zM526 664l-114 -89q-14 -11 -30 -11
q-17 0 -28 10.5t-11 26.5q0 23 20 38l116 89q17 12 30 12q16 0 27 -11t11 -27q0 -22 -21 -38z" />
    <glyph glyph-name="ocircumflex" unicode="&#xf4;" horiz-adv-x="613" 
d="M378 510q96 0 157 -61t61 -157q0 -123 -90 -212.5t-224 -89.5q-96 0 -156.5 61t-60.5 157q0 124 89.5 213t223.5 89zM296 71q84 0 146.5 64.5t62.5 147.5q0 67 -37.5 107t-102.5 40q-84 0 -147 -65t-63 -148q0 -66 38 -106t103 -40zM471 577l-66 73l-95 -73
q-18 -14 -39 -14q-14 0 -24 9t-10 24q0 22 21 38l119 92q19 14 40 14q24 0 36 -14l84 -92q9 -9 9 -23q0 -21 -15 -34.5t-30 -13.5q-16 0 -30 14z" />
    <glyph glyph-name="otilde" unicode="&#xf5;" horiz-adv-x="613" 
d="M378 510q96 0 157 -61t61 -157q0 -123 -90 -212.5t-224 -89.5q-96 0 -156.5 61t-60.5 157q0 124 89.5 213t223.5 89zM296 71q84 0 146.5 64.5t62.5 147.5q0 67 -37.5 107t-102.5 40q-84 0 -147 -65t-63 -148q0 -66 38 -106t103 -40zM363 708q26 0 48 -13t37 -26.5
t24 -13.5q18 0 35 26.5t39 26.5q13 0 21.5 -8t8.5 -21q0 -30 -33.5 -62.5t-86.5 -32.5q-26 0 -48 13t-36.5 26.5t-23.5 13.5q-16 0 -25.5 -13.5t-20.5 -26.5t-29 -13q-14 0 -22 7.5t-8 20.5q0 30 34 63t86 33z" />
    <glyph glyph-name="odieresis" unicode="&#xf6;" horiz-adv-x="613" 
d="M378 510q96 0 157 -61t61 -157q0 -123 -90 -212.5t-224 -89.5q-96 0 -156.5 61t-60.5 157q0 124 89.5 213t223.5 89zM296 71q84 0 146.5 64.5t62.5 147.5q0 67 -37.5 107t-102.5 40q-84 0 -147 -65t-63 -148q0 -66 38 -106t103 -40zM251 636q0 26 21 47t48 21
q20 0 33.5 -13.5t13.5 -33.5q0 -27 -21.5 -47t-47.5 -20q-21 0 -34 13t-13 33zM446 636q0 26 21 47t48 21q21 0 34 -13t13 -33q0 -27 -21 -47.5t-48 -20.5q-20 0 -33.5 13t-13.5 33z" />
    <glyph glyph-name="divide" unicode="&#xf7;" horiz-adv-x="589" 
d="M216 52q0 28 23 51t54 23q22 0 36.5 -14.5t14.5 -35.5q0 -31 -23 -53.5t-53 -22.5q-23 0 -37.5 14.5t-14.5 37.5zM289 425q0 28 22.5 51.5t53.5 23.5q23 0 37.5 -14.5t14.5 -36.5q0 -30 -23.5 -52.5t-52.5 -22.5q-23 0 -37.5 14.5t-14.5 36.5zM506 212h-386
q-15 0 -25.5 10t-10.5 24q0 20 14.5 34t35.5 14h386q14 0 24.5 -10.5t10.5 -24.5q0 -20 -14.5 -33.5t-34.5 -13.5z" />
    <glyph glyph-name="oslash" unicode="&#xf8;" horiz-adv-x="613" 
d="M377 510q63 0 113 -28l22 24q16 20 38 20q12 0 20.5 -9t8.5 -21q0 -10 -10 -22l-29 -32q55 -60 55 -150q0 -123 -90 -212.5t-224 -89.5q-65 0 -115 29l-18 -21q-19 -21 -39 -21q-12 0 -21 9t-9 21q0 10 10 22l27 31q-52 60 -52 148q0 124 89.5 213t223.5 89zM295 71
q84 0 146.5 64.5t62.5 147.5q0 54 -24 90l-255 -287q30 -15 70 -15zM154 217q0 -53 24 -88l253 286q-28 15 -67 15q-84 0 -147 -65t-63 -148z" />
    <glyph glyph-name="ugrave" unicode="&#xf9;" horiz-adv-x="628" 
d="M219 456l-43 -225q-5 -25 -5 -44q0 -54 31.5 -84t88.5 -30q64 0 120 38t65 85l51 267q4 21 19 34t36 13q17 0 29.5 -11t12.5 -27q0 -2 -2 -16l-81 -419q-4 -21 -19 -34t-36 -13q-17 0 -29 11t-12 27q0 5 2 19l3 17q-34 -33 -84.5 -53.5t-98.5 -20.5q-90 0 -141.5 51
t-51.5 133q0 22 5 52l45 237q4 21 19 34t36 13q17 0 29.5 -11t12.5 -27q0 -2 -2 -16zM352 578l-82 92q-8 8 -8 22q0 18 15 33t34 15q15 0 25 -11l83 -93q9 -9 9 -23q0 -20 -15 -34t-35 -14q-15 0 -26 13z" />
    <glyph glyph-name="uacute" unicode="&#xfa;" horiz-adv-x="628" 
d="M219 456l-43 -225q-5 -25 -5 -44q0 -54 31.5 -84t88.5 -30q64 0 120 38t65 85l51 267q4 21 19 34t36 13q17 0 29.5 -11t12.5 -27q0 -2 -2 -16l-81 -419q-4 -21 -19 -34t-36 -13q-17 0 -29 11t-12 27q0 5 2 19l3 17q-34 -33 -84.5 -53.5t-98.5 -20.5q-90 0 -141.5 51
t-51.5 133q0 22 5 52l45 237q4 21 19 34t36 13q17 0 29.5 -11t12.5 -27q0 -2 -2 -16zM524 664l-114 -89q-14 -11 -30 -11q-17 0 -28 10.5t-11 26.5q0 23 20 38l116 89q17 12 30 12q16 0 27 -11t11 -27q0 -22 -21 -38z" />
    <glyph glyph-name="ucircumflex" unicode="&#xfb;" horiz-adv-x="628" 
d="M219 456l-43 -225q-5 -25 -5 -44q0 -54 31.5 -84t88.5 -30q64 0 120 38t65 85l51 267q4 21 19 34t36 13q17 0 29.5 -11t12.5 -27q0 -2 -2 -16l-81 -419q-4 -21 -19 -34t-36 -13q-17 0 -29 11t-12 27q0 5 2 19l3 17q-34 -33 -84.5 -53.5t-98.5 -20.5q-90 0 -141.5 51
t-51.5 133q0 22 5 52l45 237q4 21 19 34t36 13q17 0 29.5 -11t12.5 -27q0 -2 -2 -16zM468 577l-66 73l-95 -73q-17 -14 -39 -14q-14 0 -24 9t-10 24q0 22 21 38l119 92q19 14 40 14q24 0 36 -14l84 -92q9 -9 9 -23q0 -21 -15 -34.5t-30 -13.5q-16 0 -30 14z" />
    <glyph glyph-name="udieresis" unicode="&#xfc;" horiz-adv-x="628" 
d="M219 456l-43 -225q-5 -25 -5 -44q0 -54 31.5 -84t88.5 -30q64 0 120 38t65 85l51 267q4 21 19 34t36 13q17 0 29.5 -11t12.5 -27q0 -2 -2 -16l-81 -419q-4 -21 -19 -34t-36 -13q-17 0 -29 11t-12 27q0 5 2 19l3 17q-34 -33 -84.5 -53.5t-98.5 -20.5q-90 0 -141.5 51
t-51.5 133q0 22 5 52l45 237q4 21 19 34t36 13q17 0 29.5 -11t12.5 -27q0 -2 -2 -16zM244 636q0 26 21 47t48 21q20 0 33.5 -13.5t13.5 -33.5q0 -27 -21.5 -47t-47.5 -20q-21 0 -34 13t-13 33zM439 636q0 26 21 47t48 21q21 0 34 -13t13 -33q0 -27 -21 -47.5t-48 -20.5
q-20 0 -33.5 13t-13.5 33z" />
    <glyph glyph-name="yacute" unicode="&#xfd;" horiz-adv-x="548" 
d="M585 437l-323 -562q-55 -95 -148 -95h-34q-16 0 -25.5 10t-9.5 26q0 20 15 34.5t36 14.5h25q20 0 32 8t23 28l68 117q-61 0 -71 43l-86 376q-3 12 -3 21q0 22 16.5 37t39.5 15q32 0 40 -32l88 -404h8l230 404q18 32 53 32q17 0 28 -11t11 -28q0 -11 -13 -34zM515 664
l-114 -89q-14 -11 -30 -11q-17 0 -28 10.5t-11 26.5q0 23 20 38l116 89q16 12 30 12q16 0 27 -11t11 -27q0 -22 -21 -38z" />
    <glyph glyph-name="thorn" unicode="&#xfe;" horiz-adv-x="627" 
d="M184 253q-6 -32 -6 -49q0 -58 36.5 -95.5t97.5 -37.5q83 0 145.5 63.5t62.5 151.5q0 64 -37 103.5t-102 39.5q-73 0 -128 -51t-69 -125zM271 652l-45 -217q7 8 21 20.5t60 33t96 20.5q87 0 147 -61t60 -156q0 -127 -91 -214.5t-207 -87.5q-32 0 -59.5 7.5t-45 18
t-30 21.5t-17.5 19l-6 7l-48 -245q-4 -21 -19 -34.5t-36 -13.5q-17 0 -29.5 11.5t-12.5 27.5q0 5 2 19l166 834q4 21 19 34.5t36 13.5q17 0 29.5 -11.5t12.5 -27.5q0 -3 -1.5 -10t-1.5 -9z" />
    <glyph glyph-name="ydieresis" unicode="&#xff;" horiz-adv-x="548" 
d="M585 437l-323 -562q-55 -95 -148 -95h-34q-16 0 -25.5 10t-9.5 26q0 20 15 34.5t36 14.5h25q20 0 32 8t23 28l68 117q-61 0 -71 43l-86 376q-3 12 -3 21q0 22 16.5 37t39.5 15q32 0 40 -32l88 -404h8l230 404q18 32 53 32q17 0 28 -11t11 -28q0 -11 -13 -34zM236 636
q0 26 21 47t48 21q20 0 33.5 -13.5t13.5 -33.5q0 -27 -21.5 -47t-47.5 -20q-21 0 -34 13t-13 33zM431 636q0 26 21 47t48 21q21 0 34 -13t13 -33q0 -27 -21 -47.5t-48 -20.5q-20 0 -33.5 13t-13.5 33z" />
    <glyph glyph-name="Amacron" unicode="&#x100;" horiz-adv-x="707" 
d="M549 29l-28 163h-326l-89 -161q-24 -41 -60 -41q-17 0 -27.5 11.5t-10.5 27.5t13 40l332 594q20 37 58 37h87q39 0 46 -37l100 -594q2 -14 2 -24q0 -23 -14.5 -39t-37.5 -16q-17 0 -30 11t-15 28zM433 618l-190 -341h265l-57 341h-18zM616 851q0 -19 -15 -34t-36 -15
h-177q-16 0 -25.5 9.5t-9.5 24.5q0 19 15.5 33.5t35.5 14.5h177q15 0 25 -9.5t10 -23.5z" />
    <glyph glyph-name="amacron" unicode="&#x101;" horiz-adv-x="627" 
d="M485 246q6 32 6 49q0 58 -36.5 96t-97.5 38q-83 0 -145.5 -64t-62.5 -152q0 -63 37 -102t102 -39q73 0 128 50t69 124zM440 47l3 17q-7 -8 -21 -20.5t-60 -33t-96 -20.5q-87 0 -147 61t-60 156q0 128 92 215.5t211 87.5q30 0 56.5 -7.5t43.5 -18.5t29.5 -22t18.5 -18
l5 -8l5 26q4 21 19 34.5t36 13.5q17 0 29.5 -11.5t12.5 -27.5q0 -5 -2 -19l-81 -415q-4 -21 -19 -34.5t-36 -13.5q-17 0 -29.5 11.5t-12.5 27.5q0 3 0.5 6t1.5 6.5t1 6.5zM525 651q0 -19 -15 -34t-36 -15h-177q-16 0 -25.5 9.5t-9.5 24.5q0 19 15.5 33.5t35.5 14.5h177
q15 0 25 -9.5t10 -23.5z" />
    <glyph glyph-name="Abreve" unicode="&#x102;" horiz-adv-x="707" 
d="M549 29l-28 163h-326l-89 -161q-24 -41 -60 -41q-17 0 -27.5 11.5t-10.5 27.5t13 40l332 594q20 37 58 37h87q39 0 46 -37l100 -594q2 -14 2 -24q0 -23 -14.5 -39t-37.5 -16q-17 0 -30 11t-15 28zM433 618l-190 -341h265l-57 341h-18zM553 899q4 18 16.5 29t29.5 11
q37 0 37 -32q0 -57 -52.5 -98t-115.5 -41q-54 0 -90.5 30.5t-36.5 77.5q0 26 12.5 44.5t36.5 18.5q16 0 25.5 -9.5t9.5 -23.5q0 -3 -1 -9t-1 -11q0 -17 13.5 -31.5t40.5 -14.5q30 0 51 18.5t25 40.5z" />
    <glyph glyph-name="abreve" unicode="&#x103;" horiz-adv-x="627" 
d="M485 246q6 32 6 49q0 58 -36.5 96t-97.5 38q-83 0 -145.5 -64t-62.5 -152q0 -63 37 -102t102 -39q73 0 128 50t69 124zM440 47l3 17q-7 -8 -21 -20.5t-60 -33t-96 -20.5q-87 0 -147 61t-60 156q0 128 92 215.5t211 87.5q30 0 56.5 -7.5t43.5 -18.5t29.5 -22t18.5 -18
l5 -8l5 26q4 21 19 34.5t36 13.5q17 0 29.5 -11.5t12.5 -27.5q0 -5 -2 -19l-81 -415q-4 -21 -19 -34.5t-36 -13.5q-17 0 -29.5 11.5t-12.5 27.5q0 3 0.5 6t1.5 6.5t1 6.5zM461 699q4 18 16.5 29t29.5 11q37 0 37 -32q0 -57 -52.5 -98t-115.5 -41q-54 0 -90.5 30.5
t-36.5 77.5q0 26 12.5 44.5t36.5 18.5q16 0 25.5 -9.5t9.5 -23.5q0 -3 -1 -9t-1 -11q0 -17 13.5 -31.5t40.5 -14.5q30 0 51 18.5t25 40.5z" />
    <glyph glyph-name="Aogonek" unicode="&#x104;" horiz-adv-x="707" 
d="M556 10q-5 7 -7 19l-28 163h-326l-89 -161q-24 -41 -60 -41q-17 0 -27.5 11.5t-10.5 27.5t13 40l332 594q20 37 58 37h87q39 0 46 -37l100 -594q2 -14 2 -24q0 -34 -31 -51q-32 -18 -77.5 -58t-45.5 -65t29 -25q7 0 24.5 7t28.5 7q15 0 23.5 -8t8.5 -21q0 -29 -32 -45
t-78 -16q-50 0 -74.5 21.5t-24.5 52.5q0 25 16.5 51t39.5 46t46.5 36t39.5 24.5t17 8.5zM433 618l-190 -341h265l-57 341h-18z" />
    <glyph glyph-name="aogonek" unicode="&#x105;" horiz-adv-x="627" 
d="M440 47l3 17q-7 -8 -21 -20.5t-60 -33t-96 -20.5q-87 0 -147 61t-60 156q0 128 92 215.5t211 87.5q30 0 56.5 -7.5t43.5 -18.5t29.5 -22t18.5 -18l5 -8l5 26q4 21 19 34.5t36 13.5q17 0 29.5 -11.5t12.5 -27.5q0 -5 -2 -19l-81 -415q-6 -28 -32 -42q-34 -19 -79 -58.5
t-45 -65.5q0 -25 29 -25q7 0 24.5 7t28.5 7q15 0 23.5 -8t8.5 -21q0 -29 -32 -45t-78 -16q-50 0 -74.5 21.5t-24.5 52.5q0 30 22 61t55.5 54.5t50.5 34t30 16.5q-4 7 -4 18q0 3 0.5 6t1.5 6.5t1 6.5zM485 246q6 32 6 49q0 58 -36.5 96t-97.5 38q-83 0 -145.5 -64t-62.5 -152
q0 -63 37 -102t102 -39q73 0 128 50t69 124z" />
    <glyph glyph-name="Cacute" unicode="&#x106;" horiz-adv-x="672" 
d="M77 282q0 79 32 155.5t87 137t136 98t173 37.5q64 0 128 -24t64 -60q0 -21 -14 -34.5t-29 -13.5q-14 0 -36 13q-55 35 -124 35q-127 0 -223.5 -103.5t-96.5 -227.5q0 -94 58 -157.5t155 -63.5q82 0 162 52q14 10 33 10q14 0 24.5 -10t10.5 -26q0 -30 -31 -49
q-96 -61 -215 -61q-128 0 -211 84t-83 208zM633 864l-114 -89q-14 -11 -30 -11q-17 0 -28 10.5t-11 26.5q0 23 20 38l116 89q16 12 30 12q16 0 27 -11t11 -27q0 -22 -21 -38z" />
    <glyph glyph-name="cacute" unicode="&#x107;" horiz-adv-x="503" 
d="M363 429q-83 0 -146.5 -65t-63.5 -147q0 -62 39 -103.5t103 -41.5q40 0 78.5 18t46.5 18q16 0 26 -10.5t10 -26.5q0 -27 -33 -47q-57 -34 -139 -34q-99 0 -159.5 60t-60.5 158q0 123 90 212.5t223 89.5q80 0 124 -28q21 -13 21 -33q0 -19 -17 -34.5t-36 -15.5
q-12 0 -32 11q-32 19 -74 19zM531 664l-114 -89q-14 -11 -30 -11q-17 0 -28 10.5t-11 26.5q0 23 20 38l116 89q16 12 30 12q16 0 27 -11t11 -27q0 -22 -21 -38z" />
    <glyph glyph-name="Ccircumflex" unicode="&#x108;" horiz-adv-x="672" 
d="M77 282q0 79 32 155.5t87 137t136 98t173 37.5q64 0 128 -24t64 -60q0 -21 -14 -34.5t-29 -13.5q-14 0 -36 13q-55 35 -124 35q-127 0 -223.5 -103.5t-96.5 -227.5q0 -94 58 -157.5t155 -63.5q82 0 162 52q14 10 33 10q14 0 24.5 -10t10.5 -26q0 -30 -31 -49
q-96 -61 -215 -61q-128 0 -211 84t-83 208zM595 777l-66 73l-95 -73q-17 -14 -39 -14q-14 0 -24 9t-10 24q0 22 21 38l119 92q19 14 40 14q24 0 36 -14l84 -92q9 -9 9 -23q0 -21 -15 -34.5t-30 -13.5q-16 0 -30 14z" />
    <glyph glyph-name="ccircumflex" unicode="&#x109;" horiz-adv-x="503" 
d="M363 429q-83 0 -146.5 -65t-63.5 -147q0 -62 39 -103.5t103 -41.5q40 0 78.5 18t46.5 18q16 0 26 -10.5t10 -26.5q0 -27 -33 -47q-57 -34 -139 -34q-99 0 -159.5 60t-60.5 158q0 123 90 212.5t223 89.5q80 0 124 -28q21 -13 21 -33q0 -19 -17 -34.5t-36 -15.5
q-12 0 -32 11q-32 19 -74 19zM470 577l-66 73l-95 -73q-17 -14 -39 -14q-14 0 -24 9t-10 24q0 22 21 38l119 92q19 14 40 14q24 0 36 -14l84 -92q9 -9 9 -23q0 -21 -15 -34.5t-30 -13.5q-16 0 -30 14z" />
    <glyph glyph-name="Cdotaccent" unicode="&#x10a;" horiz-adv-x="672" 
d="M77 282q0 79 32 155.5t87 137t136 98t173 37.5q64 0 128 -24t64 -60q0 -21 -14 -34.5t-29 -13.5q-14 0 -36 13q-55 35 -124 35q-127 0 -223.5 -103.5t-96.5 -227.5q0 -94 58 -157.5t155 -63.5q82 0 162 52q14 10 33 10q14 0 24.5 -10t10.5 -26q0 -30 -31 -49
q-96 -61 -215 -61q-128 0 -211 84t-83 208zM459 836q0 28 23.5 51t53.5 23q23 0 37.5 -14.5t14.5 -36.5q0 -30 -23.5 -52.5t-53.5 -22.5q-23 0 -37.5 15t-14.5 37z" />
    <glyph glyph-name="cdotaccent" unicode="&#x10b;" horiz-adv-x="503" 
d="M363 429q-83 0 -146.5 -65t-63.5 -147q0 -62 39 -103.5t103 -41.5q40 0 78.5 18t46.5 18q16 0 26 -10.5t10 -26.5q0 -27 -33 -47q-57 -34 -139 -34q-99 0 -159.5 60t-60.5 158q0 123 90 212.5t223 89.5q80 0 124 -28q21 -13 21 -33q0 -19 -17 -34.5t-36 -15.5
q-12 0 -32 11q-32 19 -74 19zM337 636q0 28 23.5 51t53.5 23q23 0 37.5 -14.5t14.5 -36.5q0 -30 -23.5 -52.5t-53.5 -22.5q-23 0 -37.5 15t-14.5 37z" />
    <glyph glyph-name="Ccaron" unicode="&#x10c;" horiz-adv-x="672" 
d="M77 282q0 79 32 155.5t87 137t136 98t173 37.5q64 0 128 -24t64 -60q0 -21 -14 -34.5t-29 -13.5q-14 0 -36 13q-55 35 -124 35q-127 0 -223.5 -103.5t-96.5 -227.5q0 -94 58 -157.5t155 -63.5q82 0 162 52q14 10 33 10q14 0 24.5 -10t10.5 -26q0 -30 -31 -49
q-96 -61 -215 -61q-128 0 -211 84t-83 208zM457 926l66 -73l95 73q18 14 39 14q14 0 24 -9t10 -24q0 -22 -21 -38l-119 -92q-19 -14 -40 -14q-24 0 -36 14l-84 92q-9 9 -9 23q0 21 15 34.5t30 13.5q16 0 30 -14z" />
    <glyph glyph-name="ccaron" unicode="&#x10d;" horiz-adv-x="503" 
d="M363 429q-83 0 -146.5 -65t-63.5 -147q0 -62 39 -103.5t103 -41.5q40 0 78.5 18t46.5 18q16 0 26 -10.5t10 -26.5q0 -27 -33 -47q-57 -34 -139 -34q-99 0 -159.5 60t-60.5 158q0 123 90 212.5t223 89.5q80 0 124 -28q21 -13 21 -33q0 -19 -17 -34.5t-36 -15.5
q-12 0 -32 11q-32 19 -74 19zM326 726l66 -73l95 73q17 14 39 14q14 0 24 -9t10 -24q0 -22 -21 -38l-119 -92q-19 -14 -40 -14q-24 0 -36 14l-84 92q-9 9 -9 23q0 21 15 34.5t30 13.5q16 0 30 -14z" />
    <glyph glyph-name="Dcaron" unicode="&#x10e;" horiz-adv-x="700" 
d="M226 700h169q141 0 219 -76t78 -201q0 -111 -49.5 -206t-149.5 -156t-231 -61h-173q-16 0 -26 10t-10 26q0 7 1 10l119 608q4 20 19 33t34 13zM378 615h-119l-103 -530h119q148 0 236 99t88 225q0 95 -54 150.5t-167 55.5zM347 926l66 -73l95 73q18 14 39 14q14 0 24 -9
t10 -24q0 -22 -21 -38l-119 -92q-19 -14 -40 -14q-24 0 -36 14l-84 92q-9 9 -9 23q0 21 15 34.5t30 13.5q16 0 30 -14z" />
    <glyph glyph-name="dcaron" unicode="&#x10f;" horiz-adv-x="749" 
d="M491 246q6 32 6 49q0 58 -36.5 96t-97.5 38q-83 0 -145.5 -64t-62.5 -152q0 -63 37 -102t102 -39q73 0 128 50t69 124zM446 47l3 17q-7 -8 -21 -20.5t-60 -33t-96 -20.5q-87 0 -147 61t-60 156q0 128 92 215.5t211 87.5q30 0 56.5 -7.5t43.5 -18.5t29.5 -22t18.5 -18
l5 -8l51 266q4 21 19 34.5t36 13.5q17 0 29.5 -11.5t12.5 -27.5q0 -5 -2 -19l-127 -655q-4 -21 -19 -34.5t-36 -13.5q-17 0 -29.5 11.5t-12.5 27.5q0 3 0.5 6t1.5 6.5t1 6.5zM730 683q0 26 20.5 46.5t48.5 20.5q19 0 35 -13.5t16 -47.5q0 -74 -46 -125t-84 -51
q-14 0 -22.5 7.5t-8.5 19.5q0 23 31 40q39 22 47 57q-37 6 -37 46z" />
    <glyph glyph-name="Dcroat" unicode="&#x110;" horiz-adv-x="708" 
d="M234 700h169q141 0 219 -76t78 -201q0 -111 -49.5 -206t-149.5 -156t-231 -61h-173q-16 0 -26 10t-10 26q0 7 1 10l53 274h-30q-15 0 -25 9.5t-10 23.5q0 19 15.5 34t35.5 15h30l50 252q4 20 19 33t34 13zM313 320h-104l-45 -235h119q148 0 236 99t88 225q0 95 -54 150.5
t-167 55.5h-119l-42 -213h104q14 0 23.5 -10t9.5 -24q0 -19 -15.5 -33.5t-33.5 -14.5z" />
    <glyph glyph-name="dcroat" unicode="&#x111;" horiz-adv-x="646" 
d="M681 565h-39l-102 -528q-4 -21 -19 -34.5t-36 -13.5q-17 0 -29.5 11.5t-12.5 27.5q0 3 0.5 6t1.5 6.5t1 6.5l3 17q-7 -8 -21 -20.5t-60 -33t-96 -20.5q-87 0 -147 61t-60 156q0 127 91 211t211 84q30 0 56.5 -7.5t43.5 -18.5t29.5 -22t17.5 -18l6 -8l25 137h-120
q-16 0 -25.5 9.5t-9.5 24.5q0 19 16 33.5t35 14.5h120l11 55q4 21 19 34.5t36 13.5q17 0 29.5 -11.5t12.5 -27.5q0 -5 -2 -19l-9 -45h39q14 0 23.5 -9.5t9.5 -23.5q0 -19 -15 -34t-34 -15zM491 246q4 21 4 41q0 58 -36 96t-97 38q-84 0 -145.5 -60.5t-61.5 -147.5
q0 -63 37 -102t102 -39q73 0 128 50t69 124z" />
    <glyph glyph-name="Emacron" unicode="&#x112;" horiz-adv-x="624" 
d="M156 86h355q17 0 27.5 -9.5t10.5 -24.5q0 -21 -16.5 -36.5t-38.5 -15.5h-402q-17 0 -27.5 10.5t-10.5 27.5q0 3 3 21l116 595q4 19 20 32.5t36 13.5h402q17 0 27 -9.5t10 -24.5q0 -21 -15.5 -36.5t-38.5 -15.5h-355l-41 -209h298q17 0 27 -9t10 -24q0 -21 -16.5 -37
t-37.5 -16h-298zM580 851q0 -19 -15 -34t-36 -15h-177q-16 0 -25.5 9.5t-9.5 24.5q0 19 15.5 33.5t35.5 14.5h177q15 0 25 -9.5t10 -23.5z" />
    <glyph glyph-name="emacron" unicode="&#x113;" horiz-adv-x="585" 
d="M510 211h-356q0 -59 40.5 -99t103.5 -40q57 0 129 35q16 8 29 8q16 0 25 -9.5t9 -23.5q0 -32 -30 -46q-84 -46 -178 -46q-99 0 -158.5 60t-59.5 158q0 123 89.5 212.5t220.5 89.5q94 0 149.5 -59t55.5 -138q0 -40 -16.5 -71t-52.5 -31zM363 430q-63 0 -119.5 -41
t-74.5 -101h326v11q0 58 -36 94.5t-96 36.5zM531 651q0 -19 -15 -34t-36 -15h-177q-16 0 -25.5 9.5t-9.5 24.5q0 19 15.5 33.5t35.5 14.5h177q15 0 25 -9.5t10 -23.5z" />
    <glyph glyph-name="Ebreve" unicode="&#x114;" horiz-adv-x="624" 
d="M156 86h355q17 0 27.5 -9.5t10.5 -24.5q0 -21 -16.5 -36.5t-38.5 -15.5h-402q-17 0 -27.5 10.5t-10.5 27.5q0 3 3 21l116 595q4 19 20 32.5t36 13.5h402q17 0 27 -9.5t10 -24.5q0 -21 -15.5 -36.5t-38.5 -15.5h-355l-41 -209h298q17 0 27 -9t10 -24q0 -21 -16.5 -37
t-37.5 -16h-298zM517 899q4 18 16.5 29t29.5 11q37 0 37 -32q0 -57 -52.5 -98t-115.5 -41q-54 0 -90.5 30.5t-36.5 77.5q0 26 12.5 44.5t36.5 18.5q16 0 25.5 -9.5t9.5 -23.5q0 -3 -1 -9t-1 -11q0 -17 13.5 -31.5t40.5 -14.5q30 0 51 18.5t25 40.5z" />
    <glyph glyph-name="ebreve" unicode="&#x115;" horiz-adv-x="585" 
d="M510 211h-356q0 -59 40.5 -99t103.5 -40q57 0 129 35q16 8 29 8q16 0 25 -9.5t9 -23.5q0 -32 -30 -46q-84 -46 -178 -46q-99 0 -158.5 60t-59.5 158q0 123 89.5 212.5t220.5 89.5q94 0 149.5 -59t55.5 -138q0 -40 -16.5 -71t-52.5 -31zM363 430q-63 0 -119.5 -41
t-74.5 -101h326v11q0 58 -36 94.5t-96 36.5zM466 699q4 18 16.5 29t29.5 11q37 0 37 -32q0 -57 -52.5 -98t-115.5 -41q-54 0 -90.5 30.5t-36.5 77.5q0 26 12.5 44.5t36.5 18.5q16 0 25.5 -9.5t9.5 -23.5q0 -3 -1 -9t-1 -11q0 -17 13.5 -31.5t40.5 -14.5q30 0 51 18.5
t25 40.5z" />
    <glyph glyph-name="Edotaccent" unicode="&#x116;" horiz-adv-x="624" 
d="M156 86h355q17 0 27.5 -9.5t10.5 -24.5q0 -21 -16.5 -36.5t-38.5 -15.5h-402q-17 0 -27.5 10.5t-10.5 27.5q0 3 3 21l116 595q4 19 20 32.5t36 13.5h402q17 0 27 -9.5t10 -24.5q0 -21 -15.5 -36.5t-38.5 -15.5h-355l-41 -209h298q17 0 27 -9t10 -24q0 -21 -16.5 -37
t-37.5 -16h-298zM386 836q0 28 23.5 51t53.5 23q23 0 37.5 -14.5t14.5 -36.5q0 -30 -23.5 -52.5t-53.5 -22.5q-22 0 -37 15t-15 37z" />
    <glyph glyph-name="edotaccent" unicode="&#x117;" horiz-adv-x="585" 
d="M510 211h-356q0 -59 40.5 -99t103.5 -40q57 0 129 35q16 8 29 8q16 0 25 -9.5t9 -23.5q0 -32 -30 -46q-84 -46 -178 -46q-99 0 -158.5 60t-59.5 158q0 123 89.5 212.5t220.5 89.5q94 0 149.5 -59t55.5 -138q0 -40 -16.5 -71t-52.5 -31zM363 430q-63 0 -119.5 -41
t-74.5 -101h326v11q0 58 -36 94.5t-96 36.5zM337 636q0 28 23.5 51t53.5 23q23 0 37.5 -14.5t14.5 -36.5q0 -30 -23.5 -52.5t-53.5 -22.5q-23 0 -37.5 15t-14.5 37z" />
    <glyph glyph-name="Eogonek" unicode="&#x118;" horiz-adv-x="624" 
d="M156 86h355q17 0 27.5 -9.5t10.5 -24.5q0 -30 -29 -46q-33 -19 -83 -62t-50 -71q0 -27 30 -27q7 0 24 7t28 7q32 0 32 -28q0 -29 -31.5 -45.5t-77.5 -16.5q-51 0 -76 21.5t-25 53.5q0 76 141 155h-339q-17 0 -28 11t-11 28q0 6 1 9l118 606q4 19 20 32.5t36 13.5h402
q17 0 27 -9.5t10 -24.5q0 -21 -15.5 -36.5t-38.5 -15.5h-355l-41 -209h298q17 0 27 -9t10 -24q0 -22 -16 -37.5t-37 -15.5h-298z" />
    <glyph glyph-name="eogonek" unicode="&#x119;" horiz-adv-x="585" 
d="M510 211h-356q0 -59 40.5 -99t103.5 -40q57 0 129 35q16 8 29 8q16 0 25 -9.5t9 -23.5q0 -31 -32 -47q-34 -18 -91.5 -73.5t-57.5 -90.5q0 -25 29 -25q7 0 24.5 7t28.5 7q15 0 23.5 -8t8.5 -21q0 -29 -32 -45t-78 -16q-50 0 -74.5 21.5t-24.5 52.5q0 76 132 152
q-40 -6 -64 -6q-99 0 -158.5 60t-59.5 158q0 123 89.5 212.5t220.5 89.5q94 0 149.5 -59t55.5 -138q0 -40 -16.5 -71t-52.5 -31zM363 430q-63 0 -119.5 -41t-74.5 -101h326v11q0 58 -36 94.5t-96 36.5z" />
    <glyph glyph-name="Ecaron" unicode="&#x11a;" horiz-adv-x="624" 
d="M156 86h355q17 0 27.5 -9.5t10.5 -24.5q0 -21 -16.5 -36.5t-38.5 -15.5h-402q-17 0 -27.5 10.5t-10.5 27.5q0 3 3 21l116 595q4 19 20 32.5t36 13.5h402q17 0 27 -9.5t10 -24.5q0 -21 -15.5 -36.5t-38.5 -15.5h-355l-41 -209h298q17 0 27 -9t10 -24q0 -21 -16.5 -37
t-37.5 -16h-298zM378 926l66 -73l95 73q17 14 39 14q14 0 24 -9t10 -24q0 -22 -21 -38l-119 -92q-19 -14 -40 -14q-24 0 -36 14l-84 92q-9 9 -9 23q0 21 15 34.5t30 13.5q16 0 30 -14z" />
    <glyph glyph-name="ecaron" unicode="&#x11b;" horiz-adv-x="585" 
d="M510 211h-356q0 -59 40.5 -99t103.5 -40q57 0 129 35q16 8 29 8q16 0 25 -9.5t9 -23.5q0 -32 -30 -46q-84 -46 -178 -46q-99 0 -158.5 60t-59.5 158q0 123 89.5 212.5t220.5 89.5q94 0 149.5 -59t55.5 -138q0 -40 -16.5 -71t-52.5 -31zM363 430q-63 0 -119.5 -41
t-74.5 -101h326v11q0 58 -36 94.5t-96 36.5zM322 726l66 -73l95 73q17 14 39 14q14 0 24 -9t10 -24q0 -22 -21 -38l-119 -92q-19 -14 -40 -14q-24 0 -36 14l-84 92q-9 9 -9 23q0 21 15 34.5t30 13.5q16 0 30 -14z" />
    <glyph glyph-name="Gcircumflex" unicode="&#x11c;" horiz-adv-x="744" 
d="M76 278q0 107 55 206t154.5 162.5t215.5 63.5q70 0 129 -24.5t90 -67.5q8 -9 8 -24q0 -17 -14 -32.5t-33 -15.5q-21 0 -43 22q-55 57 -149 57q-80 0 -153.5 -49t-117.5 -126t-44 -156q0 -93 57.5 -157t150.5 -64q103 0 188 62l31 160h-176q-18 0 -29 9.5t-11 25.5
q0 22 16.5 36.5t40.5 14.5h224q17 0 28.5 -11t11.5 -28q0 -1 -4 -23l-38 -195q-3 -15 -18 -30q-114 -104 -280 -104q-129 0 -209.5 81.5t-80.5 206.5zM596 777l-66 73l-95 -73q-17 -14 -39 -14q-14 0 -24 9t-10 24q0 22 21 38l119 92q19 14 40 14q24 0 36 -14l84 -92
q9 -9 9 -23q0 -21 -15 -34.5t-30 -13.5q-16 0 -30 14z" />
    <glyph glyph-name="gcircumflex" unicode="&#x11d;" horiz-adv-x="627" 
d="M491 246q6 32 6 49q0 58 -36.5 96t-97.5 38q-83 0 -145.5 -64t-62.5 -152q0 -63 37 -102t102 -39q73 0 128 50t69 124zM439 11l10 53q-7 -8 -21 -20.5t-60 -33t-96 -20.5q-87 0 -147 61t-60 156q0 128 92 215.5t211 87.5q30 0 56.5 -7.5t43.5 -18.5t29.5 -22t18.5 -18
l5 -8l5 26q4 21 19 34.5t36 13.5q17 0 29.5 -11.5t12.5 -27.5q0 -5 -2 -19l-85 -436q-22 -113 -103 -179.5t-194 -66.5q-81 0 -123 17.5t-42 44.5q0 20 15 35t37 15q6 0 42 -15.5t83 -15.5q67 0 121 46t67 114zM471 577l-66 73l-95 -73q-18 -14 -39 -14q-14 0 -24 9t-10 24
q0 22 21 38l119 92q19 14 40 14q24 0 36 -14l84 -92q9 -9 9 -23q0 -21 -15 -34.5t-30 -13.5q-16 0 -30 14z" />
    <glyph glyph-name="Gbreve" unicode="&#x11e;" horiz-adv-x="744" 
d="M76 278q0 107 55 206t154.5 162.5t215.5 63.5q70 0 129 -24.5t90 -67.5q8 -9 8 -24q0 -17 -14 -32.5t-33 -15.5q-21 0 -43 22q-55 57 -149 57q-80 0 -153.5 -49t-117.5 -126t-44 -156q0 -93 57.5 -157t150.5 -64q103 0 188 62l31 160h-176q-18 0 -29 9.5t-11 25.5
q0 22 16.5 36.5t40.5 14.5h224q17 0 28.5 -11t11.5 -28q0 -1 -4 -23l-38 -195q-3 -15 -18 -30q-114 -104 -280 -104q-129 0 -209.5 81.5t-80.5 206.5zM594 899q4 18 16.5 29t29.5 11q37 0 37 -32q0 -57 -52.5 -98t-115.5 -41q-54 0 -90.5 30.5t-36.5 77.5q0 26 12.5 44.5
t36.5 18.5q16 0 25.5 -9.5t9.5 -23.5q0 -3 -1 -9t-1 -11q0 -17 13.5 -31.5t40.5 -14.5q30 0 51 18.5t25 40.5z" />
    <glyph glyph-name="gbreve" unicode="&#x11f;" horiz-adv-x="627" 
d="M491 246q6 32 6 49q0 58 -36.5 96t-97.5 38q-83 0 -145.5 -64t-62.5 -152q0 -63 37 -102t102 -39q73 0 128 50t69 124zM439 11l10 53q-7 -8 -21 -20.5t-60 -33t-96 -20.5q-87 0 -147 61t-60 156q0 128 92 215.5t211 87.5q30 0 56.5 -7.5t43.5 -18.5t29.5 -22t18.5 -18
l5 -8l5 26q4 21 19 34.5t36 13.5q17 0 29.5 -11.5t12.5 -27.5q0 -5 -2 -19l-85 -436q-22 -113 -103 -179.5t-194 -66.5q-81 0 -123 17.5t-42 44.5q0 20 15 35t37 15q6 0 42 -15.5t83 -15.5q67 0 121 46t67 114zM466 699q4 18 16.5 29t29.5 11q37 0 37 -32q0 -57 -52.5 -98
t-115.5 -41q-54 0 -90.5 30.5t-36.5 77.5q0 26 12.5 44.5t36.5 18.5q16 0 25.5 -9.5t9.5 -23.5q0 -3 -1 -9t-1 -11q0 -17 13.5 -31.5t40.5 -14.5q30 0 51 18.5t25 40.5z" />
    <glyph glyph-name="Gdotaccent" unicode="&#x120;" horiz-adv-x="744" 
d="M76 278q0 107 55 206t154.5 162.5t215.5 63.5q70 0 129 -24.5t90 -67.5q8 -9 8 -24q0 -17 -14 -32.5t-33 -15.5q-21 0 -43 22q-55 57 -149 57q-80 0 -153.5 -49t-117.5 -126t-44 -156q0 -93 57.5 -157t150.5 -64q103 0 188 62l31 160h-176q-18 0 -29 9.5t-11 25.5
q0 22 16.5 36.5t40.5 14.5h224q17 0 28.5 -11t11.5 -28q0 -1 -4 -23l-38 -195q-3 -15 -18 -30q-114 -104 -280 -104q-129 0 -209.5 81.5t-80.5 206.5zM462 836q0 28 23.5 51t53.5 23q23 0 37.5 -14.5t14.5 -36.5q0 -30 -23.5 -52.5t-53.5 -22.5q-22 0 -37 15t-15 37z" />
    <glyph glyph-name="gdotaccent" unicode="&#x121;" horiz-adv-x="627" 
d="M491 246q6 32 6 49q0 58 -36.5 96t-97.5 38q-83 0 -145.5 -64t-62.5 -152q0 -63 37 -102t102 -39q73 0 128 50t69 124zM439 11l10 53q-7 -8 -21 -20.5t-60 -33t-96 -20.5q-87 0 -147 61t-60 156q0 128 92 215.5t211 87.5q30 0 56.5 -7.5t43.5 -18.5t29.5 -22t18.5 -18
l5 -8l5 26q4 21 19 34.5t36 13.5q17 0 29.5 -11.5t12.5 -27.5q0 -5 -2 -19l-85 -436q-22 -113 -103 -179.5t-194 -66.5q-81 0 -123 17.5t-42 44.5q0 20 15 35t37 15q6 0 42 -15.5t83 -15.5q67 0 121 46t67 114zM333 636q0 28 23.5 51t53.5 23q23 0 37.5 -14.5t14.5 -36.5
q0 -30 -23.5 -52.5t-53.5 -22.5q-23 0 -37.5 15t-14.5 37z" />
    <glyph glyph-name="Gcommaaccent" unicode="&#x122;" horiz-adv-x="744" 
d="M76 278q0 107 55 206t154.5 162.5t215.5 63.5q70 0 129 -24.5t90 -67.5q8 -9 8 -24q0 -17 -14 -32.5t-33 -15.5q-21 0 -43 22q-55 57 -149 57q-80 0 -153.5 -49t-117.5 -126t-44 -156q0 -93 57.5 -157t150.5 -64q103 0 188 62l31 160h-176q-18 0 -29 9.5t-11 25.5
q0 22 16.5 36.5t40.5 14.5h224q17 0 28.5 -11t11.5 -28q0 -1 -4 -23l-38 -195q-3 -15 -18 -30q-114 -104 -280 -104q-129 0 -209.5 81.5t-80.5 206.5zM297 -111q0 26 20.5 46.5t48.5 20.5q19 0 35 -13.5t16 -47.5q0 -74 -46.5 -125t-83.5 -51q-14 0 -22.5 7.5t-8.5 19.5
q0 23 31 40q39 22 47 57q-37 6 -37 46z" />
    <glyph glyph-name="gcommaaccent" unicode="&#x123;" horiz-adv-x="627" 
d="M491 246q6 32 6 49q0 58 -36.5 96t-97.5 38q-83 0 -145.5 -64t-62.5 -152q0 -63 37 -102t102 -39q73 0 128 50t69 124zM439 11l10 53q-7 -8 -21 -20.5t-60 -33t-96 -20.5q-87 0 -147 61t-60 156q0 128 92 215.5t211 87.5q30 0 56.5 -7.5t43.5 -18.5t29.5 -22t18.5 -18
l5 -8l5 26q4 21 19 34.5t36 13.5q17 0 29.5 -11.5t12.5 -27.5q0 -5 -2 -19l-85 -436q-22 -113 -103 -179.5t-194 -66.5q-81 0 -123 17.5t-42 44.5q0 20 15 35t37 15q6 0 42 -15.5t83 -15.5q67 0 121 46t67 114zM452 623q0 -26 -20.5 -46.5t-48.5 -20.5q-19 0 -35 13.5
t-16 47.5q0 74 46 125t84 51q14 0 22.5 -7.5t8.5 -19.5q0 -23 -31 -40q-39 -22 -47 -57q37 -6 37 -46z" />
    <glyph glyph-name="Hcircumflex" unicode="&#x124;" horiz-adv-x="765" 
d="M777 653l-119 -616q-4 -20 -19 -33.5t-34 -13.5q-18 0 -30 11t-12 27q0 7 2 19l52 272h-415l-54 -282q-4 -20 -19 -33.5t-34 -13.5q-18 0 -30 11t-12 27q0 7 2 19l119 616q4 20 19 33.5t34 13.5q18 0 30 -11t12 -27q0 -7 -2 -19l-48 -250h415l50 260q4 20 19 33.5
t34 13.5q18 0 30 -11t12 -27q0 -7 -2 -19zM566 777l-66 73l-95 -73q-17 -14 -39 -14q-14 0 -24 9t-10 24q0 22 21 38l119 92q19 14 40 14q24 0 36 -14l84 -92q9 -9 9 -23q0 -21 -15 -34.5t-30 -13.5q-16 0 -30 14z" />
    <glyph glyph-name="hcircumflex" unicode="&#x125;" horiz-adv-x="639" 
d="M467 47l44 223q4 24 4 43q0 55 -31 84.5t-88 29.5q-64 0 -120 -38t-65 -85l-52 -267q-4 -21 -19 -34t-36 -13q-17 0 -29.5 11t-12.5 27q0 5 2 19l128 655q4 21 19 34.5t36 13.5q17 0 29.5 -11.5t12.5 -27.5q0 -8 -3 -20l-50 -255q35 33 85.5 53.5t98.5 20.5
q90 0 141.5 -51t51.5 -133q0 -22 -5 -52l-46 -237q-4 -21 -19 -34t-36 -13q-17 0 -29.5 11t-12.5 27q0 5 2 19zM499 777l-66 73l-95 -73q-18 -14 -39 -14q-14 0 -24 9t-10 24q0 22 21 38l119 92q19 14 40 14q24 0 36 -14l84 -92q9 -9 9 -23q0 -21 -15 -34.5t-30 -13.5
q-16 0 -30 14z" />
    <glyph glyph-name="Hbar" unicode="&#x126;" horiz-adv-x="795" 
d="M801 500h-39l-89 -463q-4 -19 -20.5 -33t-36.5 -14q-17 0 -28 10.5t-11 27.5q0 5 3 20l52 271h-415l-54 -282q-4 -20 -20.5 -33.5t-35.5 -13.5q-18 0 -29 10.5t-11 27.5q0 5 2 15l88 457h-38q-15 0 -24.5 9t-9.5 23q0 20 15 35t35 15h38l16 80q4 20 20.5 34t36.5 14
q17 0 28 -11t11 -28q0 -7 -3 -20l-14 -69h415l16 80q4 20 20 34t36 14q17 0 28.5 -11t11.5 -28q0 -5 -3 -19l-14 -70h39q15 0 24.5 -10t9.5 -24q0 -19 -16 -33.5t-34 -14.5zM234 403h415l18 97h-414z" />
    <glyph glyph-name="hbar" unicode="&#x127;" horiz-adv-x="639" 
d="M382 565h-121l-27 -139q35 33 85.5 53.5t98.5 20.5q90 0 141.5 -51t51.5 -133q0 -22 -5 -52l-44 -227q-4 -21 -19 -34t-36 -13q-17 0 -29.5 11t-12.5 27q0 5 2 19l42 213q4 24 4 43q0 55 -31 84.5t-88 29.5q-64 0 -120 -38t-65 -85l-50 -257q-4 -21 -19 -34t-36 -13
q-17 0 -29.5 11t-12.5 27q0 5 2 19l101 518h-37q-16 0 -25 9t-9 23q0 20 14.5 35t35.5 15h37l11 55q4 21 19 34.5t36 13.5q17 0 29.5 -11.5t12.5 -27.5q0 -8 -3 -20l-9 -44h121q16 0 26 -10t10 -24q0 -19 -16.5 -33.5t-35.5 -14.5z" />
    <glyph glyph-name="Itilde" unicode="&#x128;" horiz-adv-x="275" 
d="M277 653l-119 -616q-4 -20 -19 -33.5t-34 -13.5q-18 0 -30 11t-12 27q0 7 2 19l119 616q4 20 19 33.5t34 13.5q18 0 30 -11t12 -27q0 -7 -2 -19zM219 908q26 0 48 -13t37 -26.5t24 -13.5q18 0 35 26.5t39 26.5q13 0 21.5 -8t8.5 -21q0 -30 -33.5 -62.5t-86.5 -32.5
q-26 0 -47.5 13t-36.5 26.5t-24 13.5q-16 0 -25.5 -13.5t-20.5 -26.5t-29 -13q-14 0 -22 7.5t-8 20.5q0 30 34 63t86 33z" />
    <glyph glyph-name="itilde" unicode="&#x129;" horiz-adv-x="276" 
d="M236 452l-66 -338q-2 -8 -2 -15q0 -24 24 -24q16 0 26 -10t10 -25q0 -22 -18.5 -36t-43.5 -14q-45 0 -70.5 23.5t-25.5 61.5q0 17 4 39l67 349q4 21 19 34t36 13q17 0 29.5 -11.5t12.5 -27.5q0 -5 -2 -19zM181 708q26 0 48 -13t37 -26.5t24 -13.5q18 0 35 26.5t39 26.5
q13 0 21.5 -8t8.5 -21q0 -30 -33.5 -62.5t-86.5 -32.5q-26 0 -48 13t-36.5 26.5t-23.5 13.5q-16 0 -25.5 -13.5t-20.5 -26.5t-29 -13q-14 0 -22 7.5t-8 20.5q0 30 34 63t86 33z" />
    <glyph glyph-name="Imacron" unicode="&#x12a;" horiz-adv-x="275" 
d="M277 653l-119 -616q-4 -20 -19 -33.5t-34 -13.5q-18 0 -30 11t-12 27q0 7 2 19l119 616q4 20 19 33.5t34 13.5q18 0 30 -11t12 -27q0 -7 -2 -19zM394 851q0 -19 -15 -34t-36 -15h-177q-16 0 -25.5 9.5t-9.5 24.5q0 19 15.5 33.5t35.5 14.5h177q15 0 25 -9.5t10 -23.5z
" />
    <glyph glyph-name="imacron" unicode="&#x12b;" horiz-adv-x="276" 
d="M236 452l-66 -338q-2 -8 -2 -15q0 -24 24 -24q16 0 26 -10t10 -25q0 -22 -18.5 -36t-43.5 -14q-45 0 -70.5 23.5t-25.5 61.5q0 17 4 39l67 349q4 21 19 34t36 13q17 0 29.5 -11.5t12.5 -27.5q0 -5 -2 -19zM358 651q0 -19 -15 -34t-36 -15h-177q-16 0 -25.5 9.5t-9.5 24.5
q0 19 15.5 33.5t35.5 14.5h177q15 0 25 -9.5t10 -23.5z" />
    <glyph glyph-name="Ibreve" unicode="&#x12c;" horiz-adv-x="275" 
d="M277 653l-119 -616q-4 -20 -19 -33.5t-34 -13.5q-18 0 -30 11t-12 27q0 7 2 19l119 616q4 20 19 33.5t34 13.5q18 0 30 -11t12 -27q0 -7 -2 -19zM332 899q4 18 16.5 29t29.5 11q37 0 37 -32q0 -57 -52.5 -98t-115.5 -41q-54 0 -90.5 30.5t-36.5 77.5q0 26 12.5 44.5
t36.5 18.5q16 0 25.5 -9.5t9.5 -23.5q0 -3 -1 -9t-1 -11q0 -17 13.5 -31.5t40.5 -14.5q30 0 51 18.5t25 40.5z" />
    <glyph glyph-name="ibreve" unicode="&#x12d;" horiz-adv-x="276" 
d="M236 452l-66 -338q-2 -8 -2 -15q0 -24 24 -24q16 0 26 -10t10 -25q0 -22 -18.5 -36t-43.5 -14q-45 0 -70.5 23.5t-25.5 61.5q0 17 4 39l67 349q4 21 19 34t36 13q17 0 29.5 -11.5t12.5 -27.5q0 -5 -2 -19zM291 699q4 18 16.5 29t29.5 11q37 0 37 -32q0 -57 -52.5 -98
t-115.5 -41q-54 0 -90.5 30.5t-36.5 77.5q0 26 12.5 44.5t36.5 18.5q16 0 25.5 -9.5t9.5 -23.5q0 -3 -1 -9t-1 -11q0 -17 13.5 -31.5t40.5 -14.5q30 0 51 18.5t25 40.5z" />
    <glyph glyph-name="Iogonek" unicode="&#x12e;" horiz-adv-x="275" 
d="M184 662q4 19 20 33.5t36 14.5q18 0 29 -11.5t11 -27.5q0 -4 -2 -14l-120 -619q-5 -25 -32 -42q-34 -20 -77.5 -59t-43.5 -66q0 -25 29 -25q7 0 24.5 7t28.5 7q15 0 23.5 -8t8.5 -21q0 -29 -32 -45t-78 -16q-50 0 -74.5 21.5t-24.5 52.5q0 29 20.5 58.5t51 52t51 35
t34.5 19.5q-5 10 -5 17q0 9 2 17z" />
    <glyph glyph-name="iogonek" unicode="&#x12f;" horiz-adv-x="276" 
d="M236 452l-66 -338q-2 -8 -2 -15q0 -24 24 -24q16 0 26 -10t10 -25q0 -23 -24 -40q-31 -20 -71.5 -61.5t-40.5 -67.5q0 -25 29 -25q7 0 24.5 7t28.5 7q15 0 23.5 -8t8.5 -21q0 -29 -32 -45t-78 -16q-50 0 -74.5 21.5t-24.5 52.5q0 75 131 152q-58 17 -58 79q0 17 4 39
l67 349q4 21 19 34t36 13q17 0 29.5 -11.5t12.5 -27.5q0 -5 -2 -19zM160 635q0 28 22.5 51.5t53.5 23.5q23 0 37.5 -14.5t14.5 -36.5q0 -30 -23.5 -52.5t-52.5 -22.5q-22 0 -37 14.5t-15 36.5z" />
    <glyph glyph-name="Idotaccent" unicode="&#x130;" horiz-adv-x="275" 
d="M277 653l-119 -616q-4 -20 -19 -33.5t-34 -13.5q-18 0 -30 11t-12 27q0 7 2 19l119 616q4 20 19 33.5t34 13.5q18 0 30 -11t12 -27q0 -7 -2 -19zM199 836q0 28 23.5 51t53.5 23q23 0 37.5 -14.5t14.5 -36.5q0 -30 -23.5 -52.5t-53.5 -22.5q-23 0 -37.5 15t-14.5 37z" />
    <glyph glyph-name="dotlessi" unicode="&#x131;" horiz-adv-x="276" 
d="M236 452l-66 -338q-2 -8 -2 -15q0 -24 24 -24q16 0 26 -10t10 -25q0 -22 -18.5 -36t-43.5 -14q-45 0 -70.5 23.5t-25.5 61.5q0 17 4 39l67 349q4 21 19 34t36 13q17 0 29.5 -11.5t12.5 -27.5q0 -5 -2 -19z" />
    <glyph glyph-name="IJ" unicode="&#x132;" horiz-adv-x="879" 
d="M896 653l-68 -354q-27 -143 -102 -226t-205 -83q-104 0 -162.5 62t-58.5 155q0 102 62 102q17 0 27.5 -10.5t10.5 -27.5q0 -7 -2.5 -24t-2.5 -30q0 -64 33.5 -103t99.5 -39q82 0 133 61t71 163l71 364q4 20 19 33.5t34 13.5q18 0 30 -11t12 -27q0 -7 -2 -19zM267 653
l-119 -616q-4 -20 -19 -33.5t-34 -13.5q-18 0 -30 11t-12 27q0 7 2 19l119 616q4 20 19 33.5t34 13.5q18 0 30 -11t12 -27q0 -7 -2 -19z" />
    <glyph glyph-name="ij" unicode="&#x133;" horiz-adv-x="524" 
d="M160 635q0 28 22.5 51.5t53.5 23.5q23 0 37.5 -14.5t14.5 -36.5q0 -30 -23.5 -52.5t-52.5 -22.5q-22 0 -37 14.5t-15 36.5zM236 452l-66 -338q-2 -8 -2 -15q0 -24 24 -24q16 0 26 -10t10 -25q0 -22 -18.5 -36t-43.5 -14q-45 0 -70.5 23.5t-25.5 61.5q0 17 4 39l67 349
q4 21 19 34t36 13q17 0 29.5 -11.5t12.5 -27.5q0 -5 -2 -19zM420 636q0 28 23.5 51t53.5 23q22 0 36.5 -14.5t14.5 -35.5q0 -31 -23 -53.5t-53 -22.5q-22 0 -37 15t-15 37zM493 453l-104 -535q-12 -62 -53.5 -100t-97.5 -38h-53q-18 0 -28.5 10t-10.5 26q0 20 15.5 34.5
t35.5 14.5h41q20 0 35.5 14t19.5 33l107 550q4 20 19 34t36 14q18 0 29 -11.5t11 -27.5q0 -8 -2 -18z" />
    <glyph glyph-name="Jcircumflex" unicode="&#x134;" horiz-adv-x="670" 
d="M687 653l-68 -354q-27 -139 -113 -224t-218 -85q-105 0 -171 63t-66 154q0 102 62 102q17 0 27.5 -10.5t10.5 -27.5q0 -7 -2.5 -24t-2.5 -30q0 -62 41 -102t108 -40q84 0 146.5 63t81.5 161l71 364q4 20 19 33.5t34 13.5q18 0 30 -11t12 -27q0 -7 -2 -19zM735 777l-66 73
l-95 -73q-18 -14 -39 -14q-14 0 -24 9t-10 24q0 22 21 38l119 92q19 14 40 14q24 0 36 -14l84 -92q9 -9 9 -23q0 -21 -15 -34.5t-30 -13.5q-16 0 -30 14z" />
    <glyph glyph-name="jcircumflex" unicode="&#x135;" horiz-adv-x="278" 
d="M247 453l-104 -535q-12 -62 -53.5 -100t-97.5 -38h-53q-18 0 -28.5 10t-10.5 26q0 20 15.5 34.5t35.5 14.5h41q20 0 35.5 14t19.5 33l107 550q4 20 19 34t36 14q18 0 29 -11.5t11 -27.5q0 -8 -2 -18zM302 577l-66 73l-95 -73q-17 -14 -39 -14q-14 0 -24 9t-10 24
q0 22 21 38l119 92q19 14 40 14q24 0 36 -14l84 -92q9 -9 9 -23q0 -21 -15 -34.5t-30 -13.5q-16 0 -30 14z" />
    <glyph glyph-name="Kcommaaccent" unicode="&#x136;" horiz-adv-x="652" 
d="M190 254l-42 -217q-4 -20 -19 -33.5t-34 -13.5q-18 0 -30 11t-12 27q0 7 2 19l119 616q4 20 19 33.5t34 13.5q18 0 30 -11t12 -27q0 -7 -2 -19l-53 -276l406 322q13 11 33 11q17 0 28 -11.5t11 -27.5q0 -25 -26 -45l-306 -239l225 -318q11 -14 11 -29q0 -22 -14 -36
t-37 -14q-22 0 -33 15l-228 324zM232 -111q0 26 20.5 46.5t48.5 20.5q19 0 35 -13.5t16 -47.5q0 -74 -46 -125t-84 -51q-14 0 -22.5 7.5t-8.5 19.5q0 23 31 40q39 22 47 57q-37 6 -37 46z" />
    <glyph glyph-name="kcommaaccent" unicode="&#x137;" horiz-adv-x="531" 
d="M185 171l-26 -134q-4 -21 -19 -34t-36 -13q-17 0 -29.5 11t-12.5 27q0 5 2 19l128 655q4 21 19 34.5t36 13.5q17 0 29.5 -11.5t12.5 -27.5q0 -8 -3 -20l-79 -405l261 206q22 18 43 18q18 0 28 -10t10 -27q0 -25 -18 -39l-196 -150l147 -220q7 -11 7 -25q0 -21 -15 -35
t-35 -14q-23 0 -32 13l-146 226zM193 -111q0 26 20.5 46.5t48.5 20.5q19 0 35 -13.5t16 -47.5q0 -74 -46.5 -125t-83.5 -51q-14 0 -22.5 7.5t-8.5 19.5q0 23 31 40q39 22 47 57q-37 6 -37 46z" />
    <glyph glyph-name="kgreenlandic" unicode="&#x138;" horiz-adv-x="531" 
d="M185 171l-26 -134q-4 -21 -19 -34t-36 -13q-17 0 -29.5 11t-12.5 27q0 5 2 19l82 415q4 21 19 34.5t36 13.5q17 0 29.5 -11.5t12.5 -27.5q0 -8 -3 -20l-33 -165l261 206q22 18 43 18q18 0 28 -10t10 -27q0 -25 -18 -39l-196 -150l147 -220q7 -11 7 -25q0 -21 -15 -35
t-35 -14q-23 0 -32 13l-146 226z" />
    <glyph glyph-name="Lacute" unicode="&#x139;" horiz-adv-x="549" 
d="M56 58l118 604q4 20 19.5 34t34.5 14q18 0 30 -11t12 -27q0 -7 -2 -19l-110 -568h305q17 0 28.5 -10t11.5 -25q0 -22 -17.5 -36t-39.5 -14h-353q-17 0 -28.5 11t-11.5 28q0 1 3 19zM412 864l-114 -89q-14 -11 -30 -11q-17 0 -28 10.5t-11 26.5q0 23 20 38l116 89
q17 12 30 12q16 0 27 -11t11 -27q0 -22 -21 -38z" />
    <glyph glyph-name="lacute" unicode="&#x13a;" horiz-adv-x="276" 
d="M275 653l-105 -539q-2 -8 -2 -15q0 -24 24 -24q16 0 26 -10t10 -25q0 -22 -18.5 -36t-43.5 -14q-45 0 -70.5 23.5t-25.5 61.5q0 17 4 39l106 550q4 21 19 34t36 13q17 0 29.5 -11.5t12.5 -27.5q0 -5 -2 -19zM385 863l-114 -89q-14 -11 -30 -11q-17 0 -28 10.5t-11 26.5
q0 23 20 38l116 89q16 12 30 12q16 0 27 -11t11 -27q0 -22 -21 -38z" />
    <glyph glyph-name="Lcommaaccent" unicode="&#x13b;" horiz-adv-x="549" 
d="M56 58l118 604q4 20 19.5 34t34.5 14q18 0 30 -11t12 -27q0 -7 -2 -19l-110 -568h305q17 0 28.5 -10t11.5 -25q0 -22 -17.5 -36t-39.5 -14h-353q-17 0 -28.5 11t-11.5 28q0 1 3 19zM214 -111q0 26 20.5 46.5t48.5 20.5q19 0 35 -13.5t16 -47.5q0 -74 -46 -125t-84 -51
q-14 0 -22.5 7.5t-8.5 19.5q0 23 31 40q39 22 47 57q-37 6 -37 46z" />
    <glyph glyph-name="lcommaaccent" unicode="&#x13c;" horiz-adv-x="276" 
d="M282 692l-112 -578q-2 -8 -2 -15q0 -24 24 -24q16 0 26 -10t10 -25q0 -22 -18.5 -36t-43.5 -14q-45 0 -70.5 23.5t-25.5 61.5q0 17 4 39l113 589q4 21 19 34t36 13q17 0 29.5 -11.5t12.5 -27.5q0 -5 -2 -19zM69 -111q0 26 20.5 46.5t48.5 20.5q19 0 35 -13.5t16 -47.5
q0 -74 -46.5 -125t-83.5 -51q-14 0 -22.5 7.5t-8.5 19.5q0 23 31 40q39 22 47 57q-37 6 -37 46z" />
    <glyph glyph-name="Lcaron" unicode="&#x13d;" horiz-adv-x="549" 
d="M56 58l118 604q4 20 19.5 34t34.5 14q18 0 30 -11t12 -27q0 -7 -2 -19l-110 -568h305q17 0 28.5 -10t11.5 -25q0 -22 -17.5 -36t-39.5 -14h-353q-17 0 -28.5 11t-11.5 28q0 1 3 19zM479 684q0 26 20.5 46.5t48.5 20.5q19 0 35 -13.5t16 -47.5q0 -74 -46 -125t-84 -51
q-14 0 -22.5 7.5t-8.5 19.5q0 23 31 40q39 22 47 57q-37 6 -37 46z" />
    <glyph glyph-name="lcaron" unicode="&#x13e;" horiz-adv-x="355" 
d="M282 692l-112 -578q-2 -8 -2 -15q0 -24 24 -24q16 0 26 -10t10 -25q0 -22 -18.5 -36t-43.5 -14q-45 0 -70.5 23.5t-25.5 61.5q0 17 4 39l113 589q4 21 19 34t36 13q17 0 29.5 -11.5t12.5 -27.5q0 -5 -2 -19zM337 683q0 26 20.5 46.5t48.5 20.5q19 0 35 -13.5t16 -47.5
q0 -74 -46.5 -125t-83.5 -51q-14 0 -22.5 7.5t-8.5 19.5q0 23 31 40q39 22 47 57q-37 6 -37 46z" />
    <glyph glyph-name="Ldot" unicode="&#x13f;" horiz-adv-x="549" 
d="M56 58l118 604q4 20 19.5 34t34.5 14q18 0 30 -11t12 -27q0 -7 -2 -19l-110 -568h305q17 0 28.5 -10t11.5 -25q0 -22 -17.5 -36t-39.5 -14h-353q-17 0 -28.5 11t-11.5 28q0 1 3 19zM416 344q0 28 22 52t54 24q23 0 37.5 -14.5t14.5 -37.5q0 -29 -24 -51.5t-53 -22.5
q-23 0 -37 14t-14 36z" />
    <glyph glyph-name="ldot" unicode="&#x140;" horiz-adv-x="399" 
d="M282 692l-112 -578q-2 -8 -2 -15q0 -24 24 -24q16 0 26 -10t10 -25q0 -22 -18.5 -36t-43.5 -14q-45 0 -70.5 23.5t-25.5 61.5q0 17 4 39l113 589q4 21 19 34t36 13q17 0 29.5 -11.5t12.5 -27.5q0 -5 -2 -19zM284 338q0 28 22 52t54 24q23 0 37.5 -14.5t14.5 -37.5
q0 -29 -24 -51.5t-53 -22.5q-23 0 -37 14t-14 36z" />
    <glyph glyph-name="Lslash" unicode="&#x141;" horiz-adv-x="548" 
d="M173 662q4 20 21 34t36 14q17 0 28.5 -11.5t11.5 -28.5q0 -4 -2 -14l-43 -217l105 54q10 5 19 5q15 0 24.5 -10t9.5 -24q0 -27 -27 -41l-149 -76l-50 -262h306q17 0 28 -9.5t11 -25.5q0 -22 -17 -36t-39 -14h-354q-17 0 -28.5 11t-11.5 28q0 6 1 9l48 246
q-41 -22 -54 -22t-23 9t-10 23q0 30 30 44l75 38z" />
    <glyph glyph-name="lslash" unicode="&#x142;" horiz-adv-x="311" 
d="M360 428l-140 -73l-47 -241q-2 -8 -2 -15q0 -24 24 -24q16 0 26 -10t10 -25q0 -22 -18.5 -36t-43.5 -14q-45 0 -70.5 23.5t-25.5 61.5q0 17 4 39l36 187l-20 -10q-18 -9 -30 -9q-14 0 -23.5 9t-9.5 25q0 28 31 44l70 36l59 307q4 21 19 34t36 13q17 0 29.5 -11.5
t12.5 -27.5q0 -5 -2 -19l-47 -242l90 47q16 8 26 8q15 0 24.5 -10t9.5 -23q0 -30 -28 -44z" />
    <glyph glyph-name="Nacute" unicode="&#x143;" horiz-adv-x="766" 
d="M777 653l-118 -604q-4 -19 -21 -34t-37 -15h-35q-32 0 -44 25l-255 516l-13 39l-106 -543q-4 -20 -19 -33.5t-34 -13.5q-18 0 -30 11t-12 27q0 7 2 19l118 604q4 19 21 34t38 15h34q32 0 44 -25l255 -516l13 -39l106 543q4 20 19 33.5t34 13.5q18 0 30 -11t12 -27
q0 -7 -2 -19zM615 864l-114 -89q-14 -11 -30 -11q-17 0 -28 10.5t-11 26.5q0 23 20 38l116 89q16 12 30 12q16 0 27 -11t11 -27q0 -22 -21 -38z" />
    <glyph glyph-name="nacute" unicode="&#x144;" horiz-adv-x="638" 
d="M467 44l43 225q5 25 5 44q0 54 -31.5 84t-88.5 30q-64 0 -120 -38t-65 -85l-51 -267q-4 -21 -19 -34t-36 -13q-17 0 -29.5 11t-12.5 27q0 2 2 16l81 419q4 21 19 34t36 13q17 0 29 -11t12 -27q0 -5 -2 -19l-3 -17q34 33 84.5 53.5t98.5 20.5q90 0 141.5 -51t51.5 -133
q0 -22 -5 -52l-45 -237q-4 -21 -19 -34t-36 -13q-17 0 -29.5 11t-12.5 27q0 2 2 16zM555 664l-114 -89q-14 -11 -30 -11q-17 0 -28 10.5t-11 26.5q0 23 20 38l116 89q16 12 30 12q16 0 27 -11t11 -27q0 -22 -21 -38z" />
    <glyph glyph-name="Ncommaaccent" unicode="&#x145;" horiz-adv-x="766" 
d="M777 653l-118 -604q-4 -19 -21 -34t-37 -15h-35q-32 0 -44 25l-255 516l-13 39l-106 -543q-4 -20 -19 -33.5t-34 -13.5q-18 0 -30 11t-12 27q0 7 2 19l118 604q4 19 21 34t38 15h34q32 0 44 -25l255 -516l13 -39l106 543q4 20 19 33.5t34 13.5q18 0 30 -11t12 -27
q0 -7 -2 -19zM272 -111q0 26 20.5 46.5t48.5 20.5q19 0 35 -13.5t16 -47.5q0 -74 -46 -125t-84 -51q-14 0 -22.5 7.5t-8.5 19.5q0 23 31 40q39 22 47 57q-37 6 -37 46z" />
    <glyph glyph-name="ncommaaccent" unicode="&#x146;" horiz-adv-x="638" 
d="M467 44l43 225q5 25 5 44q0 54 -31.5 84t-88.5 30q-64 0 -120 -38t-65 -85l-51 -267q-4 -21 -19 -34t-36 -13q-17 0 -29.5 11t-12.5 27q0 2 2 16l81 419q4 21 19 34t36 13q17 0 29 -11t12 -27q0 -5 -2 -19l-3 -17q34 33 84.5 53.5t98.5 20.5q90 0 141.5 -51t51.5 -133
q0 -22 -5 -52l-45 -237q-4 -21 -19 -34t-36 -13q-17 0 -29.5 11t-12.5 27q0 2 2 16zM229 -111q0 26 20.5 46.5t48.5 20.5q19 0 35 -13.5t16 -47.5q0 -74 -46.5 -125t-83.5 -51q-14 0 -22.5 7.5t-8.5 19.5q0 23 31 40q39 22 47 57q-37 6 -37 46z" />
    <glyph glyph-name="Ncaron" unicode="&#x147;" horiz-adv-x="766" 
d="M777 653l-118 -604q-4 -19 -21 -34t-37 -15h-35q-32 0 -44 25l-255 516l-13 39l-106 -543q-4 -20 -19 -33.5t-34 -13.5q-18 0 -30 11t-12 27q0 7 2 19l118 604q4 19 21 34t38 15h34q32 0 44 -25l255 -516l13 -39l106 543q4 20 19 33.5t34 13.5q18 0 30 -11t12 -27
q0 -7 -2 -19zM431 926l66 -73l95 73q18 14 39 14q14 0 24 -9t10 -24q0 -22 -21 -38l-119 -92q-19 -14 -40 -14q-24 0 -36 14l-84 92q-9 9 -9 23q0 21 15 34.5t30 13.5q16 0 30 -14z" />
    <glyph glyph-name="ncaron" unicode="&#x148;" horiz-adv-x="638" 
d="M467 44l43 225q5 25 5 44q0 54 -31.5 84t-88.5 30q-64 0 -120 -38t-65 -85l-51 -267q-4 -21 -19 -34t-36 -13q-17 0 -29.5 11t-12.5 27q0 2 2 16l81 419q4 21 19 34t36 13q17 0 29 -11t12 -27q0 -5 -2 -19l-3 -17q34 33 84.5 53.5t98.5 20.5q90 0 141.5 -51t51.5 -133
q0 -22 -5 -52l-45 -237q-4 -21 -19 -34t-36 -13q-17 0 -29.5 11t-12.5 27q0 2 2 16zM352 726l66 -73l95 73q17 14 39 14q14 0 24 -9t10 -24q0 -22 -21 -38l-119 -92q-19 -14 -40 -14q-24 0 -36 14l-84 92q-9 9 -9 23q0 21 15 34.5t30 13.5q16 0 30 -14z" />
    <glyph glyph-name="napostrophe" unicode="&#x149;" horiz-adv-x="638" 
d="M467 44l43 225q5 25 5 44q0 54 -31.5 84t-88.5 30q-64 0 -120 -38t-65 -85l-51 -267q-4 -21 -19 -34t-36 -13q-17 0 -29.5 11t-12.5 27q0 2 2 16l81 419q4 21 19 34t36 13q17 0 29 -11t12 -27q0 -5 -2 -19l-3 -17q34 33 84.5 53.5t98.5 20.5q90 0 141.5 -51t51.5 -133
q0 -22 -5 -52l-45 -237q-4 -21 -19 -34t-36 -13q-17 0 -29.5 11t-12.5 27q0 2 2 16zM68 641q0 26 20.5 46.5t48.5 20.5q19 0 35 -13.5t16 -47.5q0 -74 -46 -125t-84 -51q-14 0 -22.5 7.5t-8.5 19.5q0 23 31 40q39 22 47 57q-37 6 -37 46z" />
    <glyph glyph-name="Eng" unicode="&#x14a;" horiz-adv-x="766" 
d="M549 -28l-282 569l-13 39l-106 -543q-4 -20 -19 -33.5t-34 -13.5q-18 0 -30 11t-12 27q0 7 2 19l118 604q4 19 21 34t38 15h34q32 0 44 -25l255 -516l13 -39l106 543q4 20 19 33.5t34 13.5q18 0 30 -11t12 -27q0 -7 -2 -19l-141 -721q-14 -73 -69 -117.5t-135 -44.5
q-17 0 -28.5 9.5t-11.5 24.5q0 21 17.5 35.5t39.5 15.5q37 1 61.5 21.5t30.5 53.5z" />
    <glyph glyph-name="eng" unicode="&#x14b;" horiz-adv-x="628" 
d="M434 -70l66 339q5 25 5 44q0 54 -31.5 84t-88.5 30q-64 0 -120 -38t-65 -85l-51 -267q-4 -21 -19 -34t-36 -13q-17 0 -29.5 11t-12.5 27q0 2 2 16l81 419q4 21 19 34t36 13q17 0 29 -11t12 -27q0 -5 -2 -19l-3 -17q34 33 84.5 53.5t98.5 20.5q90 0 141.5 -51t51.5 -133
q0 -22 -5 -52l-66 -342q-13 -69 -70 -115.5t-134 -46.5q-17 0 -27 8.5t-10 23.5q0 23 15.5 37t38.5 16q36 2 60 22.5t30 52.5z" />
    <glyph glyph-name="Omacron" unicode="&#x14c;" horiz-adv-x="813" 
d="M76 281q0 82 33 159.5t89.5 137t138.5 96t173 36.5q127 0 210 -83.5t83 -207.5q0 -114 -57.5 -213t-156.5 -157.5t-214 -58.5q-132 0 -215.5 83t-83.5 208zM494 626q-126 0 -224 -102t-98 -231q0 -95 58.5 -157t156.5 -62q124 0 222 102t98 230q0 95 -58 157.5t-155 62.5
zM664 851q0 -19 -15 -34t-36 -15h-177q-16 0 -25.5 9.5t-9.5 24.5q0 19 15.5 33.5t35.5 14.5h177q15 0 25 -9.5t10 -23.5z" />
    <glyph glyph-name="omacron" unicode="&#x14d;" horiz-adv-x="613" 
d="M378 510q96 0 157 -61t61 -157q0 -123 -90 -212.5t-224 -89.5q-96 0 -156.5 61t-60.5 157q0 124 89.5 213t223.5 89zM296 71q84 0 146.5 64.5t62.5 147.5q0 67 -37.5 107t-102.5 40q-84 0 -147 -65t-63 -148q0 -66 38 -106t103 -40zM538 651q0 -19 -15 -34t-36 -15h-177
q-16 0 -25.5 9.5t-9.5 24.5q0 19 15.5 33.5t35.5 14.5h177q15 0 25 -9.5t10 -23.5z" />
    <glyph glyph-name="Obreve" unicode="&#x14e;" horiz-adv-x="813" 
d="M76 281q0 82 33 159.5t89.5 137t138.5 96t173 36.5q127 0 210 -83.5t83 -207.5q0 -114 -57.5 -213t-156.5 -157.5t-214 -58.5q-132 0 -215.5 83t-83.5 208zM494 626q-126 0 -224 -102t-98 -231q0 -95 58.5 -157t156.5 -62q124 0 222 102t98 230q0 95 -58 157.5t-155 62.5
zM601 899q4 18 16.5 29t29.5 11q37 0 37 -32q0 -57 -52.5 -98t-115.5 -41q-54 0 -90.5 30.5t-36.5 77.5q0 26 12.5 44.5t36.5 18.5q16 0 25.5 -9.5t9.5 -23.5q0 -3 -1 -9t-1 -11q0 -17 13.5 -31.5t40.5 -14.5q30 0 51 18.5t25 40.5z" />
    <glyph glyph-name="obreve" unicode="&#x14f;" horiz-adv-x="613" 
d="M378 510q96 0 157 -61t61 -157q0 -123 -90 -212.5t-224 -89.5q-96 0 -156.5 61t-60.5 157q0 124 89.5 213t223.5 89zM296 71q84 0 146.5 64.5t62.5 147.5q0 67 -37.5 107t-102.5 40q-84 0 -147 -65t-63 -148q0 -66 38 -106t103 -40zM471 699q4 18 16.5 29t29.5 11
q37 0 37 -32q0 -57 -52.5 -98t-115.5 -41q-54 0 -90.5 30.5t-36.5 77.5q0 26 12.5 44.5t36.5 18.5q16 0 25.5 -9.5t9.5 -23.5q0 -3 -1 -9t-1 -11q0 -17 13.5 -31.5t40.5 -14.5q30 0 51 18.5t25 40.5z" />
    <glyph glyph-name="Ohungarumlaut" unicode="&#x150;" horiz-adv-x="813" 
d="M76 281q0 82 33 159.5t89.5 137t138.5 96t173 36.5q127 0 210 -83.5t83 -207.5q0 -114 -57.5 -213t-156.5 -157.5t-214 -58.5q-132 0 -215.5 83t-83.5 208zM494 626q-126 0 -224 -102t-98 -231q0 -95 58.5 -157t156.5 -62q124 0 222 102t98 230q0 95 -58 157.5t-155 62.5
zM567 867l-119 -91q-13 -9 -24 -9q-15 0 -25 10.5t-10 24.5q0 17 18 32l117 90q13 10 26 10q14 0 24.5 -10.5t10.5 -24.5q0 -18 -18 -32zM760 867l-119 -91q-13 -9 -24 -9q-15 0 -25 10.5t-10 24.5q0 17 18 32l117 90q13 10 26 10q14 0 24.5 -10.5t10.5 -24.5q0 -18 -18 -32
z" />
    <glyph glyph-name="ohungarumlaut" unicode="&#x151;" horiz-adv-x="613" 
d="M378 510q96 0 157 -61t61 -157q0 -123 -90 -212.5t-224 -89.5q-96 0 -156.5 61t-60.5 157q0 124 89.5 213t223.5 89zM296 71q84 0 146.5 64.5t62.5 147.5q0 67 -37.5 107t-102.5 40q-84 0 -147 -65t-63 -148q0 -66 38 -106t103 -40zM430 667l-119 -91q-13 -9 -24 -9
q-15 0 -25 10.5t-10 24.5q0 17 18 32l117 90q13 10 26 10q14 0 24.5 -10.5t10.5 -24.5q0 -18 -18 -32zM623 667l-119 -91q-13 -9 -24 -9q-15 0 -25 10.5t-10 24.5q0 17 18 32l117 90q13 10 26 10q14 0 24.5 -10.5t10.5 -24.5q0 -18 -18 -32z" />
    <glyph glyph-name="OE" unicode="&#x152;" horiz-adv-x="1193" 
d="M730 86h350q17 0 27.5 -9.5t10.5 -24.5q0 -21 -16.5 -36.5t-38.5 -15.5h-397q-17 0 -27.5 10.5t-10.5 27.5q0 7 1 10l11 58q-129 -116 -274 -116q-129 0 -209.5 82.5t-80.5 206.5q0 111 58.5 210.5t158 160t212.5 60.5q146 0 230 -117l12 61q4 19 20 32.5t36 13.5h397
q17 0 27 -9.5t10 -24.5q0 -21 -15.5 -36.5t-38.5 -15.5h-350l-41 -209h293q17 0 27 -9t10 -24q0 -21 -16.5 -37t-37.5 -16h-293zM489 626q-82 0 -156 -48t-117.5 -125.5t-43.5 -161.5q0 -94 57.5 -155.5t152.5 -61.5q82 0 154.5 49t114.5 126.5t42 161.5q0 94 -55.5 154.5
t-148.5 60.5z" />
    <glyph glyph-name="oe" unicode="&#x153;" horiz-adv-x="977" 
d="M902 211h-336q2 -61 38 -100t95 -39q41 0 91 21.5t60 21.5q15 0 23.5 -9t8.5 -24q0 -30 -29 -46q-84 -46 -170 -46q-66 0 -114.5 31t-71.5 84q-39 -53 -99 -84t-124 -31q-92 0 -151 62t-59 156q0 127 92.5 214.5t212.5 87.5q64 0 112.5 -31t72.5 -84q40 53 100 84t119 31
q86 0 142 -59t56 -139q0 -39 -17 -70t-52 -31zM284 72q79 0 140 66t61 148q0 60 -36.5 100.5t-95.5 40.5q-77 0 -139 -65t-62 -145q0 -63 36 -104t96 -41zM765 430q-59 0 -113 -42t-71 -100h307q0 60 -32.5 101t-90.5 41z" />
    <glyph glyph-name="Racute" unicode="&#x154;" horiz-adv-x="653" 
d="M260 615l-54 -277h188q63 0 114.5 47.5t51.5 113.5q0 49 -32 82.5t-80 33.5h-188zM55 47l117 605q4 20 21.5 34t36.5 14h234q84 0 137.5 -51.5t53.5 -132.5q0 -84 -55 -157t-146 -100l103 -185q8 -12 8 -29q0 -21 -15.5 -38t-39.5 -17q-28 0 -40 23l-130 240h-151
l-41 -216q-4 -20 -19 -33.5t-34 -13.5q-18 0 -30 11t-12 27q0 7 2 19zM549 864l-114 -89q-14 -11 -30 -11q-17 0 -28 10.5t-11 26.5q0 23 20 38l116 89q16 12 30 12q16 0 27 -11t11 -27q0 -22 -21 -38z" />
    <glyph glyph-name="racute" unicode="&#x155;" horiz-adv-x="387" 
d="M364 500h40q17 0 28 -9t11 -25q0 -21 -16.5 -36t-38.5 -15h-45q-52 0 -94 -38t-51 -87l-49 -252q-4 -19 -21.5 -33.5t-36.5 -14.5q-17 0 -28 11.5t-11 27.5q0 4 3 19l80 414q4 19 21 33.5t36 14.5q17 0 28.5 -11.5t11.5 -28.5q0 -6 -6 -35q27 28 64 46.5t74 18.5z
M453 664l-114 -89q-14 -11 -30 -11q-17 0 -28 10.5t-11 26.5q0 23 20 38l116 89q17 12 30 12q16 0 27 -11t11 -27q0 -22 -21 -38z" />
    <glyph glyph-name="Rcommaaccent" unicode="&#x156;" horiz-adv-x="653" 
d="M260 615l-54 -277h188q63 0 114.5 47.5t51.5 113.5q0 49 -32 82.5t-80 33.5h-188zM55 47l117 605q4 20 21.5 34t36.5 14h234q84 0 137.5 -51.5t53.5 -132.5q0 -84 -55 -157t-146 -100l103 -185q8 -12 8 -29q0 -21 -15.5 -38t-39.5 -17q-28 0 -40 23l-130 240h-151
l-41 -216q-4 -20 -19 -33.5t-34 -13.5q-18 0 -30 11t-12 27q0 7 2 19zM226 -111q0 26 20.5 46.5t48.5 20.5q19 0 35 -13.5t16 -47.5q0 -74 -46 -125t-84 -51q-14 0 -22.5 7.5t-8.5 19.5q0 23 31 40q39 22 47 57q-37 6 -37 46z" />
    <glyph glyph-name="rcommaaccent" unicode="&#x157;" horiz-adv-x="387" 
d="M364 500h40q17 0 28 -9t11 -25q0 -21 -16.5 -36t-38.5 -15h-45q-52 0 -94 -38t-51 -87l-49 -252q-4 -19 -21.5 -33.5t-36.5 -14.5q-17 0 -28 11.5t-11 27.5q0 4 3 19l80 414q4 19 21 33.5t36 14.5q17 0 28.5 -11.5t11.5 -28.5q0 -6 -6 -35q27 28 64 46.5t74 18.5z
M144 -111q0 26 20.5 46.5t48.5 20.5q19 0 35 -13.5t16 -47.5q0 -74 -46 -125t-84 -51q-14 0 -22.5 7.5t-8.5 19.5q0 23 31 40q39 22 47 57q-37 6 -37 46z" />
    <glyph glyph-name="Rcaron" unicode="&#x158;" horiz-adv-x="653" 
d="M260 615l-54 -277h188q63 0 114.5 47.5t51.5 113.5q0 49 -32 82.5t-80 33.5h-188zM55 47l117 605q4 20 21.5 34t36.5 14h234q84 0 137.5 -51.5t53.5 -132.5q0 -84 -55 -157t-146 -100l103 -185q8 -12 8 -29q0 -21 -15.5 -38t-39.5 -17q-28 0 -40 23l-130 240h-151
l-41 -216q-4 -20 -19 -33.5t-34 -13.5q-18 0 -30 11t-12 27q0 7 2 19zM336 926l66 -73l95 73q17 14 39 14q14 0 24 -9t10 -24q0 -22 -21 -38l-119 -92q-19 -14 -40 -14q-24 0 -36 14l-84 92q-9 9 -9 23q0 21 15 34.5t30 13.5q16 0 30 -14z" />
    <glyph glyph-name="rcaron" unicode="&#x159;" horiz-adv-x="387" 
d="M364 500h40q17 0 28 -9t11 -25q0 -21 -16.5 -36t-38.5 -15h-45q-52 0 -94 -38t-51 -87l-49 -252q-4 -19 -21.5 -33.5t-36.5 -14.5q-17 0 -28 11.5t-11 27.5q0 4 3 19l80 414q4 19 21 33.5t36 14.5q17 0 28.5 -11.5t11.5 -28.5q0 -6 -6 -35q27 28 64 46.5t74 18.5z
M278 726l66 -73l95 73q18 14 39 14q14 0 24 -9t10 -24q0 -22 -21 -38l-119 -92q-19 -14 -40 -14q-24 0 -36 14l-84 92q-9 9 -9 23q0 21 15 34.5t30 13.5q16 0 30 -14z" />
    <glyph glyph-name="Sacute" unicode="&#x15a;" horiz-adv-x="604" 
d="M282 74q74 0 128.5 39.5t54.5 87.5q0 39 -35 64.5t-85 41.5t-100 35t-85 57.5t-35 95.5q0 93 79.5 154t192.5 61q96 0 151 -42.5t55 -82.5q0 -18 -10.5 -33t-32.5 -15q-26 0 -54 38q-39 54 -119 54q-71 0 -118 -38t-47 -81q0 -31 25.5 -54t63.5 -35.5t82 -29.5t82 -35.5
t63.5 -55t25.5 -85.5q0 -98 -85.5 -161.5t-206.5 -63.5q-105 0 -165.5 49t-60.5 90q0 21 14 36.5t33 15.5q16 0 29 -11t24.5 -26.5t26.5 -31.5t43 -27t66 -11zM554 864l-114 -89q-14 -11 -30 -11q-17 0 -28 10.5t-11 26.5q0 23 20 38l116 89q17 12 30 12q16 0 27 -11t11 -27
q0 -22 -21 -38z" />
    <glyph glyph-name="sacute" unicode="&#x15b;" horiz-adv-x="507" 
d="M245 71q45 0 88.5 18t43.5 57q0 21 -20.5 35.5t-52 21.5t-67.5 18t-67.5 23.5t-52 38.5t-20.5 63q0 76 66.5 120t151.5 44q95 0 154 -47q30 -23 30 -46q0 -19 -14.5 -34t-34.5 -15q-17 0 -40 23q-41 39 -105 39q-43 0 -79.5 -18t-36.5 -50q0 -23 29.5 -37.5t71 -25
t83 -24t71 -42.5t29.5 -73q0 -79 -71 -124.5t-164 -45.5q-101 0 -162 48q-34 27 -34 51q0 21 15.5 35.5t35.5 14.5q16 0 33 -19q42 -49 119 -49zM472 664l-114 -89q-14 -11 -30 -11q-17 0 -28 10.5t-11 26.5q0 23 20 38l116 89q17 12 30 12q16 0 27 -11t11 -27
q0 -22 -21 -38z" />
    <glyph glyph-name="Scircumflex" unicode="&#x15c;" horiz-adv-x="604" 
d="M282 74q74 0 128.5 39.5t54.5 87.5q0 39 -35 64.5t-85 41.5t-100 35t-85 57.5t-35 95.5q0 93 79.5 154t192.5 61q96 0 151 -42.5t55 -82.5q0 -18 -10.5 -33t-32.5 -15q-26 0 -54 38q-39 54 -119 54q-71 0 -118 -38t-47 -81q0 -31 25.5 -54t63.5 -35.5t82 -29.5t82 -35.5
t63.5 -55t25.5 -85.5q0 -98 -85.5 -161.5t-206.5 -63.5q-105 0 -165.5 49t-60.5 90q0 21 14 36.5t33 15.5q16 0 29 -11t24.5 -26.5t26.5 -31.5t43 -27t66 -11zM503 777l-66 73l-95 -73q-18 -14 -39 -14q-14 0 -24 9t-10 24q0 22 21 38l119 92q19 14 40 14q24 0 36 -14
l84 -92q9 -9 9 -23q0 -21 -15 -34.5t-30 -13.5q-16 0 -30 14z" />
    <glyph glyph-name="scircumflex" unicode="&#x15d;" horiz-adv-x="507" 
d="M245 71q45 0 88.5 18t43.5 57q0 21 -20.5 35.5t-52 21.5t-67.5 18t-67.5 23.5t-52 38.5t-20.5 63q0 76 66.5 120t151.5 44q95 0 154 -47q30 -23 30 -46q0 -19 -14.5 -34t-34.5 -15q-17 0 -40 23q-41 39 -105 39q-43 0 -79.5 -18t-36.5 -50q0 -23 29.5 -37.5t71 -25
t83 -24t71 -42.5t29.5 -73q0 -79 -71 -124.5t-164 -45.5q-101 0 -162 48q-34 27 -34 51q0 21 15.5 35.5t35.5 14.5q16 0 33 -19q42 -49 119 -49zM417 577l-66 73l-95 -73q-18 -14 -39 -14q-14 0 -24 9t-10 24q0 22 21 38l119 92q19 14 40 14q24 0 36 -14l84 -92q9 -9 9 -23
q0 -21 -15 -34.5t-30 -13.5q-16 0 -30 14z" />
    <glyph glyph-name="Scedilla" unicode="&#x15e;" horiz-adv-x="604" 
d="M188 -68q1 5 12 22l25 40q-84 11 -131.5 55.5t-47.5 79.5q0 21 14 36.5t33 15.5q16 0 29 -11t24.5 -26.5t26.5 -31.5t43 -27t66 -11q74 0 128.5 39.5t54.5 87.5q0 39 -35 64.5t-85 41.5t-100 35t-85 57.5t-35 95.5q0 93 79.5 154t192.5 61q96 0 151 -42.5t55 -82.5
q0 -18 -10.5 -33t-32.5 -15q-26 0 -54 38q-39 54 -119 54q-71 0 -118 -38t-47 -81q0 -31 25.5 -54t63.5 -35.5t82 -29.5t82 -35.5t63.5 -55t25.5 -85.5q0 -92 -77.5 -154.5t-190.5 -69.5l-22 -34q38 0 62 -20.5t24 -53.5q0 -49 -39.5 -81t-101.5 -32q-84 0 -84 37
q0 14 11 24.5t23 10.5q11 0 25.5 -8t30.5 -8q20 0 33.5 14.5t13.5 32.5q0 13 -8.5 22t-22.5 9q-4 0 -14 -0.5t-11 -0.5q-29 0 -29 23q0 1 0.5 3t0.5 3z" />
    <glyph glyph-name="scedilla" unicode="&#x15f;" horiz-adv-x="507" 
d="M153 -68q3 10 12 22l25 39q-69 9 -114 45q-34 27 -34 51q0 21 15.5 35.5t35.5 14.5q16 0 33 -19q42 -49 119 -49q45 0 88.5 18t43.5 57q0 21 -20.5 35.5t-52 21.5t-67.5 18t-67.5 23.5t-52 38.5t-20.5 63q0 76 66.5 120t151.5 44q95 0 154 -47q30 -23 30 -46
q0 -19 -14.5 -34t-34.5 -15q-17 0 -40 23q-41 39 -105 39q-43 0 -79.5 -18t-36.5 -50q0 -23 29.5 -37.5t71 -25t83 -24t71 -42.5t29.5 -73q0 -74 -62.5 -118t-149.5 -51l-22 -34q38 0 62 -20.5t24 -53.5q0 -49 -39.5 -81t-101.5 -32q-84 0 -84 37q0 14 11 24.5t23 10.5
q11 0 25.5 -8t30.5 -8q20 0 33.5 14.5t13.5 32.5q0 13 -8.5 22t-22.5 9q-4 0 -14 -0.5t-11 -0.5q-29 0 -29 23q0 1 0.5 3t0.5 3z" />
    <glyph glyph-name="Scaron" unicode="&#x160;" horiz-adv-x="585" 
d="M282 74q74 0 128.5 39.5t54.5 87.5q0 39 -35 64.5t-85 41.5t-100 35t-85 57.5t-35 95.5q0 93 79.5 154t192.5 61q96 0 151 -42.5t55 -82.5q0 -18 -10.5 -33t-32.5 -15q-26 0 -54 38q-39 54 -119 54q-71 0 -118 -38t-47 -81q0 -31 25.5 -54t63.5 -35.5t82 -29.5t82 -35.5
t63.5 -55t25.5 -85.5q0 -98 -85.5 -161.5t-206.5 -63.5q-105 0 -165.5 49t-60.5 90q0 21 14 36.5t33 15.5q16 0 29 -11t24.5 -26.5t26.5 -31.5t43 -27t66 -11zM365 926l66 -73l95 73q18 14 39 14q14 0 24 -9t10 -24q0 -22 -21 -38l-119 -92q-19 -14 -40 -14q-24 0 -36 14
l-84 92q-9 9 -9 23q0 21 15 34.5t30 13.5q16 0 30 -14z" />
    <glyph glyph-name="scaron" unicode="&#x161;" horiz-adv-x="507" 
d="M245 71q45 0 88.5 18t43.5 57q0 21 -20.5 35.5t-52 21.5t-67.5 18t-67.5 23.5t-52 38.5t-20.5 63q0 76 66.5 120t151.5 44q95 0 154 -47q30 -23 30 -46q0 -19 -14.5 -34t-34.5 -15q-17 0 -40 23q-41 39 -105 39q-43 0 -79.5 -18t-36.5 -50q0 -23 29.5 -37.5t71 -25
t83 -24t71 -42.5t29.5 -73q0 -79 -71 -124.5t-164 -45.5q-101 0 -162 48q-34 27 -34 51q0 21 15.5 35.5t35.5 14.5q16 0 33 -19q42 -49 119 -49zM274 726l66 -73l95 73q17 14 39 14q14 0 24 -9t10 -24q0 -22 -21 -38l-119 -92q-19 -14 -40 -14q-24 0 -36 14l-84 92
q-9 9 -9 23q0 21 15 34.5t30 13.5q16 0 30 -14z" />
    <glyph glyph-name="Tcommaaccent" unicode="&#x162;" horiz-adv-x="571" 
d="M616 700q17 0 28.5 -9.5t11.5 -25.5q0 -23 -17.5 -37t-41.5 -14h-179l-111 -575q-4 -21 -19 -35t-37 -14q-17 0 -28.5 11t-11.5 28q0 8 2 20l109 565h-178q-17 0 -29 10.5t-12 26.5q0 22 17.5 35.5t41.5 13.5h454zM225 -111q0 26 20.5 46.5t48.5 20.5q19 0 35 -13.5
t16 -47.5q0 -74 -46.5 -125t-83.5 -51q-14 0 -22.5 7.5t-8.5 19.5q0 23 31 40q39 22 47 57q-37 6 -37 46z" />
    <glyph glyph-name="tcommaaccent" unicode="&#x163;" horiz-adv-x="338" 
d="M266 575l-15 -75h92q15 0 25 -10t10 -25q0 -20 -16 -35t-36 -15h-92l-54 -279q-3 -15 -3 -22q0 -29 33 -29h36q18 0 28.5 -9.5t10.5 -24.5q0 -22 -16 -36.5t-41 -14.5h-45q-48 0 -76 28.5t-28 72.5q0 15 3 31l55 283h-39q-16 0 -26 10t-10 24q0 22 14.5 36.5t38.5 14.5
h39l17 86q4 21 19 34t36 13q17 0 29.5 -11.5t12.5 -27.5q0 -5 -2 -19zM111 -111q0 26 20.5 46.5t48.5 20.5q19 0 35 -13.5t16 -47.5q0 -74 -46.5 -125t-83.5 -51q-14 0 -22.5 7.5t-8.5 19.5q0 23 31 40q39 22 47 57q-37 6 -37 46z" />
    <glyph glyph-name="Tcaron" unicode="&#x164;" horiz-adv-x="571" 
d="M616 700q17 0 28.5 -9.5t11.5 -25.5q0 -23 -17.5 -37t-41.5 -14h-179l-111 -575q-4 -21 -19 -35t-37 -14q-17 0 -28.5 11t-11.5 28q0 8 2 20l109 565h-178q-17 0 -29 10.5t-12 26.5q0 22 17.5 35.5t41.5 13.5h454zM315 926l66 -73l95 73q17 14 39 14q14 0 24 -9t10 -24
q0 -22 -21 -38l-119 -92q-19 -14 -40 -14q-24 0 -36 14l-84 92q-9 9 -9 23q0 21 15 34.5t30 13.5q16 0 30 -14z" />
    <glyph glyph-name="tcaron" unicode="&#x165;" horiz-adv-x="370" 
d="M266 575l-15 -75h92q15 0 25 -10t10 -25q0 -20 -16 -35t-36 -15h-92l-54 -279q-3 -15 -3 -22q0 -29 33 -29h36q18 0 28.5 -9.5t10.5 -24.5q0 -22 -16 -36.5t-41 -14.5h-45q-48 0 -76 28.5t-28 72.5q0 15 3 31l55 283h-39q-16 0 -26 10t-10 24q0 22 14.5 36.5t38.5 14.5
h39l17 86q4 21 19 34t36 13q17 0 29.5 -11.5t12.5 -27.5q0 -5 -2 -19zM347 684q0 26 20.5 46.5t48.5 20.5q19 0 35 -13.5t16 -47.5q0 -74 -46.5 -125t-83.5 -51q-14 0 -22.5 7.5t-8.5 19.5q0 23 31 40q39 22 47 57q-37 6 -37 46z" />
    <glyph glyph-name="Tbar" unicode="&#x166;" horiz-adv-x="571" 
d="M616 700q20 0 31.5 -11.5t7.5 -30.5t-20 -31.5t-36 -12.5h-181l-41 -212h100q16 0 26 -12t7 -29t-17.5 -29t-31.5 -12h-100l-54 -281q-5 -20 -21.5 -34.5t-36.5 -14.5t-31.5 14.5t-6.5 34.5l54 281h-99q-17 0 -27 12t-7 29t18 29t32 12h99l41 212h-178q-20 0 -32 12.5
t-8 31.5t20.5 30.5t36.5 11.5h455z" />
    <glyph glyph-name="tbar" unicode="&#x167;" horiz-adv-x="338" 
d="M254 241h-54l-20 -105q-3 -15 -3 -22q0 -29 33 -29h36q18 0 28.5 -9.5t10.5 -24.5q0 -22 -16 -36.5t-41 -14.5h-45q-48 0 -76 28.5t-28 72.5q0 15 3 31l21 109h-23q-16 0 -26 10t-10 24q0 22 14.5 35.5t38.5 13.5h22l18 91h-39q-16 0 -26 10t-10 24q0 22 14.5 36.5
t38.5 14.5h39l17 86q4 21 19 34t36 13q17 0 29.5 -11.5t12.5 -27.5q0 -5 -2 -19l-15 -75h92q15 0 25 -10t10 -25q0 -20 -16 -35t-36 -15h-92l-18 -91h55q15 0 25 -10t10 -25q0 -20 -15.5 -34t-36.5 -14z" />
    <glyph glyph-name="Utilde" unicode="&#x168;" horiz-adv-x="765" 
d="M777 653l-67 -348q-28 -146 -128.5 -230.5t-227.5 -84.5q-116 0 -190.5 68.5t-74.5 181.5q0 36 10 86l66 338q4 20 19 33t34 13q18 0 30 -11t12 -27q0 -4 -3 -19l-66 -337q-8 -38 -8 -71q0 -82 50.5 -125.5t123.5 -43.5q92 0 164.5 61.5t93.5 169.5l69 356q4 20 19 33.5
t34 13.5q18 0 30 -11t12 -27q0 -7 -2 -19zM457 908q26 0 48 -13t37 -26.5t24 -13.5q18 0 35 26.5t39 26.5q13 0 21.5 -8t8.5 -21q0 -30 -33.5 -62.5t-86.5 -32.5q-26 0 -48 13t-36.5 26.5t-23.5 13.5q-16 0 -25.5 -13.5t-20.5 -26.5t-29 -13q-14 0 -22 7.5t-8 20.5
q0 30 34 63t86 33z" />
    <glyph glyph-name="utilde" unicode="&#x169;" horiz-adv-x="628" 
d="M219 456l-43 -225q-5 -25 -5 -44q0 -54 31.5 -84t88.5 -30q64 0 120 38t65 85l51 267q4 21 19 34t36 13q17 0 29.5 -11t12.5 -27q0 -2 -2 -16l-81 -419q-4 -21 -19 -34t-36 -13q-17 0 -29 11t-12 27q0 5 2 19l3 17q-34 -33 -84.5 -53.5t-98.5 -20.5q-90 0 -141.5 51
t-51.5 133q0 22 5 52l45 237q4 21 19 34t36 13q17 0 29.5 -11t12.5 -27q0 -2 -2 -16zM355 708q26 0 48 -13t37 -26.5t24 -13.5q18 0 35 26.5t39 26.5q13 0 21.5 -8t8.5 -21q0 -30 -33.5 -62.5t-86.5 -32.5q-26 0 -48 13t-36.5 26.5t-23.5 13.5q-16 0 -25.5 -13.5
t-20.5 -26.5t-29 -13q-14 0 -22 7.5t-8 20.5q0 30 34 63t86 33z" />
    <glyph glyph-name="Umacron" unicode="&#x16a;" horiz-adv-x="765" 
d="M777 653l-67 -348q-28 -146 -128.5 -230.5t-227.5 -84.5q-116 0 -190.5 68.5t-74.5 181.5q0 36 10 86l66 338q4 20 19 33t34 13q18 0 30 -11t12 -27q0 -4 -3 -19l-66 -337q-8 -38 -8 -71q0 -82 50.5 -125.5t123.5 -43.5q92 0 164.5 61.5t93.5 169.5l69 356q4 20 19 33.5
t34 13.5q18 0 30 -11t12 -27q0 -7 -2 -19zM636 851q0 -19 -15 -34t-36 -15h-177q-16 0 -25.5 9.5t-9.5 24.5q0 19 15.5 33.5t35.5 14.5h177q15 0 25 -9.5t10 -23.5z" />
    <glyph glyph-name="umacron" unicode="&#x16b;" horiz-adv-x="628" 
d="M219 456l-43 -225q-5 -25 -5 -44q0 -54 31.5 -84t88.5 -30q64 0 120 38t65 85l51 267q4 21 19 34t36 13q17 0 29.5 -11t12.5 -27q0 -2 -2 -16l-81 -419q-4 -21 -19 -34t-36 -13q-17 0 -29 11t-12 27q0 5 2 19l3 17q-34 -33 -84.5 -53.5t-98.5 -20.5q-90 0 -141.5 51
t-51.5 133q0 22 5 52l45 237q4 21 19 34t36 13q17 0 29.5 -11t12.5 -27q0 -2 -2 -16zM532 651q0 -19 -15 -34t-36 -15h-177q-16 0 -25.5 9.5t-9.5 24.5q0 19 15.5 33.5t35.5 14.5h177q15 0 25 -9.5t10 -23.5z" />
    <glyph glyph-name="Ubreve" unicode="&#x16c;" horiz-adv-x="765" 
d="M777 653l-67 -348q-28 -146 -128.5 -230.5t-227.5 -84.5q-116 0 -190.5 68.5t-74.5 181.5q0 36 10 86l66 338q4 20 19 33t34 13q18 0 30 -11t12 -27q0 -4 -3 -19l-66 -337q-8 -38 -8 -71q0 -82 50.5 -125.5t123.5 -43.5q92 0 164.5 61.5t93.5 169.5l69 356q4 20 19 33.5
t34 13.5q18 0 30 -11t12 -27q0 -7 -2 -19zM568 899q4 18 16.5 29t29.5 11q37 0 37 -32q0 -57 -52.5 -98t-115.5 -41q-54 0 -90.5 30.5t-36.5 77.5q0 26 12.5 44.5t36.5 18.5q16 0 25.5 -9.5t9.5 -23.5q0 -3 -1 -9t-1 -11q0 -17 13.5 -31.5t40.5 -14.5q30 0 51 18.5t25 40.5z
" />
    <glyph glyph-name="ubreve" unicode="&#x16d;" horiz-adv-x="628" 
d="M219 456l-43 -225q-5 -25 -5 -44q0 -54 31.5 -84t88.5 -30q64 0 120 38t65 85l51 267q4 21 19 34t36 13q17 0 29.5 -11t12.5 -27q0 -2 -2 -16l-81 -419q-4 -21 -19 -34t-36 -13q-17 0 -29 11t-12 27q0 5 2 19l3 17q-34 -33 -84.5 -53.5t-98.5 -20.5q-90 0 -141.5 51
t-51.5 133q0 22 5 52l45 237q4 21 19 34t36 13q17 0 29.5 -11t12.5 -27q0 -2 -2 -16zM465 699q4 18 16.5 29t29.5 11q37 0 37 -32q0 -57 -52.5 -98t-115.5 -41q-54 0 -90.5 30.5t-36.5 77.5q0 26 12.5 44.5t36.5 18.5q16 0 25.5 -9.5t9.5 -23.5q0 -3 -1 -9t-1 -11
q0 -17 13.5 -31.5t40.5 -14.5q30 0 51 18.5t25 40.5z" />
    <glyph glyph-name="Uring" unicode="&#x16e;" horiz-adv-x="765" 
d="M777 653l-67 -348q-28 -146 -128.5 -230.5t-227.5 -84.5q-116 0 -190.5 68.5t-74.5 181.5q0 36 10 86l66 338q4 20 19 33t34 13q18 0 30 -11t12 -27q0 -4 -3 -19l-66 -337q-8 -38 -8 -71q0 -82 50.5 -125.5t123.5 -43.5q92 0 164.5 61.5t93.5 169.5l69 356q4 20 19 33.5
t34 13.5q18 0 30 -11t12 -27q0 -7 -2 -19zM386 820q0 51 39.5 90t94.5 39q40 0 66 -24.5t26 -62.5q0 -51 -40.5 -89.5t-94.5 -38.5q-40 0 -65.5 24t-25.5 62zM508 890q-21 0 -40 -17.5t-19 -40.5q0 -17 11.5 -28.5t28.5 -11.5q22 0 41 17.5t19 39.5q0 17 -12 29t-29 12z" />
    <glyph glyph-name="uring" unicode="&#x16f;" horiz-adv-x="628" 
d="M219 456l-43 -225q-5 -25 -5 -44q0 -54 31.5 -84t88.5 -30q64 0 120 38t65 85l51 267q4 21 19 34t36 13q17 0 29.5 -11t12.5 -27q0 -2 -2 -16l-81 -419q-4 -21 -19 -34t-36 -13q-17 0 -29 11t-12 27q0 5 2 19l3 17q-34 -33 -84.5 -53.5t-98.5 -20.5q-90 0 -141.5 51
t-51.5 133q0 22 5 52l45 237q4 21 19 34t36 13q17 0 29.5 -11t12.5 -27q0 -2 -2 -16zM288 620q0 51 39.5 90t94.5 39q40 0 66 -24.5t26 -62.5q0 -51 -40.5 -89.5t-94.5 -38.5q-40 0 -65.5 24t-25.5 62zM410 690q-21 0 -40 -17.5t-19 -40.5q0 -17 11.5 -28.5t28.5 -11.5
q22 0 41 17.5t19 39.5q0 17 -12 29t-29 12z" />
    <glyph glyph-name="Uhungarumlaut" unicode="&#x170;" horiz-adv-x="765" 
d="M777 653l-67 -348q-28 -146 -128.5 -230.5t-227.5 -84.5q-116 0 -190.5 68.5t-74.5 181.5q0 36 10 86l66 338q4 20 19 33t34 13q18 0 30 -11t12 -27q0 -4 -3 -19l-66 -337q-8 -38 -8 -71q0 -82 50.5 -125.5t123.5 -43.5q92 0 164.5 61.5t93.5 169.5l69 356q4 20 19 33.5
t34 13.5q18 0 30 -11t12 -27q0 -7 -2 -19zM532 867l-119 -91q-13 -9 -24 -9q-15 0 -25 10.5t-10 24.5q0 17 18 32l117 90q13 10 26 10q14 0 24.5 -10.5t10.5 -24.5q0 -18 -18 -32zM725 867l-119 -91q-13 -9 -24 -9q-15 0 -25 10.5t-10 24.5q0 17 18 32l117 90q13 10 26 10
q14 0 24.5 -10.5t10.5 -24.5q0 -18 -18 -32z" />
    <glyph glyph-name="uhungarumlaut" unicode="&#x171;" horiz-adv-x="628" 
d="M219 456l-43 -225q-5 -25 -5 -44q0 -54 31.5 -84t88.5 -30q64 0 120 38t65 85l51 267q4 21 19 34t36 13q17 0 29.5 -11t12.5 -27q0 -2 -2 -16l-81 -419q-4 -21 -19 -34t-36 -13q-17 0 -29 11t-12 27q0 5 2 19l3 17q-34 -33 -84.5 -53.5t-98.5 -20.5q-90 0 -141.5 51
t-51.5 133q0 22 5 52l45 237q4 21 19 34t36 13q17 0 29.5 -11t12.5 -27q0 -2 -2 -16zM428 667l-119 -91q-13 -9 -24 -9q-15 0 -25 10.5t-10 24.5q0 17 18 32l117 90q13 10 26 10q14 0 24.5 -10.5t10.5 -24.5q0 -18 -18 -32zM621 667l-119 -91q-13 -9 -24 -9q-15 0 -25 10.5
t-10 24.5q0 17 18 32l117 90q13 10 26 10q14 0 24.5 -10.5t10.5 -24.5q0 -18 -18 -32z" />
    <glyph glyph-name="Uogonek" unicode="&#x172;" horiz-adv-x="765" 
d="M782 653l-67 -348q-34 -174 -176 -265q-16 -10 -51.5 -37.5t-78.5 -69.5t-43 -62q0 -25 29 -25q7 0 24.5 7t28.5 7q15 0 23.5 -8t8.5 -21q0 -29 -32 -45t-78 -16q-50 0 -74.5 21.5t-24.5 52.5q0 73 126 148q-26 -2 -38 -2q-116 0 -190.5 68.5t-74.5 181.5q0 36 10 86
l66 338q4 20 19 33t34 13q18 0 30 -11t12 -27q0 -4 -3 -19l-66 -337q-8 -38 -8 -71q0 -82 50.5 -125.5t123.5 -43.5q92 0 164.5 61.5t93.5 169.5l69 356q4 20 19 33.5t34 13.5q18 0 30 -11t12 -27q0 -7 -2 -19z" />
    <glyph glyph-name="uogonek" unicode="&#x173;" horiz-adv-x="628" 
d="M219 456l-43 -225q-5 -25 -5 -44q0 -54 31.5 -84t88.5 -30q64 0 120 38t65 85l51 267q4 21 19 34t36 13q17 0 29.5 -11t12.5 -27q0 -2 -2 -16l-81 -419q-5 -27 -26 -39q-20 -11 -44 -28t-50.5 -46t-26.5 -53q0 -25 29 -25q7 0 24.5 7t28.5 7q15 0 23.5 -8t8.5 -21
q0 -29 -32 -45t-78 -16q-50 0 -74.5 21.5t-24.5 52.5q0 27 18.5 55.5t47.5 51t49 35t37 21.5q-6 9 -6 21q0 5 2 19l3 17q-34 -33 -84.5 -53.5t-98.5 -20.5q-90 0 -141.5 51t-51.5 133q0 22 5 52l45 237q4 21 19 34t36 13q17 0 29.5 -11t12.5 -27q0 -2 -2 -16z" />
    <glyph glyph-name="Wcircumflex" unicode="&#x174;" horiz-adv-x="860" 
d="M881 653l-156 -603q-6 -22 -22 -36t-37 -14h-32q-26 0 -40 27l-139 264l-241 -264q-24 -27 -51 -27h-40q-18 0 -28.5 11.5t-10.5 29.5q0 1 0.5 4t0.5 5l78 610q3 23 19 36.5t39 13.5q18 0 28.5 -11t10.5 -29q0 -2 -0.5 -5t-0.5 -5l-72 -542l224 249q28 31 61 31
q34 0 49 -31l127 -251l139 544q5 22 21 36t36 14q18 0 29 -11t11 -28q0 -7 -3 -18zM627 777l-66 73l-95 -73q-18 -14 -39 -14q-14 0 -24 9t-10 24q0 22 21 38l119 92q19 14 40 14q24 0 36 -14l84 -92q9 -9 9 -23q0 -21 -15 -34.5t-30 -13.5q-16 0 -30 14z" />
    <glyph glyph-name="wcircumflex" unicode="&#x175;" horiz-adv-x="726" 
d="M404 343q18 0 31 -8.5t17 -21.5l71 -231h7l114 380q7 22 23.5 35t35.5 13t28.5 -11t9.5 -28q0 -10 -7 -31l-131 -400q-6 -17 -24.5 -28.5t-40.5 -11.5h-44q-39 0 -52 40l-58 197l-136 -197q-27 -40 -66 -40h-44q-22 0 -36.5 10.5t-14.5 27.5q0 8 1 21l22 381q2 30 17 50
t44 20q16 0 28 -10.5t12 -28.5q0 -7 -1 -17l-32 -372h7l161 231q21 30 58 30zM528 577l-66 73l-95 -73q-17 -14 -39 -14q-14 0 -24 9t-10 24q0 22 21 38l119 92q19 14 40 14q24 0 36 -14l84 -92q9 -9 9 -23q0 -21 -15 -34.5t-30 -13.5q-16 0 -30 14z" />
    <glyph glyph-name="Ycircumflex" unicode="&#x176;" horiz-adv-x="653" 
d="M254 49l47 244l-179 335q-9 16 -9 30q0 22 14.5 37t38.5 15q25 0 36 -20l162 -305l283 307q18 18 40 18q18 0 29 -10q12 -12 12 -28q0 -20 -18 -40l-312 -335l-50 -258q-4 -21 -19 -35t-37 -14q-17 0 -28.5 11t-11.5 28q0 8 2 20zM522 777l-66 73l-95 -73
q-17 -14 -39 -14q-14 0 -24 9t-10 24q0 22 21 38l119 92q19 14 40 14q24 0 36 -14l84 -92q9 -9 9 -23q0 -21 -15 -34.5t-30 -13.5q-16 0 -30 14z" />
    <glyph glyph-name="ycircumflex" unicode="&#x177;" horiz-adv-x="548" 
d="M585 437l-323 -562q-55 -95 -148 -95h-34q-16 0 -25.5 10t-9.5 26q0 20 15 34.5t36 14.5h25q20 0 32 8t23 28l68 117q-61 0 -71 43l-86 376q-3 12 -3 21q0 22 16.5 37t39.5 15q32 0 40 -32l88 -404h8l230 404q18 32 53 32q17 0 28 -11t11 -28q0 -11 -13 -34zM459 577
l-66 73l-95 -73q-18 -14 -39 -14q-14 0 -24 9t-10 24q0 22 21 38l119 92q19 14 40 14q24 0 36 -14l84 -92q9 -9 9 -23q0 -21 -15 -34.5t-30 -13.5q-16 0 -30 14z" />
    <glyph glyph-name="Ydieresis" unicode="&#x178;" horiz-adv-x="653" 
d="M254 49l47 244l-179 335q-9 16 -9 30q0 22 14.5 37t38.5 15q25 0 36 -20l162 -305l283 307q18 18 40 18q18 0 29 -10q12 -12 12 -28q0 -20 -18 -40l-312 -335l-50 -258q-4 -21 -19 -35t-37 -14q-17 0 -28.5 11t-11.5 28q0 8 2 20zM300 836q0 26 21 47t48 21
q20 0 33.5 -13.5t13.5 -33.5q0 -27 -21.5 -47t-47.5 -20q-21 0 -34 13t-13 33zM495 836q0 26 21 47t48 21q21 0 34 -13t13 -33q0 -27 -21 -47.5t-48 -20.5q-20 0 -33.5 13t-13.5 33z" />
    <glyph glyph-name="Zacute" unicode="&#x179;" horiz-adv-x="673" 
d="M572 614h-379q-18 0 -28 10t-10 25q0 21 16.5 36t38.5 15h448q19 0 31.5 -13.5t12.5 -31.5q0 -30 -22 -52l-523 -517h403q17 0 27.5 -9.5t10.5 -24.5q0 -21 -16.5 -36.5t-38.5 -15.5h-473q-19 0 -31.5 12t-12.5 32q0 30 24 54zM568 864l-114 -89q-14 -11 -30 -11
q-17 0 -28 10.5t-11 26.5q0 23 20 38l116 89q17 12 30 12q16 0 27 -11t11 -27q0 -22 -21 -38z" />
    <glyph glyph-name="zacute" unicode="&#x17a;" horiz-adv-x="494" 
d="M382 415h-232q-17 0 -27.5 9t-10.5 25q0 21 16 36t38 15h305q21 0 32 -12.5t11 -29.5q-1 -26 -27 -50l-332 -323h250q17 0 27.5 -10t10.5 -25q0 -21 -16 -35.5t-39 -14.5h-322q-19 0 -30.5 11.5t-11.5 28.5q0 26 28 53zM462 664l-114 -89q-14 -11 -30 -11q-17 0 -28 10.5
t-11 26.5q0 23 20 38l116 89q17 12 30 12q16 0 27 -11t11 -27q0 -22 -21 -38z" />
    <glyph glyph-name="Zdotaccent" unicode="&#x17b;" horiz-adv-x="673" 
d="M572 614h-379q-18 0 -28 10t-10 25q0 21 16.5 36t38.5 15h448q19 0 31.5 -13.5t12.5 -31.5q0 -30 -22 -52l-523 -517h403q17 0 27.5 -9.5t10.5 -24.5q0 -21 -16.5 -36.5t-38.5 -15.5h-473q-19 0 -31.5 12t-12.5 32q0 30 24 54zM386 836q0 28 23.5 51t53.5 23
q23 0 37.5 -14.5t14.5 -36.5q0 -30 -23.5 -52.5t-53.5 -22.5q-22 0 -37 15t-15 37z" />
    <glyph glyph-name="zdotaccent" unicode="&#x17c;" horiz-adv-x="494" 
d="M382 415h-232q-17 0 -27.5 9t-10.5 25q0 21 16 36t38 15h305q21 0 32 -12.5t11 -29.5q-1 -26 -27 -50l-332 -323h250q17 0 27.5 -10t10.5 -25q0 -21 -16 -35.5t-39 -14.5h-322q-19 0 -30.5 11.5t-11.5 28.5q0 26 28 53zM289 636q0 28 23.5 51t53.5 23q23 0 37.5 -14.5
t14.5 -36.5q0 -30 -23.5 -52.5t-53.5 -22.5q-23 0 -37.5 15t-14.5 37z" />
    <glyph glyph-name="Zcaron" unicode="&#x17d;" horiz-adv-x="673" 
d="M572 614h-379q-18 0 -28 10t-10 25q0 21 16.5 36t38.5 15h448q19 0 31.5 -13.5t12.5 -31.5q0 -30 -22 -52l-523 -517h403q17 0 27.5 -9.5t10.5 -24.5q0 -21 -16.5 -36.5t-38.5 -15.5h-473q-19 0 -31.5 12t-12.5 32q0 30 24 54zM384 926l66 -73l95 73q17 14 39 14
q14 0 24 -9t10 -24q0 -22 -21 -38l-119 -92q-19 -14 -40 -14q-24 0 -36 14l-84 92q-9 9 -9 23q0 21 15 34.5t30 13.5q16 0 30 -14z" />
    <glyph glyph-name="zcaron" unicode="&#x17e;" horiz-adv-x="494" 
d="M382 415h-232q-17 0 -27.5 9t-10.5 25q0 21 16 36t38 15h305q21 0 32 -12.5t11 -29.5q-1 -26 -27 -50l-332 -323h250q17 0 27.5 -10t10.5 -25q0 -21 -16 -35.5t-39 -14.5h-322q-19 0 -30.5 11.5t-11.5 28.5q0 26 28 53zM284 726l66 -73l95 73q17 14 39 14q14 0 24 -9
t10 -24q0 -22 -21 -38l-119 -92q-19 -14 -40 -14q-24 0 -36 14l-84 92q-9 9 -9 23q0 21 15 34.5t30 13.5q16 0 30 -14z" />
    <glyph glyph-name="Schwa" unicode="&#x18f;" horiz-adv-x="791" 
d="M781 419q0 -171 -124 -300t-297 -129q-73 0 -130 26t-90.5 68t-50.5 91t-17 101q0 18 3 36t12 40.5t30.5 36.5t52.5 14h514q0 3 0.5 9t0.5 9q0 88 -60 146.5t-162 58.5q-94 0 -194 -58q-12 -7 -30 -7q-12 0 -22 10t-10 25q0 37 86.5 75.5t185.5 38.5q134 0 218 -82.5
t84 -208.5zM672 319h-502q-3 -23 -3 -34q0 -93 52.5 -152t146.5 -59q102 0 187 67.5t119 177.5z" />
    <glyph glyph-name="florin" unicode="&#x192;" 
d="M146 -135h15q20 0 28 11.5t12 33.5l78 409h-154q-15 0 -24.5 9.5t-9.5 24.5q0 22 14.5 36t35.5 14h154l38 201q7 38 40 67t78 29h62q15 0 24.5 -10t9.5 -25q0 -21 -15 -35.5t-36 -14.5h-25q-41 0 -50 -45l-32 -167h170q15 0 24.5 -9.5t9.5 -24.5q0 -22 -14.5 -36
t-35.5 -14h-170l-83 -443q-7 -39 -39.5 -67.5t-78.5 -28.5h-43q-15 0 -24.5 10t-9.5 25q0 21 15 35.5t36 14.5z" />
    <glyph glyph-name="AEacute" unicode="&#x1fc;" horiz-adv-x="1043" 
d="M589 85h333q18 0 29.5 -9t11.5 -25q0 -21 -17.5 -36t-39.5 -15h-380q-17 0 -28 11t-11 28q0 6 1 9l29 148h-308l-132 -181q-18 -25 -45 -25q-19 0 -29.5 11t-10.5 26q0 20 12 35l451 613q18 25 46 25h541q18 0 29.5 -9.5t11.5 -25.5q0 -23 -17.5 -37t-40.5 -14h-333
l-40 -209h275q18 0 29 -10t11 -25q0 -22 -17.5 -36.5t-39.5 -14.5h-275zM514 614l-245 -337h264l65 337h-84zM786 864l-114 -89q-14 -11 -30 -11q-17 0 -28 10.5t-11 26.5q0 23 20 38l116 89q17 12 30 12q16 0 27 -11t11 -27q0 -22 -21 -38z" />
    <glyph glyph-name="aeacute" unicode="&#x1fd;" horiz-adv-x="976" 
d="M891 211h-330v-9q0 -62 36.5 -96t98.5 -34q41 0 88.5 21.5t59.5 21.5q15 0 24 -9.5t9 -23.5q0 -31 -30 -47q-83 -45 -167 -45q-49 0 -91 21.5t-59 52.5l-6 -26q-5 -20 -20 -34t-35 -14q-17 0 -28.5 11.5t-11.5 27.5q0 6 1 9l5 26q-79 -74 -173 -74q-87 0 -145 60.5
t-58 156.5q0 128 90 215.5t209 87.5q97 0 149 -73l5 25q4 21 18.5 34.5t34.5 13.5q17 0 29.5 -11.5t12.5 -27.5q0 -6 -1 -9l-5 -27q70 75 173 75q88 0 141 -58.5t53 -141.5q0 -38 -19 -68.5t-58 -30.5zM474 245q6 48 6 52q0 58 -33.5 95t-94.5 37q-81 0 -142 -64t-61 -152
q0 -64 35 -102.5t99 -38.5q71 0 125.5 50t65.5 123zM761 430q-61 0 -113 -40.5t-72 -101.5h306q0 2 0.5 7t0.5 7q0 51 -33 89.5t-89 38.5zM730 664l-114 -89q-14 -11 -30 -11q-17 0 -28 10.5t-11 26.5q0 23 20 38l116 89q17 12 30 12q16 0 27 -11t11 -27q0 -22 -21 -38z" />
    <glyph glyph-name="Oslashacute" unicode="&#x1fe;" horiz-adv-x="823" 
d="M110 27l48 54q-75 80 -75 200q0 107 58.5 206t159.5 161t216 62q90 0 162 -45l44 50q16 18 38 18q13 0 22 -9t9 -22q0 -14 -12 -27l-48 -53q78 -83 78 -203q0 -112 -60 -211.5t-160 -158.5t-212 -59q-95 0 -167 47l-44 -49q-17 -19 -39 -19q-13 0 -21 9t-8 21q0 17 11 28
zM715 406q0 83 -47 143l-395 -442q52 -33 121 -33q124 0 222.5 102t98.5 230zM501 626q-126 0 -224 -102t-98 -231q0 -84 44 -140l394 442q-50 31 -116 31zM657 864l-114 -89q-14 -11 -30 -11q-17 0 -28 10.5t-11 26.5q0 23 20 38l116 89q16 12 30 12q16 0 27 -11t11 -27
q0 -22 -21 -38z" />
    <glyph glyph-name="oslashacute" unicode="&#x1ff;" horiz-adv-x="613" 
d="M377 510q63 0 113 -28l22 24q16 20 38 20q12 0 20.5 -9t8.5 -21q0 -10 -10 -22l-29 -32q55 -60 55 -150q0 -123 -90 -212.5t-224 -89.5q-65 0 -115 29l-18 -21q-19 -21 -39 -21q-12 0 -21 9t-9 21q0 10 10 22l27 31q-52 60 -52 148q0 124 89.5 213t223.5 89zM295 71
q84 0 146.5 64.5t62.5 147.5q0 54 -24 90l-255 -287q30 -15 70 -15zM154 217q0 -53 24 -88l253 286q-28 15 -67 15q-84 0 -147 -65t-63 -148zM526 664l-114 -89q-14 -11 -30 -11q-17 0 -28 10.5t-11 26.5q0 23 20 38l116 89q17 12 30 12q16 0 27 -11t11 -27q0 -22 -21 -38z
" />
    <glyph glyph-name="Scommaaccent" unicode="&#x218;" horiz-adv-x="604" 
d="M282 74q74 0 128.5 39.5t54.5 87.5q0 39 -35 64.5t-85 41.5t-100 35t-85 57.5t-35 95.5q0 93 79.5 154t192.5 61q96 0 151 -42.5t55 -82.5q0 -18 -10.5 -33t-32.5 -15q-26 0 -54 38q-39 54 -119 54q-71 0 -118 -38t-47 -81q0 -31 25.5 -54t63.5 -35.5t82 -29.5t82 -35.5
t63.5 -55t25.5 -85.5q0 -98 -85.5 -161.5t-206.5 -63.5q-105 0 -165.5 49t-60.5 90q0 21 14 36.5t33 15.5q16 0 29 -11t24.5 -26.5t26.5 -31.5t43 -27t66 -11zM198 -111q0 26 20.5 46.5t48.5 20.5q19 0 35 -13.5t16 -47.5q0 -74 -46 -125t-84 -51q-14 0 -22.5 7.5t-8.5 19.5
q0 23 31 40q39 22 47 57q-37 6 -37 46z" />
    <glyph glyph-name="scommaaccent" unicode="&#x219;" horiz-adv-x="507" 
d="M245 71q45 0 88.5 18t43.5 57q0 21 -20.5 35.5t-52 21.5t-67.5 18t-67.5 23.5t-52 38.5t-20.5 63q0 76 66.5 120t151.5 44q95 0 154 -47q30 -23 30 -46q0 -19 -14.5 -34t-34.5 -15q-17 0 -40 23q-41 39 -105 39q-43 0 -79.5 -18t-36.5 -50q0 -23 29.5 -37.5t71 -25
t83 -24t71 -42.5t29.5 -73q0 -79 -71 -124.5t-164 -45.5q-101 0 -162 48q-34 27 -34 51q0 21 15.5 35.5t35.5 14.5q16 0 33 -19q42 -49 119 -49zM147 -111q0 26 20.5 46.5t48.5 20.5q19 0 35 -13.5t16 -47.5q0 -74 -46.5 -125t-83.5 -51q-14 0 -22.5 7.5t-8.5 19.5
q0 23 31 40q39 22 47 57q-37 6 -37 46z" />
    <glyph glyph-name="uni021A" unicode="&#x21a;" horiz-adv-x="571" 
d="M188 -111q0 26 20.5 46.5t48.5 20.5q19 0 35 -13.5t16 -47.5q0 -74 -46 -125t-84 -51q-14 0 -22.5 7.5t-8.5 19.5q0 23 31 40q39 22 47 57q-37 6 -37 46zM616 700q17 0 28.5 -9.5t11.5 -25.5q0 -23 -17.5 -37t-41.5 -14h-179l-111 -575q-4 -21 -19 -35t-37 -14
q-17 0 -28.5 11t-11.5 28q0 8 2 20l109 565h-178q-17 0 -29 10.5t-12 26.5q0 22 17.5 35.5t41.5 13.5h454z" />
    <glyph glyph-name="uni021B" unicode="&#x21b;" horiz-adv-x="333" 
d="M261 575l-15 -75h92q15 0 25 -10t10 -25q0 -20 -16 -35t-36 -15h-92l-54 -279q-3 -15 -3 -22q0 -29 33 -29h36q18 0 28.5 -9.5t10.5 -24.5q0 -22 -16 -36.5t-41 -14.5h-45q-48 0 -76 28.5t-28 72.5q0 15 3 31l55 283h-39q-16 0 -26 10t-10 24q0 22 14.5 36.5t38.5 14.5
h39l17 86q4 21 19 34t36 13q17 0 29.5 -11.5t12.5 -27.5q0 -5 -2 -19zM106 -111q0 26 20.5 46.5t48.5 20.5q19 0 35 -13.5t16 -47.5q0 -74 -46 -125t-84 -51q-14 0 -22.5 7.5t-8.5 19.5q0 23 31 40q39 22 47 57q-37 6 -37 46z" />
    <glyph glyph-name="dotlessj" unicode="&#x237;" horiz-adv-x="278" 
d="M247 453l-104 -535q-12 -62 -53.5 -100t-97.5 -38h-53q-18 0 -28.5 10t-10.5 26q0 20 15.5 34.5t35.5 14.5h41q20 0 35.5 14t19.5 33l107 550q4 20 19 34t36 14q18 0 29 -11.5t11 -27.5q0 -8 -2 -18z" />
    <glyph glyph-name="schwa" unicode="&#x259;" horiz-adv-x="590" 
d="M130 289h352q0 59 -40.5 99t-103.5 40q-57 0 -129 -35q-16 -8 -29 -8q-16 0 -25 9.5t-9 23.5q0 32 30 46q84 46 178 46q99 0 158.5 -60t59.5 -158q0 -123 -89.5 -212.5t-220.5 -89.5q-93 0 -148.5 59t-55.5 138q0 39 18 70.5t54 31.5zM273 70q63 0 119.5 41t74.5 101
h-323v-11q0 -59 34.5 -95t94.5 -36z" />
    <glyph glyph-name="circumflex" unicode="&#x2c6;" horiz-adv-x="308" 
d="M287 577l-66 73l-95 -73q-17 -14 -39 -14q-14 0 -24 9t-10 24q0 22 21 38l119 92q19 14 40 14q24 0 36 -14l84 -92q9 -9 9 -23q0 -21 -15 -34.5t-30 -13.5q-16 0 -30 14z" />
    <glyph glyph-name="caron" unicode="&#x2c7;" horiz-adv-x="308" 
d="M146 726l66 -73l95 73q17 14 39 14q14 0 24 -9t10 -24q0 -22 -21 -38l-119 -92q-19 -14 -40 -14q-24 0 -36 14l-84 92q-9 9 -9 23q0 21 15 34.5t30 13.5q16 0 30 -14z" />
    <glyph glyph-name="breve" unicode="&#x2d8;" horiz-adv-x="292" 
d="M282 699q4 18 16.5 29t29.5 11q37 0 37 -32q0 -57 -52.5 -98t-115.5 -41q-54 0 -90.5 30.5t-36.5 77.5q0 26 12.5 44.5t36.5 18.5q16 0 25.5 -9.5t9.5 -23.5q0 -3 -1 -9t-1 -11q0 -17 13.5 -31.5t40.5 -14.5q30 0 51 18.5t25 40.5z" />
    <glyph glyph-name="dotaccent" unicode="&#x2d9;" horiz-adv-x="127" 
d="M61 636q0 28 23.5 51t53.5 23q23 0 37.5 -14.5t14.5 -36.5q0 -30 -23.5 -52.5t-53.5 -22.5q-23 0 -37.5 15t-14.5 37z" />
    <glyph glyph-name="ring" unicode="&#x2da;" horiz-adv-x="222" 
d="M60 620q0 51 39.5 90t94.5 39q40 0 66 -24.5t26 -62.5q0 -51 -40.5 -89.5t-94.5 -38.5q-40 0 -65.5 24t-25.5 62zM182 690q-21 0 -40 -17.5t-19 -40.5q0 -17 11.5 -28.5t28.5 -11.5q22 0 41 17.5t19 39.5q0 17 -12 29t-29 12z" />
    <glyph glyph-name="ogonek" unicode="&#x2db;" horiz-adv-x="214" 
d="M141 10l61 -10q-14 -9 -35 -24.5t-55.5 -50t-34.5 -54.5q0 -25 29 -25q7 0 24.5 7t28.5 7q15 0 23.5 -8t8.5 -21q0 -29 -32 -45t-78 -16q-50 0 -74.5 21.5t-24.5 52.5q0 25 16.5 51t39.5 46t46.5 36t39.5 24.5t17 8.5z" />
    <glyph glyph-name="tilde" unicode="&#x2dc;" horiz-adv-x="321" 
d="M176 708q26 0 48 -13t37 -26.5t24 -13.5q18 0 35 26.5t39 26.5q13 0 21.5 -8t8.5 -21q0 -30 -33.5 -62.5t-86.5 -32.5q-26 0 -47.5 13t-36.5 26.5t-24 13.5q-16 0 -25.5 -13.5t-20.5 -26.5t-29 -13q-14 0 -22 7.5t-8 20.5q0 30 34 63t86 33z" />
    <glyph glyph-name="hungarumlaut" unicode="&#x2dd;" horiz-adv-x="370" 
d="M231 667l-119 -91q-13 -9 -24 -9q-15 0 -25 10.5t-10 24.5q0 17 18 32l117 90q13 10 26 10q14 0 24.5 -10.5t10.5 -24.5q0 -18 -18 -32zM424 667l-119 -91q-13 -9 -24 -9q-15 0 -25 10.5t-10 24.5q0 17 18 32l117 90q13 10 26 10q14 0 24.5 -10.5t10.5 -24.5
q0 -18 -18 -32z" />
    <glyph glyph-name="afii10023" unicode="&#x401;" horiz-adv-x="624" 
d="M156 86h355q17 0 27.5 -9.5t10.5 -24.5q0 -21 -16.5 -36.5t-38.5 -15.5h-402q-17 0 -27.5 10.5t-10.5 27.5q0 3 3 21l116 595q4 19 20 32.5t36 13.5h402q17 0 27 -9.5t10 -24.5q0 -21 -15.5 -36.5t-38.5 -15.5h-355l-41 -209h298q17 0 27 -9t10 -24q0 -21 -16.5 -37
t-37.5 -16h-298zM303 836q0 26 21 47t48 21q20 0 33.5 -13.5t13.5 -33.5q0 -27 -21.5 -47t-47.5 -20q-21 0 -34 13t-13 33zM498 836q0 26 21 47t48 21q21 0 34 -13t13 -33q0 -27 -21 -47.5t-48 -20.5q-20 0 -33.5 13t-13.5 33z" />
    <glyph glyph-name="afii10051" unicode="&#x402;" horiz-adv-x="683" 
d="M470 700q17 0 28.5 -9.5t11.5 -25.5q0 -23 -17.5 -37t-41.5 -14h-141l-34 -174q86 22 174 22q97 0 148.5 -43.5t51.5 -123.5q0 -33 -13 -103q-15 -79 -75 -135.5t-152 -56.5h-49q-18 0 -29 9.5t-11 24.5q0 21 17.5 36.5t39.5 15.5h39q46 0 80.5 28.5t44.5 77.5
q13 63 13 83q0 102 -129 102q-31 0 -72.5 -6t-67.5 -11l-26 -6l-61 -315q-4 -21 -19 -35t-37 -14q-17 0 -28.5 11t-11.5 28q0 8 2 20l109 565h-101q-17 0 -29 10.5t-12 26.5q0 22 17.5 35.5t41.5 13.5h339z" />
    <glyph glyph-name="afii10052" unicode="&#x403;" horiz-adv-x="571" 
d="M55 49l118 605q4 20 20 33t36 13h369q17 0 27 -9.5t10 -24.5q0 -21 -16.5 -36.5t-37.5 -15.5h-320l-112 -575q-4 -21 -19 -35t-37 -14q-17 0 -28.5 11t-11.5 28q0 8 2 20zM549 864l-114 -89q-14 -11 -30 -11q-17 0 -28 10.5t-11 26.5q0 23 20 38l116 89q16 12 30 12
q16 0 27 -11t11 -27q0 -22 -21 -38z" />
    <glyph glyph-name="afii10053" unicode="&#x404;" horiz-adv-x="671" 
d="M77 282q0 79 32 155.5t87 137t136 98t173 37.5q64 0 128 -24t64 -60q0 -21 -14 -34.5t-29 -13.5q-14 0 -36 13q-55 35 -124 35q-97 0 -180 -64.5t-119 -158.5h318q17 0 27 -9.5t10 -24.5q0 -21 -16 -35.5t-38 -14.5h-321q-1 -8 -1 -24q0 -94 58 -157.5t155 -63.5
q82 0 162 52q14 10 33 10q14 0 24.5 -10t10.5 -26q0 -30 -31 -49q-96 -61 -215 -61q-128 0 -211 84t-83 208z" />
    <glyph glyph-name="afii10054" unicode="&#x405;" horiz-adv-x="604" 
d="M282 74q74 0 128.5 39.5t54.5 87.5q0 39 -35 64.5t-85 41.5t-100 35t-85 57.5t-35 95.5q0 93 79.5 154t192.5 61q96 0 151 -42.5t55 -82.5q0 -18 -10.5 -33t-32.5 -15q-26 0 -54 38q-39 54 -119 54q-71 0 -118 -38t-47 -81q0 -31 25.5 -54t63.5 -35.5t82 -29.5t82 -35.5
t63.5 -55t25.5 -85.5q0 -98 -85.5 -161.5t-206.5 -63.5q-105 0 -165.5 49t-60.5 90q0 21 14 36.5t33 15.5q16 0 29 -11t24.5 -26.5t26.5 -31.5t43 -27t66 -11z" />
    <glyph glyph-name="afii10055" unicode="&#x406;" horiz-adv-x="255" 
d="M267 653l-119 -616q-4 -20 -19 -33.5t-34 -13.5q-18 0 -30 11t-12 27q0 7 2 19l119 616q4 20 19 33.5t34 13.5q18 0 30 -11t12 -27q0 -7 -2 -19z" />
    <glyph glyph-name="afii10056" unicode="&#x407;" horiz-adv-x="255" 
d="M267 653l-119 -616q-4 -20 -19 -33.5t-34 -13.5q-18 0 -30 11t-12 27q0 7 2 19l119 616q4 20 19 33.5t34 13.5q18 0 30 -11t12 -27q0 -7 -2 -19zM90 836q0 26 21 47t48 21q20 0 33.5 -13.5t13.5 -33.5q0 -27 -21.5 -47t-47.5 -20q-21 0 -34 13t-13 33zM285 836
q0 26 21 47t48 21q21 0 34 -13t13 -33q0 -27 -21 -47.5t-48 -20.5q-20 0 -33.5 13t-13.5 33z" />
    <glyph glyph-name="afii10057" unicode="&#x408;" horiz-adv-x="670" 
d="M687 653l-68 -354q-27 -139 -113 -224t-218 -85q-105 0 -171 63t-66 154q0 102 62 102q17 0 27.5 -10.5t10.5 -27.5q0 -7 -2.5 -24t-2.5 -30q0 -62 41 -102t108 -40q84 0 146.5 63t81.5 161l71 364q4 20 19 33.5t34 13.5q18 0 30 -11t12 -27q0 -7 -2 -19z" />
    <glyph glyph-name="afii10058" unicode="&#x409;" horiz-adv-x="976" 
d="M601 346l-51 -261h147q71 0 119 43.5t48 114.5q0 46 -31 74.5t-85 28.5h-147zM660 641l-43 -211h147q92 0 143 -50.5t51 -134.5q0 -103 -72 -174t-206 -71h-194q-38 0 -38 36q0 7 2 19l109 560h-207q-53 -246 -100 -369t-140 -205q-57 -51 -102 -51q-17 0 -27.5 9.5
t-10.5 25.5q0 19 12 31t37 26t38 25q74 62 114 177t93 375q4 19 19.5 30t36.5 11h301q18 0 29 -10.5t11 -26.5q0 -7 -3 -22z" />
    <glyph glyph-name="afii10059" unicode="&#x40a;" horiz-adv-x="959" 
d="M433 55l53 276h-282l-56 -294q-4 -20 -19 -33.5t-34 -13.5q-18 0 -30 11t-12 27q0 7 2 19l119 616q4 20 19 33.5t34 13.5q18 0 30 -11t12 -27q0 -7 -2 -19l-46 -238h282l48 248q4 20 19 33.5t34 13.5q18 0 30 -11t12 -27q0 -7 -2 -19l-47 -238h149q91 0 142.5 -49.5
t51.5 -127.5q0 -94 -71.5 -166t-203.5 -72h-196q-38 0 -38 36q0 7 2 19zM581 331l-48 -246h149q70 0 117 41t47 102q0 46 -31 74.5t-85 28.5h-149z" />
    <glyph glyph-name="afii10060" unicode="&#x40b;" horiz-adv-x="683" 
d="M514 49l28 143q13 63 13 83q0 102 -129 102q-31 0 -72.5 -6t-67.5 -11l-26 -6l-61 -315q-4 -21 -19 -35t-37 -14q-17 0 -28.5 11t-11.5 28q0 8 2 20l109 565h-101q-17 0 -29 10.5t-12 26.5q0 22 17.5 35.5t41.5 13.5h339q17 0 28.5 -9.5t11.5 -25.5q0 -23 -17.5 -37
t-41.5 -14h-141l-34 -174q86 22 174 22q97 0 148.5 -43.5t51.5 -123.5q0 -33 -13 -103l-29 -153q-4 -21 -19 -35t-37 -14q-17 0 -28.5 11t-11.5 28q0 8 2 20z" />
    <glyph glyph-name="afii10061" unicode="&#x40c;" horiz-adv-x="647" 
d="M218 403h75l225 229q78 78 130 78q18 0 28.5 -10t10.5 -26q0 -24 -13.5 -34.5t-45.5 -27t-59 -44.5l-206 -209l216 -294q8 -11 8 -23q0 -22 -15.5 -37t-37.5 -15q-20 0 -30 13l-228 316h-74l-54 -282q-4 -20 -19 -33.5t-34 -13.5q-18 0 -30 11t-12 27q0 7 2 19l119 616
q4 20 19 33.5t34 13.5q18 0 30 -11t12 -27q0 -7 -2 -19zM563 864l-114 -89q-14 -11 -30 -11q-17 0 -28 10.5t-11 26.5q0 23 20 38l116 89q16 12 30 12q16 0 27 -11t11 -27q0 -22 -21 -38z" />
    <glyph glyph-name="afii10062" unicode="&#x40e;" horiz-adv-x="649" 
d="M126 638q-3 8 -3 20q0 21 14 36.5t36 15.5q31 0 42 -26l148 -365l275 366q18 25 48 25q18 0 28 -11.5t10 -26.5q0 -18 -12 -33l-395 -521q-43 -57 -84 -87.5t-90 -30.5h-30q-18 0 -28 10.5t-10 27.5q0 19 15.5 33t36.5 14h17q41 0 75 44l79 102zM514 899q4 18 16.5 29
t29.5 11q37 0 37 -32q0 -57 -52.5 -98t-115.5 -41q-54 0 -90.5 30.5t-36.5 77.5q0 26 12.5 44.5t36.5 18.5q16 0 25.5 -9.5t9.5 -23.5q0 -3 -1 -9t-1 -11q0 -17 13.5 -31.5t40.5 -14.5q30 0 51 18.5t25 40.5z" />
    <glyph glyph-name="afii10145" unicode="&#x40f;" horiz-adv-x="744" 
d="M288 0h-195q-19 0 -29.5 10.5t-10.5 25.5q0 10 3 26l118 601q4 20 19 33.5t34 13.5q18 0 30 -11t12 -27q0 -7 -2 -19l-111 -569h394l113 579q4 20 19 33.5t34 13.5q18 0 30 -11t12 -27q0 -7 -2 -19l-118 -605q-4 -21 -19 -34.5t-38 -13.5h-198l-35 -181q-4 -21 -19 -35
t-37 -14q-17 0 -28 11t-11 28q0 8 2 20z" />
    <glyph glyph-name="afii10017" unicode="&#x410;" horiz-adv-x="707" 
d="M549 29l-28 163h-326l-89 -161q-24 -41 -60 -41q-17 0 -27.5 11.5t-10.5 27.5t13 40l332 594q20 37 58 37h87q39 0 46 -37l100 -594q2 -14 2 -24q0 -23 -14.5 -39t-37.5 -16q-17 0 -30 11t-15 28zM433 618l-190 -341h265l-57 341h-18z" />
    <glyph glyph-name="afii10018" unicode="&#x411;" horiz-adv-x="634" 
d="M207 346l-51 -261h179q71 0 119 42t48 116q0 46 -31 74.5t-85 28.5h-179zM259 615l-36 -185h179q94 0 144 -49.5t50 -129.5q0 -106 -76.5 -178.5t-201.5 -72.5h-226q-17 0 -27.5 10.5t-10.5 24.5q0 8 2 18l116 599q4 21 20.5 34.5t37.5 13.5h353q17 0 28.5 -9.5
t11.5 -24.5q0 -21 -17.5 -36t-39.5 -15h-307z" />
    <glyph glyph-name="afii10019" unicode="&#x412;" horiz-adv-x="652" 
d="M228 700h242q86 0 131 -41.5t45 -108.5q0 -36 -10 -67t-24 -50.5t-28 -33.5t-24 -20l-10 -6q3 -2 7 -5t15 -15t19.5 -26t15.5 -37.5t7 -50.5q0 -103 -69.5 -171t-205.5 -68h-248q-16 0 -27 11t-11 28q0 4 2 14l117 600q4 20 20.5 33.5t35.5 13.5zM451 615h-192l-41 -211
h192q58 0 99 34.5t41 93.5q0 38 -26.5 60.5t-72.5 22.5zM394 319h-193l-45 -234h193q73 0 120.5 40.5t47.5 105.5q0 88 -123 88z" />
    <glyph glyph-name="afii10020" unicode="&#x413;" horiz-adv-x="549" 
d="M55 49l118 605q4 20 20 33t36 13h369q17 0 27 -9.5t10 -24.5q0 -21 -16.5 -36.5t-37.5 -15.5h-320l-112 -575q-4 -21 -19 -35t-37 -14q-17 0 -28.5 11t-11.5 28q0 8 2 20z" />
    <glyph glyph-name="afii10021" unicode="&#x414;" horiz-adv-x="775" 
d="M373 615q-20 -91 -27 -123.5t-23.5 -100.5t-28 -97.5t-29.5 -74.5t-38 -75.5t-45 -58.5h375l103 530h-287zM603 -171l33 171h-563l-36 -181q-4 -21 -19 -35t-37 -14q-17 0 -28 11t-11 28q0 8 2 20l41 208q4 21 20.5 34.5t35.5 13.5h30q46 46 76.5 92.5t55.5 121.5
t41 146.5t44 213.5q4 18 19.5 29.5t36.5 11.5h381q18 0 28.5 -10.5t10.5 -27.5q0 -5 -2 -15l-109 -562h47q18 0 29 -10.5t11 -27.5q0 -3 -2 -15l-42 -213q-4 -21 -19 -35t-37 -14q-17 0 -28 11t-11 28q0 8 2 20z" />
    <glyph glyph-name="afii10022" unicode="&#x415;" horiz-adv-x="624" 
d="M156 86h355q17 0 27.5 -9.5t10.5 -24.5q0 -21 -16.5 -36.5t-38.5 -15.5h-402q-17 0 -27.5 10.5t-10.5 27.5q0 3 3 21l116 595q4 19 20 32.5t36 13.5h402q17 0 27 -9.5t10 -24.5q0 -21 -15.5 -36.5t-38.5 -15.5h-355l-41 -209h298q17 0 27 -9t10 -24q0 -21 -16.5 -37
t-37.5 -16h-298z" />
    <glyph glyph-name="afii10024" unicode="&#x416;" horiz-adv-x="872" 
d="M526 403h62l156 225q25 36 60 59t70 23q18 0 28 -10t10 -26q0 -20 -14 -30t-41 -26.5t-48 -46.5l-152 -216l139 -280q9 -18 9 -33q0 -21 -15.5 -36.5t-35.5 -15.5q-29 0 -42 28l-144 301h-58l-54 -282q-4 -20 -19 -33.5t-34 -13.5q-18 0 -30 11t-12 27q0 7 2 19l53 274
h-52l-264 -304q-22 -27 -48 -27q-16 0 -28.5 11.5t-12.5 27.5q0 21 25 51l250 284l-69 211q-7 22 -16 34q-5 8 -26.5 23t-21.5 32q0 22 15 34t38 12q34 0 57 -23.5t40 -74.5l67 -209h62l50 260q4 20 19 33.5t34 13.5q18 0 30 -11t12 -27q0 -7 -2 -19z" />
    <glyph glyph-name="afii10025" unicode="&#x417;" horiz-adv-x="595" 
d="M397 710q91 0 141 -44.5t50 -113.5q0 -34 -14 -65.5t-34 -51t-40.5 -34.5t-34.5 -21l-14 -7q4 -1 11 -3.5t24.5 -14t31 -26t24.5 -40.5t11 -58q0 -96 -87.5 -168.5t-206.5 -72.5q-55 0 -100.5 16t-71 39t-39 45.5t-13.5 38.5q0 21 14.5 36.5t33.5 15.5q27 0 45 -31
q45 -76 143 -76q70 0 125 43.5t55 108.5q0 46 -37.5 71.5t-98.5 25.5q-41 0 -41 33q0 24 18 37.5t46 14.5q56 2 103.5 39t47.5 92q0 40 -30.5 65t-76.5 25q-82 0 -152 -70q-25 -25 -48 -25q-17 0 -26.5 11.5t-9.5 28.5q0 14 18 36t49 45t80.5 39t103.5 16z" />
    <glyph glyph-name="afii10026" unicode="&#x418;" horiz-adv-x="766" 
d="M566 49l105 535l-32 -42l-454 -517q-22 -25 -50 -25h-41q-18 0 -29 11t-11 26q0 8 2 18l118 608q4 20 19 33.5t34 13.5q18 0 30 -11t12 -27q0 -7 -2 -19l-106 -537l31 41l456 518q22 25 50 25h41q17 0 28.5 -11.5t11.5 -25.5q0 -8 -3 -23l-116 -601q-4 -21 -19 -35
t-37 -14q-17 0 -28.5 11t-11.5 28q0 8 2 20z" />
    <glyph glyph-name="afii10027" unicode="&#x419;" horiz-adv-x="766" 
d="M566 49l105 535l-32 -42l-454 -517q-22 -25 -50 -25h-41q-18 0 -29 11t-11 26q0 8 2 18l118 608q4 20 19 33.5t34 13.5q18 0 30 -11t12 -27q0 -7 -2 -19l-106 -537l31 41l456 518q22 25 50 25h41q17 0 28.5 -11.5t11.5 -25.5q0 -8 -3 -23l-116 -601q-4 -21 -19 -35
t-37 -14q-17 0 -28.5 11t-11.5 28q0 8 2 20zM577 899q4 18 16.5 29t29.5 11q37 0 37 -32q0 -57 -52.5 -98t-115.5 -41q-54 0 -90.5 30.5t-36.5 77.5q0 26 12.5 44.5t36.5 18.5q16 0 25.5 -9.5t9.5 -23.5q0 -3 -1 -9t-1 -11q0 -17 13.5 -31.5t40.5 -14.5q30 0 51 18.5
t25 40.5z" />
    <glyph glyph-name="afii10028" unicode="&#x41a;" horiz-adv-x="647" 
d="M218 403h75l225 229q78 78 130 78q18 0 28.5 -10t10.5 -26q0 -24 -13.5 -34.5t-45.5 -27t-59 -44.5l-206 -209l216 -294q8 -11 8 -23q0 -22 -15.5 -37t-37.5 -15q-20 0 -30 13l-228 316h-74l-54 -282q-4 -20 -19 -33.5t-34 -13.5q-18 0 -30 11t-12 27q0 7 2 19l119 616
q4 20 19 33.5t34 13.5q18 0 30 -11t12 -27q0 -7 -2 -19z" />
    <glyph glyph-name="afii10029" unicode="&#x41b;" horiz-adv-x="742" 
d="M541 49l111 566h-300q-53 -246 -100 -369t-140 -205q-57 -51 -102 -51q-17 0 -27.5 9.5t-10.5 25.5q0 19 12 31t37 26t38 25q74 62 114 177t93 375q4 19 19.5 30t36.5 11h394q18 0 29 -10.5t11 -26.5q0 -7 -3 -22l-118 -602q-4 -21 -19 -35t-37 -14q-17 0 -28.5 11
t-11.5 28q0 8 2 20z" />
    <glyph glyph-name="afii10030" unicode="&#x41c;" horiz-adv-x="860" 
d="M660 47l103 533l-28 -33l-223 -217q-28 -28 -57 -28q-30 0 -47 28l-138 217l-17 34l-105 -544q-4 -20 -19 -33.5t-34 -13.5q-18 0 -30 11t-12 27q0 7 2 19l118 603q4 22 21 36t37 14h34q24 0 41 -27l166 -267l269 267q29 27 50 27h41q18 0 29 -11t11 -28q0 -6 -1 -11
l-118 -613q-4 -20 -19 -33.5t-34 -13.5q-18 0 -30 11t-12 27q0 7 2 19z" />
    <glyph glyph-name="afii10031" unicode="&#x41d;" horiz-adv-x="765" 
d="M777 653l-119 -616q-4 -20 -19 -33.5t-34 -13.5q-18 0 -30 11t-12 27q0 7 2 19l52 272h-415l-54 -282q-4 -20 -19 -33.5t-34 -13.5q-18 0 -30 11t-12 27q0 7 2 19l119 616q4 20 19 33.5t34 13.5q18 0 30 -11t12 -27q0 -7 -2 -19l-48 -250h415l50 260q4 20 19 33.5
t34 13.5q18 0 30 -11t12 -27q0 -7 -2 -19z" />
    <glyph glyph-name="afii10032" unicode="&#x41e;" horiz-adv-x="813" 
d="M76 281q0 82 33 159.5t89.5 137t138.5 96t173 36.5q127 0 210 -83.5t83 -207.5q0 -114 -57.5 -213t-156.5 -157.5t-214 -58.5q-132 0 -215.5 83t-83.5 208zM494 626q-126 0 -224 -102t-98 -231q0 -95 58.5 -157t156.5 -62q124 0 222 102t98 230q0 95 -58 157.5t-155 62.5
z" />
    <glyph glyph-name="afii10033" unicode="&#x41f;" horiz-adv-x="765" 
d="M565 47l111 569h-415l-113 -579q-4 -20 -19 -33.5t-34 -13.5q-18 0 -30 11t-12 27q0 7 2 19l118 605q4 21 19 34.5t38 13.5h509q19 0 29.5 -10.5t10.5 -25.5q0 -10 -3 -26l-118 -601q-4 -20 -19 -33.5t-34 -13.5q-18 0 -30 11t-12 27q0 7 2 19z" />
    <glyph glyph-name="afii10034" unicode="&#x420;" horiz-adv-x="614" 
d="M172 652q4 20 20 34t36 14h214q96 0 149 -53.5t53 -138.5q0 -111 -80 -190.5t-212 -79.5h-167l-38 -199q-4 -20 -19.5 -34.5t-36.5 -14.5q-17 0 -28 11t-11 27q0 6 2 18zM259 615l-57 -292h163q84 0 135 52.5t51 117.5q0 58 -32 90t-97 32h-163z" />
    <glyph glyph-name="afii10035" unicode="&#x421;" horiz-adv-x="672" 
d="M77 282q0 79 32 155.5t87 137t136 98t173 37.5q64 0 128 -24t64 -60q0 -21 -14 -34.5t-29 -13.5q-14 0 -36 13q-55 35 -124 35q-127 0 -223.5 -103.5t-96.5 -227.5q0 -94 58 -157.5t155 -63.5q82 0 162 52q14 10 33 10q14 0 24.5 -10t10.5 -26q0 -30 -31 -49
q-96 -61 -215 -61q-128 0 -211 84t-83 208z" />
    <glyph glyph-name="afii10036" unicode="&#x422;" horiz-adv-x="571" 
d="M616 700q17 0 28.5 -9.5t11.5 -25.5q0 -23 -17.5 -37t-41.5 -14h-179l-111 -575q-4 -21 -19 -35t-37 -14q-17 0 -28.5 11t-11.5 28q0 8 2 20l109 565h-178q-17 0 -29 10.5t-12 26.5q0 22 17.5 35.5t41.5 13.5h454z" />
    <glyph glyph-name="afii10037" unicode="&#x423;" horiz-adv-x="649" 
d="M126 638q-3 8 -3 20q0 21 14 36.5t36 15.5q31 0 42 -26l148 -365l275 366q18 25 48 25q18 0 28 -11.5t10 -26.5q0 -18 -12 -33l-395 -521q-43 -57 -84 -87.5t-90 -30.5h-30q-18 0 -28 10.5t-10 27.5q0 19 15.5 33t36.5 14h17q41 0 75 44l79 102z" />
    <glyph glyph-name="afii10038" unicode="&#x424;" horiz-adv-x="792" 
d="M427 583q-99 -5 -174 -76t-75 -175q0 -71 47 -117.5t121 -47.5zM441 167q97 3 172.5 74.5t75.5 173.5q0 72 -46.5 119t-120.5 49zM443 665l4 21q4 21 19 35t37 14q17 0 28.5 -11t11.5 -28q0 -2 -3 -20l-2 -12q107 -5 176.5 -73t69.5 -178q0 -90 -53 -166t-135 -118
t-171 -44l-9 -46q-4 -21 -19 -35t-37 -14q-17 0 -28.5 11t-11.5 28q0 2 3 20l7 36q-108 3 -177.5 72.5t-69.5 173.5q0 138 109.5 234t250.5 100z" />
    <glyph glyph-name="afii10039" unicode="&#x425;" horiz-adv-x="711" 
d="M633 67q8 -11 8 -25q0 -22 -16 -37t-39 -15q-19 0 -34 22l-174 282l-287 -286q-18 -18 -41 -18q-17 0 -28 11t-11 27q0 22 19 40l303 299l-164 260q-12 19 -12 32q0 19 15.5 35t37.5 16q23 0 36 -21l156 -253l256 256q18 18 41 18q17 0 28 -12t11 -28q0 -21 -18 -39
l-271 -269z" />
    <glyph glyph-name="afii10040" unicode="&#x426;" horiz-adv-x="778" 
d="M606 -171l32 171h-534q-18 0 -28.5 10t-10.5 24q0 6 3 24l117 605q4 20 19 33.5t34 13.5q18 0 30 -11t12 -27q0 -7 -2 -19l-110 -569h394l112 579q4 20 19 33.5t34 13.5q18 0 30 -11t12 -27q0 -7 -2 -19l-110 -568h46q18 0 29 -10.5t11 -27.5q0 -3 -2 -15l-42 -213
q-4 -21 -19 -35t-37 -14q-17 0 -28 11t-11 28q0 8 2 20z" />
    <glyph glyph-name="afii10041" unicode="&#x427;" horiz-adv-x="646" 
d="M236 653l-32 -169q-8 -40 -8 -61q0 -100 128 -100q40 0 85.5 6.5t70.5 12.5l26 7l60 314q4 20 19 33.5t34 13.5q18 0 30 -11t12 -27q0 -7 -2 -19l-119 -616q-4 -20 -19 -33.5t-34 -13.5q-18 0 -30 11t-12 27q0 7 2 19l41 213q-104 -22 -184 -22q-98 0 -150.5 44
t-52.5 121q0 35 6 66l37 194q4 20 19 33.5t34 13.5q18 0 29.5 -10.5t11.5 -27.5q0 -9 -2 -19z" />
    <glyph glyph-name="afii10042" unicode="&#x428;" horiz-adv-x="913" 
d="M925 653l-117 -605q-4 -20 -20.5 -34t-37.5 -14h-654q-20 0 -31.5 10.5t-11.5 25.5q0 3 3 21l118 606q4 20 19 33.5t34 13.5q18 0 30 -11t12 -27q0 -7 -2 -19l-110 -569h234l113 579q4 20 19.5 33.5t34.5 13.5q18 0 30 -11t12 -27q0 -7 -2 -19l-111 -569h232l112 579
q4 20 19.5 33.5t34.5 13.5q18 0 30 -11t12 -27q0 -7 -2 -19z" />
    <glyph glyph-name="afii10043" unicode="&#x429;" horiz-adv-x="946" 
d="M796 0h-700q-20 0 -31.5 10.5t-11.5 25.5q0 3 3 21l118 606q4 20 19 33.5t34 13.5q18 0 30.5 -11t12.5 -27q0 -7 -2 -19l-111 -569h234l113 579q4 20 19 33.5t34 13.5q18 0 30 -11t12 -27q0 -7 -2 -19l-111 -569h233l113 579q4 20 19.5 33.5t34.5 13.5q18 0 30 -11
t12 -27q0 -7 -2 -19l-111 -568h45q18 0 29 -10.5t11 -27.5q0 -3 -2 -15l-42 -213q-4 -21 -19 -35t-37 -14q-17 0 -28 11t-11 28q0 8 2 20z" />
    <glyph glyph-name="afii10044" unicode="&#x42a;" horiz-adv-x="664" 
d="M257 346l-51 -261h179q71 0 119 43.5t48 114.5q0 46 -31 74.5t-85 28.5h-179zM315 645l-42 -215h179q92 0 143 -50.5t51 -134.5q0 -103 -72 -174t-206 -71h-226q-38 0 -38 36q0 7 2 19l110 563h-108q-15 0 -25 9.5t-10 25.5q0 19 15.5 33t35.5 14h155q18 0 28 -11t10 -26
q0 -6 -2 -18z" />
    <glyph glyph-name="afii10045" unicode="&#x42b;" horiz-adv-x="821" 
d="M206 346l-51 -261h148q71 0 119 43.5t48 114.5q0 46 -31 74.5t-85 28.5h-148zM55 55l118 608q4 20 19 33.5t34 13.5q18 0 30 -11t12 -27q0 -7 -2 -19l-44 -223h148q92 0 143 -50.5t51 -134.5q0 -103 -72 -174t-206 -71h-195q-38 0 -38 36q0 7 2 19zM833 653l-119 -616
q-4 -20 -19 -33.5t-34 -13.5q-18 0 -30 11t-12 27q0 7 2 19l119 616q4 20 19 33.5t34 13.5q18 0 30 -11t12 -27q0 -7 -2 -19z" />
    <glyph glyph-name="afii10046" unicode="&#x42c;" horiz-adv-x="614" 
d="M206 346l-51 -261h179q71 0 119 43.5t48 114.5q0 46 -31 74.5t-85 28.5h-179zM55 55l118 608q4 20 19 33.5t34 13.5q18 0 30 -11t12 -27q0 -7 -2 -19l-44 -223h179q92 0 143 -50.5t51 -134.5q0 -103 -72 -174t-206 -71h-226q-38 0 -38 36q0 7 2 19z" />
    <glyph glyph-name="afii10047" unicode="&#x42d;" horiz-adv-x="671" 
d="M662 419q0 -109 -52 -206.5t-151.5 -160t-223.5 -62.5q-121 0 -196 64q-16 13 -16 31q0 22 16.5 36.5t34.5 14.5q17 0 27 -10q61 -52 144 -52q103 0 190 70t117 175h-323q-17 0 -26.5 9t-9.5 24q0 21 15.5 36t37.5 15h319v20q0 78 -57 140.5t-156 62.5q-74 0 -148 -43
q-11 -6 -25 -6q-12 0 -22 9.5t-10 24.5q0 43 76.5 71t144.5 28q129 0 211.5 -83t82.5 -208z" />
    <glyph glyph-name="afii10048" unicode="&#x42e;" horiz-adv-x="1034" 
d="M298 281q0 25 2 38h-98l-54 -282q-4 -20 -19 -33.5t-34 -13.5q-18 0 -30 11t-12 27q0 7 2 19l119 616q4 20 19 33.5t34 13.5q18 0 30 -11t12 -27q0 -7 -2 -19l-48 -250h99q43 131 157.5 219t256.5 88q128 0 210.5 -83.5t82.5 -207.5q0 -114 -59 -213t-159 -157.5
t-214 -58.5q-130 0 -212.5 83t-82.5 208zM716 626q-126 0 -224 -102t-98 -231q0 -95 58.5 -157t156.5 -62q124 0 222 102t98 230q0 95 -58 157.5t-155 62.5z" />
    <glyph glyph-name="afii10049" unicode="&#x42f;" horiz-adv-x="643" 
d="M501 338l54 277h-188q-65 0 -116.5 -49.5t-51.5 -119.5q0 -48 32.5 -78t81.5 -30h188zM444 47l40 206h-146l-231 -244q-18 -19 -42 -19q-18 0 -28.5 11.5t-10.5 28.5q0 22 18 42l183 187q-57 23 -90.5 70.5t-33.5 108.5q0 108 82.5 185t197.5 77h234q18 0 29 -10.5
t11 -26.5q0 -5 -2 -17l-118 -609q-4 -20 -19 -33.5t-34 -13.5q-18 0 -30 11t-12 27q0 7 2 19z" />
    <glyph glyph-name="afii10065" unicode="&#x430;" horiz-adv-x="627" 
d="M491 246q6 32 6 49q0 58 -36.5 96t-97.5 38q-83 0 -145.5 -64t-62.5 -152q0 -63 37 -102t102 -39q73 0 128 50t69 124zM446 47l3 17q-7 -8 -21 -20.5t-60 -33t-96 -20.5q-87 0 -147 61t-60 156q0 128 92 215.5t211 87.5q30 0 56.5 -7.5t43.5 -18.5t29.5 -22t18.5 -18
l5 -8l5 26q4 21 19 34.5t36 13.5q17 0 29.5 -11.5t12.5 -27.5q0 -5 -2 -19l-81 -415q-4 -21 -19 -34.5t-36 -13.5q-17 0 -29.5 11.5t-12.5 27.5q0 3 0.5 6t1.5 6.5t1 6.5z" />
    <glyph glyph-name="afii10066" unicode="&#x431;" horiz-adv-x="599" 
d="M418 688q41 9 79 35.5t58 26.5q13 0 22.5 -9.5t9.5 -23.5q0 -36 -48 -64t-120 -45q-76 -18 -133 -57.5t-92 -126.5q8 7 23 18t61 29t93 18q85 0 141.5 -56.5t56.5 -147.5q0 -117 -86 -206t-208 -89q-99 0 -158 58.5t-59 158.5q0 41 7 79q35 178 118 273t235 129zM345 406
q-80 0 -138.5 -56t-58.5 -141q0 -58 36.5 -97t96.5 -39q79 0 138 61.5t59 141.5q0 58 -37 94t-96 36z" />
    <glyph glyph-name="afii10067" unicode="&#x432;" horiz-adv-x="563" 
d="M191 500h194q74 0 111 -31.5t37 -85.5q0 -33 -19 -61.5t-36 -41t-20 -12.5l6 -3t13.5 -10.5t17 -18.5t13.5 -27t6 -37q0 -71 -60.5 -121.5t-171.5 -50.5h-186q-20 0 -32 11t-12 26q0 7 2 17l77 398q4 19 21.5 33.5t38.5 14.5zM368 416h-150l-23 -118h150q39 0 66 19.5
t27 50.5q0 22 -19 35t-51 13zM330 218h-151l-25 -134h151q50 0 82 23t32 58q0 53 -89 53z" />
    <glyph glyph-name="afii10068" unicode="&#x433;" horiz-adv-x="465" 
d="M195 500h284q17 0 27.5 -10t10.5 -25q0 -21 -16 -35.5t-39 -14.5h-240l-73 -378q-4 -21 -19 -34t-36 -13q-17 0 -29.5 11t-12.5 27q0 2 2 16l80 408q4 19 21 33.5t40 14.5z" />
    <glyph glyph-name="afii10069" unicode="&#x434;" horiz-adv-x="667" 
d="M513 417h-208q-20 -91 -31.5 -136.5t-32 -102.5t-45.5 -94h252zM508 -115l21 115h-436l-23 -122q-4 -21 -18 -34t-35 -13q-17 0 -29.5 11t-12.5 27q0 2 2 16l28 151q4 20 21 34t41 14h23q49 60 72 131t56 241q4 20 21.5 32t39.5 12h292q20 0 32 -10.5t12 -27.5
q0 -2 -3 -23l-69 -355h46q20 0 31.5 -11t11.5 -26q0 -7 -3 -23l-28 -146q-4 -21 -18 -34t-35 -13q-17 0 -29.5 11t-12.5 27q0 2 2 16z" />
    <glyph glyph-name="afii10070" unicode="&#x435;" horiz-adv-x="585" 
d="M510 211h-356q0 -59 40.5 -99t103.5 -40q57 0 129 35q16 8 29 8q16 0 25 -9.5t9 -23.5q0 -32 -30 -46q-84 -46 -178 -46q-99 0 -158.5 60t-59.5 158q0 123 89.5 212.5t220.5 89.5q94 0 149.5 -59t55.5 -138q0 -40 -16.5 -71t-52.5 -31zM363 430q-63 0 -119.5 -41
t-74.5 -101h326v11q0 58 -36 94.5t-96 36.5z" />
    <glyph glyph-name="afii10072" unicode="&#x436;" horiz-adv-x="726" 
d="M480 298l108 134q64 78 112 78q34 0 34 -32q0 -21 -9 -30t-33.5 -26t-47.5 -45l-98 -119l110 -191q9 -14 9 -26q0 -22 -14 -36.5t-36 -14.5t-33 20l-117 204h-38l-34 -176q-4 -19 -20.5 -33.5t-35.5 -14.5q-18 0 -28.5 11t-10.5 27q0 7 1 10l34 177h-37l-199 -208
q-15 -17 -38 -17q-15 0 -24.5 8.5t-9.5 23.5q0 24 18 42l192 198l-49 113q-12 27 -36 48.5t-24 40.5t13.5 32.5t34.5 13.5q48 0 88 -93l50 -119h37l32 164q4 19 20.5 33.5t36.5 14.5q17 0 27.5 -11.5t10.5 -27.5q0 -1 -0.5 -4t-0.5 -5l-32 -164h37z" />
    <glyph glyph-name="afii10073" unicode="&#x437;" horiz-adv-x="507" 
d="M321 510q78 0 122 -35t44 -92q0 -32 -22.5 -66.5t-68.5 -50.5q68 -30 68 -101q0 -74 -68 -124.5t-172 -50.5q-90 0 -140 33.5t-50 67.5q0 18 15 32.5t34 14.5q14 0 26.5 -11t22.5 -23.5t36 -23.5t64 -11q52 0 92.5 25t40.5 67q0 56 -105 56q-42 0 -42 33q0 48 66 51
q111 6 111 73q0 25 -25.5 40.5t-61.5 15.5q-71 0 -112 -36q-2 -2 -7.5 -7t-9 -7.5t-9 -6t-11 -5t-12.5 -1.5q-18 0 -27.5 10t-9.5 25q0 35 62.5 71.5t148.5 36.5z" />
    <glyph glyph-name="afii10074" unicode="&#x438;" horiz-adv-x="647" 
d="M224 456l-67 -343l44 51l317 314q22 22 50 22h24q20 0 30 -10.5t10 -26.5q0 -5 -2 -19l-79 -407q-4 -21 -18 -34t-35 -13q-17 0 -28.5 11t-11.5 27q0 2 2 16l66 341l-43 -50l-317 -313q-22 -22 -49 -22h-27q-38 0 -38 34q0 7 2 21l79 408q4 21 18 34t35 13q17 0 28.5 -11
t11.5 -27q0 -2 -2 -16z" />
    <glyph glyph-name="afii10075" unicode="&#x439;" horiz-adv-x="647" 
d="M224 456l-67 -343l44 51l317 314q22 22 50 22h24q20 0 30 -10.5t10 -26.5q0 -5 -2 -19l-79 -407q-4 -21 -18 -34t-35 -13q-17 0 -28.5 11t-11.5 27q0 2 2 16l66 341l-43 -50l-317 -313q-22 -22 -49 -22h-27q-38 0 -38 34q0 7 2 21l79 408q4 21 18 34t35 13q17 0 28.5 -11
t11.5 -27q0 -2 -2 -16zM478 699q4 18 16.5 29t29.5 11q37 0 37 -32q0 -57 -52.5 -98t-115.5 -41q-54 0 -90.5 30.5t-36.5 77.5q0 26 12.5 44.5t36.5 18.5q16 0 25.5 -9.5t9.5 -23.5q0 -3 -1 -9t-1 -11q0 -17 13.5 -31.5t40.5 -14.5q30 0 51 18.5t25 40.5z" />
    <glyph glyph-name="afii10076" unicode="&#x43a;" horiz-adv-x="521" 
d="M182 214l-35 -177q-4 -21 -19 -34t-36 -13q-17 0 -28.5 11t-11.5 27q0 5 2 19l82 415q4 21 18.5 34.5t34.5 13.5q17 0 29 -11.5t12 -27.5q0 -8 -3 -20l-29 -153h51l152 149q63 63 105 63q16 0 25.5 -10t9.5 -23q0 -18 -9 -27t-33 -24t-44 -35l-142 -138l153 -186
q11 -13 11 -29q0 -21 -13 -34.5t-34 -13.5t-33 14l-169 210h-46z" />
    <glyph glyph-name="afii10077" unicode="&#x43b;" horiz-adv-x="608" 
d="M418 47l72 368h-209q-33 -150 -76.5 -242.5t-120.5 -153.5q-36 -29 -59 -29q-17 0 -27 10.5t-10 26.5q0 15 7 24.5t29 25.5t24 17q58 47 86 120t59 237q4 20 22 34.5t41 14.5h294q20 0 32 -10.5t12 -27.5q0 -3 -2 -17l-80 -408q-4 -21 -19 -34t-36 -13q-17 0 -29 11
t-12 27q0 5 2 19z" />
    <glyph glyph-name="afii10078" unicode="&#x43c;" horiz-adv-x="709" 
d="M54 44l80 411q3 18 18.5 31.5t37.5 13.5h24q29 0 42 -21l124 -197l197 197q21 21 50 21h28q19 0 29 -10t10 -25q0 -5 -2 -15l-80 -413q-4 -21 -18 -34t-35 -13q-17 0 -28.5 11t-11.5 27q0 2 2 16l67 344l-31 -37l-137 -134q-26 -26 -56 -26q-28 0 -45 26l-86 134l-20 37
l-68 -351q-4 -21 -18 -34t-35 -13q-17 0 -28.5 11t-11.5 27q0 2 2 16z" />
    <glyph glyph-name="afii10079" unicode="&#x43d;" horiz-adv-x="650" 
d="M634 456l-81 -419q-4 -21 -19 -34t-36 -13q-17 0 -29 11t-12 27q0 2 2 16l33 172h-310l-34 -179q-4 -21 -19 -34t-36 -13q-17 0 -29 11t-12 27q0 2 2 16l81 419q4 21 19 34t36 13q17 0 29 -11t12 -27q0 -4 -2 -16l-30 -155h310l31 162q4 21 19 34t36 13q17 0 29 -11
t12 -27q0 -2 -2 -16z" />
    <glyph glyph-name="afii10080" unicode="&#x43e;" horiz-adv-x="613" 
d="M377 510q96 0 157 -61t61 -157q0 -123 -90 -212.5t-224 -89.5q-96 0 -156.5 61t-60.5 157q0 124 89.5 213t223.5 89zM295 71q84 0 146.5 64.5t62.5 147.5q0 67 -37.5 107t-102.5 40q-84 0 -147 -65t-63 -148q0 -66 38 -106t103 -40z" />
    <glyph glyph-name="afii10081" unicode="&#x43f;" horiz-adv-x="650" 
d="M190 500h401q20 0 32 -10.5t12 -27.5q0 -3 -2 -17l-80 -408q-4 -21 -19 -34t-36 -13q-17 0 -29 11t-12 27q0 2 2 16l72 371h-310l-73 -378q-4 -21 -19 -34t-36 -13q-17 0 -29 11t-12 27q0 2 2 16l80 408q4 20 19 34t37 14z" />
    <glyph glyph-name="afii10082" unicode="&#x440;" horiz-adv-x="628" 
d="M184 253q-6 -32 -6 -49q0 -58 36.5 -95.5t97.5 -37.5q83 0 145.5 63.5t62.5 151.5q0 64 -37 103.5t-102 39.5q-73 0 -128 -51t-69 -125zM229 452l-3 -17q7 8 21 20.5t60 33t96 20.5q87 0 147 -61t60 -156q0 -127 -91 -214.5t-207 -87.5q-32 0 -59.5 7.5t-45 18t-30 21.5
t-17.5 19l-6 7l-48 -245q-4 -21 -19 -34.5t-36 -13.5q-17 0 -29.5 11.5t-12.5 27.5q0 5 2 19l124 634q4 21 19 34.5t36 13.5q17 0 29.5 -11.5t12.5 -27.5q0 -3 -1.5 -10t-1.5 -9z" />
    <glyph glyph-name="afii10083" unicode="&#x441;" horiz-adv-x="503" 
d="M363 429q-83 0 -146.5 -65t-63.5 -147q0 -62 39 -103.5t103 -41.5q40 0 78.5 18t46.5 18q16 0 26 -10.5t10 -26.5q0 -27 -33 -47q-57 -34 -139 -34q-99 0 -159.5 60t-60.5 158q0 123 90 212.5t223 89.5q80 0 124 -28q21 -13 21 -33q0 -19 -17 -34.5t-36 -15.5
q-12 0 -32 11q-32 19 -74 19z" />
    <glyph glyph-name="afii10084" unicode="&#x442;" horiz-adv-x="487" 
d="M129 500h376q17 0 27.5 -10t10.5 -25q0 -21 -16 -35.5t-39 -14.5h-141l-73 -378q-4 -21 -19 -34t-36 -13q-17 0 -29.5 11t-12.5 27q0 2 2 16l73 371h-140q-17 0 -27.5 10t-10.5 25q0 21 16 35.5t39 14.5z" />
    <glyph glyph-name="afii10085" unicode="&#x443;" horiz-adv-x="548" 
d="M595 437l-323 -562q-55 -95 -148 -95h-34q-16 0 -25.5 10t-9.5 26q0 20 15 34.5t36 14.5h25q20 0 32 8t23 28l68 117q-61 0 -71 43l-86 376q-3 12 -3 21q0 22 16.5 37t39.5 15q32 0 40 -32l88 -404h8l230 404q18 32 53 32q17 0 28 -11t11 -28q0 -11 -13 -34z" />
    <glyph glyph-name="afii10086" unicode="&#x444;" horiz-adv-x="722" 
d="M301 71l70 359q-89 -2 -153 -63.5t-64 -146.5q0 -69 36.5 -108t110.5 -41zM397 71q85 0 149.5 63.5t64.5 147.5q0 65 -38.5 107t-106.5 42zM518 690l-36 -180q99 -3 159 -64t60 -154q0 -128 -95 -215t-225 -87l-33 -172q-4 -21 -19 -34.5t-36 -13.5q-17 0 -29.5 11.5
t-12.5 27.5l3 21l31 160q-98 2 -159.5 61.5t-61.5 156.5q0 135 96 217.5t226 84.5l38 192q4 21 19 34.5t36 13.5q17 0 29.5 -11.5t12.5 -27.5z" />
    <glyph glyph-name="afii10087" unicode="&#x445;" horiz-adv-x="550" 
d="M398 12l-111 172l-188 -180q-14 -14 -35 -14q-16 0 -27 10t-11 24q0 23 16 39l200 191l-121 184q-6 10 -6 20q0 20 15 36t37 16q21 0 36 -22l108 -168l179 172q20 18 42 18q15 0 25.5 -11t10.5 -26q0 -20 -15 -35l-199 -188l122 -184q9 -14 9 -27q0 -19 -15 -34t-35 -15
q-22 0 -37 22z" />
    <glyph glyph-name="afii10088" unicode="&#x446;" horiz-adv-x="672" 
d="M552 84h28q20 0 31.5 -11t11.5 -26q0 -7 -3 -23l-28 -146q-4 -21 -18 -34t-35 -13q-17 0 -29.5 11t-12.5 27q0 2 2 16l21 115h-429q-18 0 -28.5 11t-10.5 26q0 7 2 17l80 409q4 21 19 34t36 13q17 0 29 -11t12 -27q0 -4 -2 -16l-73 -372h302l74 379q4 21 19 34t36 13
q17 0 29 -11t12 -27q0 -2 -2 -16z" />
    <glyph glyph-name="afii10089" unicode="&#x447;" horiz-adv-x="546" 
d="M354 44l25 129q-72 -13 -127 -13q-85 0 -128.5 34.5t-43.5 95.5q0 17 4 41l25 132q4 21 18.5 34t35.5 13q17 0 29 -11t12 -27q0 -4 -2 -16l-24 -125q-2 -14 -2 -26q0 -28 23 -45.5t72 -17.5q24 0 55 4t50 8l19 3l40 206q4 21 19 34t36 13q17 0 29 -11t12 -27q0 -2 -2 -16
l-81 -419q-4 -21 -19 -34t-36 -13q-17 0 -29 11t-12 27q0 2 2 16z" />
    <glyph glyph-name="afii10090" unicode="&#x448;" horiz-adv-x="752" 
d="M599 0h-503q-20 0 -32 10.5t-12 27.5q0 3 2 17l80 408q4 21 19 34t36 13q17 0 29 -11t12 -27q0 -2 -2 -16l-73 -372h159l74 379q4 21 19 34t36 13q17 0 28.5 -11t11.5 -27q0 -2 -2 -16l-73 -372h159l74 379q4 21 19 34t36 13q17 0 29 -11t12 -27q0 -2 -2 -16l-80 -408
q-4 -20 -19 -34t-37 -14z" />
    <glyph glyph-name="afii10091" unicode="&#x449;" horiz-adv-x="782" 
d="M631 0h-535q-20 0 -32 10.5t-12 27.5q0 3 2 17l80 408q4 21 19 34t36 13q17 0 29 -11t12 -27q0 -2 -2 -16l-73 -372h159l74 379q4 21 19 34t36 13q17 0 28.5 -11t11.5 -27q0 -2 -2 -16l-73 -372h159l74 379q4 21 19 34t36 13q17 0 29 -11t12 -27q0 -2 -2 -16l-73 -372h28
q20 0 31.5 -11t11.5 -26q0 -7 -3 -23l-28 -146q-4 -21 -18 -34t-35 -13q-17 0 -29.5 11t-12.5 27q0 2 2 16z" />
    <glyph glyph-name="afii10092" unicode="&#x44a;" horiz-adv-x="552" 
d="M241 446l-26 -132h157q78 0 114.5 -37t36.5 -102q0 -70 -55 -122.5t-157 -52.5h-200q-19 0 -30.5 11t-11.5 27q0 5 2 15l70 365h-61q-16 0 -25.5 10t-9.5 27q0 19 15 32t36 13h104q17 0 30 -11.5t13 -25.5q0 -3 -2 -17zM199 230l-28 -146h162q40 0 68.5 24t28.5 65
q0 27 -18.5 42t-50.5 15h-162z" />
    <glyph glyph-name="afii10093" unicode="&#x44b;" horiz-adv-x="708" 
d="M54 53l79 410q4 21 19 34t36 13q17 0 29 -11t12 -27q0 -2 -2 -16l-28 -142h136q78 0 114.5 -37t36.5 -102q0 -70 -55 -122.5t-157 -52.5h-180q-19 0 -30.5 11t-11.5 27q0 5 2 15zM183 230l-28 -146h142q40 0 68.5 24t28.5 65q0 27 -18.5 42t-50.5 15h-142zM692 456
l-81 -419q-4 -21 -18.5 -34t-35.5 -13q-17 0 -29 11t-12 27q0 2 2 16l81 419q4 21 19 34t36 13q17 0 28.5 -11t11.5 -27q0 -4 -2 -16z" />
    <glyph glyph-name="afii10094" unicode="&#x44c;" horiz-adv-x="535" 
d="M54 53l79 410q4 21 19 34t36 13q17 0 29 -11t12 -27q0 -2 -2 -16l-28 -142h156q78 0 114.5 -37t36.5 -102q0 -70 -55 -122.5t-157 -52.5h-200q-19 0 -30.5 11t-11.5 27q0 5 2 15zM183 230l-28 -146h162q40 0 68.5 24t28.5 65q0 27 -18.5 42t-50.5 15h-162z" />
    <glyph glyph-name="afii10095" unicode="&#x44d;" horiz-adv-x="502" 
d="M254 430q-45 0 -81 -18q-29 -13 -37 -13q-15 0 -25.5 10.5t-10.5 25.5q0 31 38 49q57 26 128 26q96 0 157 -60.5t61 -157.5q0 -119 -88.5 -210.5t-224.5 -91.5q-76 0 -132 39q-18 14 -18 31q0 19 13.5 33t31.5 14q17 0 30 -9q38 -27 88 -27q64 0 119.5 41t76.5 101h-222
q-16 0 -26 9.5t-10 25.5q0 19 15.5 31t35.5 12h220q0 60 -39 99.5t-100 39.5z" />
    <glyph glyph-name="afii10096" unicode="&#x44e;" horiz-adv-x="812" 
d="M574 510q96 0 157 -61t61 -157q0 -123 -90 -212.5t-224 -89.5q-96 0 -156.5 61t-60.5 157v8h-79l-34 -179q-4 -21 -19 -34t-36 -13q-17 0 -29 11t-12 27q0 2 2 16l81 419q4 21 19 34t36 13q17 0 29 -11t12 -27q0 -4 -2 -16l-30 -155h77q30 92 111 150.5t187 58.5zM492 71
q84 0 146.5 64.5t62.5 147.5q0 67 -37.5 107t-102.5 40q-84 0 -147 -65t-63 -148q0 -66 38 -106t103 -40z" />
    <glyph glyph-name="afii10097" unicode="&#x44f;" horiz-adv-x="550" 
d="M402 252l32 164h-156q-46 0 -75.5 -28t-29.5 -70q0 -30 18.5 -48t54.5 -18h156zM50 64l120 112q-45 16 -67.5 53t-22.5 86q0 75 57.5 130t158.5 55h198q19 0 30.5 -11t11.5 -27q0 -5 -2 -15l-79 -410q-4 -21 -19 -34t-36 -13q-17 0 -29 11t-12 27q0 2 2 16l24 124h-110
l-169 -161q-20 -17 -40 -17q-15 0 -25.5 8.5t-10.5 23.5q0 22 20 42z" />
    <glyph glyph-name="afii10071" unicode="&#x451;" horiz-adv-x="585" 
d="M510 211h-356q0 -59 40.5 -99t103.5 -40q57 0 129 35q16 8 29 8q16 0 25 -9.5t9 -23.5q0 -32 -30 -46q-84 -46 -178 -46q-99 0 -158.5 60t-59.5 158q0 123 89.5 212.5t220.5 89.5q94 0 149.5 -59t55.5 -138q0 -40 -16.5 -71t-52.5 -31zM363 430q-63 0 -119.5 -41
t-74.5 -101h326v11q0 58 -36 94.5t-96 36.5zM234 636q0 26 21 47t48 21q20 0 33.5 -13.5t13.5 -33.5q0 -27 -21.5 -47t-47.5 -20q-21 0 -34 13t-13 33zM429 636q0 26 21 47t48 21q21 0 34 -13t13 -33q0 -27 -21 -47.5t-48 -20.5q-20 0 -33.5 13t-13.5 33z" />
    <glyph glyph-name="afii10099" unicode="&#x452;" horiz-adv-x="629" 
d="M596 264l-65 -332q-14 -69 -70.5 -115.5t-133.5 -46.5q-17 0 -27 8.5t-10 23.5q0 23 15.5 37t38.5 16q36 2 60 22.5t30 52.5l65 330q4 24 4 43q0 55 -31 84.5t-88 29.5q-64 0 -120 -38t-65 -85l-50 -257q-4 -21 -19 -34t-36 -13q-17 0 -29.5 11t-12.5 27q0 5 2 19
l101 518h-37q-16 0 -25 9t-9 23q0 20 14.5 35t35.5 15h37l11 55q4 21 19 34.5t36 13.5q17 0 29.5 -11.5t12.5 -27.5q0 -8 -3 -20l-9 -44h121q16 0 26 -10t10 -24q0 -19 -16.5 -33.5t-35.5 -14.5h-121l-27 -139q35 33 85.5 53.5t98.5 20.5q90 0 141.5 -51t51.5 -133
q0 -30 -5 -52z" />
    <glyph glyph-name="afii10100" unicode="&#x453;" horiz-adv-x="470" 
d="M194 500h284q17 0 27.5 -10t10.5 -25q0 -21 -16 -35.5t-39 -14.5h-240l-73 -378q-4 -21 -19 -34t-36 -13q-17 0 -29.5 11t-12.5 27q0 2 2 16l80 408q4 19 21 33.5t40 14.5zM473 664l-114 -89q-14 -11 -30 -11q-17 0 -28 10.5t-11 26.5q0 23 20 38l116 89q16 12 30 12
q16 0 27 -11t11 -27q0 -22 -21 -38z" />
    <glyph glyph-name="afii10101" unicode="&#x454;" horiz-adv-x="502" 
d="M363 429q-64 0 -119 -39.5t-76 -98.5h222q15 0 25 -9.5t10 -22.5q0 -21 -15.5 -34t-36.5 -13h-220q2 -61 40.5 -100.5t101.5 -39.5q40 0 78.5 18t46.5 18q16 0 26 -10.5t10 -26.5q0 -27 -33 -47q-57 -34 -139 -34q-99 0 -159.5 60t-60.5 158q0 123 90 212.5t223 89.5
q80 0 124 -28q21 -13 21 -33q0 -19 -17 -34.5t-36 -15.5q-12 0 -32 11q-32 19 -74 19z" />
    <glyph glyph-name="afii10102" unicode="&#x455;" horiz-adv-x="512" 
d="M245 71q45 0 88.5 18t43.5 57q0 21 -20.5 35.5t-52 21.5t-67.5 18t-67.5 23.5t-52 38.5t-20.5 63q0 76 66.5 120t151.5 44q95 0 154 -47q30 -23 30 -46q0 -19 -14.5 -34t-34.5 -15q-17 0 -40 23q-41 39 -105 39q-43 0 -79.5 -18t-36.5 -50q0 -23 29.5 -37.5t71 -25
t83 -24t71 -42.5t29.5 -73q0 -79 -71 -124.5t-164 -45.5q-101 0 -162 48q-34 27 -34 51q0 21 15.5 35.5t35.5 14.5q16 0 33 -19q42 -49 119 -49z" />
    <glyph glyph-name="afii10103" unicode="&#x456;" horiz-adv-x="246" 
d="M150 635q0 28 22.5 51.5t53.5 23.5q23 0 37.5 -14.5t14.5 -36.5q0 -30 -23.5 -52.5t-52.5 -22.5q-22 0 -37 14.5t-15 36.5zM226 452l-66 -338q-2 -8 -2 -15q0 -24 24 -24q16 0 26 -10t10 -25q0 -22 -18.5 -36t-43.5 -14q-45 0 -70.5 23.5t-25.5 61.5q0 17 4 39l67 349
q4 21 19 34t36 13q17 0 29.5 -11.5t12.5 -27.5q0 -5 -2 -19z" />
    <glyph glyph-name="afii10104" unicode="&#x457;" horiz-adv-x="246" 
d="M58 636q0 26 21 47t48 21q20 0 33.5 -13.5t13.5 -33.5q0 -27 -21.5 -47t-47.5 -20q-21 0 -34 13t-13 33zM253 636q0 26 21 47t48 21q21 0 34 -13t13 -33q0 -27 -21 -47.5t-48 -20.5q-20 0 -33.5 13t-13.5 33zM226 452l-66 -338q-2 -8 -2 -15q0 -24 24 -24q16 0 26 -10
t10 -25q0 -22 -18.5 -36t-43.5 -14q-45 0 -70.5 23.5t-25.5 61.5q0 17 4 39l67 349q4 21 19 34t36 13q17 0 29.5 -11.5t12.5 -27.5q0 -5 -2 -19z" />
    <glyph glyph-name="afii10105" unicode="&#x458;" horiz-adv-x="258" 
d="M164 636q0 28 23.5 51t53.5 23q22 0 36.5 -14.5t14.5 -35.5q0 -31 -23 -53.5t-53 -22.5q-22 0 -37 15t-15 37zM237 453l-104 -535q-12 -62 -53.5 -100t-97.5 -38h-53q-18 0 -28.5 10t-10.5 26q0 20 15.5 34.5t35.5 14.5h41q20 0 35.5 14t19.5 33l107 550q4 20 19 34
t36 14q18 0 29 -11.5t11 -27.5q0 -8 -2 -18z" />
    <glyph glyph-name="afii10106" unicode="&#x459;" horiz-adv-x="825" 
d="M502 230l-28 -146h132q40 0 68.5 24t28.5 65q0 27 -18.5 42t-50.5 15h-132zM256 500h250q17 0 29 -11t12 -27q0 -2 -2 -16l-26 -132h126q78 0 114.5 -37t36.5 -102q0 -70 -55 -122.5t-157 -52.5h-170q-19 0 -30.5 11t-11.5 27q0 5 2 15l70 362h-163q-31 -151 -75 -242.5
t-122 -153.5q-36 -29 -59 -29q-17 0 -27 10.5t-10 26.5q0 15 7 24.5t29 25.5t24 17q58 47 86 120t59 237q4 20 22 34.5t41 14.5z" />
    <glyph glyph-name="afii10107" unicode="&#x45a;" horiz-adv-x="808" 
d="M364 48l33 176h-208l-36 -186q-4 -19 -21 -33.5t-37 -14.5q-19 0 -30 14.5t-7 33.5l82 424q4 19 20.5 33.5t35.5 14.5q20 0 31.5 -14.5t7.5 -33.5l-30 -153h208l30 153q4 19 20.5 33.5t35.5 14.5q20 0 31.5 -14.5t7.5 -33.5l-30 -154h127q88 0 124.5 -44t23.5 -110
q-13 -68 -66 -111t-142 -43h-170q-20 0 -32.5 14.5t-8.5 33.5zM492 224l-27 -140h132q81 0 94 70q7 34 -11.5 52t-55.5 18h-132z" />
    <glyph glyph-name="afii10108" unicode="&#x45b;" horiz-adv-x="629" 
d="M372 565h-121l-27 -139q35 33 85.5 53.5t98.5 20.5q90 0 141.5 -51t51.5 -133q0 -22 -5 -52l-44 -227q-4 -21 -19 -34t-36 -13q-17 0 -29.5 11t-12.5 27q0 5 2 19l42 213q4 24 4 43q0 55 -31 84.5t-88 29.5q-64 0 -120 -38t-65 -85l-50 -257q-4 -21 -19 -34t-36 -13
q-17 0 -29.5 11t-12.5 27q0 5 2 19l101 518h-37q-16 0 -25 9t-9 23q0 20 14.5 35t35.5 15h37l11 55q4 21 19 34.5t36 13.5q17 0 29.5 -11.5t12.5 -27.5q0 -8 -3 -20l-9 -44h121q16 0 26 -10t10 -24q0 -19 -16.5 -33.5t-35.5 -14.5z" />
    <glyph glyph-name="afii10109" unicode="&#x45c;" horiz-adv-x="521" 
d="M182 214l-35 -177q-4 -21 -19 -34t-36 -13q-17 0 -28.5 11t-11.5 27q0 5 2 19l82 415q4 21 18.5 34.5t34.5 13.5q17 0 29 -11.5t12 -27.5q0 -8 -3 -20l-29 -153h51l152 149q63 63 105 63q16 0 25.5 -10t9.5 -23q0 -18 -9 -27t-33 -24t-44 -35l-142 -138l153 -186
q11 -13 11 -29q0 -21 -13 -34.5t-34 -13.5t-33 14l-169 210h-46zM490 664l-114 -89q-14 -11 -30 -11q-17 0 -28 10.5t-11 26.5q0 23 20 38l116 89q17 12 30 12q16 0 27 -11t11 -27q0 -22 -21 -38z" />
    <glyph glyph-name="afii10110" unicode="&#x45e;" horiz-adv-x="548" 
d="M595 437l-323 -562q-55 -95 -148 -95h-34q-16 0 -25.5 10t-9.5 26q0 20 15 34.5t36 14.5h25q20 0 32 8t23 28l68 117q-61 0 -71 43l-86 376q-3 12 -3 21q0 22 16.5 37t39.5 15q32 0 40 -32l88 -404h8l230 404q18 32 53 32q17 0 28 -11t11 -28q0 -11 -13 -34zM455 699
q4 18 16.5 29t29.5 11q37 0 37 -32q0 -57 -52.5 -98t-115.5 -41q-54 0 -90.5 30.5t-36.5 77.5q0 26 12.5 44.5t36.5 18.5q16 0 25.5 -9.5t9.5 -23.5q0 -3 -1 -9t-1 -11q0 -17 13.5 -31.5t40.5 -14.5q30 0 51 18.5t25 40.5z" />
    <glyph glyph-name="afii10193" unicode="&#x45f;" horiz-adv-x="649" 
d="M246 0h-150q-20 0 -32 10.5t-12 27.5q0 3 2 17l80 408q4 21 19 34t36 13q17 0 29 -11t12 -27q0 -2 -2 -16l-73 -372h310l74 379q4 21 19 34t36 13q17 0 29 -11t12 -27q0 -2 -2 -16l-80 -408q-4 -20 -19 -34t-37 -14h-156l-23 -122q-4 -21 -18 -34t-35 -13q-17 0 -29.5 11
t-12.5 27q0 2 2 16z" />
    <glyph glyph-name="afii10146" unicode="&#x462;" horiz-adv-x="634" 
d="M279 615l-36 -185h179q94 0 144 -49.5t50 -129.5q0 -106 -76.5 -178.5t-201.5 -72.5h-226q-17 0 -27.5 10.5t-10.5 24.5q0 8 2 18l109 562h-83q-17 0 -29 10.5t-12 26.5q0 22 17.5 35t41.5 13h317q17 0 28.5 -9.5t11.5 -24.5q0 -21 -17.5 -36t-39.5 -15h-141zM227 346
l-51 -261h179q71 0 119 42t48 116q0 46 -31 74.5t-85 28.5h-179z" />
    <glyph glyph-name="afii10194" unicode="&#x463;" horiz-adv-x="530" 
d="M120 592h38l22 112q4 21 19 34t36 13q17 0 29 -11t12 -27q0 -2 -2 -16l-21 -105h121q16 0 26 -10t10 -24q0 -19 -16.5 -33.5t-35.5 -14.5h-121l-38 -196h156q78 0 114.5 -37t36.5 -102q0 -70 -55 -122.5t-157 -52.5h-200q-19 0 -30.5 11t-11.5 27q0 5 2 15l88 457h-38
q-16 0 -25 9t-9 23q0 20 14.5 35t35.5 15zM183 230l-28 -146h162q40 0 68.5 24t28.5 65q0 27 -18.5 42t-50.5 15h-162z" />
    <glyph glyph-name="afii10147" unicode="&#x472;" horiz-adv-x="813" 
d="M76 281q0 109 56 207.5t156.5 160t218.5 61.5q129 0 212.5 -83.5t83.5 -207.5q0 -175 -126 -302t-303 -127q-130 0 -214 83.5t-84 207.5zM387 74q105 0 194.5 75.5t116.5 183.5q-82 -59 -154 -59q-45 0 -117 35.5t-103 35.5q-64 0 -151 -63q4 -91 62.5 -149.5
t151.5 -58.5zM554 356q66 0 153 63q-5 90 -63 148.5t-150 58.5q-106 0 -195 -75t-117 -183q82 59 151 59q45 0 117.5 -35.5t103.5 -35.5z" />
    <glyph glyph-name="afii10195" unicode="&#x473;" horiz-adv-x="613" 
d="M377 510q96 0 157 -61t61 -157q0 -123 -90 -212.5t-224 -89.5q-96 0 -156.5 61t-60.5 157q0 124 89.5 213t223.5 89zM364 430q-65 0 -120 -41t-77 -103q50 30 100 30q37 0 76 -25t62 -25q41 0 98 33q-5 60 -42 95.5t-97 35.5zM295 71q65 0 119 40t76 100q-51 -28 -97 -28
q-37 0 -76.5 25t-62.5 25q-44 0 -99 -35q5 -58 42 -92.5t98 -34.5z" />
    <glyph glyph-name="afii10148" unicode="&#x474;" horiz-adv-x="704" 
d="M365 0h-89q-17 0 -28 10.5t-13 26.5l-100 594q-2 14 -2 24q0 23 14.5 39t37.5 16q17 0 29.5 -11t15.5 -28l98 -589h11l262 515q29 58 68.5 86t75.5 28q17 0 28 -9.5t11 -25.5q0 -19 -11.5 -31.5t-26 -19.5t-32.5 -22t-29 -36l-264 -528q-8 -15 -24.5 -27t-31.5 -12z" />
    <glyph glyph-name="afii10196" unicode="&#x475;" horiz-adv-x="525" 
d="M249 82l158 314q29 58 69.5 86t76.5 28q17 0 27.5 -9.5t10.5 -24.5q0 -19 -11.5 -32t-26 -20t-33.5 -22t-30 -36l-172 -326q-21 -40 -66 -40h-45q-21 0 -34.5 11.5t-16.5 28.5l-74 385q-3 13 -3 29q0 23 14 39.5t41 16.5q15 0 27.5 -11t14.5 -26l64 -391h9z" />
    <glyph glyph-name="afii10050" unicode="&#x490;" horiz-adv-x="569" 
d="M55 49l118 605q4 20 20.5 33t36.5 13h319l14 73q3 17 16 28.5t31 11.5q15 0 25.5 -9t10.5 -22q0 -5 -2 -15l-22 -109q-4 -19 -20 -31t-36 -12h-305l-112 -576q-4 -21 -19 -35t-37 -14q-17 0 -28.5 11t-11.5 28q0 8 2 20z" />
    <glyph glyph-name="afii10098" unicode="&#x491;" horiz-adv-x="475" 
d="M195 500h236l11 56q3 18 16 30.5t32 12.5q16 0 26 -10t10 -24q0 -4 -2 -14l-18 -93q-4 -19 -19 -31t-35 -12h-230l-73 -378q-4 -21 -19 -34t-36 -13q-17 0 -29.5 11t-12.5 27q0 2 2 16l80 408q4 19 21 33.5t40 14.5z" />
    <glyph glyph-name="uni04D8" unicode="&#x4d8;" horiz-adv-x="791" 
d="M781 419q0 -171 -124 -300t-297 -129q-73 0 -130 26t-90.5 68t-50.5 91t-17 101q0 18 3 36t12 40.5t30.5 36.5t52.5 14h514q0 3 0.5 9t0.5 9q0 88 -60 146.5t-162 58.5q-94 0 -194 -58q-12 -7 -30 -7q-12 0 -22 10t-10 25q0 37 86.5 75.5t185.5 38.5q134 0 218 -82.5
t84 -208.5zM672 319h-502q-3 -23 -3 -34q0 -93 52.5 -152t146.5 -59q102 0 187 67.5t119 177.5z" />
    <glyph glyph-name="afii10846" unicode="&#x4d9;" horiz-adv-x="590" 
d="M130 289h352q0 59 -40.5 99t-103.5 40q-57 0 -129 -35q-16 -8 -29 -8q-16 0 -25 9.5t-9 23.5q0 32 30 46q84 46 178 46q99 0 158.5 -60t59.5 -158q0 -123 -89.5 -212.5t-220.5 -89.5q-93 0 -148.5 59t-55.5 138q0 39 18 70.5t54 31.5zM273 70q63 0 119.5 41t74.5 101
h-323v-11q0 -59 34.5 -95t94.5 -36z" />
    <glyph glyph-name="Wgrave" unicode="&#x1e80;" horiz-adv-x="860" 
d="M881 653l-156 -603q-6 -22 -22 -36t-37 -14h-32q-26 0 -40 27l-139 264l-241 -264q-24 -27 -51 -27h-40q-18 0 -28.5 11.5t-10.5 29.5q0 1 0.5 4t0.5 5l78 610q3 23 19 36.5t39 13.5q18 0 28.5 -11t10.5 -29q0 -2 -0.5 -5t-0.5 -5l-72 -542l224 249q28 31 61 31
q34 0 49 -31l127 -251l139 544q5 22 21 36t36 14q18 0 29 -11t11 -28q0 -7 -3 -18zM510 778l-82 92q-8 8 -8 22q0 18 15 33t34 15q15 0 25 -11l83 -93q9 -9 9 -23q0 -20 -15 -34t-35 -14q-15 0 -26 13z" />
    <glyph glyph-name="wgrave" unicode="&#x1e81;" horiz-adv-x="726" 
d="M404 343q18 0 31 -8.5t17 -21.5l71 -231h7l114 380q7 22 23.5 35t35.5 13t28.5 -11t9.5 -28q0 -10 -7 -31l-131 -400q-6 -17 -24.5 -28.5t-40.5 -11.5h-44q-39 0 -52 40l-58 197l-136 -197q-27 -40 -66 -40h-44q-22 0 -36.5 10.5t-14.5 27.5q0 8 1 21l22 381q2 30 17 50
t44 20q16 0 28 -10.5t12 -28.5q0 -7 -1 -17l-32 -372h7l161 231q21 30 58 30zM422 578l-82 92q-8 8 -8 22q0 18 15 33t34 15q15 0 25 -11l83 -93q9 -9 9 -23q0 -20 -15 -34t-35 -14q-15 0 -26 13z" />
    <glyph glyph-name="Wacute" unicode="&#x1e82;" horiz-adv-x="860" 
d="M881 653l-156 -603q-6 -22 -22 -36t-37 -14h-32q-26 0 -40 27l-139 264l-241 -264q-24 -27 -51 -27h-40q-18 0 -28.5 11.5t-10.5 29.5q0 1 0.5 4t0.5 5l78 610q3 23 19 36.5t39 13.5q18 0 28.5 -11t10.5 -29q0 -2 -0.5 -5t-0.5 -5l-72 -542l224 249q28 31 61 31
q34 0 49 -31l127 -251l139 544q5 22 21 36t36 14q18 0 29 -11t11 -28q0 -7 -3 -18zM667 864l-114 -89q-14 -11 -30 -11q-17 0 -28 10.5t-11 26.5q0 23 20 38l116 89q16 12 30 12q16 0 27 -11t11 -27q0 -22 -21 -38z" />
    <glyph glyph-name="wacute" unicode="&#x1e83;" horiz-adv-x="726" 
d="M404 343q18 0 31 -8.5t17 -21.5l71 -231h7l114 380q7 22 23.5 35t35.5 13t28.5 -11t9.5 -28q0 -10 -7 -31l-131 -400q-6 -17 -24.5 -28.5t-40.5 -11.5h-44q-39 0 -52 40l-58 197l-136 -197q-27 -40 -66 -40h-44q-22 0 -36.5 10.5t-14.5 27.5q0 8 1 21l22 381q2 30 17 50
t44 20q16 0 28 -10.5t12 -28.5q0 -7 -1 -17l-32 -372h7l161 231q21 30 58 30zM587 664l-114 -89q-14 -11 -30 -11q-17 0 -28 10.5t-11 26.5q0 23 20 38l116 89q16 12 30 12q16 0 27 -11t11 -27q0 -22 -21 -38z" />
    <glyph glyph-name="Wdieresis" unicode="&#x1e84;" horiz-adv-x="860" 
d="M881 653l-156 -603q-6 -22 -22 -36t-37 -14h-32q-26 0 -40 27l-139 264l-241 -264q-24 -27 -51 -27h-40q-18 0 -28.5 11.5t-10.5 29.5q0 1 0.5 4t0.5 5l78 610q3 23 19 36.5t39 13.5q18 0 28.5 -11t10.5 -29q0 -2 -0.5 -5t-0.5 -5l-72 -542l224 249q28 31 61 31
q34 0 49 -31l127 -251l139 544q5 22 21 36t36 14q18 0 29 -11t11 -28q0 -7 -3 -18zM402 836q0 26 21 47t48 21q20 0 33.5 -13.5t13.5 -33.5q0 -27 -21.5 -47t-47.5 -20q-21 0 -34 13t-13 33zM597 836q0 26 21 47t48 21q21 0 34 -13t13 -33q0 -27 -21 -47.5t-48 -20.5
q-20 0 -33.5 13t-13.5 33z" />
    <glyph glyph-name="wdieresis" unicode="&#x1e85;" horiz-adv-x="726" 
d="M404 343q18 0 31 -8.5t17 -21.5l71 -231h7l114 380q7 22 23.5 35t35.5 13t28.5 -11t9.5 -28q0 -10 -7 -31l-131 -400q-6 -17 -24.5 -28.5t-40.5 -11.5h-44q-39 0 -52 40l-58 197l-136 -197q-27 -40 -66 -40h-44q-22 0 -36.5 10.5t-14.5 27.5q0 8 1 21l22 381q2 30 17 50
t44 20q16 0 28 -10.5t12 -28.5q0 -7 -1 -17l-32 -372h7l161 231q21 30 58 30zM306 636q0 26 21 47t48 21q20 0 33.5 -13.5t13.5 -33.5q0 -27 -21.5 -47t-47.5 -20q-21 0 -34 13t-13 33zM501 636q0 26 21 47t48 21q21 0 34 -13t13 -33q0 -27 -21 -47.5t-48 -20.5
q-20 0 -33.5 13t-13.5 33z" />
    <glyph glyph-name="Ygrave" unicode="&#x1ef2;" horiz-adv-x="653" 
d="M254 49l47 244l-179 335q-9 16 -9 30q0 22 14.5 37t38.5 15q25 0 36 -20l162 -305l283 307q18 18 40 18q18 0 29 -10q12 -12 12 -28q0 -20 -18 -40l-312 -335l-50 -258q-4 -21 -19 -35t-37 -14q-17 0 -28.5 11t-11.5 28q0 8 2 20zM419 778l-82 92q-8 8 -8 22q0 18 15 33
t34 15q15 0 25 -11l83 -93q9 -9 9 -23q0 -20 -15 -34t-35 -14q-15 0 -26 13z" />
    <glyph glyph-name="ygrave" unicode="&#x1ef3;" horiz-adv-x="548" 
d="M585 437l-323 -562q-55 -95 -148 -95h-34q-16 0 -25.5 10t-9.5 26q0 20 15 34.5t36 14.5h25q20 0 32 8t23 28l68 117q-61 0 -71 43l-86 376q-3 12 -3 21q0 22 16.5 37t39.5 15q32 0 40 -32l88 -404h8l230 404q18 32 53 32q17 0 28 -11t11 -28q0 -11 -13 -34zM347 578
l-82 92q-8 8 -8 22q0 18 15 33t34 15q15 0 25 -11l83 -93q9 -9 9 -23q0 -20 -15 -34t-35 -14q-15 0 -26 13z" />
    <glyph glyph-name="figuredash" unicode="&#x2012;" horiz-adv-x="430" 
d="M346 211h-228q-16 0 -25.5 9.5t-9.5 24.5q0 19 15.5 33.5t35.5 14.5h228q14 0 23.5 -10t9.5 -24q0 -19 -15.5 -33.5t-33.5 -14.5z" />
    <glyph glyph-name="endash" unicode="&#x2013;" horiz-adv-x="506" 
d="M481 211h-423q-16 0 -25.5 9.5t-9.5 24.5q0 19 15.5 33.5t35.5 14.5h423q14 0 24 -10t10 -24q0 -19 -15.5 -33.5t-34.5 -14.5z" />
    </font>
</defs>
</svg>
